<?xml version="1.0" encoding="UTF-8"?>
<svg width="14px" height="14px" viewBox="0 0 14 14" version="1.1" xmlns="http://www.w3.org/2000/svg" xmlns:xlink="http://www.w3.org/1999/xlink">
    <title></title>
    <g id="页面-1" stroke="none" stroke-width="1" fill="" fill-rule="evenodd">
        <g id="纳管库弹窗" transform="translate(-695.000000, -220.000000)" fill="#1AB394">
            <path d="M701.993205,220.013659 C698.117783,220.013659 695,223.131441 695,227.006863 C695,230.8822 698.117783,233.999983 701.993205,233.999983 C705.868541,233.999983 708.986324,230.8822 708.986324,227.006863 C708.986324,223.131441 705.868541,220.013659 701.993205,220.013659 Z M706.363937,225.25852 L701.730893,229.891495 C701.410378,230.21201 700.82762,230.21201 700.507105,229.891495 L697.622473,227.006863 C697.622473,227.006863 697.185366,226.569756 697.622473,226.132649 C698.059495,225.695627 698.496602,226.132649 698.496602,226.132649 L701.11899,228.755122 L705.489722,224.38439 C705.489722,224.38439 705.926829,223.947283 706.363937,224.38439 C706.800959,224.821498 706.363937,225.25852 706.363937,225.25852 Z" id="Fill-1"></path>
        </g>
    </g>
</svg>