<?xml version="1.0" encoding="UTF-8"?>
<svg width="16px" height="16px" viewBox="0 0 16 16" version="1.1" xmlns="http://www.w3.org/2000/svg" xmlns:xlink="http://www.w3.org/1999/xlink">
    <title></title>
    <g id="页面-1" stroke="none" stroke-width="1" fill="" fill-rule="evenodd">
        <g id="小内容" transform="translate(-801.000000, -135.000000)" fill="">
            <g id="编组-3" transform="translate(758.000000, 62.000000)">
                <path d="M51.0000893,73 C46.5816785,73 43,76.5816735 43,81.0000782 C43,85.4183265 46.5816785,89 51.0000893,89 C55.4183215,89 59,85.4183265 59,81.0000782 C59,76.5816735 55.4183215,73 51.0000893,73 Z M51.0001787,84.9999944 C50.6320969,84.9999944 50.3333836,84.7012815 50.3333836,84.3331333 C50.3333836,83.9651413 50.6320969,83.6663391 51.0001787,83.6663391 C51.3683275,83.6663391 51.6666164,83.9651413 51.6666164,84.3331333 C51.6666164,84.7012815 51.3683275,84.9999944 51.0001787,84.9999944 Z M51.6666164,82.0000461 C51.6666164,82.368105 51.3683275,82.6663042 51.0001787,82.6663042 C50.6320969,82.6663042 50.3333836,82.368105 50.3333836,82.0000461 L50.3333836,77.6664424 C50.3333836,77.2982718 50.6320969,77.0000056 51.0001787,77.0000056 C51.3683275,77.0000056 51.6666164,77.2982718 51.6666164,77.6664424 L51.6666164,82.0000461 Z" id="Fill-1"></path>
            </g>
        </g>
    </g>
</svg>