<?xml version="1.0" encoding="UTF-8"?>
<svg width="14px" height="14px" viewBox="0 0 14 14" version="1.1" xmlns="http://www.w3.org/2000/svg" xmlns:xlink="http://www.w3.org/1999/xlink">
    <title></title>
    <g id="页面-1" stroke="none" stroke-width="1" fill="" fill-rule="evenodd">
        <g id="纳管库弹窗" transform="translate(-695.000000, -422.000000)" fill="#ED5565">
            <path d="M706.938747,424.060758 C704.207853,421.329959 699.780467,421.329959 697.049592,424.060758 C694.316777,426.791652 694.316777,431.221035 697.049592,433.951853 C699.782408,436.682728 704.209793,436.682728 706.940668,433.951853 C709.671486,431.221035 709.671486,426.791652 706.938747,424.060758 Z M705.041538,431.197639 C705.277236,431.433318 705.277236,431.817024 705.041538,432.052723 C704.805859,432.288421 704.422152,432.288421 704.186454,432.052723 L701.993171,429.861438 L699.801867,432.052723 C699.566187,432.288421 699.182481,432.288421 698.946783,432.052723 C698.711103,431.817024 698.711103,431.433318 698.946783,431.197639 L701.140008,429.006353 L698.946783,426.815049 C698.711103,426.57937 698.711103,426.195587 698.946783,425.959889 C699.182481,425.724285 699.566187,425.724285 699.801867,425.959889 L701.993171,428.15125 L704.184457,425.959889 C704.420136,425.724285 704.803918,425.724285 705.039617,425.959889 C705.275315,426.195587 705.275315,426.57937 705.039617,426.815049 L702.848255,429.006353 L705.041538,431.197639 Z" id="Fill-1"></path>
        </g>
    </g>
</svg>