<?xml version="1.0" encoding="UTF-8"?>
<svg width="14px" height="14px" viewBox="0 0 14 14" version="1.1" xmlns="http://www.w3.org/2000/svg" xmlns:xlink="http://www.w3.org/1999/xlink">
    <title>增加</title>
    <g id="页面-1" stroke="none" stroke-width="1" fill="none" fill-rule="evenodd">
        <g id="SQL执行01-v0321" transform="translate(-594.000000, -82.000000)" fill="#9BA3AF" fill-rule="nonzero">
            <path d="M601,82 C601.483249,82 601.875,82.3917508 601.875,82.875 L601.875,88.125 L607.125,88.125 C607.608249,88.125 608,88.5167508 608,89 C608,89.4832492 607.608249,89.875 607.125,89.875 L601.875,89.875 L601.875,95.125 C601.875,95.6082492 601.483249,96 601,96 C600.516751,96 600.125,95.6082492 600.125,95.125 L600.125,89.875 L594.875,89.875 C594.391751,89.875 594,89.4832492 594,89 C594,88.5167508 594.391751,88.125 594.875,88.125 L600.125,88.125 L600.125,82.875 C600.125,82.3917508 600.516751,82 601,82 Z" id="形状结合"></path>
        </g>
    </g>
</svg>