<?xml version="1.0" encoding="UTF-8"?>
<svg width="14px" height="14px" viewBox="0 0 14 14" version="1.1" xmlns="http://www.w3.org/2000/svg" xmlns:xlink="http://www.w3.org/1999/xlink">
    <title></title>
    <g id="页面-1" stroke="none" stroke-width="1" fill="" fill-rule="evenodd">
        <g id="添加库（高级配置）" transform="translate(-983.000000, -1299.000000)" fill="">
            <g id="关联应用系统" transform="translate(472.000000, 1289.000000)">
                <g id="清除" transform="translate(511.000000, 10.000000)">
                    <path d="M7,0 C10.8659932,0 14,3.13400675 14,7 C14,10.8659932 10.8659932,14 7,14 C3.13400675,14 0,10.8659932 0,7 C0,3.13400675 3.13400675,0 7,0 Z M7,1 C3.6862915,1 1,3.6862915 1,7 C1,10.3137085 3.6862915,13 7,13 C10.3137085,13 13,10.3137085 13,7 C13,3.6862915 10.3137085,1 7,1 Z M9.33333333,3.81801948 L10,4.52512627 L7.666,6.999 L10,9.47487373 L9.33333333,10.1819805 L7,7.706 L4.66666667,10.1819805 L4,9.47487373 L6.333,6.999 L4,4.52512627 L4.66666667,3.81801948 L7,6.293 L9.33333333,3.81801948 Z" id="形状结合"></path>
                </g>
            </g>
        </g>
    </g>
</svg>