<?xml version="1.0" encoding="UTF-8"?>
<svg width="10px" height="10px" viewBox="0 0 10 10" version="1.1" xmlns="http://www.w3.org/2000/svg" xmlns:xlink="http://www.w3.org/1999/xlink">
    <title></title>
    <g id="页面-1" stroke="none" stroke-width="1" fill="" fill-rule="evenodd">
        <g id="查询工具配置-编辑工具" transform="translate(-796.000000, -418.000000)" fill="" fill-rule="nonzero">
            <path d="M805.720663,418.279337 C806.093112,418.651787 806.093112,419.255648 805.720663,419.628098 L802.348761,423 L805.720663,426.371902 C806.093112,426.744352 806.093112,427.348213 805.720663,427.720663 C805.348213,428.093112 804.744352,428.093112 804.371902,427.720663 L801,424.348761 L797.628098,427.720663 C797.255648,428.093112 796.651787,428.093112 796.279337,427.720663 C795.906888,427.348213 795.906888,426.744352 796.279337,426.371902 L799.651239,423 L796.279337,419.628098 C795.906888,419.255648 795.906888,418.651787 796.279337,418.279337 C796.651787,417.906888 797.255648,417.906888 797.628098,418.279337 L801,421.651239 L804.371902,418.279337 C804.744352,417.906888 805.348213,417.906888 805.720663,418.279337 Z" id="路径"></path>
        </g>
    </g>
</svg>