<?xml version="1.0" encoding="UTF-8"?>
<svg width="14px" height="14px" viewBox="0 0 14 14" version="1.1" xmlns="http://www.w3.org/2000/svg" xmlns:xlink="http://www.w3.org/1999/xlink">
    <title>收起全部节点</title>
    <g id="页面-1" stroke="none" stroke-width="1" fill="" fill-rule="evenodd">
        <g id="SQL执行01" transform="translate(-425.000000, -91.000000)" fill="" fill-rule="nonzero">
            <g id="编组" transform="translate(220.000000, 71.000000)">
                <g transform="translate(205.000000, 20.000000)" id="收起节点">
                    <path d="M10.2666667,2.8 C10.7821324,2.8 11.2,3.21786757 11.2,3.73333333 L11.2,13.0666667 C11.2,13.5821324 10.7821324,14 10.2666667,14 L0.933333333,14 C0.417867567,14 0,13.5821324 0,13.0666667 L0,3.73333333 C0,3.21786757 0.417867567,2.8 0.933333333,2.8 L10.2666667,2.8 Z M13.0666667,0 C13.5821324,0 14,0.417867567 14,0.933333333 L14,10.2666667 C14,10.7821324 13.5821324,11.2 13.0666667,11.2 C12.8089338,11.2 12.6,10.9910662 12.6,10.7333333 L12.6,2.33333333 C12.6,1.83348774 12.207074,1.42541493 11.7132494,1.40114224 L11.6666667,1.4 L3.26666667,1.4 C3.02064891,1.4 2.8190948,1.20962852 2.80128001,0.968161214 L2.8,0.933333333 C2.8,0.417867567 3.21786757,0 3.73333333,0 L13.0666667,0 Z M6.06505097,6.26689983 C5.80161967,6.03232374 5.40350263,6.03119597 5.13877628,6.26351652 L5.10502525,6.2951431 L1.47521044,9.92495791 L1.44696717,9.95488169 C1.21239108,10.218313 1.21126331,10.61643 1.44358386,10.8811564 L1.47521044,10.9149074 L1.50513422,10.9431507 C1.76856552,11.1777268 2.16668256,11.1788545 2.43140891,10.946534 L2.46515994,10.9149074 L5.59969406,7.78009139 L8.73484006,10.9149074 L8.76476384,10.9431507 C9.03964867,11.1879257 9.46118566,11.1785113 9.72478956,10.9149074 C9.98722188,10.6524751 9.99771917,10.2335104 9.75628144,9.95855548 L9.72478956,9.92495791 L6.09497475,6.2951431 L6.06505097,6.26689983 Z" id="形状"></path>
                </g>
            </g>
        </g>
    </g>
</svg>