<?xml version="1.0" encoding="UTF-8"?>
<svg width="60px" height="60px" viewBox="0 0 60 60" version="1.1" xmlns="http://www.w3.org/2000/svg" xmlns:xlink="http://www.w3.org/1999/xlink">
    <title></title>
    <g id="页面-1" stroke="none" stroke-width="1" fill="" fill-rule="evenodd">
        <g id="ICON" transform="translate(-886.000000, -296.000000)" fill="" fill-rule="nonzero">
            <path d="M944,296 C945.104569,296 946,296.895431 946,298 L946,344 C946,345.104569 945.104569,346 944,346 L934,346 L934,354 C934,355.104569 933.104569,356 932,356 L888,356 C886.895431,356 886,355.104569 886,354 L886,308 C886,306.895431 886.895431,306 888,306 L898,306 L898,298 C898,296.895431 898.895431,296 900,296 L944,296 Z M929,310 L891,310 C890.487164,310 890.064493,310.38604 890.006728,310.883379 L890,311 L890,351 C890,351.512836 890.38604,351.935507 890.883379,351.993272 L891,352 L929,352 C929.512836,352 929.935507,351.61396 929.993272,351.116621 L930,351 L930,311 C930,310.447715 929.552285,310 929,310 Z M909,341 C910.104569,341 911,341.895431 911,343 C911,344.104569 910.104569,345 909,345 L897,345 C895.895431,345 895,344.104569 895,343 C895,341.895431 895.895431,341 897,341 L909,341 Z M941,300 L903,300 C902.487164,300 902.064493,300.38604 902.006728,300.883379 L902,301 L902,306 L932,306 C933.104569,306 934,306.895431 934,308 L934,342 L941,342 C941.512836,342 941.935507,341.61396 941.993272,341.116621 L942,341 L942,301 C942,300.447715 941.552285,300 941,300 Z M923,329 C924.104569,329 925,329.895431 925,331 C925,332.104569 924.104569,333 923,333 L897,333 C895.895431,333 895,332.104569 895,331 C895,329.895431 895.895431,329 897,329 L923,329 Z M923,317 C924.104569,317 925,317.895431 925,319 C925,320.104569 924.104569,321 923,321 L897,321 C895.895431,321 895,320.104569 895,319 C895,317.895431 895.895431,317 897,317 L923,317 Z" id="形状结合"></path>
        </g>
    </g>
</svg>