<?xml version="1.0" encoding="UTF-8"?>
<svg width="14px" height="14px" viewBox="0 0 14 14" version="1.1" xmlns="http://www.w3.org/2000/svg" xmlns:xlink="http://www.w3.org/1999/xlink">
    <title></title>
    <g id="页面-1" stroke="none" stroke-width="1" fill="" fill-rule="evenodd">
        <g id="定-首页1600-1202-2" transform="translate(-130.000000, -683.000000)" fill="" fill-rule="nonzero">
            <g id="创建工具" transform="translate(130.000000, 683.000000)">
                <path d="M13.0666667,0 C13.3243995,0 13.5333333,0.208933783 13.5333333,0.466666667 L13.5333333,13.5333333 C13.5333333,13.7910662 13.3243995,14 13.0666667,14 L0.933333333,14 C0.67560045,14 0.466666667,13.7910662 0.466666667,13.5333333 L0.466666667,0.466666667 C0.466666667,0.208933783 0.67560045,0 0.933333333,0 L13.0666667,0 Z M12.5996667,10.5 L1.39966667,10.5 L1.4,13.0666667 L7.7,13.0666667 L7.7,13.0666667 L7.7,12.1333333 C7.7,11.8756005 7.90893378,11.6666667 8.16666667,11.6666667 C8.42439955,11.6666667 8.63333333,11.8756005 8.63333333,12.1333333 L8.63333333,13.0666667 L10.0333333,13.0666667 L10.0333333,13.0666667 L10.0333333,12.1333333 C10.0333333,11.8756005 10.2422671,11.6666667 10.5,11.6666667 C10.7577329,11.6666667 10.9666667,11.8756005 10.9666667,12.1333333 L10.9666667,13.0666667 L12.6,13.0666667 L12.5996667,10.5 Z M12.6,0.933333333 L1.4,0.933333333 L1.39966667,9.566 L12.5996667,9.566 L12.6,0.933333333 Z M9.72688415,2.07107382 L9.06115571,2.7364018 L8.57988653,3.21770202 C8.49527294,3.30231562 8.48922911,3.43574621 8.56175505,3.52733366 L8.57988653,3.54768519 C8.66450013,3.63229878 8.79793072,3.63834261 8.88951818,3.56581667 L8.9098697,3.54768519 L10.0567959,2.40105127 C10.8076336,3.31758492 10.755308,4.67209537 9.89981919,5.52758417 C9.28942911,6.13797425 8.42499695,6.33948977 7.64686685,6.13213072 L5.28005489,8.49743265 C4.82444321,8.95304433 4.08575074,8.95304433 3.63013907,8.49743265 C3.17452739,8.04182098 3.17452739,7.3031285 3.63013907,6.84751683 L5.99564776,4.48148021 C5.78794813,3.70314905 5.98939472,2.83834535 6.59998755,2.22775253 C7.45558951,1.37215056 8.81034516,1.31992433 9.72688415,2.07107382 Z M7.97106021,2.50556317 C7.71048935,2.55826656 7.46202094,2.68565179 7.25995388,2.88771886 C6.76968544,3.3779873 6.71905152,4.14140961 7.10805211,4.68809959 L7.09331238,4.70144775 L7.09449089,4.70262626 L6.43499596,5.36259259 L4.29010539,7.50748316 C4.2054918,7.59209676 4.19944797,7.72552735 4.27197391,7.8171148 L4.29010539,7.83746632 C4.37471899,7.92207992 4.50814958,7.92812375 4.59973704,7.85559781 L4.62008856,7.83746632 L6.76497913,5.69257575 L7.43865103,5.0189349 C7.98539748,5.4085708 8.74933892,5.35813179 9.23985286,4.86761784 C9.44222843,4.66524228 9.56969395,4.41632358 9.62224942,4.15531797 L9.56983603,4.20765151 C9.11422435,4.66326319 8.37553188,4.66326319 7.9199202,4.20765151 C7.46430853,3.75203984 7.46430853,3.01334737 7.9199202,2.55773569 L7.97106021,2.50556317 Z" id="形状结合"></path>
            </g>
        </g>
    </g>
</svg>