<?xml version="1.0" encoding="UTF-8"?>
<svg width="37px" height="37px" viewBox="0 0 37 37" version="1.1" xmlns="http://www.w3.org/2000/svg" xmlns:xlink="http://www.w3.org/1999/xlink">
    <title>工具</title>
    <g id="页面-1" stroke="none" stroke-width="1" fill="none" fill-rule="evenodd">
        <g id="首页-个人" transform="translate(-681.000000, -82.000000)" fill="#1AB394" fill-rule="nonzero">
            <g id="工具" transform="translate(681.000000, 82.000000)">
                <path d="M21.3436224,0.999225894 C19.3040748,2.64916638 18,5.1722917 18,8 C18,8.68735782 18.0770547,9.35671855 18.2229972,9.99991538 L7,10 C6.44771525,10 6,10.4477153 6,11 C6,11.5128358 6.38604019,11.9355072 6.88337887,11.9932723 L7,12 L18.9356594,12.0002811 C20.4084157,14.9635658 23.4663905,17 27,17 C27.3382478,17 27.6721373,16.9813404 28.0006955,16.9449943 L28,33 C28,35.209139 26.209139,37 24,37 L4,37 C1.790861,37 1.97446151e-13,35.209139 1.97175609e-13,33 L1.97175609e-13,5 C1.96905068e-13,2.790861 1.790861,1 4,1 L21.3436224,0.999225894 Z M21,30 L7,30 C6.44771525,30 6,30.4477153 6,31 C6,31.5128358 6.38604019,31.9355072 6.88337887,31.9932723 L7,32 L21,32 C21.5522847,32 22,31.5522847 22,31 C22,30.4477153 21.5522847,30 21,30 Z M21,23 L7,23 C6.44771525,23 6,23.4477153 6,24 C6,24.5128358 6.38604019,24.9355072 6.88337887,24.9932723 L7,25 L21,25 C21.5522847,25 22,24.5522847 22,24 C22,23.4477153 21.5522847,23 21,23 Z M21,17 L7,17 C6.44771525,17 6,17.4477153 6,18 C6,18.5128358 6.38604019,18.9355072 6.88337887,18.9932723 L7,19 L21,19 C21.5522847,19 22,18.5522847 22,18 C22,17.4477153 21.5522847,17 21,17 Z M32.1819805,2.78248558 C34.6753252,5.27583028 34.8945228,9.18214885 32.8395733,11.9239313 L35.7175144,14.8033009 C36.1080387,15.1938252 36.1080387,15.8269901 35.7175144,16.2175144 C35.3548847,16.5801441 34.7830393,16.6060462 34.3905217,16.2952208 L34.3033009,16.2175144 L31.4247411,13.3389663 C28.682918,15.394566 24.7760758,15.1755707 22.2824856,12.6819805 C19.5488155,9.94831047 19.5488155,5.51615562 22.2824856,2.78248558 C25.0161556,0.0488155366 29.4483105,0.0488155366 32.1819805,2.78248558 Z M23.6966991,4.19669914 C21.7440777,6.1493206 21.7440777,9.31514549 23.6966991,11.267767 C25.6493206,13.2203884 28.8151455,13.2203884 30.767767,11.267767 C32.7203884,9.31514549 32.7203884,6.1493206 30.767767,4.19669914 C28.8151455,2.24407768 25.6493206,2.24407768 23.6966991,4.19669914 Z" id="形状结合"></path>
            </g>
        </g>
    </g>
</svg>