<?xml version="1.0" encoding="UTF-8"?>
<svg width="36px" height="36px" viewBox="0 0 36 36" version="1.1" xmlns="http://www.w3.org/2000/svg" xmlns:xlink="http://www.w3.org/1999/xlink">
    <title>下载工单申请</title>
    <g id="2023" stroke="none" stroke-width="1" fill="none" fill-rule="evenodd">
        <g id="首页-个人" transform="translate(-1095.000000, -85.000000)" fill="#1AB394">
            <g id="下载工单申请" transform="translate(1095.000000, 85.000000)">
                <path d="M30,0 C31.1045695,0 32,0.8954305 32,2 L32,13.25 L10.25,36 L4,36 C2.8954305,36 2,35.1045695 2,34 L2,2 C2,0.8954305 2.8954305,0 4,0 L30,0 Z M18.9465579,36 C18.3133314,36 17.8,35.4866686 17.8,34.8534421 L17.8,31.5408012 C17.8,31.2367151 17.9207977,30.9450836 18.135819,30.7300623 L29.7300623,19.135819 C30.177821,18.6880603 30.9037813,18.6880603 31.35154,19.135819 L34.664181,22.44846 C35.1119397,22.8962187 35.1119397,23.622179 34.664181,24.0699377 L24.733,34 L31,34 C31.5522847,34 32,34.4477153 32,35 C32,35.5522847 31.5522847,36 31,36 L18.9465579,36 Z M27.844,24.248 L20,32.092 L20,33.8 L21.708,33.799 L29.551,25.955 L27.844,24.248 Z M30.6,21.249 L29.248,22.6 L31.199,24.551 L32.551,23.2 L30.6,21.249 Z M13,18 L7,18 C6.44771525,18 6,18.4477153 6,19 C6,19.5522847 6.44771525,20 7,20 L13,20 C13.5522847,20 14,19.5522847 14,19 C14,18.4477153 13.5522847,18 13,18 Z M18,12 L7,12 C6.44771525,12 6,12.4477153 6,13 C6,13.5522847 6.44771525,14 7,14 L18,14 C18.5522847,14 19,13.5522847 19,13 C19,12.4477153 18.5522847,12 18,12 Z M23,6 L7,6 C6.44771525,6 6,6.44771525 6,7 C6,7.55228475 6.44771525,8 7,8 L23,8 C23.5522847,8 24,7.55228475 24,7 C24,6.44771525 23.5522847,6 23,6 Z" id="形状结合"></path>
            </g>
        </g>
    </g>
</svg>