<?xml version="1.0" encoding="UTF-8"?>
<svg width="36px" height="36px" viewBox="0 0 36 36" version="1.1" xmlns="http://www.w3.org/2000/svg" xmlns:xlink="http://www.w3.org/1999/xlink">
    <title>脚本</title>
    <g id="页面-1" stroke="none" stroke-width="1" fill="none" fill-rule="evenodd">
        <g id="首页-管理员" transform="translate(-461.000000, -83.000000)" fill="#1AB394" fill-rule="nonzero">
            <g id="脚本" transform="translate(461.000000, 83.000000)">
                <path d="M33.6,7.2 C34.9254834,7.2 36,8.2745166 36,9.6 L36,33.6 C36,34.9254834 34.9254834,36 33.6,36 L2.4,36 C1.0745166,36 0,34.9254834 0,33.6 L0,9.6 C0,8.2745166 1.0745166,7.2 2.4,7.2 L33.6,7.2 Z M9.45353665,14.2552791 L9.37720779,14.3253788 L3.01324676,20.6893398 L2.95224751,20.7549939 C2.56817817,21.2002485 2.56497759,21.8606317 2.94264578,22.3094718 L3.01324676,22.3863961 L9.37720779,28.7503571 L9.44286184,28.8113564 C9.88811645,29.1954257 10.5484997,29.1986263 10.9973398,28.8209581 L11.0742641,28.7503571 L11.1352633,28.6847031 C11.5193327,28.2394485 11.5225332,27.5790652 11.1448651,27.1302251 L11.0742641,27.0533009 L5.5586417,21.5372995 L11.0742641,16.0224351 L11.1352633,15.956781 C11.541925,15.485335 11.5215919,14.7727066 11.0742641,14.3253788 C10.6302996,13.8814143 9.92500912,13.8580478 9.45353665,14.2552791 Z M24.9772078,14.3253788 C24.52988,14.7727066 24.5095469,15.485335 24.9162085,15.956781 L24.9772078,16.0224351 L30.4928302,21.5372995 L24.9772078,27.0533009 C24.52988,27.5006287 24.5095469,28.213257 24.9162085,28.6847031 L24.9772078,28.7503571 C25.4245356,29.197685 26.137164,29.218018 26.60861,28.8113564 L26.6742641,28.7503571 L33.0382251,22.3863961 C33.4855529,21.9390683 33.505886,21.2264399 33.0992243,20.7549939 L33.0382251,20.6893398 L26.6742641,14.3253788 C26.2056349,13.8567496 25.4458369,13.8567496 24.9772078,14.3253788 Z M18.3946607,14.8327015 L18.36158,14.9205267 L14.16158,27.5205267 L14.1353495,27.6106352 C13.985019,28.2129152 14.3217343,28.8388225 14.9205267,29.03842 C15.519319,29.2380174 16.1642357,28.9393207 16.4053393,28.3672985 L16.43842,28.2794733 L20.63842,15.6794733 L20.6646505,15.5893648 C20.814981,14.9870848 20.4782657,14.3611775 19.8794733,14.16158 C19.280681,13.9619826 18.6357643,14.2606793 18.3946607,14.8327015 Z M33.6,0 C34.9254834,0 36,1.0745166 36,2.4 C36,3.7254834 34.9254834,4.8 33.6,4.8 L2.4,4.8 C1.0745166,4.8 0,3.7254834 0,2.4 C0,1.0745166 1.0745166,0 2.4,0 L33.6,0 Z" id="形状"></path>
            </g>
        </g>
    </g>
</svg>