<?xml version="1.0" encoding="UTF-8"?>
<svg width="36px" height="36px" viewBox="0 0 36 36" version="1.1" xmlns="http://www.w3.org/2000/svg" xmlns:xlink="http://www.w3.org/1999/xlink">
    <title>大文件导入</title>
    <g id="2022" stroke="none" stroke-width="1" fill="none" fill-rule="evenodd">
        <g id="首页-个人" transform="translate(-1121.000000, -83.000000)" fill="#1AB394">
            <g id="大文件导入" transform="translate(1121.000000, 83.000000)">
                <path d="M21,6 L21,16 C21,17.1045695 21.8954305,18 23,18 L33,18 L33,34 C33,35.1045695 32.1045695,36 31,36 L11,36 C9.8954305,36 9,35.1045695 9,34 L9,8 C9,6.8954305 9.8954305,6 11,6 L21,6 Z M21.081,21.003 L21,21 L20.909968,21.003998 L20.7992059,21.0201652 L20.6882636,21.0495467 L20.628664,21.0712255 L20.5159379,21.1246712 L20.4793398,21.1460674 C20.453725,21.1617187 20.4288693,21.1784901 20.4046934,21.1963346 L20.2928932,21.2928932 L15.2928932,26.2928932 C14.9023689,26.6834175 14.9023689,27.3165825 15.2928932,27.7071068 L15.380114,27.7848131 C15.7726317,28.0956386 16.3444771,28.0697365 16.7071068,27.7071068 L20,24.414 L20,33 C20,33.5522847 20.4477153,34 21,34 C21.5522847,34 22,33.5522847 22,33 L22,24.414 L25.2928932,27.7071068 C25.6834175,28.0976311 26.3165825,28.0976311 26.7071068,27.7071068 C27.0976311,27.3165825 27.0976311,26.6834175 26.7071068,26.2928932 L21.7071068,21.2928932 L21.6170223,21.2129277 L21.5207088,21.1459955 L21.4540068,21.1087576 L21.3416665,21.0598946 L21.2658396,21.035721 L21.1489612,21.0110193 L21.081,21.003 Z M25,0 C26.1045695,0 27,0.8954305 27,2 L27,4 L9,4 C7.9456382,4 7.08183488,4.81587779 7.00548574,5.85073766 L7,6 L7,30 L5,30 C3.8954305,30 3,29.1045695 3,28 L3,2 C3,0.8954305 3.8954305,0 5,0 L25,0 Z M23,6 L33,16 L25,16 C23.8954305,16 23,15.1045695 23,14 L23,6 Z" id="形状"></path>
            </g>
        </g>
    </g>
</svg>