<?xml version="1.0" encoding="UTF-8"?>
<svg width="36px" height="36px" viewBox="0 0 36 36" version="1.1" xmlns="http://www.w3.org/2000/svg" xmlns:xlink="http://www.w3.org/1999/xlink">
    <title>数据导入</title>
    <g id="页面-1" stroke="none" stroke-width="1" fill="none" fill-rule="evenodd">
        <g id="首页-个人" transform="translate(-901.000000, -83.000000)" fill="#1AB394" fill-rule="nonzero">
            <g id="数据导入" transform="translate(901.000000, 83.000000)">
                <path d="M0,23 C0,25.4804884 5.78003076,27.5391022 13.3607525,27.9322978 C14.242093,31.4406624 16.6674356,34.3354258 19.872264,35.852374 C18.6327849,35.9488679 17.3355005,36 16,36 C7.163444,36 0,33.7614237 0,31 L0,23 Z M26,15 C31.5228475,15 36,19.4771525 36,25 C36,30.5228475 31.5228475,35 26,35 C20.4771525,35 16,30.5228475 16,25 C16,19.4771525 20.4771525,15 26,15 Z M23.3284271,20.2928932 L20.3284271,23.2928932 C19.3856181,24.2357023 19.3856181,25.7642977 20.3284271,26.7071068 L23.3284271,29.7071068 C23.7189514,30.0976311 24.3521164,30.0976311 24.7426407,29.7071068 C25.133165,29.3165825 25.133165,28.6834175 24.7426407,28.2928932 L22.4503203,26 L31,26 C31.5522847,26 32,25.5522847 32,25 C32,24.4477153 31.5522847,24 31,24 L22.4493203,24 L24.7426407,21.7071068 C25.133165,21.3165825 25.133165,20.6834175 24.7426407,20.2928932 C24.3521164,19.9023689 23.7189514,19.9023689 23.3284271,20.2928932 Z M0,12 C0,14.7189403 6.94472583,16.930997 15.593367,16.9984167 L16.0554921,17.0000915 C14.1735688,19.1027852 13.0221866,21.8730187 13.0003172,24.9118204 C5.59790623,24.4736112 0,22.4410964 0,20 L0,12 Z M15.593367,0.00158327407 L16,0 C24.836556,0 32,2.23857625 32,5 L32,10 L31.6795118,10.0006621 C30.1962281,12.2825725 23.7399167,14 16,14 C8.26008326,14 1.80377188,12.2825725 0.320488201,10.0006621 L0,10 L0,5 L0.00506647701,4.87292717 C0.217438677,2.21245652 7.07986085,0.0679495866 15.593367,0.00158327407 Z" id="形状"></path>
            </g>
        </g>
    </g>
</svg>