<?xml version="1.0" encoding="UTF-8"?>
<svg width="14px" height="14px" viewBox="0 0 14 14" version="1.1" xmlns="http://www.w3.org/2000/svg" xmlns:xlink="http://www.w3.org/1999/xlink">
    <title>首页</title>
    <g id="页面-1" stroke="none" stroke-width="1" fill="" fill-rule="evenodd">
        <g id="首页-个人" transform="translate(-20.000000, -71.000000)" fill="" fill-rule="nonzero">
            <g id="形状" transform="translate(20.000000, 71.000000)">
                <path d="M11.9,7 C12.1460178,7 12.3475719,7.19037148 12.3653867,7.43183879 L12.3666667,7.46666667 L12.3666667,13.5333333 C12.3666667,13.7793511 12.1762952,13.9809052 11.9348279,13.99872 L11.9,14 L8.4,14 C8.15398225,14 7.95242814,13.8096285 7.93461334,13.5681612 L7.93333333,13.5333333 L7.93333333,10.5 L6.06666667,10.5 L6.06666667,13.5333333 C6.06666667,13.7793511 5.87629518,13.9809052 5.63482788,13.99872 L5.6,14 L2.1,14 C1.85398225,14 1.65242814,13.8096285 1.63461334,13.5681612 L1.63333333,13.5333333 L1.63333333,7.46666667 C1.63333333,7.20893378 1.84226712,7 2.1,7 C2.34601775,7 2.54757186,7.19037148 2.56538666,7.43183879 L2.56666667,7.46666667 L2.56666667,13.0666667 L5.13333333,13.0666667 L5.13333333,10.0333333 C5.13333333,9.78731558 5.32370482,9.58576147 5.56517212,9.56794667 L5.6,9.56666667 L8.4,9.56666667 C8.64601775,9.56666667 8.84757186,9.75703815 8.86538666,9.99850545 L8.86666667,10.0333333 L8.86666667,13.0666667 L11.4333333,13.0666667 L11.4333333,7.46666667 C11.4333333,7.22064891 11.6237048,7.0190948 11.8651721,7.00128001 L11.9,7 Z M7.30029972,0.109422527 L7.32998316,0.136683502 L13.8633165,6.67001684 C14.0455612,6.8522615 14.0455612,7.1477385 13.8633165,7.32998316 C13.6906637,7.50263601 13.416384,7.511723 13.2330336,7.35724414 L13.2033502,7.32998316 L7,1.12676667 L0.796649831,7.32998316 C0.623996986,7.50263601 0.34971735,7.511723 0.166366948,7.35724414 L0.136683502,7.32998316 C-0.0359693427,7.15733032 -0.0450563345,6.88305068 0.109422527,6.69970028 L0.136683502,6.67001684 L6.67001684,0.136683502 C6.84266968,-0.0359693427 7.11694932,-0.0450563345 7.30029972,0.109422527 Z M12.3666667,1.4 C12.6126844,1.4 12.8142385,1.59037148 12.8320533,1.83183879 L12.8333333,1.86666667 L12.8333333,3.73333333 C12.8333333,3.99106622 12.6243995,4.2 12.3666667,4.2 C12.1206489,4.2 11.9190948,4.00962852 11.90128,3.76816121 L11.9,3.73333333 L11.9,2.33333333 L10.5,2.33333333 C10.2539822,2.33333333 10.0524281,2.14296185 10.0346133,1.90149455 L10.0333333,1.86666667 C10.0333333,1.62064891 10.2237048,1.4190948 10.4651721,1.40128001 L10.5,1.4 L12.3666667,1.4 Z"></path>
            </g>
        </g>
    </g>
</svg>