<?xml version="1.0" encoding="UTF-8"?>
<svg width="36px" height="36px" viewBox="0 0 36 36" version="1.1" xmlns="http://www.w3.org/2000/svg" xmlns:xlink="http://www.w3.org/1999/xlink">
    <title>SQL窗口</title>
    <g id="页面-1" stroke="none" stroke-width="1" fill="none" fill-rule="evenodd">
        <g id="首页-管理员" transform="translate(-241.000000, -83.000000)" fill="#1AB394" fill-rule="nonzero">
            <g id="SQL窗口" transform="translate(241.000000, 83.000000)">
                <path d="M32.4,0 C34.3430382,0 35.9265431,1.53934493 35.9975169,3.46503704 L36,3.6 L36,32.4 C36,34.3430382 34.4606551,35.9265431 32.534963,35.9975169 L32.4,36 L3.6,36 C1.65696183,36 0.0734569429,34.4606551 0.00248308323,32.534963 L0,32.4 L0,3.6 C0,1.65696183 1.53934493,0.0734569429 3.46503704,0.00248308323 L3.6,0 L32.4,0 Z M15.0031851,22.110094 L15,22.2 L15,31.2 L15.003174,31.2894451 C15.062031,32.1136448 15.9284766,32.6338742 16.6836153,32.2984121 L16.7640552,32.2591703 L24.5640552,28.1053242 L24.6485327,28.0560543 C25.3548415,27.6062337 25.3891081,26.5774711 24.7142974,26.0816474 L24.6332858,26.0268653 L16.8332858,21.1807115 L16.7552381,21.13597 C16.0207536,20.7491608 15.1282994,21.2179365 15.0125699,22.0226166 L15.0031851,22.110094 Z M12.6,21 C11.9673829,21 11.4491009,21.4895267 11.4032914,22.1104426 L11.4,22.2 L11.4,31.2 C11.4,31.8627417 11.9372583,32.4 12.6,32.4 C13.2326171,32.4 13.7508991,31.9104733 13.7967086,31.2895574 L13.8,31.2 L13.8,22.2 C13.8,21.5372583 13.2627417,21 12.6,21 Z M17.4,24.3582 L21.597,26.9658 L17.4,29.2008 L17.4,24.3582 Z M18.3,3.6 C15.4220367,3.6 13.2,6.33481435 13.2,9.6 C13.2,12.6505462 15.1395039,15.2381579 17.7414585,15.5646511 C18.4862885,17.1678649 20.044671,18 22.2,18 C22.8627417,18 23.4,17.4627417 23.4,16.8 C23.4,16.1372583 22.8627417,15.6 22.2,15.6 C21.3354427,15.6 20.7380781,15.4419684 20.3399302,15.1070415 C22.1631927,14.1768575 23.4,12.0360336 23.4,9.6 C23.4,6.33481435 21.1779633,3.6 18.3,3.6 Z M6.94759134,4.25924089 C4.68605634,5.72420284 4.77896419,7.89079876 6.36375475,9.43067623 C6.64934134,9.70816927 7.0119943,9.92317331 7.52095569,10.1531046 L7.6961233,10.2304075 L7.93227942,10.3298384 L8.20121333,10.4382992 L8.96840152,10.7380064 L9.31069433,10.8755294 L9.57629066,10.9877937 L9.81448884,11.0937352 L10.0253416,11.1929445 L10.2904636,11.3282397 L10.4331837,11.4088268 C10.6053582,11.5109236 10.705104,11.5912457 10.7329838,11.645425 C11.0397706,12.2416099 10.4409195,13.2 9.2,13.2 C8.01240741,13.2 7.32195761,12.9680885 7.02869495,12.607486 L6.93053087,12.4762039 C6.54034947,11.9960054 5.84025591,11.8883173 5.32109892,12.2445166 C4.77461789,12.6194634 4.63556184,13.3664281 5.01050855,13.9129092 C5.80933888,15.0771963 7.24414461,15.6 9.2,15.6 C12.2233663,15.6 14.0021648,12.7532445 12.8670162,10.5472875 C12.4998893,9.83384251 11.9018091,9.39393307 10.8097363,8.90447742 L10.6331602,8.8267361 L10.2732827,8.67536164 L9.8981929,8.52472143 L8.96519945,8.15906365 L8.6476267,8.02708241 L8.4543666,7.94056565 L8.29529562,7.86360969 L8.17171654,7.79814433 L8.08493216,7.74609941 L8.03624525,7.70940475 C7.45581842,7.14542726 7.44097068,6.79918047 8.25240866,6.27355263 C8.99220925,5.79432957 9.95853795,5.92236723 11.3302151,6.84507752 C11.8801167,7.21498949 12.6257728,7.06907911 12.9956848,6.51917757 C13.3655968,5.96927604 13.2196864,5.22361987 12.6697849,4.8537079 C10.5747954,3.44443439 8.60779075,3.18380808 6.94759134,4.25924089 Z M25.8,3.6 C25.1673829,3.6 24.6491009,4.08952667 24.6032914,4.71044259 L24.6,4.8 L24.6,14.4 L24.6032914,14.4895574 C24.6468105,15.0794275 25.1167359,15.5507189 25.7060097,15.5963733 L25.8,15.6 L30.6,15.6 L30.6895574,15.5967086 C31.2794275,15.5531895 31.7507189,15.0832641 31.7963733,14.4939903 L31.8,14.4 L31.7967086,14.3104426 C31.7531895,13.7205725 31.2832641,13.2492811 30.6939903,13.2036267 L30.6,13.2 L27,13.2 L27,4.8 L26.9967086,4.71044259 C26.9508991,4.08952667 26.4326171,3.6 25.8,3.6 Z M18.3,6 C19.7298577,6 21,7.56325205 21,9.6 C21,11.636748 19.7298577,13.2 18.3,13.2 C16.8701423,13.2 15.6,11.636748 15.6,9.6 C15.6,7.56325205 16.8701423,6 18.3,6 Z" id="形状"></path>
            </g>
        </g>
    </g>
</svg>