<?xml version="1.0" encoding="UTF-8"?>
<svg width="14px" height="14px" viewBox="0 0 14 14" version="1.1" xmlns="http://www.w3.org/2000/svg" xmlns:xlink="http://www.w3.org/1999/xlink">
    <title></title>
    <g id="页面-1" stroke="none" stroke-width="1" fill="" fill-rule="evenodd">
        <g id="图标" transform="translate(-20.000000, -241.000000)" fill="" fill-rule="nonzero">
            <g id="形状结合" transform="translate(20.000000, 241.000000)">
                <path d="M7.93333333,0 C8.11508431,0 8.29242282,0.0530544711 8.44384765,0.151996341 L8.49333333,0.186666667 L10.36,1.58666667 C10.5803301,1.75191425 10.7156663,2.00537326 10.7317226,2.27847203 L10.7333333,2.33333333 L10.7333333,4.08333333 C10.7333333,4.34106622 10.5243995,4.55 10.2666667,4.55 C10.0206489,4.55 9.8190948,4.35962852 9.80128001,4.11816121 L9.8,4.08333333 L9.8,2.33333333 L7.93333333,0.933333333 L7.93333333,13.0666667 L9.8,11.6666667 L9.8,10.5 C9.8,10.2422671 10.0089338,10.0333333 10.2666667,10.0333333 C10.5126844,10.0333333 10.7142385,10.2237048 10.7320533,10.4651721 L10.7333333,10.5 L10.7333333,11.6666667 C10.7333333,11.9420793 10.6117678,12.2024236 10.4029226,12.379128 L10.36,12.4133333 L8.49333333,13.8133333 C8.08096072,14.1226128 7.49594613,14.0390393 7.18666667,13.6266667 C7.07761608,13.4812659 7.01365655,13.3075624 7.00195515,13.1270574 L7,13.0666667 L7,0.933333333 C7,0.417867567 7.41786757,0 7.93333333,0 Z M0.7,11.6666667 C1.08659932,11.6666667 1.4,11.9800673 1.4,12.3666667 C1.4,12.753266 1.08659932,13.0666667 0.7,13.0666667 C0.313400675,13.0666667 0,12.753266 0,12.3666667 C0,11.9800673 0.313400675,11.6666667 0.7,11.6666667 Z M5.36666667,9.1 C5.88213243,9.1 6.3,9.51786757 6.3,10.0333333 C6.3,10.5487991 5.88213243,10.9666667 5.36666667,10.9666667 C4.8512009,10.9666667 4.43333333,10.5487991 4.43333333,10.0333333 C4.43333333,9.51786757 4.8512009,9.1 5.36666667,9.1 Z M13.3,7.93333333 C13.6865993,7.93333333 14,8.24673401 14,8.63333333 C14,9.01993266 13.6865993,9.33333333 13.3,9.33333333 C12.9134007,9.33333333 12.6,9.01993266 12.6,8.63333333 C12.6,8.24673401 12.9134007,7.93333333 13.3,7.93333333 Z M10.5,7.93333333 C10.8865993,7.93333333 11.2,8.24673401 11.2,8.63333333 C11.2,9.01993266 10.8865993,9.33333333 10.5,9.33333333 C10.1134007,9.33333333 9.8,9.01993266 9.8,8.63333333 C9.8,8.24673401 10.1134007,7.93333333 10.5,7.93333333 Z M3.73333333,6.06666667 C4.2487991,6.06666667 4.66666667,6.48453423 4.66666667,7 C4.66666667,7.51546577 4.2487991,7.93333333 3.73333333,7.93333333 C3.21786757,7.93333333 2.8,7.51546577 2.8,7 C2.8,6.48453423 3.21786757,6.06666667 3.73333333,6.06666667 Z M10.5,5.36666667 C10.8865993,5.36666667 11.2,5.68006734 11.2,6.06666667 C11.2,6.45326599 10.8865993,6.76666667 10.5,6.76666667 C10.1134007,6.76666667 9.8,6.45326599 9.8,6.06666667 C9.8,5.68006734 10.1134007,5.36666667 10.5,5.36666667 Z M13.3,5.36666667 C13.6865993,5.36666667 14,5.68006734 14,6.06666667 C14,6.45326599 13.6865993,6.76666667 13.3,6.76666667 C12.9134007,6.76666667 12.6,6.45326599 12.6,6.06666667 C12.6,5.68006734 12.9134007,5.36666667 13.3,5.36666667 Z M0.7,4.43333333 C1.08659932,4.43333333 1.4,4.74673401 1.4,5.13333333 C1.4,5.51993266 1.08659932,5.83333333 0.7,5.83333333 C0.313400675,5.83333333 0,5.51993266 0,5.13333333 C0,4.74673401 0.313400675,4.43333333 0.7,4.43333333 Z M3.73333333,1.86666667 C4.2487991,1.86666667 4.66666667,2.28453423 4.66666667,2.8 C4.66666667,3.31546577 4.2487991,3.73333333 3.73333333,3.73333333 C3.21786757,3.73333333 2.8,3.31546577 2.8,2.8 C2.8,2.28453423 3.21786757,1.86666667 3.73333333,1.86666667 Z"></path>
            </g>
        </g>
    </g>
</svg>