<?xml version="1.0" encoding="UTF-8"?>
<svg width="14px" height="14px" viewBox="0 0 14 14" version="1.1" xmlns="http://www.w3.org/2000/svg" xmlns:xlink="http://www.w3.org/1999/xlink">
    <title></title>
    <g id="页面-1" stroke="none" stroke-width="1" fill="" fill-rule="evenodd">
        <g id="TABLE" transform="translate(-1545.000000, -215.000000)" fill="" fill-rule="nonzero">
            <g id="表格1" transform="translate(490.000000, 106.000000)">
                <g id="下载" transform="translate(1055.000000, 109.000000)">
                    <path d="M13.0666667,10.2666667 C13.5665123,10.2666667 13.9745851,10.6595926 13.9988578,11.1534173 L14,11.2 L14,13.0666667 C14,13.5665123 13.607074,13.9745851 13.1132494,13.9988578 L13.0666667,14 L0.933333333,14 C0.433487742,14 0.0254149289,13.607074 0.00114223835,13.1132494 L0,13.0666667 L0,11.2 C0,10.6845342 0.417867567,10.2666667 0.933333333,10.2666667 C1.43317893,10.2666667 1.84125174,10.6595926 1.86552443,11.1534173 L1.86666667,11.2 L1.86666667,12.1331 L12.1333333,12.1331 L12.1333333,11.2 C12.1333333,10.7001544 12.5262593,10.2920816 13.0200839,10.2678089 L13.0666667,10.2666667 Z M7.7,1.32634644e-14 C7.95773288,1.32161196e-14 8.16666667,0.208933783 8.16666667,0.466666667 L8.16666667,5.36666667 L11.2730812,5.36666667 C11.3934123,5.36666667 11.5090926,5.41314772 11.5959703,5.4964055 C11.7820504,5.67473227 11.7883358,5.9701424 11.610009,6.1562225 L11.610009,6.1562225 L7.33692783,10.6150898 L7.32288917,10.6291285 C7.13680907,10.8074552 6.84139894,10.8011699 6.66307217,10.6150898 L6.66307217,10.6150898 L2.38999101,6.1562225 C2.30673323,6.06934482 2.26025217,5.95366451 2.26025217,5.83333333 C2.26025217,5.57560045 2.46918596,5.36666667 2.72691884,5.36666667 L2.72691884,5.36666667 L5.83333333,5.36666667 L5.83333333,5.36666667 L5.83333333,0.466666667 C5.83333333,0.208933783 6.04226712,1.33663203e-14 6.3,1.32634644e-14 L7.7,1.32634644e-14 Z" id="形状结合"></path>
                </g>
            </g>
        </g>
    </g>
</svg>