<?xml version="1.0" encoding="UTF-8"?>
<svg width="5px" height="11px" viewBox="0 0 5 11" version="1.1" xmlns="http://www.w3.org/2000/svg" xmlns:xlink="http://www.w3.org/1999/xlink">
    <title></title>
    <g id="页面-1" stroke="none" stroke-width="1" fill="none" fill-rule="evenodd">
        <g id="SQL执行01" transform="translate(-451.000000, -412.000000)" fill="#9BA3AF" fill-rule="nonzero">
            <g id="编组" transform="translate(220.000000, 71.000000)">
                <path d="M232,347 C232.552285,347 233,347.447715 233,348 C233,348.552285 232.552285,349 232,349 C231.447715,349 231,348.552285 231,348 C231,347.447715 231.447715,347 232,347 Z M232,350 C232.552285,350 233,350.447715 233,351 C233,351.552285 232.552285,352 232,352 C231.447715,352 231,351.552285 231,351 C231,350.447715 231.447715,350 232,350 Z M235,347 C235.552285,347 236,347.447715 236,348 C236,348.552285 235.552285,349 235,349 C234.447715,349 234,348.552285 234,348 C234,347.447715 234.447715,347 235,347 Z M235,350 C235.552285,350 236,350.447715 236,351 C236,351.552285 235.552285,352 235,352 C234.447715,352 234,351.552285 234,351 C234,350.447715 234.447715,350 235,350 Z M232,344 C232.552285,344 233,344.447715 233,345 C233,345.552285 232.552285,346 232,346 C231.447715,346 231,345.552285 231,345 C231,344.447715 231.447715,344 232,344 Z M235,344 C235.552285,344 236,344.447715 236,345 C236,345.552285 235.552285,346 235,346 C234.447715,346 234,345.552285 234,345 C234,344.447715 234.447715,344 235,344 Z M232,341 C232.552285,341 233,341.447715 233,342 C233,342.552285 232.552285,343 232,343 C231.447715,343 231,342.552285 231,342 C231,341.447715 231.447715,341 232,341 Z M235,341 C235.552285,341 236,341.447715 236,342 C236,342.552285 235.552285,343 235,343 C234.447715,343 234,342.552285 234,342 C234,341.447715 234.447715,341 235,341 Z" id="形状"></path>
            </g>
        </g>
    </g>
</svg>