<?xml version="1.0" encoding="UTF-8"?>
<svg width="14px" height="14px" viewBox="0 0 14 14" version="1.1" xmlns="http://www.w3.org/2000/svg" xmlns:xlink="http://www.w3.org/1999/xlink">
    <title>放大缩小</title>
    <g id="页面-1" stroke="none" stroke-width="1" fill="" fill-rule="evenodd">
        <g id="定-首页1600-0511" transform="translate(-1205.000000, -522.000000)" fill="#1AB394">
            <g id="形状" transform="translate(1205.000000, 522.000000)">
                <path d="M0.466666667,9.8 L0.501494547,9.80128001 C0.730888484,9.81820406 0.914168445,10.0009529 0.931922957,10.2301149 L0.933333333,10.2666667 L0.933333333,12.6 L3.73333333,12.6 L3.76816121,12.60128 C4.00962852,12.6190948 4.2,12.8206489 4.2,13.0666667 C4.2,13.3126844 4.00962852,13.5142385 3.76816121,13.5320533 L3.73333333,13.5333333 L0.466666667,13.5333333 L0.431838786,13.5320533 C0.20244485,13.5151293 0.019164888,13.3323805 0.00141037668,13.1032184 L0,13.0666667 L0,10.2666667 L0.00128000517,10.2318388 C0.0182040649,10.0024448 0.200952852,9.81916489 0.430114891,9.80141038 L0.466666667,9.8 Z M13.5333333,9.8 C13.7793511,9.8 13.9809052,9.99037148 13.99872,10.2318388 L14,10.2666667 L14,13.0666667 C14,13.3126844 13.8096285,13.5142385 13.5681612,13.5320533 L13.5333333,13.5333333 L10.2666667,13.5333333 C10.0089338,13.5333333 9.8,13.3243995 9.8,13.0666667 C9.8,12.8206489 9.99037148,12.6190948 10.2318388,12.60128 L10.2666667,12.6 L13.0666667,12.6 L13.0666667,10.2666667 C13.0666667,10.0206489 13.2570382,9.8190948 13.4985055,9.80128001 L13.5333333,9.8 Z M10.2666667,3.73333333 C10.7665123,3.73333333 11.1745851,4.12625931 11.1988578,4.62008392 L11.2,4.66666667 L11.2,9.33333333 C11.2,9.83317893 10.807074,10.2412517 10.3132494,10.2655244 L10.2666667,10.2666667 L3.73333333,10.2666667 C3.23348774,10.2666667 2.82541493,9.87374069 2.80114224,9.37991608 L2.8,9.33333333 L2.8,4.66666667 C2.8,4.16682107 3.19292598,3.75874826 3.68675059,3.73447557 L3.73333333,3.73333333 L10.2666667,3.73333333 Z M10.2666667,4.66666667 L3.73333333,4.66666667 L3.73333333,9.33333333 L10.2666667,9.33333333 L10.2666667,4.66666667 Z M3.73333333,0.466666667 C3.99106622,0.466666667 4.2,0.67560045 4.2,0.933333333 C4.2,1.17935109 4.00962852,1.3809052 3.76816121,1.39871999 L3.73333333,1.4 L0.933333333,1.4 L0.933333333,3.73333333 C0.933333333,3.97935109 0.742961849,4.1809052 0.501494547,4.19871999 L0.466666667,4.2 C0.220648914,4.2 0.0190948049,4.00962852 0.00128000517,3.76816121 L0,3.73333333 L0,0.933333333 C0,0.687315581 0.190371484,0.485761472 0.431838786,0.467946672 L0.466666667,0.466666667 L3.73333333,0.466666667 Z M13.5333333,0.466666667 L13.5681612,0.467946672 C13.7975552,0.484870732 13.9808351,0.667619518 13.9985896,0.896781557 L14,0.933333333 L14,3.73333333 L13.99872,3.76816121 C13.9817959,3.99755515 13.7990471,4.18083511 13.5698851,4.19858962 L13.5333333,4.2 L13.4985055,4.19871999 C13.2691115,4.18179594 13.0858316,3.99904715 13.068077,3.76988511 L13.0666667,3.73333333 L13.0666667,1.4 L10.2666667,1.4 L10.2318388,1.39871999 C9.99037148,1.3809052 9.8,1.17935109 9.8,0.933333333 C9.8,0.687315581 9.99037148,0.485761472 10.2318388,0.467946672 L10.2666667,0.466666667 L13.5333333,0.466666667 Z"></path>
            </g>
        </g>
    </g>
</svg>