<?xml version="1.0" encoding="UTF-8"?>
<svg width="14px" height="14px" viewBox="0 0 14 14" version="1.1" xmlns="http://www.w3.org/2000/svg" xmlns:xlink="http://www.w3.org/1999/xlink">
    <title>筛选</title>
    <g id="页面-1" stroke="none" stroke-width="1" fill="" fill-rule="evenodd">
        <g id="SQL执行01" transform="translate(-377.000000, -91.000000)" fill="">
            <g id="编组" transform="translate(220.000000, 71.000000)">
                <g transform="translate(157.000000, 20.000000)" id="筛选">
                    <path d="M9.33270884,0 C9.71965306,0 10.0333333,0.314850669 10.0333333,0.703238653 C10.0333333,0.89634265 9.95422284,1.0809504 9.81455959,1.21375664 L9.81455959,1.21375664 L6.30348112,4.5520638 L6.51567763,13.2796143 C6.52477553,13.6540199 6.24062443,13.9672058 5.87347053,13.9975899 L5.87347053,13.9975899 L5.83234476,13.9997909 C5.71783392,14.0025943 5.60438471,13.9771743 5.50193264,13.9257571 L5.50193264,13.9257571 L4.11948493,13.2319541 C3.88212454,13.1128311 3.73218923,12.8693255 3.73218923,12.6029584 L3.73218923,12.6029584 L3.73218923,4.55440793 L0.21877535,1.21375664 C-0.0513238777,0.956918412 -0.0727932148,0.535516765 0.162533513,0.252827514 L0.162533513,0.252827514 L0.192005864,0.219590033 C0.324318423,0.0794056676 0.508239926,0 0.700626095,0 L0.700626095,0 Z M12.95,10.0333333 C13.529899,10.0333333 14,10.5034343 14,11.0833333 C14,11.6632323 13.529899,12.1333333 12.95,12.1333333 L9.45,12.1333333 C8.87010101,12.1333333 8.4,11.6632323 8.4,11.0833333 C8.4,10.5034343 8.87010101,10.0333333 9.45,10.0333333 L12.95,10.0333333 Z M12.95,6.53333333 C13.529899,6.53333333 14,7.00343435 14,7.58333333 C14,8.16323232 13.529899,8.63333333 12.95,8.63333333 L9.45,8.63333333 C8.87010101,8.63333333 8.4,8.16323232 8.4,7.58333333 C8.4,7.00343435 8.87010101,6.53333333 9.45,6.53333333 L12.95,6.53333333 Z" id="形状结合"></path>
                </g>
            </g>
        </g>
    </g>
</svg>