<?xml version="1.0" encoding="UTF-8"?>
<svg width="14px" height="13px" viewBox="0 0 14 13" version="1.1" xmlns="http://www.w3.org/2000/svg" xmlns:xlink="http://www.w3.org/1999/xlink">
    <title></title>
    <g id="页面-1" stroke="none" stroke-width="1" fill="n" fill-rule="evenodd">
        <g id="SQL执行01" transform="translate(-1122.000000, -475.000000)" fill="" fill-rule="nonzero">
            <path d="M1133.82449,475 C1134.14334,475 1134.40181,475.255837 1134.40181,475.571429 C1134.40181,475.745519 1134.32163,475.910114 1134.18402,476.018528 L1128.33387,480.399849 C1128.19625,480.508263 1128.11607,480.672859 1128.11607,480.846949 L1128.11607,487.428571 C1128.11607,487.744163 1127.8576,488 1127.53875,488 L1126.67278,488 C1126.35393,488 1126.09546,487.744163 1126.09546,487.428571 L1126.09546,480.780747 C1126.09546,480.645593 1126.04706,480.514813 1125.95885,480.411637 L1122.13661,475.940538 C1121.93066,475.69962 1121.96101,475.339062 1122.20442,475.135208 C1122.30866,475.047906 1122.44078,475 1122.57733,475 L1133.82449,475 Z M1132.39175,480.857143 C1134.38453,480.857143 1136,482.456126 1136,484.428571 C1136,486.401017 1134.38453,488 1132.39175,488 C1130.39897,488 1128.78351,486.401017 1128.78351,484.428571 C1128.78351,482.456126 1130.39897,480.857143 1132.39175,480.857143 Z M1130.28116,482.339519 C1130.02427,482.59379 1130.01649,483.001256 1130.25781,483.264811 L1130.28116,483.289088 L1131.43231,484.428571 L1130.28116,485.568054 C1130.01624,485.830271 1130.01624,486.255407 1130.28116,486.517624 C1130.53806,486.771894 1130.94972,486.779599 1131.21599,486.540739 L1131.24052,486.517624 L1132.39166,485.378131 L1133.54298,486.517624 C1133.8079,486.77984 1134.23742,486.77984 1134.50234,486.517624 C1134.75923,486.263353 1134.76702,485.855887 1134.5257,485.592332 L1134.50234,485.568054 L1133.35115,484.428571 L1134.50234,483.289088 C1134.76726,483.026872 1134.76726,482.601736 1134.50234,482.339519 C1134.24545,482.085249 1133.83378,482.077544 1133.56751,482.316404 L1133.54298,482.339519 L1132.39166,483.478877 L1131.24052,482.339519 C1130.9756,482.077303 1130.54608,482.077303 1130.28116,482.339519 Z" id="形状"></path>
        </g>
    </g>
</svg>