<?xml version="1.0" encoding="UTF-8"?>
<svg width="14px" height="14px" viewBox="0 0 14 14" version="1.1" xmlns="http://www.w3.org/2000/svg" xmlns:xlink="http://www.w3.org/1999/xlink">
    <!-- Generator: Sketch 53.2 (72643) - https://sketchapp.com -->
    <title>分组</title>
    <desc>Created with Sketch.</desc>
    <g id="页面-1" stroke="none" stroke-width="1" fill="" fill-rule="evenodd" fill-opacity="0.8">
        <g id="icon" transform="translate(-261.000000, -274.000000)" fill="">
            <g id="分组" transform="translate(261.000000, 274.000000)">
                <path d="M12.7120508,0 L1.30191962,0 C0.579370258,0 0,0.585119746 0,1.29866741 L0,12.6798714 C0,13.400589 0.586558354,13.9785388 1.30191962,13.9785388 L3.78428975,13.9785388 L3.78428975,13.0866164 L1.30191962,13.0866164 C1.07301761,13.0866164 0.887001343,12.9011201 0.887001343,12.6727015 L0.887001343,1.29866741 C0.887001343,1.07034572 1.07301761,0.884801046 1.30191962,0.884801046 L12.7120508,0.884801046 C12.9409528,0.884801046 13.1270176,1.07034572 13.1270176,1.29866741 L13.1270176,9.42605723 C12.8407566,9.16203151 12.5260831,8.92658839 12.1898453,8.72680086 C10.7519833,7.82058709 9.02072061,7.52802721 7.29674319,7.90618955 C7.29674319,7.90618955 6.93903827,7.98471904 6.85321823,8.21299228 C6.76734962,8.41994969 6.92471064,8.6839754 6.92471064,8.6839754 C7.01771878,8.84805891 7.1750798,9.04077346 7.36109607,9.26192528 C7.39689085,9.30475073 7.43977658,9.35469762 7.48271089,9.41176593 C7.24666935,9.36898892 6.92471064,9.26909515 6.53125952,9.08355047 C6.20225842,8.87664151 6.09492266,8.76245644 6.05912789,8.70533969 C6.05912789,8.70533969 5.95188926,8.56262046 5.8517416,8.48418787 C5.70147154,8.36283293 5.42963523,8.49135774 5.42963523,8.49135774 C4.54967628,8.85518034 3.92023219,9.21914827 3.76996212,9.30475073 L3.7127002,9.33333333 C3.36218338,9.51165969 3.16188805,9.58306775 3.04741276,9.61155346 C3.04741276,9.26909515 3.29778192,8.84805891 3.50526534,8.49843073 C3.54106012,8.44141086 3.5696668,8.39141553 3.59827348,8.33434722 L3.69133018,8.1773367 L3.64834731,8.00608332 C3.51240487,7.4423763 3.84150311,6.62893487 4.2278147,6.19365577 C4.57833152,5.85114901 5.91604592,4.90210978 7.63293238,4.82362874 L7.91200536,4.81650732 L8.11934307,4.5524816 C8.38408842,4.21709627 9.19964592,3.8318125 9.7933438,3.62490354 C9.69324471,3.78186562 9.59304848,3.93877925 9.52150749,4.0886199 C9.28541739,4.5810642 9.42854792,4.8521629 9.60023657,4.99488212 C9.6503104,5.03765913 9.72894235,5.08760602 9.82913858,5.10901874 C10.4658193,5.34451031 11.0452867,5.65848291 11.5674922,6.05093655 C11.8679352,5.65131303 11.760648,5.07341161 11.3242626,4.82362874 C11.0238196,4.65237537 10.7161885,4.50253472 10.3942298,4.37410679 C10.4729589,4.23138757 10.5873856,4.06725562 10.6589751,3.953119 C10.8377547,3.68197185 10.9880248,3.45360172 11.0452867,3.25381419 L11.0809844,3.13245925 L11.0452867,3.0112012 C10.9880248,2.81141366 10.8163847,2.66157301 10.5873856,2.61874756 C9.95075339,2.49744106 8.10511259,3.23240146 7.47557136,3.94594913 C5.71575059,4.06013419 4.19201993,4.97351784 3.59113395,5.57288044 L3.57680633,5.58717174 C3.06887991,6.15083031 2.63254305,7.16405928 2.74692121,8.02754449 C2.45366631,8.52701333 2.03869947,9.21197839 2.18896953,9.91840463 L2.18896953,9.92557451 C2.24623146,10.1610176 2.38926486,10.3394409 2.59674828,10.4321648 C3.04022467,10.6391222 3.6126011,10.3822663 4.12052751,10.125362 L4.1848804,10.0897065 L4.21348708,10.0754152 C4.31363474,10.0182984 4.800094,9.7329084 5.50831574,9.42605723 C5.64425818,9.55448515 5.82303778,9.69008294 6.07340694,9.84704502 L6.11634124,9.86845775 C7.01771878,10.3036884 8.19093262,10.5963452 8.56296517,9.97552139 L8.57719565,9.94693879 C8.77035145,9.55448515 8.44848988,9.16920138 8.03352303,8.6839754 C9.33553979,8.51984345 10.6232289,8.79811203 11.7033861,9.48312554 L11.7105742,9.49029541 C12.2327311,9.81134099 12.6977232,10.2180859 13.0911743,10.7033119 L13.11269,10.6890691 L13.11269,12.6941627 C13.11269,12.9224844 12.9266737,13.1079806 12.6977232,13.1079806 L10.0580406,13.1079806 L10.0580406,14 L12.6977232,14 C13.4202725,14 13.9997399,13.4148318 13.9997399,12.7013326 L13.9997399,1.29866741 C14.0140675,0.585119746 13.4346002,0 12.7120508,0" id="Fill-1"></path>
                <path d="M8,14 L8.91334627,14 L8.91334627,13 L8,13 L8,14 Z M5,14 L5.91339396,14 L5.91339396,13 L5,13 L5,14 Z" id="Fill-3"></path>
            </g>
        </g>
    </g>
</svg>