<?xml version="1.0" encoding="UTF-8"?>
<svg width="60px" height="60px" viewBox="0 0 60 60" version="1.1" xmlns="http://www.w3.org/2000/svg" xmlns:xlink="http://www.w3.org/1999/xlink">
    <g id="页面-1" stroke="none" stroke-width="1" fill="" fill-rule="evenodd">
        <g id="首页ICON" transform="translate(-277.000000, -385.000000)" fill="">
            <g id="主题" transform="translate(277.000000, 385.000000)">
                <path d="M58,0 C59.1045695,0 60,0.8954305 60,2 L60,58 C60,59.1045695 59.1045695,60 58,60 L2,60 C0.8954305,60 0,59.1045695 0,58 L0,2 C0,0.8954305 0.8954305,0 2,0 L58,0 Z M56,4 L4,4 L4,56 L56,56 L56,4 Z M24.5927542,13 C25.6340482,13 26.4894781,13.7957791 26.5840679,14.8123616 L26.5553864,14.66905 C26.8757708,16.5788485 28.5395211,18 30.5,18 C32.3684855,18 33.9675684,16.7090635 34.3908088,14.9343098 L34.3871281,15 C34.3871281,13.9456382 35.2030059,13.0818349 36.2378657,13.0054857 L36.3871281,13 L43,13 C43.8063894,13 44.5013138,13.4772384 44.8177408,14.1646829 L50.8373708,20.6556087 L50.9704701,20.7954541 C52.3457973,22.316068 52.2998955,24.7434609 50.7851346,26.2582218 L50.7851346,26.2582218 L47.9091065,29.2591246 L47.8072941,29.3615667 L47.7018498,29.4602663 C46.6610891,30.3997834 45.2620061,30.6909167 44.0002237,30.3590057 L44,44 C44,46.1421954 42.3160315,47.8910789 40.1996403,47.9951047 L40,48 L20,48 C17.8578046,48 16.1089211,46.3160315 16.0048953,44.1996403 L16,44 L16.0007255,30.335319 C14.7168305,30.7038618 13.2774717,30.4212153 12.2129695,29.4602663 L12.1075252,29.3615667 L12.0057128,29.2591246 L9.12968469,26.2582218 C7.61492381,24.7434609 7.56902196,22.316068 8.9443492,20.7954541 L9.07744843,20.6556087 L15.5546955,13.6712332 L15.6401635,13.5843161 C15.9690388,13.25612 16.4115868,13.0417883 16.9036428,13.0054857 L17.0529051,13 L24.5927542,13 Z M23.0817469,17.0010862 L17.922,17 L11.9581118,23.4297946 L14.8932898,26.4911111 L16.4836626,24.7293576 C17.2238126,23.909448 18.4884908,23.84479 19.3084004,24.5849401 C19.6638025,24.9057692 19.877299,25.3251531 19.9448536,25.7641475 C19.9695373,25.8679274 19.9864349,25.974986 19.9945143,26.0844969 L20,26.2337592 L20,44 L40,44 L40.0001702,26.5310231 C39.8378755,25.8437973 40.0452545,25.0915153 40.6064189,24.5849401 C40.715484,24.4864846 40.8324191,24.4022699 40.9549428,24.3321793 C41.2591646,24.1459634 41.6170107,24.0383121 42,24.0383121 C42.7642111,24.0383121 43.4283126,24.4669322 43.7650202,25.0968879 L45.0215295,26.4911111 L47.9567075,23.4297946 L41.992,17 L37.9182108,17.0011847 C36.7228948,19.9574431 33.8260256,22 30.5,22 C27.1737911,22 24.2769904,19.9572618 23.0817469,17.0010862 Z" id="形状结合"></path>
            </g>
        </g>
    </g>
</svg>