<?xml version="1.0" encoding="UTF-8"?>
<svg width="60px" height="60px" viewBox="0 0 60 60" version="1.1" xmlns="http://www.w3.org/2000/svg" xmlns:xlink="http://www.w3.org/1999/xlink">
    <g id="页面-1" stroke="none" stroke-width="1" fill="" fill-rule="evenodd">
        <g id="首页ICON" transform="translate(-180.000000, -385.000000)" fill="">
            <g id="超链接" transform="translate(180.000000, 385.000000)">
                <path d="M14.1496421,24.6130666 C14.8951885,25.358613 14.929077,26.5463269 14.2513076,27.3320703 L14.1496421,27.4414937 L7.95294519,33.6381907 C2.8761294,38.7150065 2.8761294,46.9461512 7.95294519,52.022967 C12.957235,57.0272568 21.0263739,57.0987467 26.1182309,52.2374365 L26.3377215,52.022967 L32.8538833,45.5068052 C33.6349319,44.7257566 34.9012618,44.7257566 35.6823104,45.5068052 C36.4278568,46.2523515 36.4617453,47.4400655 35.7839758,48.2258089 L35.6823104,48.3352323 L29.1661486,54.8513941 C22.5272357,61.4903071 11.763431,61.4903071 5.12451806,54.8513941 C-1.43808555,48.2887905 -1.51351778,37.6955753 4.89822139,31.040314 L5.12451806,30.8097635 L11.321215,24.6130666 C12.1022636,23.832018 13.3685936,23.832018 14.1496421,24.6130666 Z M39.1731166,20.5363372 C39.9541651,21.3173858 39.9541651,22.5837157 39.1731166,23.3647643 L23.6167674,38.9211135 C22.8357188,39.7021621 21.5693888,39.7021621 20.7883402,38.9211135 C20.0072917,38.1400649 20.0072917,36.873735 20.7883402,36.0926864 L36.3446894,20.5363372 C37.125738,19.7552886 38.392068,19.7552886 39.1731166,20.5363372 Z M54.6219927,5.35391942 C61.1845964,11.916523 61.2600286,22.5097382 54.8482894,29.1649996 L54.6219927,29.39555 L49.4411798,34.576363 C48.6601312,35.3574115 47.3938012,35.3574115 46.6127526,34.576363 C45.8672063,33.8308166 45.8333178,32.6431027 46.5110872,31.8573592 L46.6127526,31.7479358 L51.7935656,26.5671229 C56.8703814,21.4903071 56.8703814,13.2591623 51.7935656,8.18234654 C46.7892758,3.17805669 38.7201369,3.10656683 33.62828,7.96787698 L33.4087893,8.18234654 L26.489154,15.1019819 C25.7081054,15.8830304 24.4417755,15.8830304 23.6607269,15.1019819 C22.9151805,14.3564355 22.881292,13.1687216 23.5590615,12.3829781 L23.6607269,12.2735547 L30.5803622,5.35391942 C37.2192751,-1.28499354 47.9830798,-1.28499354 54.6219927,5.35391942 Z" id="形状结合"></path>
            </g>
        </g>
    </g>
</svg>