<?xml version="1.0" encoding="UTF-8"?>
<svg width="120px" height="70px" viewBox="0 0 120 70" version="1.1" xmlns="http://www.w3.org/2000/svg" xmlns:xlink="http://www.w3.org/1999/xlink">
    <defs>
        <linearGradient x1="3.94702692%" y1="51.1913066%" x2="91.8895869%" y2="50%" id="linearGradient-1">
            <stop stop-color="#C8C8C8" stop-opacity="0.315028477" offset="0%"></stop>
            <stop stop-color="#979797" offset="100%"></stop>
        </linearGradient>
        <linearGradient x1="3.94702692%" y1="51.1929181%" x2="91.8895869%" y2="50%" id="linearGradient-2">
            <stop stop-color="#C8C8C8" stop-opacity="0.315028477" offset="0%"></stop>
            <stop stop-color="#979797" offset="100%"></stop>
        </linearGradient>
        <polygon id="path-3" points="0 1.6969697 7.27272727 1.6969697 7.27272727 7.27272727 0 7.27272727"></polygon>
    </defs>
    <g id="页面-1" stroke="none" stroke-width="1" fill="none" fill-rule="evenodd">
        <g id="SQL执行07" transform="translate(-280.000000, -204.000000)">
            <g id="编组-2" transform="translate(280.000000, 204.000000)">
                <path d="M32.4848485,27.6863388 C40.5935566,27.6863388 48.0083574,29.0277096 53.7000913,31.2457933 C59.8627795,29.8988643 66.8195124,29.1408843 74.1818182,29.1408843 C99.4865013,29.1408843 120,38.0951893 120,49.1408843 C120,60.1865793 99.4865013,69.1408843 74.1818182,69.1408843 C55.2847056,69.1408843 39.0595654,64.1472011 32.0542688,57.0180326 C14.3125119,56.9146572 0,50.3884709 0,42.3530055 C0,34.2528291 14.5439621,27.6863388 32.4848485,27.6863388 Z" id="形状结合" fill="#C3CED2" fill-rule="nonzero" opacity="0.2"></path>
                <path d="M49.6969697,33.0196721 L2.78762253,40.8370669 C-0.929207508,42.8583183 -0.929207508,44.9918616 2.78762253,47.2376965 C6.50445256,49.4835315 24.9691844,51.7744931 58.1818182,54.1105812 L49.6969697,33.0196721 Z" id="路径-17" fill="url(#linearGradient-1)" fill-rule="nonzero" opacity="0.224124727"></path>
                <path d="M71.2643024,29.9903151 L91.9032024,38.3654123 C96.1356494,40.0027356 96.5508038,42.8049669 92.713481,44.624371 L72.074581,53.9308324 C67.842134,55.7502365 60.8851387,55.8978422 56.6526917,54.2605189 L36.0137917,45.8854218 C32.176469,44.2480984 32.5916233,41.4458672 36.8240703,39.626463 L57.4629703,30.3200016 C61.3002931,28.5005975 67.4269796,28.3529918 71.2643024,29.9903151 Z" id="矩形" fill="#597078" fill-rule="nonzero"></path>
                <path d="M71.2643024,28.7781939 L91.9032024,37.153291 C96.1356494,38.7906144 96.5508038,41.5928457 92.713481,43.4122498 L72.074581,52.7187112 C67.842134,54.5381153 60.8851387,54.685721 56.6526917,53.0483977 L36.0137917,44.6733006 C32.176469,43.0359772 32.5916233,40.2337459 36.8240703,38.4143418 L57.4629703,29.1078804 C61.3002931,27.2884763 67.4269796,27.1408706 71.2643024,28.7781939 Z" id="矩形" fill="#8E9CA1" fill-rule="nonzero"></path>
                <path d="M65.264993,0.198434417 C65.8801827,0.444832371 66.3676845,0.932334149 66.6140824,1.54752381 L81.5771101,38.9061943 C81.6396604,39.0623656 81.6848148,39.221193 81.7134917,39.3805308 C81.8620817,39.716846 81.9393939,40.0619286 81.9393939,40.4136115 C81.9393939,43.9616227 74.0704592,46.837854 64.3636364,46.837854 C54.6568135,46.837854 46.7878788,43.9616227 46.7878788,40.4136115 C46.7878788,40.0610859 46.8655621,39.7151921 47.0150128,39.3780926 C47.0437155,39.2169568 47.0890245,39.0588398 47.1501626,38.9061943 L62.1131903,1.54752381 C62.6109958,0.30463677 64.022106,-0.299371126 65.264993,0.198434417 Z" id="路径" fill="#FFFFFF" fill-rule="nonzero"></path>
                <path d="M64.3636364,0.0499751719 C64.4879716,0.0499751719 64.6118651,0.0509493041 64.7352899,0.0528835614 C64.9131267,0.0804923362 65.0907137,0.128631426 65.264993,0.198434417 C65.8801827,0.444832371 66.3676845,0.932334149 66.6140824,1.54752381 L70.6054901,11.5125581 C68.7869129,12.0842306 66.649943,12.4136115 64.3636364,12.4136115 C62.0773302,12.4136115 59.9403607,12.0842307 58.1217837,11.5125585 L62.1131903,1.54752381 C62.4434833,0.722870622 63.1758402,0.179471025 63.9943558,0.0525442324 L64.1651944,0.050803359 L64.3636364,0.0499751719 Z" id="路径" fill="#C3CED2" fill-rule="nonzero"></path>
                <path d="M75.1103494,23.0025182 L79.1505538,33.0897917 C78.342316,33.5311658 77.3786953,33.9340131 76.2868843,34.2887694 L75.999174,34.3802173 C75.9023131,34.4103321 75.8045009,34.440077 75.7057551,34.4694456 L75.406735,34.5564167 L75.406735,34.5564167 L75.1022209,34.6410928 C74.9486082,34.6828507 74.7929756,34.7237339 74.6353832,34.7637211 L74.3176035,34.8424946 L74.3176035,34.8424946 L73.9947052,34.9188409 C73.7777574,34.9689211 73.5574687,35.017358 73.3339823,35.0641015 L72.9963721,35.1329402 C72.7130615,35.1892368 72.4248661,35.2428481 72.1320652,35.2936756 L71.7785114,35.3533263 C71.6006471,35.3824772 71.4211651,35.4106119 71.2401257,35.437709 L70.8759882,35.4905137 L70.8759882,35.4905137 L70.507805,35.540514 C70.3844149,35.5567092 70.2603683,35.5724307 70.1356833,35.5876722 L69.7597304,35.6319505 C69.570814,35.6533634 69.3805012,35.6736822 69.1888522,35.6928857 L68.8037907,35.7297993 L68.8037907,35.7297993 L68.4152734,35.763701 C68.2201687,35.7798925 68.0238083,35.7949405 67.8262526,35.8088236 L67.4295653,35.8350303 C66.7658232,35.8760988 66.0892467,35.9040673 65.4020706,35.9181499 L64.988511,35.9249268 L64.988511,35.9249268 L64.5725147,35.9283333 L64.5725147,35.9283333 L64.1547588,35.9283333 L64.1547588,35.9283333 L63.7387641,35.9249268 L63.7387641,35.9249268 L63.325206,35.91815 C62.6380325,35.9040675 61.9614584,35.8760992 61.2977186,35.835031 L60.9010328,35.8088245 C60.7034778,35.7949415 60.5071181,35.7798936 60.3120141,35.7637022 L59.9234981,35.7298008 L59.9234981,35.7298008 L59.5384379,35.6928875 C59.3467895,35.6736841 59.1564773,35.6533655 58.9675616,35.6319527 L58.5916099,35.5876747 C58.4669252,35.5724333 58.3428791,35.5567119 58.2194894,35.5405169 L57.8513073,35.4905169 L57.8513073,35.4905169 L57.4871709,35.4377126 C57.3061321,35.4106156 57.1266506,35.3824812 56.9487868,35.3533304 L56.595234,35.2936802 C56.478114,35.2733494 56.3617309,35.2525731 56.2461025,35.2313577 L55.9014993,35.1664006 C55.5021457,35.0890952 55.1122567,35.0064878 54.7325988,34.9188481 L54.4097013,34.8425023 L54.4097013,34.8425023 L54.0919222,34.7637294 C53.9343302,34.7237425 53.7786978,34.6828596 53.6250854,34.6411019 L53.3205719,34.5564264 L53.3205719,34.5564264 L53.0215522,34.4694559 C52.9228066,34.4400875 52.8249945,34.4103428 52.7281338,34.3802282 L52.4404239,34.2887809 C51.3486142,33.934027 50.3849936,33.5311823 49.5767543,33.089811 L53.6169233,23.0025182 C56.5880987,23.811173 60.3160889,24.2923973 64.3636364,24.2923973 C68.4111839,24.2923973 72.139174,23.811173 75.1103494,23.0025182 Z" id="路径" fill="#C3CED2" fill-rule="nonzero"></path>
                <polygon id="路径-23" fill="#597078" fill-rule="nonzero" points="85.5757576 53.8390661 93.1914265 51.2014903 99.1515152 53.5093691 93.1914265 59.4439146"></polygon>
                <path d="M89,56.4848485 L69.0635275,59.8094876 C67.4838747,60.6691003 67.4838747,61.5764693 69.0635275,62.5315945 C70.6431802,63.4867197 78.4906913,64.4610367 92.6060606,65.4545455 L89,56.4848485 Z" id="路径-17备份" fill="url(#linearGradient-2)" fill-rule="nonzero" opacity="0.224124727"></path>
                <g id="编组" transform="translate(90.410653, 52.352785) rotate(-20.000000) translate(-90.410653, -52.352785) translate(86.410653, 47.852785)">
                    <mask id="mask-4" fill="white">
                        <use xlink:href="#path-3"></use>
                    </mask>
                    <use id="Clip-2" fill="#FFFFFF" xlink:href="#path-3"></use>
                    <path d="M7.19853428,1.20501219 C7.17311406,1.15414769 7.14314293,1.10572832 7.10889456,1.06024711 C7.03002903,0.958095509 6.9374601,0.867062656 6.83380276,0.789744602 C6.71111067,0.69753447 6.58005666,0.616926071 6.44231311,0.548845129 C6.28283873,0.469645441 6.11813435,0.401292819 5.94931489,0.344300437 C5.79221224,0.290608462 5.62374753,0.242028091 5.4460087,0.199575609 C4.8528398,0.063504285 4.24569384,-0.00343962675 3.63687549,0.000142521543 C3.02771253,-0.00352012446 2.42020168,0.0634237873 1.82667803,0.199575609 C1.64843241,0.242028091 1.48051503,0.291121635 1.32388876,0.344300437 C1.1550693,0.401292819 0.99036492,0.469645441 0.830920942,0.548845129 C0.693228078,0.617036756 0.562174067,0.697655217 0.439400887,0.789744602 C0.335581379,0.867022408 0.242860413,0.95805526 0.163832717,1.06024711 C0.129584341,1.10572832 0.0995726681,1.15414769 0.0741929897,1.20501219 C0.0262108021,1.29957688 0.000831123655,1.40389185 0,1.50978659 C0,2.34338068 1.62783676,3.01895774 3.6363687,3.01895774 C5.64437359,3.01895774 7.27272727,2.34338068 7.27272727,1.50978659 C7.27272727,1.40495845 7.2469523,1.30319927 7.19853428,1.20501219 M0,5.32332556 L0,6.732267 C0,7.56637425 1.62783676,8.24242424 3.6363687,8.24242424 C5.64437359,8.24242424 7.27272727,7.56637425 7.27272727,6.732267 L7.27272727,5.32383874 C6.53092914,5.90123878 5.2229939,6.2622509 3.63585179,6.2622509 C2.04922659,6.2622509 0.741808269,5.90123878 0,5.32383874" id="Fill-1" fill="#C3CED2"></path>
                    <path d="M6.45364477,3.11983715 C5.71492788,3.42314765 4.74701343,3.60258446 3.63585179,3.60258446 C2.52571384,3.60258446 1.55775885,3.42314765 0.819082498,3.11983715 C0.592104655,3.02866948 0.37485704,2.91548719 0.170522248,2.78188494 C0.112799697,2.74365269 0.0520263137,2.70694492 0,2.66666667 L0,4.07102979 C0,4.90189917 1.62783676,5.57575758 3.6363687,5.57575758 C5.64437359,5.57575758 7.27272727,4.90189917 7.27272727,4.07102979 L7.27272727,2.66666667 C7.22066042,2.70694492 7.15937011,2.74365269 7.10168811,2.78188494 C6.89747494,2.91540695 6.6803895,3.02858925 6.45364477,3.11983715" id="Fill-3" fill="#C3CED2"></path>
                </g>
                <path d="M97.2694879,54.7878619 C97.2694879,54.504326 97.4475179,54.2640734 97.6969697,54.1682943 C97.6374392,53.9345081 97.5454345,53.7142838 97.4253251,53.5119167 C97.1807299,53.6206692 96.8852825,53.5763038 96.6850528,53.3755532 C96.4848569,53.1753235 96.4404644,52.8793148 96.549244,52.635281 C96.3463222,52.5151378 96.1260709,52.4231669 95.8923118,52.3636364 C95.7960051,52.6130881 95.5557186,52.7911182 95.2727104,52.7911182 C94.9891745,52.7911182 94.7489219,52.6130881 94.6531428,52.3636364 C94.4193566,52.4231669 94.1991323,52.5151378 93.9967652,52.635281 C94.1055177,52.8798694 94.0611523,53.1753235 93.8609293,53.3755532 C93.6606996,53.5757491 93.3647179,53.6201416 93.1206571,53.5119167 C92.9999863,53.7142838 92.9080153,53.9345081 92.8484848,54.1682943 C93.0979366,54.264601 93.2759667,54.5048604 93.2759667,54.7878619 C93.2759667,55.0714248 93.0979366,55.3116842 92.8484848,55.4074633 C92.9080153,55.6412224 92.9999863,55.8614737 93.1201295,56.0638409 C93.3647179,55.9550883 93.660172,55.9994538 93.8604017,56.2002043 C94.0605976,56.400434 94.1049901,56.6964158 93.9962105,56.9404766 C94.1991323,57.060586 94.4193566,57.1525907 94.6531428,57.2121212 C94.7494495,56.9626694 94.9897089,56.7846394 95.2727104,56.7846394 C95.5562733,56.7846394 95.7965327,56.9626694 95.8923118,57.2121212 C96.1260709,57.1525907 96.3463222,57.060586 96.5486894,56.9404766 C96.4399368,56.6958814 96.4843023,56.400434 96.6845252,56.2002043 C96.8847279,56.0000085 97.1807299,55.9556159 97.4247704,56.0638409 C97.5454345,55.8614737 97.6374392,55.6412224 97.6969697,55.4074633 C97.4475179,55.3116842 97.2694879,55.0714248 97.2694879,54.7878619 Z M95.2727104,55.4534657 C94.9052866,55.4534657 94.6071404,55.1552924 94.6071404,54.7878619 C94.6071404,54.4204381 94.9052866,54.1222919 95.2727104,54.1222919 C95.6401409,54.1222919 95.9383141,54.4204381 95.9383141,54.7878619 C95.9383141,55.1552924 95.6401409,55.4534657 95.2727104,55.4534657 Z" id="Fill-1" fill="#8E9CA1"></path>
                <polygon id="路径-18" fill="#597078" fill-rule="nonzero" points="92.6060606 55.7714286 92.6060606 65.2121212 85.8181818 62.9333333 85.8181818 53.8181818"></polygon>
                <polygon id="路径-18备份" fill="#8E9CA1" fill-rule="nonzero" transform="translate(96.000000, 59.515152) scale(-1, 1) translate(-96.000000, -59.515152) " points="99.3939394 55.7714286 99.3939394 65.2121212 92.6060606 62.9333333 92.6060606 53.8181818"></polygon>
                <polygon id="路径-19" fill="#FFFFFF" fill-rule="nonzero" points="85.6060606 53.8181818 84.6060606 57.426025 91.6060606 59.3939394 92.6060606 55.7860963"></polygon>
                <polygon id="路径-22" fill="#FFFFFF" fill-rule="nonzero" points="92.6060606 55.8383838 94.9315376 59.3939394 101.575758 56.8080808 99.2502806 53.5757576"></polygon>
            </g>
        </g>
    </g>
</svg>