<?xml version="1.0" encoding="UTF-8"?>
<svg width="14px" height="12px" viewBox="0 0 14 12" version="1.1" xmlns="http://www.w3.org/2000/svg" xmlns:xlink="http://www.w3.org/1999/xlink">
    <title></title>
    <g id="页面-1" stroke="none" stroke-width="1" fill="" fill-rule="evenodd">
        <g id="Large" transform="translate(-520.000000, -429.000000)" fill="#F7B500">
            <g id="Primary key" transform="translate(520.000000, 429.000000)">
                <path d="M7.10475954,5.48364308 C7.86481294,3.88486372 7.44318419,1.90476154 6.00442017,0.782357814 C4.36262554,-0.49623586 2.01678678,-0.174148132 0.765630881,1.50362782 C-0.485621713,3.18132966 -0.170427505,5.58042502 1.47146382,6.8590187 C2.91025201,7.97949568 4.8905438,7.87083214 6.19780568,6.69895056 L12.7961434,11.8408925 C13.128694,12.0997682 13.5909095,12.036482 13.8442687,11.6966336 C14.0976038,11.3566864 14.0357687,10.8844607 13.7030973,10.6255851 L13.109428,10.1630919 L13.8346236,9.19085085 C14.0878861,8.85100248 14.0260269,8.37867795 13.6934764,8.11977762 C13.360805,7.86090198 12.8985894,7.92408938 12.6452302,8.26403656 L12.3726292,8.62762344 L11.6609463,8.07432617 L11.9316619,7.70873844 C12.1849969,7.36889007 12.1231619,6.89656554 11.7904904,6.63766521 C11.4579157,6.37878957 10.9957002,6.44197697 10.7423652,6.78192415 L10.0171695,7.75418989 L7.10475954,5.48364308 Z M5.09744213,1.99961674 C6.0837324,2.76836374 6.2732502,4.20309796 5.52095639,5.21288585 C4.76866259,6.22267373 3.36470796,6.41235942 2.37844186,5.64371122 C1.39215159,4.87496422 1.20074828,3.44023 1.95492759,2.43246767 C2.7072214,1.42258097 4.11115185,1.23094384 5.09744213,1.99961674 Z" id="Fill-1"></path>
            </g>
        </g>
    </g>
</svg>