<?xml version="1.0" encoding="UTF-8"?>
<svg width="105px" height="120px" viewBox="0 0 105 120" version="1.1" xmlns="http://www.w3.org/2000/svg" xmlns:xlink="http://www.w3.org/1999/xlink">
    <title>zanwushuju</title>
    <g id="页面-1" stroke="none" stroke-width="1" fill="none" fill-rule="evenodd">
        <g id="查询工具-使用工具（空状态）" transform="translate(-1053.000000, -195.000000)">
            <g id="编组-4" transform="translate(1035.000000, 195.000000)">
                <g id="zanwushuju" transform="translate(18.000000, 0.000000)">
                    <path d="M98.8038375,52.0468598 L97.4377719,52.0468598 C96.6690003,52.0468598 95.9862551,52.5704828 95.9862551,53.4439724 C95.9862551,54.3176092 96.498242,54.9290667 97.3523208,54.9290667 L98.8038375,54.9290667 L98.8038375,56.3261793 C98.8038375,57.0250299 99.4018509,57.7238805 100.170479,57.7238805 C100.853799,57.7238805 101.536544,57.112423 101.536544,56.3261793 L101.536544,54.9290667 L102.903185,54.9290667 C103.671957,54.9290667 104.269251,54.2302161 104.269251,53.4439724 C104.269251,52.6577287 103.671957,52.1342529 102.903185,52.0468598 L101.621995,52.0468598 L101.621995,50.6491586 C101.621995,49.950308 101.024701,49.252046 100.25593,49.252046 C99.4871581,49.252046 98.8892886,49.8629149 98.8892886,50.6491586 L98.8892886,52.0468598 L98.8038375,52.0468598 Z M0,27.6796322 C0,28.6399264 0.427111315,29.4261701 1.28119009,29.8629885 C2.04938626,30.2998069 2.98891607,30.2998069 3.75768766,29.8629885 C4.4404328,29.4261701 5.03830232,28.5526805 5.03830232,27.6796322 C5.03830232,26.7187494 4.61133487,25.9325057 3.75768766,25.4962759 C2.98891607,25.0594575 2.04938626,25.0594575 1.28119009,25.4962759 C0.427111315,25.9325057 0,26.7187494 0,27.6796322 Z" id="Fill-1" fill="#9BA3AF"></path>
                    <polygon id="Fill-2" fill="#E9EAEC" points="84.115898 92.3094805 71.0502335 59.5578115 18.274869 59.5578115 5.37996261 92.3094805 5.03830232 92.3094805 5.03830232 119.907752 84.4575583 119.907752 84.4575583 92.3094805"></polygon>
                    <path d="M84.4575583,119.907752 L5.03830232,119.907752 L5.03830232,92.3094805 L5.37996261,92.3094805 L18.36032,59.5578115 L71.1355406,59.5578115 L84.115898,92.3094805 L84.3721073,92.3094805 L84.4575583,93.0077425 L84.4575583,119.907752 Z M6.40494345,118.423246 L82.8351395,118.423246 L82.8351395,93.4445609 L70.1105598,61.1295632 L19.3853008,61.1295632 L6.49039448,93.4445609 L6.49039448,118.423246 L6.40494345,118.423246 Z" id="Fill-3" fill="#9BA3AF"></path>
                    <path d="M18.5310782,81.7416828 L6.40494345,117.811789 L8.02736225,118.336 L20.153497,82.2653057 L18.5310782,81.7416828 Z M70.7938804,81.7416828 L82.9200151,117.811789 L81.2977402,118.336 L69.3423636,82.2653057 L70.7938804,81.7416828 Z" id="Fill-4" fill="#9BA3AF"></path>
                    <path d="M36.4644308,92.3094805 L5.03830232,92.3094805 L5.03830232,119.907752 L84.4575583,119.907752 L84.4575583,92.3094805 L53.0315737,92.3094805 C53.0315737,95.3664736 51.4940305,98.3353379 48.9322258,99.9078253 C46.3702772,101.479577 43.1255834,101.479577 40.5637787,99.9078253 C37.9163791,98.3353379 36.3789797,95.3664736 36.4644308,92.3094805 Z" id="Fill-5" fill="#FAFCFF"></path>
                    <path d="M84.4575583,119.907752 L5.03830232,119.907752 L5.03830232,92.3094805 L36.4644308,92.3094805 L36.5497379,93.0077425 C36.8913982,97.4624368 40.5637787,100.868708 44.8333094,100.868708 C49.102984,100.868708 52.7752206,97.4624368 53.1168809,93.0077425 L53.202332,92.3094805 L84.6283165,92.3094805 L84.4575583,119.907752 Z M6.40494345,118.423246 L82.8351395,118.423246 L82.8351395,93.9687724 L54.3121884,93.9687724 C53.6294433,98.8595494 49.5300953,102.615246 44.6625512,102.615246 C39.7950071,102.615246 35.7811102,98.9467954 35.012914,93.9687724 L6.40494345,93.9687724 L6.40494345,118.423246 Z M77.7962618,28.4652874 L89.4104096,33.6186851 L95.9862551,7.76636322 L77.7962618,28.4652874 Z M95.9862551,7.76636322 L64.5596951,23.3997241 L74.4662608,28.4652874 L95.9862551,7.76636322 Z M77.7962618,30.2124138 L77.7962618,38.8588874 L82.7498323,33.7060782 L77.7962618,30.2124138 Z" id="Fill-6" fill="#9BA3AF"></path>
                    <polygon id="Fill-7" fill="#EBEEED" points="18.1894179 83.6630069 71.1355406 83.6630069 71.1355406 59.5578115 18.1894179 59.5578115"></polygon>
                    <path d="M18.1894179,83.6630069 L71.1355406,83.6630069 L71.1355406,59.5578115 L18.1894179,59.5578115 L18.1894179,83.6630069 Z M19.7269611,82.091108 L69.6840239,82.091108 L69.6840239,61.1295632 L19.7269611,61.1295632 L19.7269611,82.091108 Z" id="Fill-8" fill="#9BA3AF"></path>
                    <path d="M32.7071747,76.7629241 C33.6462729,76.2394483 34.6712537,75.7152368 35.6102081,75.1911724 C35.9518684,74.9289931 36.1227705,74.4923218 35.8664174,74.056092 C35.6956592,73.7066667 35.1836722,73.5318805 34.7565609,73.7066667 C33.8170311,74.2301425 32.7926257,74.8417471 31.8530959,75.2784184 C31.4259846,75.4532046 31.3405335,75.977269 31.5114356,76.5014805 C31.8530959,76.7629241 32.2802072,76.9377103 32.7071747,76.7629241 Z M38.513817,73.3572414 C39.4533468,72.8330299 40.3928766,72.1341793 41.331831,71.5227218 C41.6736351,71.2612782 41.7589423,70.6496736 41.5881841,70.3002483 C41.331831,69.950823 40.8194125,69.863577 40.3928766,70.0382161 C39.5387979,70.6496736 38.513817,71.2612782 37.6601698,71.8721471 C37.3185095,72.0469333 37.1477513,72.5709977 37.4039606,73.0078161 C37.5747188,73.5318805 38.1721567,73.6192736 38.513817,73.3572414 Z M44.0646817,69.4267586 C44.9187605,68.727908 45.8582903,67.9422529 46.6264864,67.2434023 C46.9681467,66.9813701 46.9681467,66.3699126 46.7119375,66.0204874 C46.4557282,65.6716506 45.9437413,65.6716506 45.51663,65.9336828 C44.7480022,66.6319448 43.8937796,67.4181885 43.0402763,68.029646 C42.6984721,68.2916782 42.6984721,68.9025471 42.9548252,69.2519724 C43.2110345,69.6013977 43.7230214,69.6887908 44.0646817,69.4267586 Z M49.102984,64.7980138 C49.8717556,63.9245241 50.6405272,63.0514759 51.2383967,62.0032 C51.4940305,61.6537747 51.4085795,61.0423172 51.0674947,60.7801379 C50.7258344,60.5186943 50.2134159,60.6060874 49.8717556,60.9549241 C49.2738861,61.9158069 48.5056899,62.7020506 47.8223693,63.5750989 C47.5660162,63.9245241 47.5660162,64.5359816 47.9076765,64.7980138 C48.2493368,65.1474391 48.8467748,65.060046 49.102984,64.7980138 Z M53.1168809,58.8589609 C52.9461227,59.2957793 52.4335604,59.4704184 52.0065929,59.2957793 C51.5794816,59.1209931 51.4085795,58.5969287 51.5794816,58.1601103 C52.0065929,57.112423 52.3482532,56.1513931 52.6899135,55.1037057 C52.7752206,54.6670345 53.287783,54.4048552 53.6294433,54.5796414 C54.0559792,54.6670345 54.3121884,55.1037057 54.2267374,55.6273287 C53.9705281,56.5882115 53.6294433,57.7238805 53.1168809,58.8589609 Z M54.7392997,51.7848276 C54.6538487,50.4745195 54.3121884,49.1646529 53.4585412,48.116377 C53.202332,47.7669517 52.6899135,47.6795586 52.2628021,47.9417379 C51.9211419,48.2037701 51.8356908,48.8152276 52.0919001,49.1646529 C52.6044624,50.0377011 52.9461227,50.9111908 52.9461227,51.9594667 C53.0315737,52.3962851 53.373234,52.8325149 53.8002015,52.6577287 C54.3121884,52.6577287 54.7392997,52.221646 54.7392997,51.7848276 Z M50.6405272,45.5835954 C49.5300953,45.059531 48.4202389,44.6227126 47.224356,44.4486621 C46.9681467,44.361269 46.6264864,44.5353195 46.4557282,44.7101057 C46.2848262,44.9721379 46.1993751,45.2341701 46.3702772,45.5835954 C46.4557282,45.8457747 46.7119375,46.0204138 46.9681467,46.1078069 C47.9076765,46.282446 48.9322258,46.5446253 49.7863046,47.0686897 C50.0425138,47.2428874 50.3841741,47.2428874 50.6405272,47.0686897 C50.8967364,46.8940506 51.0674947,46.6318713 50.9821875,46.3698391 C51.0674947,45.9330207 50.8967364,45.6709885 50.6405272,45.5835954 Z M43.5521193,44.361269 C42.1006026,44.6227126 40.9903146,45.2341701 40.0512163,46.0204138 C39.7095561,46.3698391 39.7095561,46.8940506 40.0512163,47.2428874 C40.1366674,47.3301333 40.3074256,47.4175264 40.3928766,47.5049195 C40.6490859,47.5923126 40.9903146,47.5049195 41.1610728,47.3301333 C41.6736351,46.8066575 42.6984721,46.282446 43.7230214,46.1078069 C43.9792307,46.0204138 44.2354399,45.8457747 44.3208909,45.5835954 C44.4916491,45.1469241 44.2354399,44.6227126 43.8083286,44.4486621 C43.8083286,44.361269 43.6375704,44.361269 43.5521193,44.361269 Z M39.1116865,50.1250943 C39.3678958,51.1733701 39.9657653,52.221646 40.9903146,53.3565793 C41.2465238,53.7060046 41.7589423,53.7060046 42.1860536,53.4439724 C42.613165,53.1819402 42.5277139,52.5704828 42.2715047,52.221646 C41.5027331,51.2606161 40.9048636,50.3871264 40.7345369,49.6014713 C40.6490859,49.3394391 40.4783277,49.0772598 40.1366674,49.0772598 C39.8804581,48.9900138 39.5387979,49.0772598 39.3678958,49.3394391 C39.1116865,49.5140782 39.0262355,49.8629149 39.1116865,50.1250943 Z M43.7230214,55.976754 C44.6625512,56.6756046 45.7729831,57.199669 46.9681467,57.5490943 C47.395258,57.6364874 47.8223693,57.3744552 47.9076765,56.9376368 C47.9931276,56.5008184 47.8223693,55.976754 47.395258,55.8893609 C46.4557282,55.6273287 45.4313228,55.1910989 44.6625512,54.4922483 C44.3208909,54.2302161 43.8083286,54.4048552 43.4666683,54.7542805 C43.2964855,55.1037057 43.3817927,55.7147218 43.7230214,55.976754 Z M50.4696251,57.8985195 C50.0425138,57.8985195 49.6155464,57.5490943 49.6155464,57.0250299 C49.6155464,56.5008184 49.9572066,56.0641471 50.3841741,56.0641471 C51.4940305,55.976754 52.4335604,55.8019678 53.373234,55.5399356 C53.6294433,55.4525425 53.9705281,55.5399356 54.1412863,55.7147218 C54.4829466,55.976754 54.4829466,56.5882115 54.2267374,56.9376368 C54.1412863,57.0250299 53.9705281,57.112423 53.8856525,57.199669 C52.9461227,57.6364874 51.6649326,57.8985195 50.4696251,57.8985195 Z M57.3865555,55.8019678 C58.3260853,55.2779034 59.3504907,54.5796414 60.2901644,53.9681839 C60.6318247,53.7060046 60.7171319,53.0945471 60.4609226,52.7451218 C60.2047134,52.3962851 59.777602,52.221646 59.3504907,52.4836782 C58.4969874,53.0945471 57.5574576,53.7933977 56.7032349,54.2302161 C56.4476011,54.3176092 56.2766991,54.6670345 56.2766991,54.9290667 C56.2766991,55.1910989 56.4476011,55.5399356 56.6177839,55.6273287 C56.874137,55.976754 57.1303463,55.976754 57.3865555,55.8019678 Z M62.7665181,51.7848276 C63.6207407,51.085977 64.4743879,50.2123402 65.1577085,49.3394391 C65.4139178,48.9900138 65.4139178,48.4658023 65.1577085,48.116377 C64.8160482,47.7669517 64.3895123,47.7669517 63.962401,48.116377 C63.2790805,48.9900138 62.4250017,49.6888644 61.6568055,50.4745195 C61.3151452,50.7365517 61.3151452,51.3480092 61.6568055,51.6974345 C61.9978904,52.0468598 62.4250017,52.0468598 62.7665181,51.7848276 Z M67.6340622,46.8066575 C68.3173828,45.8457747 69.0861544,45.059531 69.7688995,44.0992368 C70.0252526,43.7498115 69.9398016,43.1382069 69.5987167,42.8761747 C69.2570564,42.6141425 68.7444941,42.7015356 68.4028338,43.0509609 C67.8049643,44.0118437 67.0367681,44.7974989 66.3534476,45.7583816 C66.0972383,46.1078069 66.1826893,46.7192644 66.4388986,46.9812966 C66.7805589,47.1560828 67.2924019,47.0686897 67.6340622,46.8066575 Z M71.733554,41.0422437 C72.3314236,40.0813609 73.0141687,39.1204782 73.5265872,38.0727908 C73.7829403,37.7233655 73.6120382,37.1117609 73.2703779,36.8497287 C72.9287177,36.5876966 72.4162992,36.7623356 72.0752143,37.1117609 C71.562652,38.0727908 70.8793314,39.0336736 70.2814619,39.9939678 C70.1105598,40.256 70.1105598,40.5181793 70.1960108,40.8676046 C70.2814619,41.1296368 70.6231221,41.3042759 70.8793314,41.3042759 C71.2209917,41.4790621 71.562652,41.3042759 71.733554,41.0422437 Z M75.0635549,35.1905839 C75.4052152,34.5789793 75.6614245,33.8801287 76.0030848,33.2692598 C76.1739868,32.8324414 76.0030848,32.308377 75.5759734,32.1335908 C75.2343132,31.9589517 74.8079211,32.1335908 74.4662608,32.4830161 C74.2099077,33.0946207 73.8682475,33.7928828 73.6120382,34.3169471 C73.44128,34.7537655 73.5265872,35.2778299 73.9536985,35.5400092 C74.3808098,35.7146483 74.8932283,35.5400092 75.0635549,35.1905839 Z M44.7480022,8.64 C42.5277139,8.64 40.6490859,6.80606897 40.6490859,4.36009195 C40.6490859,2.00209655 42.4422629,0.0807724138 44.7480022,0.0807724138 C46.9681467,0.0807724138 48.8467748,1.91470345 48.8467748,4.36009195 C48.7613237,6.71867586 46.9681467,8.64 44.7480022,8.64 Z M44.7480022,1.65267126 C43.2964855,1.65267126 42.1860536,2.87558621 42.1860536,4.36009195 C42.1860536,5.84518621 43.3817927,7.06751264 44.7480022,7.06751264 C46.1993751,7.06751264 47.309807,5.84518621 47.309807,4.36009195 C47.309807,2.87558621 46.1140679,1.65267126 44.7480022,1.65267126 Z" id="Fill-9" fill="#9BA3AF"></path>
                </g>
            </g>
        </g>
    </g>
</svg>