<?xml version="1.0" encoding="UTF-8"?>
<svg width="12px" height="12px" viewBox="0 0 12 12" version="1.1" xmlns="http://www.w3.org/2000/svg" xmlns:xlink="http://www.w3.org/1999/xlink">
    <title>形状结合</title>
    <g id="页面-1" stroke="none" stroke-width="1" fill="none" fill-rule="evenodd">
        <g id="小内容" transform="translate(-1018.000000, -137.000000)" fill="#2997FF" fill-rule="nonzero">
            <g id="编组-3" transform="translate(758.000000, 62.000000)">
                <path d="M265.4,75 C265.731371,75 266,75.2686292 266,75.6 C266,75.9195362 265.750216,76.1807322 265.435255,76.1989815 L265.4,76.2 L261.4,76.2 C261.297433,76.2 261.212899,76.277208 261.201346,76.3766758 L261.2,76.4 L261.2,85.6 C261.2,85.7025672 261.277208,85.7871014 261.376676,85.7986545 L261.4,85.8 L270.6,85.8 C270.702567,85.8 270.787101,85.722792 270.798654,85.6233242 L270.8,85.6 L270.8,81.7 C270.8,81.3686292 271.068629,81.1 271.4,81.1 C271.719536,81.1 271.980732,81.349784 271.998981,81.6647454 L272,81.7 L272,85.6 C272,86.3570903 271.399043,86.9738197 270.64813,86.9991882 L270.6,87 L261.4,87 C260.64291,87 260.02618,86.3990433 260.000812,85.64813 L260,76.4 C260,75.6429097 260.600957,75.0261803 261.35187,75.0008118 L265.4,75 Z M271.4,75 L271.427324,75.0006186 C271.44202,75.0012844 271.456696,75.0024877 271.47132,75.0042284 L271.4,75 C271.443315,75 271.485558,75.0045899 271.526269,75.0133097 C271.539236,75.0161224 271.55295,75.0195484 271.566553,75.0234646 C271.588149,75.0296547 271.609031,75.0369827 271.629351,75.0453949 C271.638379,75.0491176 271.647675,75.0532306 271.656883,75.0575913 C271.677947,75.0676216 271.698121,75.0786827 271.717549,75.0908248 C271.725177,75.0955179 271.733224,75.1008068 271.741167,75.1063094 C271.769455,75.1261585 271.793796,75.146218 271.816426,75.1680394 C271.819229,75.170744 271.821755,75.1732265 271.824264,75.1757359 L271.844037,75.1964705 C271.858156,75.2119976 271.871472,75.2282682 271.883918,75.2452166 L271.824264,75.1757359 C271.855865,75.207337 271.883204,75.241586 271.906281,75.2777688 C271.915086,75.291685 271.923263,75.3057389 271.93087,75.3201397 C271.93903,75.3355163 271.946484,75.3512948 271.953212,75.3673059 C271.958606,75.3800784 271.963794,75.3937272 271.968489,75.4076037 C271.97395,75.4239434 271.978529,75.439694 271.98245,75.4555737 C271.98594,75.4694103 271.989015,75.4841259 271.99154,75.4990285 C271.994647,75.5176742 271.996891,75.5360776 271.998285,75.5545331 C271.998556,75.5579062 271.998783,75.5613219 271.998981,75.5647454 L272,75.6 L272,79 C272,79.3313708 271.731371,79.6 271.4,79.6 C271.080464,79.6 270.819268,79.350216 270.801019,79.0352546 L270.8,79 L270.8,77.048 L266.424264,81.4242641 C266.189949,81.6585786 265.810051,81.6585786 265.575736,81.4242641 C265.350794,81.1993221 265.341796,80.8402095 265.548743,80.6045339 L265.575736,80.5757359 L269.95,76.2 L268,76.2 C267.680464,76.2 267.419268,75.950216 267.401019,75.6352546 L267.4,75.6 C267.4,75.2804638 267.649784,75.0192678 267.964745,75.0010185 L268,75 L271.4,75 Z" id="形状结合"></path>
            </g>
        </g>
    </g>
</svg>