<?xml version="1.0" encoding="UTF-8"?>
<svg width="14px" height="14px" viewBox="0 0 14 14" version="1.1" xmlns="http://www.w3.org/2000/svg" xmlns:xlink="http://www.w3.org/1999/xlink">
    <g id="2023" stroke="none" stroke-width="1" fill="" fill-rule="evenodd">
        <g id="下载模板" transform="translate(-1398.000000, -59.000000)" fill="">
            <path d="M1405.00026,59 C1408.85854,59.0004488 1412.00753,62.1506178 1411.99999,66.002301 C1411.99228,69.8683075 1408.84833,73.0094025 1404.99569,72.9999789 C1401.13169,72.9904932 1398.00513,69.862746 1398.00001,66.0015399 C1397.9949,62.1474175 1401.14213,58.9995317 1405.00026,59 Z M1411.33895,65.9989446 C1411.33842,62.5083512 1408.51088,59.6714038 1405.00369,59.6641505 C1401.50773,59.6570024 1398.66539,62.4937937 1398.66172,65.9991007 C1398.65807,69.4899867 1401.49498,72.3242802 1404.99614,72.3342777 C1408.48342,72.3441651 1411.3395,69.4914503 1411.33895,65.9989446 Z M1405.39009,68.2615125 L1404.50102,68.2615125 C1404.50102,68.0839923 1404.49157,67.909731 1404.50301,67.7368551 C1404.52618,67.3876494 1404.607,67.0527866 1404.78946,66.7486391 C1404.93149,66.511874 1405.11227,66.3075803 1405.31317,66.1198347 C1405.56271,65.8866601 1405.81514,65.6565298 1406.05974,65.4182425 C1406.20375,65.2779943 1406.33169,65.1214909 1406.39825,64.9268177 C1406.55759,64.4602149 1406.45575,64.0436464 1406.14527,63.6726434 C1405.6298,63.0564256 1404.76756,63.0353113 1404.23951,63.3437324 C1403.90671,63.5381128 1403.70718,63.8355475 1403.59069,64.1932028 C1403.53854,64.3535896 1403.50247,64.5192257 1403.45566,64.6952238 C1403.14878,64.6587909 1402.83465,64.6215189 1402.5088,64.5828028 C1402.521,64.5015459 1402.52968,64.4251675 1402.54416,64.3498429 C1402.6253,63.9274006 1402.77198,63.5333709 1403.04775,63.1954639 C1403.38376,62.7838325 1403.82155,62.5441011 1404.33726,62.4451644 C1404.87546,62.341876 1405.41334,62.3530771 1405.93684,62.5230649 C1406.60701,62.7406086 1407.10289,63.1658805 1407.32827,63.843158 C1407.54465,64.493467 1407.43835,65.1077724 1407.01247,65.6565298 C1406.74226,66.0046622 1406.40627,66.2874612 1406.09054,66.5905355 C1405.95163,66.7239342 1405.8111,66.858094 1405.69042,67.0073577 C1405.51124,67.2290189 1405.44285,67.4970457 1405.42121,67.7774055 C1405.40901,67.9356458 1405.40069,68.0941982 1405.39009,68.2615125 Z M1404.4433,70.1418178 L1405.4966,70.1418178 L1405.4966,69.0894198 L1404.4433,69.0894198 L1404.4433,70.1418178 Z" id="Fill-1"></path>
        </g>
    </g>
</svg>