<?xml version="1.0" encoding="UTF-8"?>
<svg width="14px" height="14px" viewBox="0 0 14 14" version="1.1" xmlns="http://www.w3.org/2000/svg" xmlns:xlink="http://www.w3.org/1999/xlink">
    <title>刷新</title>
    <g id="页面-1" stroke="none" stroke-width="1" fill="" fill-rule="evenodd">
        <g id="TABLE" transform="translate(-1497.000000, -2371.000000)" fill="" fill-rule="nonzero">
            <g id="表格1备份-8" transform="translate(490.000000, 2290.000000)">
                <g id="刷新" transform="translate(1007.000000, 81.000000)">
                    <path d="M6.88771504,0.897966662 C6.88629458,0.975589977 6.87117952,1.05191626 6.84305464,1.12348758 L5.44441542,4.68270171 C5.3113654,5.02128331 4.9233404,5.17951366 4.57773732,5.03611909 C4.44934682,4.98284844 4.33926716,4.89217727 4.26243048,4.776405 L3.60939356,3.79259426 C3.11936949,4.30952916 2.75211913,4.93526222 2.5379545,5.63576314 C1.88271885,7.77894239 2.84608109,10.0741885 4.79858374,11.1153162 C5.36706868,11.4184479 5.58217999,12.1250328 5.27904831,12.6935177 C4.97591663,13.2620026 4.26933176,13.4771139 3.70084683,13.1739823 C0.768271501,11.6102531 -0.676147674,8.16887102 0.306845657,4.95364471 C0.680497055,3.73148606 1.36927357,2.65556744 2.29689363,1.81541588 L1.76876039,1.01911281 C1.56193049,0.707475604 1.64328775,0.296647079 1.95047693,0.101501613 C2.06459677,0.0290056669 2.19958925,-0.00612499706 2.33714281,0.000875048322 L6.22945212,0.198953105 C6.59972046,0.217795911 6.89443481,0.530754941 6.88771504,0.897966662 Z M10.2202331,0.784403135 C13.2031721,2.32613098 14.6861146,5.79965523 13.6934987,9.04635529 C13.3197779,10.2687412 12.6308329,11.3447431 11.7032047,12.1848076 L12.231584,12.9808872 C12.4384139,13.2925244 12.3570566,13.7033529 12.0498675,13.8984984 C11.9357476,13.9709943 11.8007552,14.006125 11.6632016,13.999125 L7.77089228,13.8010469 C7.40062394,13.7822041 7.1059096,13.4692451 7.11262936,13.1020333 C7.11404982,13.02441 7.12916488,12.9480837 7.15728976,12.8765124 L8.55592898,9.31729829 C8.688979,8.97871669 9.077004,8.82048634 9.42260708,8.96388091 C9.55099758,9.01715156 9.66107724,9.10782273 9.73791392,9.223595 L10.3908037,10.2075648 C10.880856,9.69064922 11.248192,9.06484658 11.4623899,8.36423686 C12.1240327,6.20010075 11.1349862,3.88343827 9.14901777,2.8569933 C8.5766878,2.56118536 8.35252241,1.85742053 8.64833035,1.28509056 C8.94413829,0.71276059 9.64790312,0.488595194 10.2202331,0.784403135 Z" id="形状"></path>
                </g>
            </g>
        </g>
    </g>
</svg>