<?xml version="1.0" encoding="UTF-8"?>
<svg width="60px" height="46px" viewBox="0 0 60 46" version="1.1" xmlns="http://www.w3.org/2000/svg" xmlns:xlink="http://www.w3.org/1999/xlink">
    <title>撤销</title>
    <g id="页面-1" stroke="none" stroke-width="1" fill="" fill-rule="evenodd">
        <g id="ICON" transform="translate(-819.000000, -647.000000)" fill="">
            <g id="形状结合" transform="translate(819.000000, 640.000000)">
                <path d="M21.1094341,7.24151066 C22.2140036,7.24151066 23.1094341,8.13694116 23.1094341,9.24151066 L23.1094341,9.24151066 L23.109,17.1125107 L23.5930177,17.1480349 C33.7017012,17.9418329 41.6898764,21.0927204 47.5575432,26.6006975 C53.550054,32.2258657 57.6232811,40.6755135 59.7772247,51.949641 C59.7692369,52.4334027 59.5309908,52.7328391 59.0624863,52.8479503 C58.5939818,52.9630614 58.1934238,52.8357716 57.8608122,52.4660808 C53.0428185,45.5693726 48.0775468,40.9773122 42.9649972,38.6898995 C37.8867586,36.417838 31.2685842,35.8798997 23.110474,37.0760846 L23.1094341,45.8679206 C23.1094341,46.3836256 22.9102296,46.8793984 22.5534105,47.2517313 C21.789153,48.0492175 20.5231095,48.0761546 19.7256234,47.311897 L19.7256234,47.311897 L0.616192112,28.9986921 L0.556026428,28.9385264 C-0.208231133,28.1410402 -0.181294039,26.8749968 0.616192112,26.1107392 L0.616192112,26.1107392 L19.7256234,7.79753425 C20.0979563,7.44071518 20.5937291,7.24151066 21.1094341,7.24151066 Z"></path>
            </g>
        </g>
    </g>
</svg>