<?xml version="1.0" encoding="UTF-8"?>
<svg width="60px" height="60px" viewBox="0 0 60 60" version="1.1" xmlns="http://www.w3.org/2000/svg" xmlns:xlink="http://www.w3.org/1999/xlink">
    <title>删除</title>
    <g id="页面-1" stroke="none" stroke-width="1" fill="" fill-rule="evenodd">
        <g id="ICON" transform="translate(-918.000000, -640.000000)" fill="">
            <g id="形状结合" transform="translate(918.000000, 640.000000)">
                <path d="M49,19 C50.0543618,19 50.9181651,19.8158778 50.9945143,20.8507377 L51,21 L51,54 C51,57.2383969 48.4344251,59.8775718 45.2249383,59.9958615 L45,60 L15,60 C11.7616031,60 9.12242824,57.4344251 9.00413847,54.2249383 L9,54 L9,21 C9,19.8954305 9.8954305,19 11,19 C12.0543618,19 12.9181651,19.8158778 12.9945143,20.8507377 L13,21 L13,54 C13,55.0543618 13.8158778,55.9181651 14.8507377,55.9945143 L15,56 L45,56 C46.0543618,56 46.9181651,55.1841222 46.9945143,54.1492623 L47,54 L47,21 C47,19.8954305 47.8954305,19 49,19 Z M23,19 C24.1045695,19 25,19.8954305 25,21 L25,45 C25,46.1045695 24.1045695,47 23,47 C21.8954305,47 21,46.1045695 21,45 L21,21 C21,19.8954305 21.8954305,19 23,19 Z M36,19 C37.1045695,19 38,19.8954305 38,21 L38,45 C38,46.1045695 37.1045695,47 36,47 C34.8954305,47 34,46.1045695 34,45 L34,21 C34,19.8954305 34.8954305,19 36,19 Z M41,0 C44.2383969,0 46.8775718,2.56557489 46.9958615,5.77506174 L47,6 L47,11 L58,11 C59.1045695,11 60,11.8954305 60,13 C60,14.1045695 59.1045695,15 58,15 L2,15 C0.8954305,15 1.3527075e-16,14.1045695 0,13 C-1.3527075e-16,11.8954305 0.8954305,11 2,11 L13,11 L13,6 C13,2.76160306 15.5655749,0.122428238 18.7750617,0.00413847206 L19,0 L41,0 Z M41,4 L19,4 C17.9456382,4 17.0818349,4.81587779 17.0054857,5.85073766 L17,6 L17,11 L43,11 L43,6 C43,4.9456382 42.1841222,4.08183488 41.1492623,4.00548574 L41,4 Z"></path>
            </g>
        </g>
    </g>
</svg>