<?xml version="1.0" encoding="UTF-8"?>
<svg width="60px" height="60px" viewBox="0 0 60 60" version="1.1" xmlns="http://www.w3.org/2000/svg" xmlns:xlink="http://www.w3.org/1999/xlink">
    <title>编辑</title>
    <g id="页面-1" stroke="none" stroke-width="1" fill="" fill-rule="evenodd">
        <g id="ICON" transform="translate(-720.000000, -640.000000)" fill="">
            <g id="形状结合" transform="translate(720.000000, 640.000000)">
                <path d="M29.9661705,0 C32.1753095,0 33.9661705,1.790861 33.9661705,4 C33.9661705,6.14219539 32.2822021,7.89107888 30.1658109,7.99510469 L29.9661705,8 L8,8 L8,52 L52,52 L52,30.1045765 C52,27.8954375 53.790861,26.1045765 56,26.1045765 C58.1421954,26.1045765 59.8910789,27.788545 59.9951047,29.9049362 L60,30.1045765 L60,52 C60,56.3349143 56.5521622,59.8645429 52.2491793,59.9961932 L52,60 L8,60 C3.66508574,60 0.135457134,56.5521622 0.00380682464,52.2491793 L0,52 L0,8 C0,3.66508574 3.44783777,0.135457134 7.75082067,0.00380682464 L8,0 L29.9661705,0 Z M45.0523968,7.48528137 L52.1234646,14.5563492 L28.1965945,38.4832193 C27.8356211,38.8441927 27.4088871,39.1327321 26.9394285,39.3332617 L17.650951,43.300842 C17.1430603,43.5177879 16.5554642,43.2819306 16.3385183,42.7740399 C16.2318823,42.524395 16.2313227,42.2421244 16.336968,41.9920587 L20.269454,32.683744 C20.4701971,32.208579 20.7609513,31.7767268 21.1256976,31.4119806 L45.0523968,7.48528137 Z M56.3661053,1.82842712 L57.7803188,3.24264069 C59.342416,4.80473785 59.342416,7.33739777 57.7803188,8.89949494 L54.9518917,11.7279221 L47.8808239,4.65685425 L50.709251,1.82842712 C52.2713482,0.266329958 54.8040081,0.266329958 56.3661053,1.82842712 Z"></path>
            </g>
        </g>
    </g>
</svg>