<?xml version="1.0" encoding="UTF-8"?>
<svg width="12px" height="12px" viewBox="0 0 12 12" version="1.1" xmlns="http://www.w3.org/2000/svg" xmlns:xlink="http://www.w3.org/1999/xlink">
    <title>形状</title>
    <g id="页面-1" stroke="none" stroke-width="1" fill="" fill-rule="evenodd">
        <g id="TABLE" transform="translate(-1466.000000, -216.000000)" fill="" fill-rule="nonzero">
            <g id="表格1" transform="translate(490.000000, 106.000000)">
                <path d="M977.610913,111.610913 C979.758796,109.463029 983.241204,109.463029 985.389087,111.610913 C987.536971,113.758796 987.536971,117.241204 985.389087,119.389087 C983.241204,121.536971 979.758796,121.536971 977.610913,119.389087 C975.463029,117.241204 975.463029,113.758796 977.610913,111.610913 Z M978.671573,112.671573 C977.109476,114.23367 977.109476,116.76633 978.671573,118.328427 C980.23367,119.890524 982.76633,119.890524 984.328427,118.328427 C985.890524,116.76633 985.890524,114.23367 984.328427,112.671573 C982.76633,111.109476 980.23367,111.109476 978.671573,112.671573 Z M984.681981,118.681981 C984.9944,118.369561 985.500932,118.369561 985.813351,118.681981 L987.510408,120.379037 C987.822827,120.691456 987.822827,121.197988 987.510408,121.510408 C987.197988,121.822827 986.691456,121.822827 986.379037,121.510408 L984.681981,119.813351 C984.369561,119.500932 984.369561,118.9944 984.681981,118.681981 Z" id="形状"></path>
            </g>
        </g>
    </g>
</svg>