<?xml version="1.0" encoding="UTF-8"?>
<svg width="60px" height="60px" viewBox="0 0 60 60" version="1.1" xmlns="http://www.w3.org/2000/svg" xmlns:xlink="http://www.w3.org/1999/xlink">
    <title></title>
    <g id="页面-1" stroke="none" stroke-width="1" fill="none" fill-rule="evenodd">
        <g id="ICON" transform="translate(-1038.000000, -586.000000)" fill="#F8AC58">
            <g id="敏感字段" transform="translate(1038.000000, 586.000000)">
                <path d="M3,0 L41,0 C42.6568542,0 44,1.34314575 44,3 C44,4.65685425 42.6568542,6 41,6 L3,6 C1.34314575,6 0,4.65685425 0,3 C0,1.34314575 1.34314575,0 3,0 Z M3,13.5 L21,13.5 C22.6568542,13.5 24,14.8431458 24,16.5 C24,18.1568542 22.6568542,19.5 21,19.5 L3,19.5 C1.34314575,19.5 0,18.1568542 0,16.5 C0,14.8431458 1.34314575,13.5 3,13.5 Z M22,54 C23.6568542,54 25,55.3431458 25,57 C25,58.6568542 23.6568542,60 22,60 L3,60 C1.34314575,60 0,58.6568542 0,57 C0,55.3431458 1.34314575,54 3,54 L22,54 Z M42,24 C51.9411255,24 60,32.0588745 60,42 C60,51.9411255 51.9411255,60 42,60 C32.0588745,60 24,51.9411255 24,42 C24,32.0588745 32.0588745,24 42,24 Z M42,28 C34.2680135,28 28,34.2680135 28,42 C28,49.7319865 34.2680135,56 42,56 C49.7319865,56 56,49.7319865 56,42 C56,34.2680135 49.7319865,28 42,28 Z M42,48 C43.1045695,48 44,48.8954305 44,50 C44,51.1045695 43.1045695,52 42,52 C40.8954305,52 40,51.1045695 40,50 C40,48.8954305 40.8954305,48 42,48 Z M10,40.5 C11.6568542,40.5 13,41.8431458 13,43.5 C13,45.1568542 11.6568542,46.5 10,46.5 L3,46.5 C1.34314575,46.5 0,45.1568542 0,43.5 C0,41.8431458 1.34314575,40.5 3,40.5 L10,40.5 Z M42,33 C43.1045695,33 44,33.8954305 44,35 L44,43 C44,44.1045695 43.1045695,45 42,45 C40.8954305,45 40,44.1045695 40,43 L40,35 C40,33.8954305 40.8954305,33 42,33 Z M19,27 C20.6568542,27 22,28.3431458 22,30 C22,31.6568542 20.6568542,33 19,33 L3,33 C1.34314575,33 0,31.6568542 0,30 C0,28.3431458 1.34314575,27 3,27 L19,27 Z" id="形状"></path>
            </g>
        </g>
    </g>
</svg>