<?xml version="1.0" encoding="UTF-8"?>
<svg width="14px" height="14px" viewBox="0 0 14 14" version="1.1" xmlns="http://www.w3.org/2000/svg" xmlns:xlink="http://www.w3.org/1999/xlink">
    <g id="2023" stroke="none" stroke-width="1" fill="none" fill-rule="evenodd">
        <g id="SQL窗口备份" transform="translate(-769.000000, -479.000000)" fill="#D12238">
            <g id="kingbasees" transform="translate(769.000000, 479.000000)">
                <path d="M13.0666667,0 C13.5821324,0 14,0.417867567 14,0.933333333 L14,13.0666667 C14,13.5821324 13.5821324,14 13.0666667,14 L0.933333333,14 C0.417867567,14 0,13.5821324 0,13.0666667 L0,0.933333333 C0,0.417867567 0.417867567,0 0.933333333,0 L13.0666667,0 Z M2.91041667,4.77546012 L1.98958333,4.77546012 L1.98958333,6.43456033 L0.933333333,6.92413088 L1.98958333,7.46809816 L1.98958333,9.1 L2.91041667,9.1 L2.91041667,7.90327198 L5.45625,9.1 L5.45625,8.20245399 L2.91041667,6.92413088 L5.45625,5.67300613 L5.45625,4.77546012 L2.91041667,5.97218814 L2.91041667,4.77546012 Z M11.30625,4.66666667 C10.2229167,4.66666667 9.70833333,5.18343558 9.70833333,5.9993865 C9.70833333,6.81533742 10.6833333,7.08732106 11.3875,7.25051125 C11.8569444,7.3593047 12.1277778,7.54969325 12.2,7.82167689 C12.2541667,8.20245399 11.9833333,8.39284254 11.3875,8.39284254 C10.7916667,8.39284254 10.4666667,8.13899114 10.4125,7.63128834 L9.54583333,7.63128834 C9.54583333,8.800818 10.7916667,9.1 11.46875,9.1 C12.1458333,9.1 13.0666667,8.66482618 13.0666667,7.90327198 C13.0666667,7.30490798 12.7145833,6.78813906 12.2,6.65214724 C12.05,6.60193487 11.8920228,6.55515583 11.7358865,6.51040158 L11.3459352,6.39927283 C10.9054126,6.2714223 10.5582176,6.15106969 10.575,5.9993865 L10.5693217,5.93794493 C10.552724,5.69958861 10.6072072,5.40102249 11.2791667,5.40102249 C11.7666667,5.40102249 12.0284722,5.60047716 12.0645833,5.9993865 L12.9583333,5.9993865 C12.9583333,5.42822086 12.3895833,4.66666667 11.30625,4.66666667 Z M9.24791667,4.80265849 L6.07916667,4.80265849 L6.07916667,8.96400818 L9.24791667,8.96400818 L9.24791667,8.25685072 L7,8.25685072 L7,7.19611452 L9.00416667,7.19611452 L9.00416667,6.46175869 L7,6.46175869 L7,5.56421268 L9.24791667,5.56421268 L9.24791667,4.80265849 Z" id="形状"></path>
            </g>
        </g>
    </g>
</svg>