<?xml version="1.0" encoding="UTF-8"?>
<svg width="14px" height="14px" viewBox="0 0 14 14" version="1.1" xmlns="http://www.w3.org/2000/svg" xmlns:xlink="http://www.w3.org/1999/xlink">
    <g id="2023" stroke="none" stroke-width="1" fill="none" fill-rule="evenodd">
        <g id="SQL窗口备份" transform="translate(-251.000000, -219.000000)" fill="#B3BEC5">
            <g id="opengauss_offline" transform="translate(251.000000, 219.000000)">
                <path d="M0.473196735,8.61664561 L0.480595655,8.69550693 C0.510201566,8.85255292 0.628717308,9.0040592 0.837248043,9.12338926 L6.14619357,12.1574559 L6.19027153,12.1818024 C6.19514868,12.1849596 6.20008704,12.1866191 6.20494378,12.1898572 C6.21475929,12.1946941 6.22614609,12.1995918 6.2359616,12.2044085 C6.24089997,12.2076466 6.24743003,12.2093061 6.25398051,12.2125442 C6.26369399,12.2173811 6.2735095,12.2206192 6.2833046,12.2254359 L6.34863334,12.2517936 L6.39433617,12.2675718 C6.42208896,12.2773064 6.44329127,12.282123 6.46290188,12.2885993 C6.48251249,12.2950957 6.50212311,12.2999934 6.52165209,12.30481 C6.52818216,12.3080481 6.53638556,12.3096267 6.54452774,12.3112863 C6.55758787,12.3145244 6.57226012,12.3177827 6.58534066,12.3210208 C6.59187073,12.3225994 6.60001291,12.3242589 6.60654298,12.3258375 C6.61962352,12.327497 6.63101033,12.3307351 6.64409087,12.3323137 C6.65229427,12.3339732 6.65882434,12.3355721 6.66696652,12.3372316 L6.71104448,12.3437078 C6.71590122,12.3452864 6.72245169,12.346865 6.72739005,12.346865 C6.7420623,12.3501031 6.75838747,12.3517626 6.77473305,12.3533412 C6.77799808,12.3533412 6.78287523,12.3550007 6.78614026,12.3550007 C6.80734258,12.3582591 6.82695319,12.3598376 6.8465638,12.3614972 L6.86450108,12.3630757 C6.87915292,12.3647353 6.89223347,12.3663138 6.90698734,12.3663138 C6.91351741,12.3679734 6.92163918,12.3679734 6.92978136,12.3679734 C6.9428415,12.3679734 6.95433033,12.369552 6.96732925,12.369552 L7.08976803,12.369552 C7.0962981,12.3679734 7.1045015,12.3679734 7.11264368,12.3679734 L7.13384854,12.3677659 L7.15512994,12.3663138 L7.17959728,12.3647353 C7.22200192,12.3614972 7.26448817,12.3582591 7.3068928,12.3517626 C7.33791063,12.346865 7.3624596,12.3437078 7.38525362,12.3388102 L7.40972097,12.3339732 L7.44241213,12.327497 C7.4505339,12.3242589 7.46034941,12.3225994 7.46855281,12.3210208 C7.47836832,12.3193613 7.48975512,12.3177827 7.49957063,12.3145244 C7.5076924,12.3128648 7.51750791,12.3096267 7.52571131,12.3080481 C7.5550354,12.3015719 7.58278819,12.2934969 7.6121939,12.2837826 C7.63833458,12.2756468 7.66282234,12.2675718 7.68896302,12.2578575 C7.69214643,12.2562789 7.69541146,12.2562789 7.6986765,12.2546194 L7.76077336,12.2303336 C7.76565051,12.228674 7.77218058,12.2254359 7.77703731,12.2238573 C7.79338289,12.2173811 7.80813676,12.2108847 7.82278861,12.2028299 L7.83913418,12.1946941 C7.85866317,12.1849596 7.87827378,12.1753262 7.89621106,12.1639321 L13.1708941,9.12338926 C13.1823626,9.1168928 13.1905047,9.11199517 13.2002999,9.1055999 C13.2068299,9.10070226 13.2149721,9.09586534 13.2215022,9.0909677 C13.2280322,9.08772959 13.2345827,9.08291291 13.2411128,9.07801527 C13.2492345,9.07317835 13.255785,9.06828071 13.2623151,9.06346402 C13.2688452,9.06022592 13.2738039,9.05538899 13.280334,9.05049135 L13.299863,9.03594011 L13.3162086,9.0214091 C13.3292687,9.01001501 13.3423492,8.9987221 13.3554298,8.98574943 C13.3700816,8.97443629 13.3782238,8.96630055 13.3864272,8.95658622 C13.4010995,8.94203498 13.4076295,8.93395995 13.4141596,8.9258242 C13.4255668,8.91285153 13.4320969,8.90321816 13.4386473,8.8934836 L13.4598497,8.86108228 L13.4857812,8.8100922 L13.4973976,8.78336769 L13.508866,8.74936756 C13.5104577,8.74446992 13.512131,8.73807466 13.5137227,8.73317702 C13.5153961,8.72668056 13.5170082,8.72186388 13.5186815,8.71538766 C13.5202732,8.71046979 13.5202732,8.70399357 13.5219465,8.69917688 C13.5235382,8.6943602 13.5235382,8.68786375 13.5252116,8.68138753 L13.5268033,8.66517675 C13.5268033,8.65870054 13.5268033,8.65222432 13.53166,8.64572787 L13.5326667,8.635 L13.528395,10.2502306 L13.528395,10.2729378 C13.528395,10.279414 13.5268033,10.2858093 13.5268033,10.2923057 L13.5252116,10.3084963 C13.5235382,10.3134142 13.5235382,10.3198904 13.5219465,10.3262856 C13.5202732,10.3360202 13.5186815,10.3392583 13.5186815,10.3424964 C13.5170082,10.3489726 13.5153961,10.3538905 13.5137227,10.3603667 L13.5023359,10.3943668 L13.4974052,10.406449 C13.4925204,10.4169729 13.4908471,10.4234491 13.487582,10.4299253 C13.4859903,10.4364218 13.4843986,10.4413194 13.4811336,10.4461361 C13.4778686,10.4509528 13.4745831,10.4574492 13.4713181,10.4639255 L13.4663797,10.47366 C13.4631147,10.4768981 13.461523,10.4801362 13.4598497,10.4833743 C13.4517075,10.4979256 13.4451774,10.5060613 13.4386473,10.5157959 C13.4288318,10.5286674 13.4223018,10.5384019 13.4157717,10.5465377 C13.4043645,10.5610889 13.3962427,10.5691437 13.3896922,10.5772997 C13.3749588,10.5934902 13.3651433,10.6032248 13.3570215,10.6112796 L13.3308604,10.6355654 C13.3243303,10.640463 13.3194736,10.6452797 13.3129435,10.6500964 C13.3080664,10.6549941 13.303128,10.659831 13.296598,10.6647286 L13.277069,10.6792799 C13.2721306,10.682518 13.2655801,10.6873347 13.2590501,10.6922323 C13.2509079,10.6970692 13.2443778,10.7019669 13.2378477,10.7067835 L13.2280424,10.7132926 L13.2182371,10.7197562 C13.210095,10.7246539 13.2035649,10.7294705 13.1954431,10.7342872 C13.1921781,10.7359468 13.1872193,10.7392051 13.1823626,10.7424432 C13.1774242,10.7440218 13.1725675,10.7472599 13.1676087,10.750498 L7.89302765,13.7911218 C7.87341704,13.8024349 7.85539813,13.8121493 7.83586915,13.8218838 L7.81952357,13.8299386 C7.80487173,13.8364351 7.78852615,13.8444899 7.77377228,13.8509661 C7.76891554,13.8526256 7.76238547,13.855884 7.75750833,13.8574625 L7.69541146,13.8818091 L7.63180451,13.9044151 L7.60892887,13.9125508 L7.55344369,13.9286807 C7.53383308,13.9335783 7.5158958,13.9384152 7.49628519,13.9433129 C7.47836832,13.9481296 7.4587577,13.9530272 7.43914709,13.9562855 C7.42773988,13.9578641 7.41794478,13.9611022 7.40645594,13.9627618 C7.4000075,13.9643403 7.39506913,13.9643403 7.38851866,13.9659189 C7.35919457,13.9723951 7.33464559,13.9756535 7.31183117,13.9788916 C7.28242545,13.9837892 7.26122314,13.9870273 7.24002082,13.9886059 L7.23020531,13.9902654 L7.21547185,13.991844 C7.2007996,13.9935035 7.18771906,13.9935035 7.17465892,13.9951024 C7.16651674,13.9951024 7.15839497,13.9967619 7.15019157,13.9967619 L7.10776653,13.9983405 C7.10282817,14 7.0962981,14 7.09144136,14 L6.96245211,14 C6.94939197,14 6.93798476,13.9983405 6.92490421,13.9983405 C6.91670082,13.9967619 6.91025237,13.9967619 6.90202857,13.9967619 L6.88002785,13.99511 L6.85795061,13.9935035 C6.85309387,13.991844 6.8465638,13.991844 6.84160503,13.991844 L6.78126312,13.9853678 L6.77146802,13.9837892 C6.75512244,13.9821297 6.73877686,13.9788916 6.72245169,13.977313 L6.70618774,13.9756535 C6.69143387,13.9740547 6.67676162,13.9723951 6.66210978,13.969157 C6.65388597,13.9675784 6.64735591,13.9659189 6.63921373,13.9643403 C6.62615359,13.9627618 6.61474638,13.9611022 6.60168624,13.9578641 L6.5879782,13.9552559 L6.539671,13.9433129 C6.53144719,13.9400748 6.52491712,13.9384152 6.51677495,13.9368367 C6.50371481,13.9335783 6.4923076,13.9303402 6.47924746,13.9271021 C6.47596202,13.9254426 6.47102365,13.9254426 6.46775862,13.923864 C6.46457521,13.9222854 6.46131018,13.9222854 6.45804514,13.9206259 C6.4367612,13.9158092 6.41723222,13.9093127 6.39762161,13.9028365 C6.36660378,13.8914424 6.34531984,13.8833876 6.32411752,13.8753328 C6.31103698,13.870415 6.30450691,13.8688364 6.29805847,13.8655983 L6.27844786,13.8574625 C6.26863235,13.8526256 6.25883725,13.8493875 6.24902174,13.8444899 C6.244165,13.8413327 6.23763493,13.8396732 6.23108446,13.8364351 C6.21969765,13.8315982 6.20988214,13.8267005 6.20008704,13.8218838 C6.19514868,13.8186457 6.19027153,13.8169862 6.18533317,13.8137481 L6.14125521,13.7894623 L0.832391304,10.7489194 C0.589105447,10.6096201 0.468258371,10.4251086 0.468258371,10.2420948 L0.473196735,8.61664561 Z M0.473196735,6.08600357 L0.480595655,6.16489061 C0.510201566,6.32197201 0.628717308,6.47342872 0.837248043,6.59282817 L6.14619357,9.6268948 L6.19027153,9.65116037 C6.19514868,9.65439848 6.20008704,9.65605801 6.20494378,9.65929612 C6.21475929,9.66413304 6.22614609,9.66903068 6.2359616,9.67384736 C6.24089997,9.67708547 6.24743003,9.67866405 6.25398051,9.68190216 C6.26369399,9.68682003 6.2735095,9.69005814 6.2833046,9.69487483 L6.2931099,9.6989427 L6.30291521,9.70301057 C6.33393303,9.71590229 6.36333875,9.72729638 6.39433617,9.73701071 C6.42208896,9.74674527 6.44329127,9.75156195 6.46290188,9.75803817 L6.47350304,9.76186824 L6.4841042,9.76451439 C6.49718474,9.76777273 6.50857155,9.77101084 6.52165209,9.77424895 C6.52818216,9.77748705 6.53638556,9.77906563 6.54452774,9.78072516 C6.55758787,9.78396327 6.57226012,9.78722162 6.58534066,9.79045972 C6.59187073,9.7920383 6.60001291,9.79369783 6.60654298,9.79527641 L6.64409087,9.80175263 C6.65229427,9.8033312 6.65882434,9.80499073 6.66696652,9.80658955 C6.68163876,9.80824908 6.69637223,9.81148719 6.71104448,9.81306577 C6.71590122,9.8147253 6.72245169,9.81630387 6.72739005,9.81630387 C6.7420623,9.81954198 6.75838747,9.82120151 6.77473305,9.82278009 C6.77799808,9.82278009 6.78287523,9.82443962 6.78614026,9.82443962 C6.80734258,9.82769797 6.82695319,9.82927654 6.8465638,9.83093607 C6.85309387,9.83251465 6.85795061,9.83251465 6.86450108,9.83251465 C6.87915292,9.83417418 6.89223347,9.83575276 6.90698734,9.83575276 C6.91351741,9.83733134 6.92163918,9.83733134 6.92978136,9.83733134 C6.9428415,9.83733134 6.95433033,9.83899087 6.96732925,9.83899087 L7.08976803,9.83899087 C7.0962981,9.83733134 7.1045015,9.83733134 7.11264368,9.83733134 C7.13551932,9.83733134 7.15672164,9.83575276 7.17959728,9.83417418 C7.22200192,9.83093607 7.26448817,9.82769797 7.3068928,9.82120151 C7.33791063,9.81630387 7.3624596,9.81306577 7.38525362,9.80824908 L7.40972097,9.8033312 C7.42120981,9.80175263 7.43100491,9.79851452 7.44241213,9.79685499 L7.46855281,9.79045972 C7.47836832,9.78880019 7.48975512,9.78722162 7.49957063,9.78396327 C7.5076924,9.78230374 7.51750791,9.77906563 7.52571131,9.77748705 C7.53542479,9.77424895 7.54691363,9.77258942 7.55670873,9.76935131 C7.57464601,9.76451439 7.59425662,9.75961675 7.6121939,9.75322148 C7.63833458,9.74508574 7.66282234,9.73701071 7.68896302,9.72729638 C7.69214643,9.72563685 7.69541146,9.72563685 7.6986765,9.72403804 C7.71996044,9.71590229 7.74116275,9.7078475 7.76077336,9.69977247 L7.77703731,9.69329625 C7.79338289,9.68682003 7.80813676,9.68032358 7.82278861,9.67226879 L7.83913418,9.66413304 C7.85866317,9.65439848 7.87827378,9.64468415 7.89621106,9.63337101 L13.1725675,6.59440675 C13.1839543,6.58793053 13.1921781,6.58309361 13.2018916,6.57661739 C13.2084216,6.57171975 13.2166454,6.56688283 13.2231755,6.56198519 C13.2297056,6.55874708 13.236256,6.5539304 13.2427045,6.54911371 C13.2509079,6.54419584 13.2574584,6.53937915 13.2639884,6.53448151 C13.2705185,6.5312434 13.2753956,6.52640648 13.2819257,6.52150884 L13.3015363,6.50697783 C13.3063931,6.50214091 13.3129435,6.49724327 13.3178819,6.49242659 C13.3243303,6.48752895 13.3308604,6.48269202 13.3358192,6.47779439 C13.3439409,6.46973959 13.3521443,6.46324314 13.3586948,6.45676692 C13.3733467,6.44545378 13.3814888,6.43731804 13.3896922,6.42768467 C13.4043645,6.41305247 13.4108946,6.40497743 13.417445,6.39684169 C13.4288318,6.38229044 13.4353823,6.37423565 13.4419124,6.36450109 C13.4484424,6.35478676 13.4565846,6.34347362 13.4631147,6.33209977 L13.4761952,6.3078342 C13.4794603,6.30299727 13.4827253,6.29652106 13.4859903,6.29004484 C13.487582,6.28354839 13.4908471,6.27865075 13.4925204,6.27383406 C13.5006626,6.25762329 13.5071927,6.23983393 13.512131,6.22204458 L13.5219465,6.18806468 C13.5235382,6.18316704 13.5235382,6.17667059 13.5252116,6.1718539 L13.528395,6.1539836 L13.5300683,6.13785377 C13.53166,6.13137755 13.53166,6.12490134 13.53166,6.11840488 L13.5326667,6.107 L13.528395,7.72292783 L13.528395,7.74553387 C13.528395,7.75201008 13.5268033,7.7584863 13.5268033,7.76498275 C13.5268033,7.76988039 13.5252116,7.77627566 13.5252116,7.78117329 C13.5235382,7.78601022 13.5235382,7.79248643 13.5219465,7.79896265 C13.5202732,7.80869721 13.5186815,7.81193532 13.5186815,7.81517343 C13.5170082,7.82164964 13.5153961,7.82648657 13.5137227,7.83296278 L13.5023359,7.86696291 L13.4974052,7.87912859 L13.4811336,7.91715359 C13.4778686,7.92205123 13.4745831,7.92854768 13.4713181,7.93494294 L13.4663797,7.9446775 C13.4631147,7.94791561 13.461523,7.95115372 13.4598497,7.95439183 C13.4517075,7.96902403 13.4451774,7.97707882 13.4386473,7.98681338 C13.4288318,7.99976582 13.4223018,8.00950038 13.4157717,8.01755517 C13.4043645,8.03210642 13.3962427,8.04024216 13.3896922,8.0483172 C13.3749588,8.06450774 13.3651433,8.0742423 13.3570215,8.08229709 L13.3308604,8.1065829 C13.3243303,8.11148054 13.3194736,8.11629722 13.3129435,8.12119486 C13.3080664,8.12603179 13.303128,8.13092942 13.296598,8.13574611 L13.277069,8.15029736 C13.2721306,8.15353546 13.2655801,8.1584331 13.2590501,8.16324979 C13.2509079,8.16816766 13.2443778,8.17298435 13.2378477,8.17780104 L13.2280424,8.18431014 L13.2182371,8.19077371 C13.210095,8.19567134 13.2035649,8.20048803 13.1954431,8.20538567 C13.1921781,8.20698448 13.1872193,8.21022259 13.1823626,8.2134607 C13.1774242,8.21512023 13.1725675,8.21827738 13.1676087,8.22151549 L7.89302765,11.2621393 C7.87341704,11.2734524 7.85539813,11.283187 7.83586915,11.2929013 L7.81952357,11.3009561 C7.80487173,11.3074526 7.78852615,11.3155883 7.77377228,11.3220645 C7.76891554,11.3236633 7.76238547,11.3269014 7.75750833,11.328561 L7.69541146,11.3528266 L7.63180451,11.3754326 L7.60892887,11.3835683 L7.52486444,11.4070623 L7.49628519,11.4143304 C7.48649009,11.4159089 7.47508288,11.419147 7.46528777,11.4208066 C7.45708437,11.4240447 7.44726887,11.4256435 7.43914709,11.427303 C7.42773988,11.4288816 7.41794478,11.4321197 7.40645594,11.4337792 L7.38851866,11.4370174 C7.35919457,11.4434936 7.33464559,11.4467519 7.31183117,11.44999 C7.28242545,11.4548067 7.26122314,11.4580448 7.24002082,11.4596234 L7.23020531,11.4612829 L7.21547185,11.4628615 C7.2007996,11.464521 7.18771906,11.464521 7.17465892,11.4661199 C7.16651674,11.4661199 7.15839497,11.4677794 7.15019157,11.4677794 L7.10776653,11.469358 C7.10282817,11.4710175 7.0962981,11.4710175 7.09144136,11.4710175 L6.96245211,11.4710175 C6.94939197,11.4710175 6.93798476,11.469358 6.92490421,11.469358 C6.91670082,11.4677794 6.91025237,11.4677794 6.90202857,11.4677794 L6.88002785,11.4661274 L6.85795061,11.464521 C6.85309387,11.4628615 6.8465638,11.4628615 6.84160503,11.4628615 L6.78126312,11.4563853 L6.77146802,11.4548067 C6.75512244,11.4532281 6.73877686,11.44999 6.72245169,11.4483305 L6.70618774,11.4467519 C6.69143387,11.4450924 6.67676162,11.4434936 6.66210978,11.4402555 C6.65388597,11.4385959 6.64735591,11.4370174 6.63921373,11.4353578 C6.62615359,11.4337792 6.61474638,11.4321197 6.60168624,11.4288816 L6.5879782,11.4262734 L6.539671,11.4143304 C6.53144719,11.4110923 6.52491712,11.4095137 6.51677495,11.4078541 C6.50371481,11.404616 6.4923076,11.4013577 6.47924746,11.3981196 C6.47596202,11.396541 6.47102365,11.396541 6.46775862,11.3948815 C6.46457521,11.3933029 6.46131018,11.3933029 6.45804514,11.3916434 C6.4367612,11.3868267 6.41723222,11.3803302 6.39762161,11.373854 C6.36660378,11.3625409 6.34531984,11.3544051 6.32411752,11.3463503 C6.31103698,11.3398539 6.30450691,11.3381944 6.29805847,11.3349562 L6.27844786,11.3269014 C6.26863235,11.3220645 6.25883725,11.3188264 6.24902174,11.3139288 C6.244165,11.3106907 6.23763493,11.3091121 6.23108446,11.305874 C6.21969765,11.3009561 6.20988214,11.2961394 6.20008704,11.2913227 C6.19514868,11.2880846 6.19027153,11.2864251 6.18533317,11.283187 L6.14125521,11.2589012 L0.832391304,8.21827738 C0.589105447,8.07905898 0.468258371,7.89446659 0.468258371,7.71153374 L0.473196735,6.08600357 Z M13.4794603,3.73187888 L13.528395,3.75948375 L13.528395,5.18097265 C13.528395,5.18744886 13.5268033,5.19394532 13.5268033,5.20042153 L13.5252116,5.21663231 C13.5235382,5.221449 13.5235382,5.22792521 13.5219465,5.23442167 C13.5202732,5.24413599 13.5186815,5.2473741 13.5186815,5.2506122 C13.5170082,5.25710866 13.5153961,5.26192534 13.5137227,5.26840156 C13.512131,5.27323848 13.5104577,5.2797147 13.508866,5.28461234 C13.5071927,5.29108855 13.5039276,5.29592548 13.5023359,5.30240169 L13.4974052,5.31454207 L13.4811336,5.35259237 L13.4663797,5.38177581 C13.4631147,5.38493297 13.461523,5.38817108 13.4598497,5.39140918 C13.4517075,5.40604138 13.4451774,5.41411642 13.4386473,5.42383074 C13.4288318,5.43680341 13.4223018,5.44651773 13.4157717,5.45459276 C13.4043645,5.46912377 13.3962427,5.47727976 13.3896922,5.48533455 C13.3749588,5.50154533 13.3651433,5.51125965 13.3570215,5.51933468 L13.3374109,5.53720499 C13.3243303,5.54849789 13.3194736,5.55331458 13.3129435,5.55823246 C13.3080664,5.56304914 13.303128,5.56794678 13.296598,5.57276346 L13.277069,5.58731471 L13.2590501,5.60194691 C13.2509079,5.6067636 13.2443778,5.61166124 13.2378477,5.61649816 L13.2280424,5.62300473 L13.2182371,5.62945059 C13.210095,5.63426728 13.2035649,5.63918515 13.1954431,5.64400184 C13.1921781,5.64566137 13.1872193,5.64889948 13.1823626,5.65213758 C13.1774242,5.65371616 13.1725675,5.65697451 13.1676087,5.66021262 L7.89302765,8.70083641 C7.87341704,8.71212932 7.85539813,8.72186388 7.83586915,8.7315782 C7.83093078,8.73483655 7.82440072,8.73641513 7.81952357,8.73965323 C7.80487173,8.74612945 7.78852615,8.75420448 7.77377228,8.7606807 C7.76891554,8.76234023 7.76238547,8.76557833 7.75750833,8.76715691 L7.69541146,8.79142248 L7.63180451,8.81412972 L7.60892887,8.82226546 C7.57952316,8.83032025 7.55177036,8.83839529 7.52244628,8.84653103 C7.51422247,8.84810961 7.50442737,8.85134772 7.49628519,8.85300725 C7.48649009,8.85460606 7.47508288,8.85784417 7.46528777,8.8595037 C7.45708437,8.86274181 7.44726887,8.86432039 7.43914709,8.86589897 C7.42773988,8.8675585 7.41794478,8.8707966 7.40645594,8.87237518 C7.4000075,8.87403471 7.39506913,8.87403471 7.38851866,8.87563353 C7.35919457,8.88210974 7.33464559,8.88534785 7.31183117,8.88858596 C7.28242545,8.8934836 7.26122314,8.89674194 7.24002082,8.89832052 L7.23020531,8.89998005 L7.21547185,8.90155863 C7.2007996,8.90321816 7.18771906,8.90321816 7.17465892,8.90479674 L7.10776653,8.90803484 L6.96245211,8.90961342 C6.94939197,8.90961342 6.93798476,8.90803484 6.92490421,8.90803484 L6.91347404,8.90658276 L6.90202857,8.90637531 L6.88002785,8.90479674 L6.85795061,8.90321816 C6.85309387,8.90155863 6.8465638,8.90155863 6.84160503,8.90155863 L6.78126312,8.89508241 L6.77146802,8.8934836 C6.75512244,8.89182407 6.73877686,8.88858596 6.72245169,8.88700738 L6.70618774,8.88534785 C6.69143387,8.88376927 6.67676162,8.88210974 6.66210978,8.87887164 C6.65388597,8.87729306 6.64735591,8.87563353 6.63921373,8.87403471 C6.62615359,8.87237518 6.61474638,8.8707966 6.60168624,8.8675585 C6.5901974,8.86589897 6.58534066,8.86432039 6.58048392,8.86274181 L6.5600392,8.85788212 L6.539671,8.85300725 C6.53144719,8.84976914 6.52491712,8.84810961 6.51677495,8.84653103 L6.47924746,8.83681671 C6.47596202,8.83515718 6.47102365,8.83515718 6.46775862,8.83355836 L6.45804514,8.83032025 C6.4367612,8.82542262 6.41723222,8.81902735 6.39762161,8.8125309 C6.36660378,8.80115705 6.34531984,8.79308201 6.32411752,8.78494627 C6.31103698,8.778551 6.30450691,8.77689147 6.29805847,8.77365337 L6.27844786,8.76557833 C6.26863235,8.7606807 6.25883725,8.75744259 6.24902174,8.75260566 C6.244165,8.74936756 6.23763493,8.74770803 6.23108446,8.74446992 C6.21969765,8.73965323 6.20988214,8.73483655 6.20008704,8.72991867 C6.19514868,8.72668056 6.19027153,8.72510199 6.18533317,8.72186388 L6.14125521,8.69759831 L0.832391304,5.65697451 C0.616837831,5.53394665 0.497684491,5.37687817 0.471523405,5.21497278 C0.468258371,5.19394532 0.466666667,5.17291785 0.466666667,5.15180944 L0.471523405,3.57970805 C0.528681909,3.45346232 0.636448442,3.34008806 0.79970015,3.2461627 L6.11025779,0.210436537 L6.15433575,0.186170966 C6.15927411,0.182932858 6.16413085,0.181354281 6.16906922,0.178116173 C6.17888472,0.173218535 6.19027153,0.168381611 6.20008704,0.163483973 C6.20494378,0.160326818 6.21149425,0.158667287 6.21802432,0.155429179 C6.22781942,0.150592256 6.23763493,0.147354148 6.24743003,0.14245651 L6.27677198,0.130316135 L6.28986783,0.12604841 C6.31432242,0.114952831 6.33560636,0.108456377 6.35840038,0.100401583 C6.38613277,0.0906670213 6.40741671,0.0857693831 6.42694569,0.07937412 C6.43021073,0.0777145897 6.43347576,0.0777145897 6.4367612,0.0761360121 C6.44002624,0.0744764818 6.4449646,0.0744764818 6.44822964,0.0728979042 C6.46131018,0.0696395581 6.47269698,0.0664014502 6.48577753,0.0631633423 C6.4938993,0.0599252344 6.50044978,0.0582657041 6.50857155,0.0566871265 C6.52165209,0.0534490186 6.53638556,0.0501906725 6.54938447,0.0469525646 C6.55591454,0.0452930343 6.56087331,0.0452930343 6.56573005,0.0437144567 C6.58374896,0.0404763488 6.59513577,0.0372382409 6.60821631,0.0356596633 C6.61633808,0.034000133 6.62288856,0.0324215554 6.63101033,0.0307620251 L6.67508829,0.0242655711 C6.68002665,0.0242655711 6.6849038,0.0226869935 6.68984216,0.0226869935 C6.70777944,0.0194488856 6.72412502,0.0177893553 6.74045019,0.0162107777 L6.7502657,0.0145512474 C6.76979469,0.0113131395 6.79107863,0.00971432371 6.81060761,0.00805479341 C6.81554598,0.00647621581 6.82207605,0.00647621581 6.82695319,0.00647621581 C6.84160503,0.00481668551 6.8563589,0.0032381079 6.87103115,0.0032381079 C6.87915292,0.0015785776 6.8857034,0.0015785776 6.8939068,0.0015785776 C6.9037019,0 6.91351741,0 6.92323088,0 L6.92323088,1.61905395 L6.91103547,1.62043521 L6.89876353,1.62063253 L6.88735632,1.62208462 L6.87588789,1.62229206 C6.86121564,1.62387064 6.84815551,1.62387064 6.83348326,1.62553017 L6.81554598,1.62710875 L6.75512244,1.6336052 C6.7518574,1.6336052 6.74700067,1.63526473 6.74373563,1.63526473 L6.69637223,1.64174095 C6.69143387,1.64331952 6.6849038,1.64497905 6.68002665,1.64497905 C6.66537481,1.64655763 6.65062094,1.64821716 6.63594869,1.65147551 C6.62782692,1.65305409 6.62129685,1.65471362 6.61307305,1.65629219 C6.60001291,1.65795172 6.58701399,1.6595303 6.57552515,1.66276841 C6.56899509,1.66434699 6.56087331,1.66600652 6.55432284,1.66758509 C6.5412627,1.67084344 6.52659045,1.67408155 6.51350991,1.67731966 C6.50538814,1.68055776 6.49885807,1.68221729 6.49063427,1.68379587 C6.47757413,1.68703398 6.46616692,1.69029233 6.45308637,1.69353043 L6.37146052,1.717796 C6.33232092,1.73076867 6.3013235,1.74206158 6.27189738,1.75503425 L6.23759412,1.76962597 L6.22288106,1.77614266 L6.20494378,1.78419746 C6.19355697,1.78901414 6.18374146,1.79393202 6.17394636,1.7987487 C6.16906922,1.80198681 6.16413085,1.80364634 6.15927411,1.80688445 L6.11519615,1.83115002 L1.55394344,4.44268404 L6.14452024,7.06715026 L6.1885982,7.09141583 C6.19355697,7.09467418 6.19841371,7.09633371 6.20335207,7.09957182 C6.21316758,7.1043885 6.22455439,7.10928614 6.2343699,7.11412307 L6.25230718,7.12225881 C6.26210228,7.1270755 6.27189738,7.1303136 6.28171289,7.13515053 C6.28824296,7.13838864 6.29479344,7.14004817 6.3013235,7.14328627 C6.33232092,7.15625894 6.36166542,7.16755185 6.39266284,7.17728641 C6.44002624,7.19347695 6.48083916,7.20479009 6.52006039,7.21450441 C6.52659045,7.21776276 6.53471223,7.21934133 6.54293603,7.22100086 C6.55591454,7.22423897 6.57066842,7.22747708 6.58374896,7.23071519 C6.5901974,7.23229377 6.5984008,7.2339533 6.60495127,7.23555211 C6.61801141,7.23721164 6.62941862,7.24044975 6.64249917,7.24202833 C6.65062094,7.24368786 6.65715101,7.24526644 6.66537481,7.24684501 L6.68737553,7.25011348 L6.70945277,7.25332123 C6.71430951,7.25498076 6.72083958,7.25657958 6.72571672,7.25657958 C6.74045019,7.25981768 6.75671414,7.26147721 6.77305972,7.26305579 C6.77632475,7.26305579 6.78126312,7.26471532 6.78454856,7.26471532 C6.80575087,7.26795343 6.82536149,7.26953201 6.84489047,7.27119154 C6.85142054,7.27277011 6.8563589,7.27277011 6.86288897,7.27277011 C6.87756122,7.27442964 6.89064176,7.27602846 6.90531401,7.27602846 C6.91184408,7.27768799 6.91996585,7.27768799 6.92818966,7.27768799 L6.96571714,7.27926657 L7.08815592,7.27926657 C7.0947064,7.27768799 7.10282817,7.27768799 7.11105197,7.27768799 L7.13224664,7.27748055 L7.15345661,7.27602846 C7.16157838,7.27602846 7.16978178,7.27442964 7.17792395,7.27442964 C7.19267783,7.27277011 7.20565634,7.27277011 7.21873688,7.27119154 L7.3068928,7.26147721 C7.33791063,7.25657958 7.3624596,7.25332123 7.38525362,7.24850454 L7.40972097,7.24368786 L7.44241213,7.23721164 C7.4505339,7.2339533 7.46034941,7.23229377 7.46855281,7.23071519 C7.47836832,7.22905566 7.48975512,7.22747708 7.49957063,7.22423897 C7.5076924,7.22257944 7.51750791,7.21934133 7.52571131,7.21776276 C7.5452403,7.21284488 7.56485091,7.20636866 7.58278819,7.20155198 L7.6121939,7.19181742 C7.63833458,7.18376262 7.66282234,7.17562688 7.68896302,7.16589232 C7.69214643,7.16431374 7.69541146,7.16431374 7.6986765,7.16273516 C7.71996044,7.15625894 7.74116275,7.14652438 7.76077336,7.13838864 C7.76565051,7.13681006 7.77218058,7.13355171 7.77703731,7.13189218 C7.79338289,7.12541597 7.80813676,7.1190207 7.82278861,7.11086472 L7.83913418,7.10280993 C7.85866317,7.09307536 7.87827378,7.08336104 7.89621106,7.0720479 L12.178385,4.60458944 L9.46997793,3.04378095 L6.46457521,4.76489602 C6.22128936,4.90411442 6.10044228,5.08870681 6.10044228,5.27163967 L6.09966667,5.268 L6.09558554,3.6461095 C6.09558554,3.48788745 6.18437115,3.33088465 6.36289332,3.20158467 L6.45963685,3.13936585 L7.86360153,2.33465556 L9.46512119,1.41991032 L13.4794603,3.73187888 Z" id="形状结合"></path>
            </g>
        </g>
    </g>
</svg>