<?xml version="1.0" encoding="UTF-8"?>
<svg width="14px" height="14px" viewBox="0 0 14 14" version="1.1" xmlns="http://www.w3.org/2000/svg" xmlns:xlink="http://www.w3.org/1999/xlink">
    <g id="2023" stroke="none" stroke-width="1" fill="none" fill-rule="evenodd">
        <g id="对象树对象图标" transform="translate(-299.000000, -708.000000)" fill="#1AB394" fill-rule="nonzero">
            <g id="函数" transform="translate(299.000000, 708.000000)">
                <path d="M9.70313852,0.122855935 C10.0324804,0.178098467 10.2549925,0.491731309 10.2001333,0.823374494 C10.1452741,1.15501768 9.83381766,1.37908468 9.50447581,1.32384215 C7.34410946,0.961470624 6.13936022,1.49135652 5.6653925,2.90250846 L5.65241236,2.94468017 L5.61914561,3.07182869 L5.57626983,3.25542596 L5.49428828,3.63502339 L5.36748333,4.2595 L6.58109473,4.25966487 C6.91497432,4.25966487 7.18563721,4.53221907 7.18563721,4.86843171 C7.18563721,5.18936196 6.93902082,5.45228937 6.62621244,5.47552878 L6.58109473,5.47719855 L5.13053333,5.47715 L4.73312854,7.5251039 L4.53111672,8.54079944 L4.38369696,9.25534595 L4.29510601,9.66779897 L4.23340088,9.94465183 L4.15705154,10.2716764 L4.12127791,10.4175624 L4.07044636,10.6148859 L4.02282563,10.7869655 L3.99276011,10.8879733 L3.96396841,10.9782304 L3.93638922,11.0579243 L3.90996126,11.1272425 C3.2204532,12.8379789 2.22348508,13.8274088 0.914205375,13.9950708 C0.582993171,14.0374847 0.280347947,13.8014912 0.238228347,13.4679646 C0.196108748,13.134438 0.430464609,12.829678 0.761676813,12.7872641 C1.54811149,12.6865559 2.21001683,12.0490776 2.74294537,10.7827351 L2.79894302,10.6454201 L2.81876098,10.5894818 L2.85149278,10.4854817 L2.87532254,10.4027767 L2.9140891,10.2587016 L2.9714379,10.0293195 L3.03528202,9.7574468 L3.10565056,9.44321163 L3.22350038,8.89270944 L3.37975958,8.1309296 L3.60797698,6.97692969 L3.89853333,5.47715 L2.65156856,5.47719855 C2.31768896,5.47719855 2.04702607,5.20464435 2.04702607,4.86843171 C2.04702607,4.54750146 2.29364246,4.28457405 2.60645084,4.26133464 L2.65156856,4.25966487 L4.13478333,4.2595 L4.16717205,4.09324989 L4.33063863,3.29076402 L4.41496305,2.90832246 L4.46181227,2.7155187 L4.49260261,2.60152169 L4.52004388,2.51242189 C5.20802332,0.464089293 7.01066673,-0.328768904 9.70313852,0.122855935 Z M8.35986403,4.25966487 C9.0193251,4.25966487 9.62463495,4.61986587 9.94382588,5.19642709 L9.97937265,5.26390538 L10.3332833,5.97135 L11.0713517,4.98638484 L11.1192675,4.92515598 C11.462862,4.50484101 11.9760969,4.25966487 12.5194156,4.25966487 L12.9287908,4.25966487 L12.9739086,4.26133464 C13.2867169,4.28457405 13.5333333,4.54750146 13.5333333,4.86843171 C13.5333333,5.20464435 13.2626704,5.47719855 12.9287908,5.47719855 L12.5194156,5.47719855 L12.467984,5.4794022 C12.2977228,5.494026 12.1405758,5.58076042 12.0367276,5.71943853 L10.9401833,7.1834 L11.7469881,8.79505273 C11.8424005,8.98565716 12.0292605,9.11091569 12.2382377,9.12783729 L12.2868243,9.12979957 L12.3242484,9.12979957 C12.658128,9.12979957 12.9287908,9.40235377 12.9287908,9.73856641 C12.9287908,10.0594967 12.6821745,10.3224241 12.3693661,10.3456635 L12.3242484,10.3473332 L12.2868243,10.3473332 C11.6273632,10.3473332 11.0220533,9.98713225 10.7028624,9.41057102 L10.6673156,9.34309273 L10.1285333,8.267 L9.11535862,9.62061328 L9.06744278,9.68184214 C8.72384831,10.1021571 8.21061346,10.3473332 7.66729474,10.3473332 L7.48790846,10.3473332 L7.44279074,10.3456635 C7.12998236,10.3224241 6.88336597,10.0594967 6.88336597,9.73856641 C6.88336597,9.40235377 7.15402886,9.12979957 7.48790846,9.12979957 L7.66729474,9.12979957 L7.71872632,9.12759592 C7.88898748,9.11297212 8.04613451,9.02623769 8.1499827,8.88755958 L9.52198333,7.05495 L8.89970024,5.81194538 C8.80428782,5.62134096 8.61742782,5.49608243 8.4084506,5.47916082 L8.35986403,5.47719855 L8.09245095,5.47719855 C7.75857135,5.47719855 7.48790846,5.20464435 7.48790846,4.86843171 C7.48790846,4.54750146 7.73452485,4.28457405 8.04733323,4.26133464 L8.09245095,4.25966487 L8.35986403,4.25966487 Z" id="形状"></path>
            </g>
        </g>
    </g>
</svg>