<?xml version="1.0" encoding="UTF-8"?>
<svg width="14px" height="14px" viewBox="0 0 14 14" version="1.1" xmlns="http://www.w3.org/2000/svg" xmlns:xlink="http://www.w3.org/1999/xlink">
    <g id="2023" stroke="none" stroke-width="1" fill="none" fill-rule="evenodd">
        <g id="SQL窗口备份" transform="translate(-251.000000, -323.000000)">
            <g id="DB2" transform="translate(251.000000, 323.000000)">
                <path d="M1.14399082,0 L12.867336,0 C13.1677191,0 13.455824,0.119255886 13.6682469,0.331484943 C13.8806698,0.543736105 14,0.831608099 14,1.13174831 L14,6.99429694 L0.0113268608,6.99429694 L0.0113268608,1.13174831 C0.0113268608,0.506688308 0.518425111,0 1.14399082,0 Z" id="Fill-1" fill="#B3BEC5"></path>
                <path d="M1.13266396,0 L12.8560092,0 C13.1563922,0 13.4445192,0.119255886 13.65692,0.331484943 C13.8693429,0.543736105 13.9886731,0.831608099 13.9886731,1.13174831 L13.9886731,3.48583076 L0,3.48583076 L0,1.13174831 C0,0.831608099 0.119352372,0.543736105 0.331753135,0.331484943 C0.544176021,0.119255886 0.832280921,0 1.13266396,0 Z" id="Fill-3" fill="#B3BEC5"></path>
                <path d="M0.0113268608,6.99429694 L14,6.99429694 L14,12.8682517 C14,13.4933117 13.4929017,14 12.867336,14 L1.14399082,14 C0.518425111,14 0.0113268608,13.4933117 0.0113268608,12.8682517 L0.0113268608,6.99429694 Z" id="Fill-4" fill="#B3BEC5"></path>
                <path d="M1.33652533,1.65242901 L3.60194175,1.65242901 L3.60194175,1.33544488 L1.33652533,1.33544488 L1.33652533,1.65242901 Z M3.85108844,1.33544488 L3.85108844,1.65242901 L6.99995575,1.65242901 C6.79523159,1.46323325 6.53088655,1.35116145 6.25244931,1.33544488 L3.85108844,1.33544488 Z M7.61160624,1.33544488 L7.61160624,1.65242901 L9.52593421,1.65242901 L9.40131662,1.33544488 L7.61160624,1.33544488 Z M10.8850911,1.33544488 L10.7718004,1.65242901 L12.6633862,1.65242901 L12.6633862,1.33544488 L10.8850911,1.33544488 Z M1.33652533,2.22956561 L3.60194175,2.22956561 L3.60194175,1.9239876 L1.33652533,1.9239876 L1.33652533,2.22956561 Z M3.83976158,1.9239876 L3.83976158,2.22956561 L7.37378641,2.22956561 C7.37378641,2.22956561 7.37378641,1.99193803 7.24919094,1.9239876 L3.83976158,1.9239876 Z M7.6003015,1.9239876 L7.6003015,2.22956561 L9.71846872,2.22956561 L9.62780959,1.9239876 L7.6003015,1.9239876 Z M10.6472713,1.9239876 L10.5453074,2.22956561 L12.6633862,2.22956561 L12.6633862,1.9239876 L10.6472713,1.9239876 Z M1.98224489,2.78417732 L2.93367908,2.78417732 L2.93367908,2.4672816 L1.98224489,2.4672816 L1.98224489,2.78417732 Z M4.496808,2.78417732 L5.44824219,2.78417732 L5.44824219,2.4672816 L4.496808,2.4672816 L4.496808,2.78417732 Z M6.38839376,2.4672816 L6.38839376,2.78417732 L7.33982795,2.78417732 C7.37925073,2.68280429 7.40214781,2.57581662 7.40776699,2.4672816 L6.38839376,2.4672816 Z M8.25723731,2.4672816 L8.25723731,2.78417732 L9.9449617,2.78417732 L9.83167096,2.4672816 L8.25723731,2.4672816 Z M10.4546483,2.4672816 L10.3414461,2.78417732 L12.0518242,2.78417732 L12.0518242,2.4672816 L10.4546483,2.4672816 Z M1.98224489,3.07845973 L1.98224489,3.38403774 L2.93367908,3.38403774 L2.93367908,3.12370844 L1.98224489,3.07845973 Z M4.496808,3.07845973 L4.496808,3.38403774 L6.99995575,3.38403774 C7.10435313,3.29846971 7.19257876,3.1949304 7.26049568,3.07845973 L4.496808,3.07845973 Z M8.25723731,3.07845973 L8.25723731,3.38403774 L9.26537217,3.38403774 L9.26537217,3.24820319 L9.33331121,3.42928645 L11.0889525,3.42928645 L11.1569579,3.24820319 L11.1569579,3.42928645 L12.1084142,3.42928645 L12.1084142,3.12370844 L10.2960723,3.12370844 L10.2055016,3.38403774 L10.1148646,3.12370844 L8.25723731,3.07845973 Z M1.98224489,3.67820963 L1.98224489,3.99510535 L2.93367908,3.99510535 L2.93367908,3.72354676 L1.98224489,3.67820963 Z M4.496808,3.67820963 L4.496808,3.99510535 L7.20390562,3.99510535 C7.1484217,3.8958986 7.07979685,3.80453908 6.99995575,3.72354676 L4.496808,3.67820963 Z M8.25723731,3.67820963 L8.25723731,3.99510535 L9.26537217,3.99510535 L9.26537217,3.72354676 L8.25723731,3.67820963 Z M9.38998976,3.67820963 L9.503192,3.99510535 L10.8171742,3.99510535 L10.9303765,3.67820963 L9.38998976,3.67820963 Z M11.0776257,3.67820963 L11.0776257,3.99510535 L12.029082,3.99510535 L12.029082,3.72354676 L11.0776257,3.67820963 Z M2.01620335,4.28938776 L2.01620335,4.59496577 L2.96765966,4.59496577 L2.96765966,4.33472489 L2.01620335,4.28938776 Z M4.53076646,4.28938776 L4.53076646,4.59496577 L5.48222277,4.59496577 L5.48222277,4.33472489 L4.53076646,4.28938776 Z M6.42235222,4.28938776 L6.42235222,4.59496577 L7.44172545,4.59496577 C7.43705754,4.48996754 7.41398349,4.38651665 7.37378641,4.28938776 L6.42235222,4.28938776 Z M8.29128426,4.28938776 L8.29128426,4.59496577 L9.26537217,4.59496577 L9.26537217,4.33472489 L8.29128426,4.28938776 Z M9.63913645,4.28938776 L9.75242718,4.59496577 L10.6359666,4.59496577 L10.7491688,4.28938776 L9.63913645,4.28938776 Z M11.1116726,4.28938776 L11.1116726,4.59496577 L12.0631289,4.59496577 L12.0631289,4.33472489 L11.1116726,4.28938776 Z M1.33652533,5.2400749 L3.60194175,5.2400749 L3.60194175,4.92317919 L1.33652533,4.92317919 L1.33652533,5.2400749 Z M3.82845684,4.92317919 L3.82845684,5.2400749 L7.22653722,5.2400749 C7.28633508,5.14259234 7.32852321,5.0353394 7.35115481,4.92317919 L3.82845684,4.92317919 Z M7.61160624,5.2400749 L9.26537217,5.2400749 L9.26537217,4.92317919 L7.61160624,4.92317919 L7.61160624,5.2400749 Z M9.79771251,4.92317919 L9.91100324,5.2400749 L10.3980583,5.2400749 L10.511349,4.92317919 L9.79771251,4.92317919 Z M11.0549941,5.2400749 L12.6633862,5.2400749 L12.6633862,4.92317919 L11.0549941,4.92317919 L11.0549941,5.2400749 Z M1.33652533,5.86254863 L3.60194175,5.86254863 L3.60194175,5.53433521 L1.33652533,5.53433521 L1.33652533,5.86254863 Z M3.82845684,5.53433521 L3.82845684,5.86254863 L6.25244931,5.86254863 C6.53382888,5.84986042 6.80034195,5.73285924 6.99995575,5.53433521 L3.82845684,5.53433521 Z M7.61160624,5.86254863 L9.26537217,5.86254863 L9.26537217,5.53433521 L7.61160624,5.53433521 L7.61160624,5.86254863 Z M10.0016624,5.53433521 L10.1261915,5.83991322 L10.2394822,5.53433521 L10.0016624,5.53433521 Z M11.0549941,5.86254863 L12.6633862,5.86254863 L12.6633862,5.53433521 L11.0549941,5.53433521 L11.0549941,5.86254863 Z M3.33007496,8.12613367 L2.01620335,8.12613367 L2.01620335,12.1551921 L3.31877023,12.1551921 C3.84573473,12.1658025 4.35524436,11.9662616 4.73462783,11.6006688 C5.12850172,11.201145 5.33780529,10.6555963 5.31231986,10.09537 C5.37999343,9.55311489 5.19263564,9.01006404 4.80480127,8.6247979 C4.41694478,8.23950965 3.87243692,8.0553317 3.33007496,8.12613367 Z M4.1796559,11.0799881 C3.94986663,11.3354101 3.6165649,11.472792 3.27348491,11.4535387 L2.83171521,11.4535387 L2.83171521,8.83910482 L3.27348491,8.83910482 C3.60289303,8.82935656 3.92342992,8.94686616 4.16824054,9.16731823 C4.4043348,9.42152448 4.52696134,9.76052509 4.50811274,10.1066877 C4.52738167,10.4646764 4.41004248,10.816542 4.1796559,11.0913943 L4.1796559,11.0799881 Z M8.54043095,10.3217683 C8.3764127,10.140265 8.14991973,10.0270659 7.90612674,10.0048725 C8.10817405,9.94244834 8.2886074,9.82485032 8.42722871,9.66527511 C8.56591639,9.50501465 8.64230633,9.30012442 8.64239482,9.08813852 C8.65181912,8.81571784 8.5242592,8.5565822 8.30261112,8.39769225 C8.01977144,8.20498181 7.68177968,8.10964342 7.33982795,8.12613367 L5.99190939,8.12613367 L5.99190939,12.1551921 L7.40776699,12.1551921 C7.77383255,12.1816075 8.13565054,12.0638326 8.41581336,11.8269787 C8.66210621,11.6051561 8.79873647,11.2867131 8.78964401,10.9555597 C8.79605962,10.7192363 8.70608629,10.4904949 8.54043095,10.3217683 Z M6.80742124,8.7712428 L7.14720495,8.7712428 C7.57764778,8.7712428 7.7929245,8.92969066 7.7929245,9.23526867 C7.80104356,9.38655454 7.73821488,9.53291102 7.6229331,9.6313441 C7.50265157,9.73194346 7.34934074,9.78435416 7.19257876,9.77847426 L6.80742124,9.77847426 L6.80742124,8.7712428 Z M7.77018229,11.3742705 C7.62813195,11.4746931 7.45718927,11.5263301 7.2831494,11.5214007 L6.80742124,11.5214007 L6.80742124,10.3896524 L7.27182254,10.3896524 C7.45028696,10.377561 7.62709218,10.4297949 7.77018229,10.5367825 C7.88546407,10.6352156 7.94829275,10.7816605 7.9400852,10.9329464 C7.95391194,11.0982026 7.89134873,11.2608061 7.77018229,11.3742705 Z M10.1715432,11.5214007 L11.7799353,11.5214007 L11.7799353,12.2231426 L9.26537217,12.2231426 L9.26537217,11.8609097 C9.26322626,11.6675803 9.29778203,11.4755551 9.36735816,11.2950908 C9.44478787,11.1186717 9.54779151,10.9546976 9.67309491,10.8084295 C9.84921433,10.6099055 10.0467707,10.431519 10.2621138,10.2764532 C10.4600905,10.1333683 10.6357011,9.96179012 10.7832158,9.76715655 C10.8761093,9.62159585 10.9270138,9.45320079 10.9303765,9.28051738 C10.9483623,9.1337188 10.898586,8.98667707 10.794963,8.88099358 C10.6914284,8.775288 10.5453074,8.72245731 10.3980583,8.73731179 C10.0427001,8.7518126 9.70627908,8.90161745 9.4579288,9.15600053 L9.4579288,8.40900995 C9.79054473,8.17993697 10.1867636,8.0612116 10.5905928,8.06950093 C10.917324,8.05119809 11.2382812,8.16077203 11.4854369,8.37507895 C11.7131466,8.5976752 11.836459,8.90586159 11.8252206,9.22395097 C11.8286054,9.41002994 11.7938505,9.59491524 11.7233452,9.76715655 C11.6575742,9.93510951 11.5658974,10.0917448 11.4514784,10.2312045 C11.2705141,10.4180572 11.0734887,10.5884196 10.8624595,10.7404791 C10.6746814,10.8699917 10.5034733,11.0220512 10.3527729,11.1931873 C10.2767148,11.2648513 10.2285757,11.3610518 10.2168285,11.4648343 L10.1715432,11.5214007 Z" id="Fill-5" fill="#FFFFFF"></path>
            </g>
        </g>
    </g>
</svg>