<?xml version="1.0" encoding="UTF-8"?>
<svg width="14px" height="15px" viewBox="0 0 14 15" version="1.1" xmlns="http://www.w3.org/2000/svg" xmlns:xlink="http://www.w3.org/1999/xlink">
    <g id="2023" stroke="none" stroke-width="1" fill="none" fill-rule="evenodd">
        <g id="SQL窗口备份" transform="translate(-769.000000, -297.000000)">
            <g id="SQL-Server" transform="translate(769.000000, 297.000000)">
                <g id="编组-2" transform="translate(0.686024, 0.000000)">
                    <path d="M8.09694235,6.28858247 L5.28586665,7.16944287 L2.84031591,8.20527066 L2.15609781,8.37864971 C1.9817956,8.5377342 1.79913609,8.69874549 1.601581,8.8618318 C1.38478866,9.04123827 1.18296054,9.20443986 1.02837609,9.32261691 C0.855223653,9.45314524 0.600694725,9.69784881 0.471182196,9.85281622 C0.277659897,10.0853167 0.124945972,10.3316836 0.0589283894,10.5216628 C-0.0579194717,10.8642049 -0.000139070996,11.2108148 0.224633037,11.5310588 C0.513620845,11.9388322 1.0894342,12.3548563 1.76078171,12.6382276 C2.10293366,12.7830999 2.67883282,12.9685667 3.11219441,13.0725151 C3.83255315,13.2483973 5.22640449,13.437586 5.99333764,13.4661586 C6.14845407,13.4723343 6.35666601,13.4723343 6.36524641,13.4661586 C6.38220128,13.4563764 6.50119424,13.2377752 6.63935581,12.9665741 C7.11100313,12.0428629 7.45106147,11.1762806 7.63588324,10.4356484 C7.74634729,9.98708287 7.83343833,9.39003843 7.89041217,8.68203009 C7.90535922,8.48427786 7.91172588,7.82213394 7.89899257,7.5973571 C7.87982396,7.23042526 7.84582842,6.93284174 7.79275008,6.64103862 C7.78422116,6.59825378 7.78207606,6.55953663 7.78636626,6.55747809 C7.79482654,6.55136832 7.8203618,6.54326588 8.16666667,6.4473376 L8.0966163,6.28838485 L8.09694235,6.28858247 Z M7.45542031,6.64947042 C7.48090409,6.64947042 7.54880936,7.27544979 7.56576423,7.67102014 C7.57005443,7.75464654 7.56790933,7.80971679 7.56375641,7.80971679 C7.5467329,7.80971679 7.20458095,7.61601577 6.96031418,7.46921668 C6.74781204,7.3407469 6.34413863,7.08382379 6.28038627,7.03486332 C6.25912405,7.02058524 6.26126915,7.01865844 6.43550271,6.96146377 C6.73078853,6.86561783 7.43189286,6.64947042 7.45530018,6.64947042 L7.45542031,6.64947042 Z M6.0231631,7.10221897 C6.04234887,7.10221897 6.09106837,7.12865071 6.20798487,7.19793316 C6.64585975,7.46104837 7.24065294,7.77908561 7.49564521,7.88524075 C7.57427598,7.91778226 7.58271909,7.90556272 7.40213604,8.02380565 C7.01521157,8.27667753 6.53302751,8.52538292 5.94231859,8.77626213 C5.83828984,8.82110551 5.75121596,8.85570557 5.74886493,8.85570557 C5.74457473,8.85570557 5.75730804,8.80476889 5.77433155,8.74358888 C5.91685197,8.23544073 5.9974219,7.72203916 6.0017121,7.31013219 C6.0038572,7.10620431 6.0038572,7.10620431 6.02297433,7.10016042 C6.01868413,7.10221897 6.02082923,7.10221897 6.02297433,7.10221897 L6.0231631,7.10221897 Z M5.72787728,7.21028444 C5.74049046,7.22252044 5.73204735,7.6793202 5.71507533,7.80360702 C5.67699552,8.10422072 5.61157856,8.40103023 5.51961386,8.69064305 C5.49620653,8.7659694 5.47496147,8.82920795 5.47073991,8.83332505 C5.46222815,8.84310726 5.17109525,8.5702263 5.07544097,8.46420291 C4.9097878,8.28067935 4.78015515,8.09720519 4.68455235,7.91778226 C4.63569557,7.82598754 4.5592099,7.64658107 4.56557655,7.64047131 C4.59948629,7.61807432 5.71929688,7.20205025 5.72787728,7.21048206 L5.72787728,7.21028444 Z M4.33778415,7.7342587 C4.34013518,7.7339952 4.3424862,7.73470334 4.34421944,7.73631724 C4.35743326,7.7596694 4.36815876,7.78424021 4.37606988,7.80965091 C4.4440438,7.98706471 4.59694649,8.2480555 4.7287414,8.4155718 C4.87320099,8.59909536 5.06243309,8.79478905 5.21955734,8.92370348 C5.2704391,8.96442977 5.31730523,9.00322926 5.32360324,9.00933903 C5.33647384,9.02162444 5.34076404,9.0190389 4.99432189,9.14609241 C4.59279358,9.29271034 4.15505599,9.43924594 3.65363469,9.59472386 C3.53371504,9.63172829 3.41405281,9.66909503 3.29452786,9.70685702 C3.2754279,9.71296678 3.2818632,9.7028058 3.33703516,9.61885002 C3.58559213,9.24580841 3.96379892,8.51373978 4.17630105,7.99589176 C4.21244169,7.90613912 4.24863381,7.81640295 4.25493182,7.7960151 C4.26344358,7.76744247 4.27404895,7.75690271 4.30166067,7.74293753 C4.31345014,7.73921568 4.32553134,7.73651486 4.33778415,7.73483509 L4.33778415,7.7342587 Z M3.91286567,7.90350418 C3.91916368,7.90762127 3.81103351,8.12569548 3.70465373,8.32557214 C3.49851825,8.71096503 3.2732828,9.09019875 2.97149304,9.55104973 C2.92055979,9.63062491 2.87168585,9.70402446 2.86525055,9.7121269 C2.85505704,9.72635557 2.85037214,9.72190911 2.8163766,9.65913167 C2.74418113,9.52236182 2.68459885,9.34712185 2.65274841,9.18611056 C2.62091513,9.02702606 2.62728179,8.74963277 2.66340526,8.57846049 C2.69101698,8.45198338 2.68888905,8.45404192 2.75262424,8.42347662 C3.02465718,8.29097208 3.90435392,7.89578051 3.91279703,7.90350418 L3.91286567,7.90350418 Z M7.57810284,8.04625204 L7.57810284,8.13187112 C7.57810284,8.58656293 7.52722108,9.21048375 7.45267458,9.66530731 C7.43994127,9.74475074 7.42935306,9.81004785 7.42720796,9.81190877 C7.42720796,9.81190877 7.36613269,9.79557215 7.29340523,9.77511843 C6.95475408,9.67192759 6.62734325,9.53747979 6.31584048,9.37350419 C6.10970499,9.26542225 5.81012898,9.08794258 5.81870937,9.07984014 C5.82073435,9.07778159 5.91034803,9.03293821 6.01411936,8.97987711 C6.43061188,8.77196389 6.83006374,8.54769757 7.17643725,8.32519336 C7.30600126,8.24161637 7.50141124,8.10705328 7.54397002,8.07031234 L7.5780342,8.04587327 L7.57810284,8.04625204 Z M2.30906914,8.64980149 C2.31751226,8.64980149 2.31536716,8.66613811 2.30263385,8.73953766 C2.29419073,8.79254935 2.28351672,8.89038796 2.27936381,8.95761187 C2.2623403,9.25532713 2.31335934,9.47552576 2.46633068,9.77735812 C2.50875217,9.86093512 2.54288499,9.93033285 2.54060261,9.93227612 C2.52579284,9.94456153 1.11920818,10.3401813 0.677180393,10.4563657 C0.545385479,10.4910316 0.430768521,10.5216628 0.422582821,10.5235896 C0.407704411,10.5277067 0.405559311,10.525714 0.412389308,10.4910316 C0.461263256,10.1913236 0.699232016,9.79975511 1.03070996,9.46948187 C1.25179249,9.24921737 1.42782794,9.12081345 1.72975499,8.95555332 C1.94654733,8.83731039 2.27963838,8.65996247 2.30563699,8.65186003 C2.30563699,8.64980149 2.3077306,8.64980149 2.3098757,8.64980149 L2.30906914,8.64980149 Z M5.62371125,9.21860266 C5.62585635,9.21665939 5.67687539,9.24317347 5.73848265,9.2778394 C6.19317511,9.53066188 6.82630552,9.76520446 7.3659954,9.88544006 L7.41486935,9.89522228 L7.34689543,9.93188088 C7.06427428,10.0828629 6.13572076,10.4539119 5.1860423,10.7944778 C5.04788073,10.8433066 4.9119329,10.8922012 4.886329,10.9025598 C4.86079373,10.9129019 4.83747221,10.9188305 4.83747221,10.9168379 C4.83747221,10.9147793 4.87580943,10.8434383 4.92468338,10.7556948 C5.19019521,10.2786225 5.45793796,9.69747004 5.59388578,9.29379726 C5.61097794,9.25468487 5.62156615,9.22039771 5.62371125,9.21820742 L5.62371125,9.21860266 Z M5.28586665,9.32474133 C5.28801175,9.32679988 5.27097108,9.36958471 5.24979466,9.41846285 C5.06485276,9.8484521 4.82264528,10.3174714 4.51248105,10.8438171 C4.43385028,10.9783966 4.36795283,11.0864786 4.36580773,11.0864786 C4.36366263,11.0864786 4.29991027,11.0497376 4.22323583,11.0048284 C3.77276493,10.7398687 3.37336456,10.4135149 3.11200564,10.0975363 L3.07378854,10.052627 L3.26725936,10.0016738 C3.95971465,9.82020883 4.5484844,9.62444927 5.13287815,9.38386279 C5.21581628,9.35123894 5.28377304,9.32474133 5.28586665,9.32474133 Z M7.38518117,10.0283197 C7.38732627,10.0752051 7.27892152,10.4953463 7.1896339,10.7991713 C7.11529333,11.0539865 7.05154097,11.2538631 6.93503633,11.6065169 C6.88415456,11.7616161 6.83958798,11.8898882 6.83730559,11.8898882 C6.82791864,11.8887848 6.81866897,11.8867263 6.80974535,11.8838279 C6.17834818,11.773638 5.61351773,11.620795 5.08227097,11.4168671 C4.93352119,11.3597383 4.72108769,11.2680095 4.70835438,11.2577826 C4.70406418,11.2536655 4.8315689,11.1966026 4.99344669,11.1293787 C5.96028594,10.7235156 6.96319719,10.2627964 7.3073398,10.0649783 C7.34809669,10.0404733 7.37953527,10.0282538 7.38597057,10.0282538 L7.38518117,10.0283197 Z M2.53859479,10.1874042 C2.54274771,10.1915213 2.27292851,10.5646287 1.89472172,11.0723817 C1.76292681,11.249746 1.60962941,11.4577087 1.55265557,11.5351759 C1.49573321,11.6126925 1.40819599,11.7350361 1.35918475,11.808765 L1.26989713,11.9414178 L1.1743115,11.8639011 C1.06168519,11.7742144 0.866223724,11.5824566 0.77906404,11.4764332 C0.596404526,11.258359 0.473601868,11.0279335 0.424333222,10.8178959 C0.400925896,10.7201725 0.400925896,10.6713438 0.422188123,10.664987 C0.453952757,10.6567528 1.02134016,10.5281513 1.55251828,10.4100401 C1.8478041,10.3448748 2.18980161,10.2673581 2.31308477,10.238802 C2.43629929,10.2102952 2.53624376,10.1878488 2.53838886,10.1878488 L2.53859479,10.1874042 Z M2.81047329,10.2873672 L2.87851584,10.3607667 C3.18452716,10.6890473 3.49678501,10.9317582 3.8749918,11.1437227 C3.94303435,11.1804636 3.99403624,11.213071 3.98974604,11.2151295 C3.97486763,11.2249117 2.67668772,11.6678122 2.07539058,11.867623 C1.73752883,11.9817488 1.45906059,12.0735435 1.45705278,12.0735435 C1.44224301,12.0656387 1.42803387,12.0568117 1.414494,12.0470459 L1.37634555,12.020466 L1.43795281,11.9348469 C1.63758435,11.6575195 1.88842371,11.3536944 2.4344116,10.7216547 L2.81035316,10.2871696 L2.81047329,10.2873672 Z M4.5061144,11.4516648 C4.50819085,11.4495404 4.60163139,11.4822301 4.71640279,11.5230717 C4.99265729,11.6229194 5.21152608,11.6860921 5.5046668,11.7576142 C5.86597021,11.8455554 6.38863658,11.9309274 6.69665571,11.9553665 C6.74352184,11.9593518 6.76898846,11.9634689 6.76040806,11.9696446 C6.74552965,11.9778293 6.43322032,12.0777265 6.20376332,12.1470089 C5.83828984,12.257133 4.72283809,12.573194 3.81338454,12.8240073 C3.64560343,12.8709093 3.50107521,12.9096429 3.49256345,12.9119485 C3.47136987,12.9160655 3.40085616,12.8976704 3.40085616,12.8895021 C3.40085616,12.8855167 3.45180656,12.8222782 3.5134653,12.7526663 C3.8230289,12.397707 4.11107287,12.0259993 4.37620717,11.6393878 C4.44625754,11.5373497 4.50583982,11.4536575 4.50583982,11.4517307 L4.5061144,11.4516648 Z M4.13212916,11.4613811 C4.13427426,11.4634397 3.98337938,11.6959237 3.719944,12.0954794 C3.6073177,12.2647249 3.48195808,12.4564991 3.43732285,12.523723 C3.39474691,12.5890201 3.33099456,12.6910417 3.29480244,12.7484834 L3.23367568,12.8524482 L3.20182524,12.8442799 C3.12520229,12.8239415 2.58765751,12.6423447 2.44534303,12.5873403 C2.27648079,12.5228831 2.11123949,12.45006 1.9502369,12.3692002 C1.78029353,12.2812591 1.56786004,12.1509943 1.58488355,12.1468772 C1.58905362,12.1448845 1.88016937,12.0694264 2.23076443,11.9776317 C3.16141157,11.7350361 3.67764264,11.5942809 4.01555588,11.4923911 C4.07723178,11.4739959 4.13025864,11.4597672 4.13240374,11.4617764 L4.13212916,11.4613811 Z M6.77744873,12.0568117 L6.77957667,12.0568117 C6.78803695,12.077216 6.44353396,12.9949326 6.31851756,13.2842984 C6.29090584,13.349579 6.28031763,13.3658662 6.26543922,13.3638077 C6.22929858,13.3617492 5.72990225,13.2945253 5.42608752,13.2517404 C4.89705449,13.1742238 4.00891465,13.0253003 3.78575565,12.9764715 L3.73489106,12.9666893 L4.05149058,12.8974069 C4.73134985,12.7508054 5.05853759,12.6710985 5.39003269,12.573194 C5.81810875,12.4474909 6.23633451,12.2928364 6.64162103,12.1103339 C6.7073812,12.0817118 6.76269045,12.0593313 6.77750022,12.0573386 L6.77744873,12.0568117 Z M5.19877561,0.000100882034 C5.15245862,-0.00587713777 4.39772681,0.255097187 3.91111527,0.44468111 C3.25457753,0.701620683 2.74471312,0.946324253 2.4301214,1.15804167 C2.31335934,1.23761685 2.16675466,1.37830617 2.14341598,1.43335995 C2.13464681,1.45542757 2.13028797,1.47897735 2.13053461,1.5026424 L2.41572349,1.76157465 L3.09357494,1.96961962 L4.70581458,2.24765518 L6.55011967,2.55148021 L6.56916815,2.39850548 C6.56287014,2.39850548 6.55897464,2.39644694 6.55226477,2.39644694 L6.31000581,2.35970599 L6.26114902,2.27614546 C6.01042979,1.85208483 5.73419245,1.32593675 5.5726922,0.971092688 C5.44741839,0.695823815 5.32828814,0.377852447 5.26252797,0.149469035 C5.22640449,0.010838262 5.22177108,0.00293344238 5.19877561,0.000545528135 L5.19877561,0.000100882034 Z M5.16479724,0.104131601 L5.16694233,0.104131601 C5.16901879,0.106124275 5.1770672,0.163236596 5.1860423,0.230460499 C5.22359012,0.522708266 5.29269665,0.810394294 5.39217778,1.08894037 C5.47073991,1.3132561 5.47073991,1.30103656 5.37944447,1.2746707 C5.16265214,1.21747603 4.19172861,1.05639887 3.48832474,0.962595007 C3.37571559,0.948316927 3.28012996,0.93410472 3.28012996,0.932046173 C3.27154956,0.923943733 3.78790075,0.664566841 4.01522982,0.563055783 C4.30634557,0.434520123 5.10526643,0.114424335 5.16479724,0.10424688 L5.16479724,0.104131601 Z M3.1164846,1.01759938 L3.19935409,1.04411346 C3.64975635,1.19071493 4.78230025,1.39895752 5.40698755,1.44790152 C5.47710656,1.45401129 5.53656872,1.46018693 5.53871382,1.46018693 C5.54079028,1.4621796 5.48132812,1.49274491 5.4049111,1.52741083 C5.10318998,1.67215137 4.77171204,1.84989454 4.54218639,1.98621974 C4.47428112,2.02699543 4.41253657,2.05961928 4.40409346,2.05961928 C4.39565035,2.05961928 4.35092932,2.05151684 4.30420047,2.0453412 L4.21927169,2.0331052 L4.00676955,1.83331088 C3.63285296,1.48464247 3.33957495,1.21541749 3.22696581,1.11351119 L3.1164846,1.01759938 Z M3.03155582,1.08083793 L3.33113184,1.43979908 C3.49463991,1.63761719 3.66048184,1.83125234 3.69660532,1.87408658 C3.73267731,1.91687141 3.76236549,1.95153734 3.76035768,1.95359589 C3.75177728,1.95977153 3.32684164,1.88019634 3.10160619,1.83125234 C2.87007273,1.78023331 2.77441845,1.75584365 2.63210397,1.71300941 L2.51506734,1.67626847 L2.51506734,1.64771231 C2.51721244,1.51094246 2.69786414,1.3072122 3.00387546,1.09923311 L3.03155582,1.08090381 L3.03155582,1.08083793 Z M5.57725697,1.57026154 C5.58583737,1.57026154 5.59642558,1.58859084 5.62190936,1.64359521 C5.69410483,1.79656994 5.91940893,2.20847691 5.97463237,2.28798622 C5.99160439,2.31448384 6.02136122,2.31654238 5.7217852,2.26965692 C5.0011004,2.15745789 4.76956694,2.12060167 4.76956694,2.1166822 C4.78437671,2.10451207 4.80079959,2.09421933 4.81842373,2.08611689 C5.0481553,1.96280171 5.26513641,1.81883518 5.46644971,1.65614411 C5.5153923,1.61703173 5.55995889,1.58062015 5.56833336,1.57457626 C5.57047846,1.57045916 5.57471717,1.56840062 5.57686227,1.57045916 L5.57725697,1.57026154 Z" id="Fill-1" fill="#909CA9"></path>
                    <path d="M2.28942793,1.34727563 C2.28942793,1.34727563 2.24310467,1.41824459 2.28737251,1.52382975 C2.31470442,1.58865528 2.39459379,1.66781549 2.485049,1.74889244 C2.485049,1.74889244 3.42090794,2.6292057 3.53451629,2.75500687 C4.05195406,3.33108085 4.27703041,3.89896359 4.29799223,4.6819976 C4.31066446,5.18505482 4.21180073,5.62720192 3.96535488,6.14017054 C3.52780646,7.06104685 2.60455179,8.07726927 1.1806424,9.20504009 L1.38885076,9.13816676 C1.52342093,9.04096942 1.70650568,8.93735016 2.13547571,8.71043625 C3.12603245,8.18703198 4.24072941,7.70636963 5.60785162,7.21124155 C7.5763948,6.49725974 10.8133324,5.66149048 12.6557479,5.3897213 L12.8473091,5.36136321 L12.8177858,5.31668815 C12.6495137,5.06513497 12.533782,4.90899343 12.395033,4.74266198 C11.9912036,4.25983714 11.5012336,3.868443 10.9017831,3.54387305 C10.0773242,3.09961261 9.01092101,2.75277885 7.66066678,2.49513138 C7.40613517,2.44655729 6.84675675,2.35325899 6.39242529,2.2862546 C5.4291495,2.14226886 4.80661381,2.04326946 4.12095482,1.92929646 C3.87484871,1.88865149 3.50684464,1.82780691 3.26279393,1.77718501 C3.13658131,1.75076005 2.89478986,1.69597699 2.70547093,1.63313375 C2.55432155,1.57630288 2.33527555,1.51947201 2.28896928,1.34707904 L2.28942793,1.34727563 Z M2.83154766,1.85493632 C2.83367102,1.85288851 2.86725411,1.86466752 2.91150497,1.87924794 C2.99146228,1.90562375 3.09445381,1.93601328 3.21653862,1.968467 C3.30870951,1.99297521 3.40127109,2.01664791 3.49410447,2.03943596 C3.62031709,2.06989101 3.72594159,2.0977904 3.72753836,2.0977904 C3.742266,2.11205955 3.95473807,2.76716268 4.02620193,3.01866671 C4.05355083,3.11401282 4.07464855,3.19515531 4.07252519,3.19515531 C4.07040183,3.19720312 4.04718074,3.16271797 4.01989979,3.11606063 C3.77386162,2.69806132 3.38487874,2.27429538 2.93459016,1.93345761 C2.8983741,1.90971938 2.86392468,1.88347462 2.8316156,1.85493632 L2.83154766,1.85493632 Z M3.86635526,2.13075197 C3.90464372,2.13427421 3.94259244,2.14041764 3.97994662,2.14898569 C4.33746977,2.22609808 4.97899681,2.34339673 5.38914536,2.41072878 C5.45853682,2.42039445 5.51314969,2.43305812 5.51314969,2.43702268 C5.51314969,2.44098724 5.48800908,2.45532192 5.4563625,2.47152421 C5.387022,2.50594383 5.10726484,2.66600078 5.01475422,2.72710748 C4.78132032,2.87717112 4.57124341,3.03947248 4.41955044,3.18544049 C4.35858448,3.24436832 4.30595909,3.29294241 4.30595909,3.29294241 C4.30595909,3.29294241 4.29335481,3.25858832 4.282738,3.21589554 C4.20709536,2.93400199 4.04930411,2.51598629 3.90630843,2.22200246 C3.89037473,2.19172761 3.87637753,2.16056811 3.8642319,2.12870416 C3.8642319,2.13273425 3.8642319,2.13075197 3.86635526,2.13075197 Z M5.68774098,2.4654463 C5.70034526,2.4694764 5.72144298,2.53846307 5.76345157,2.69057452 C5.84227076,2.99409297 5.8761766,3.30690029 5.86423481,3.61957655 C5.86005603,3.70474913 5.85580931,3.78390934 5.85156259,3.79408287 L5.8453284,3.81429886 L5.73664625,3.77974819 C5.51156991,3.71076151 5.1456892,3.60735521 4.83228101,3.5221171 C4.65345997,3.47545976 4.50834094,3.43283251 4.50834094,3.42886795 C4.50834094,3.41664661 4.76917469,3.16514258 4.88065968,3.06979647 C5.0930638,2.88927778 5.66936116,2.45917181 5.68826758,2.46531524 L5.68774098,2.4654463 Z M5.83292796,2.48572783 C5.83916215,2.47964993 6.70362518,2.62370119 7.09692274,2.69665243 C7.38921622,2.75143548 7.81421132,2.83667359 7.83936891,2.84678159 C7.85197318,2.85087722 7.80784123,2.87518884 7.66690097,2.9360498 C7.11165037,3.1773803 6.69925955,3.39444833 6.28931484,3.65809179 C6.18207658,3.727144 6.09157041,3.78390934 6.08944705,3.78390934 C6.08732369,3.78390934 6.08533622,3.72509619 6.08533622,3.65412723 C6.08533622,3.26869632 6.00537891,2.87921893 5.85813651,2.55068441 C5.84340888,2.51772284 5.8308046,2.48731693 5.83292796,2.48526912 L5.83292796,2.48572783 Z M8.06862403,2.91173818 C8.07492617,2.91775055 8.04752631,3.08214887 8.02230077,3.17942811 C7.94665813,3.48166873 7.74261156,3.93000841 7.49232667,4.35192314 C7.44819472,4.42692219 7.40819058,4.48797974 7.40394386,4.48976543 C7.39969713,4.49148559 7.3434875,4.46135819 7.27786713,4.42487438 C7.03381643,4.28696655 6.75618263,4.15705338 6.45334029,4.03541337 C6.36927215,4.00097737 6.29554903,3.9725046 6.29349362,3.9684745 C6.27876598,3.95636784 6.95598248,3.52421406 7.31350563,3.31720488 C7.59749253,3.15087343 8.06026648,2.90335034 8.06862403,2.91154159 L8.06862403,2.91173818 Z M8.2284707,2.9360498 C8.24744506,2.9360498 8.63010882,3.03742466 8.82990866,3.09423915 C9.32385356,3.23617707 9.89211613,3.4370592 10.2622605,3.59927864 L10.4157371,3.66628304 L10.3084989,3.69054551 C9.40415061,3.8909034 8.63010882,4.12217505 7.88361977,4.41419299 C7.8231804,4.43863567 7.76790505,4.4589172 7.76377723,4.4589172 C7.7596664,4.4589172 7.78064522,4.41225986 7.80797713,4.35537984 C8.03298552,3.89499902 8.17803661,3.41427115 8.21387896,3.00413544 C8.21593437,2.96529255 8.22223651,2.93521429 8.22853865,2.93521429 L8.2284707,2.9360498 Z M4.41742708,3.77968266 C4.42367826,3.77367028 4.71609065,3.84054362 4.87383095,3.88317086 C5.11349903,3.94806192 5.62257926,4.11239471 5.62257926,4.12448499 C5.62257926,4.1265328 5.56577508,4.17312461 5.49849,4.23007015 C5.22258887,4.45046383 4.95789909,4.68379968 4.6403291,4.98015898 C4.54562717,5.06762511 4.46580576,5.13841386 4.46155903,5.13841386 C4.45731231,5.13841386 4.45532484,5.12619252 4.45731231,5.1099247 C4.50569098,4.76923438 4.49526103,4.33105184 4.42792498,3.88680778 C4.42167381,3.83004244 4.41530372,3.78135367 4.41742708,3.77968266 Z M10.5609751,3.78582609 C10.5651708,3.78992171 10.4263539,4.00084631 10.3380221,4.12052042 C10.2120813,4.29489568 10.0266863,4.52579053 9.60819718,5.03294337 C9.38736756,5.30069883 9.13918904,5.60287392 9.05710837,5.70431431 C8.97297228,5.8056728 8.90363178,5.89091091 8.90150842,5.89091091 C8.87988411,5.86525592 8.86023027,5.83812652 8.84264883,5.80976842 C8.6061573,5.46899618 8.31918071,5.16349546 7.99079008,4.90309573 C7.92768377,4.85235915 7.85834327,4.79764162 7.83519013,4.78139019 C7.81978302,4.77152793 7.80564992,4.75994551 7.7931136,4.74688866 C7.7931136,4.74081075 8.15063675,4.59266387 8.42196841,4.48732444 C8.8972617,4.30066232 9.54509087,4.07758191 10.030933,3.933203 C10.2854137,3.8560906 10.5567963,3.78109155 10.5609751,3.78518717 L10.5609751,3.78582609 Z M10.7228941,3.82640553 C10.7312517,3.82435771 10.7817537,3.84873486 10.8427197,3.88317086 C11.3538553,4.16506442 11.8544421,4.52823153 12.249846,4.9014411 C12.361331,5.00689521 12.6368415,5.28277639 12.6329175,5.2848242 C12.6329175,5.2848242 12.5361092,5.29288439 12.4226367,5.30107563 C11.5371269,5.36596669 10.4035915,5.54643623 9.31403514,5.80003722 C9.24044792,5.81617398 9.17528619,5.83044313 9.17103947,5.83044313 C9.16679274,5.83044313 9.24880547,5.75134845 9.3519329,5.65598596 C9.99131959,5.06174379 10.283681,4.68642088 10.6285319,4.01698307 C10.6769106,3.91765601 10.719242,3.83228684 10.7232169,3.82640553 L10.7228941,3.82640553 Z M6.03901296,4.28850651 C6.06862112,4.29451888 6.34146461,4.41828861 6.54809318,4.51773035 C6.73741212,4.6089153 7.02180669,4.75501438 7.03607568,4.76718657 C7.0381311,4.76923438 6.93712703,4.8198399 6.81319065,4.87878411 C6.41751493,5.06942718 6.07935683,5.24994587 5.72555381,5.45677484 C5.62477057,5.51571905 5.54049859,5.56442421 5.53849413,5.56442421 C5.53000068,5.56442421 5.53214103,5.55623296 5.58886027,5.45677484 C5.7781792,5.12425938 5.92960038,4.72667266 6.01585982,4.33886629 C6.02421738,4.30847676 6.03271082,4.28824439 6.03894501,4.28824439 L6.03901296,4.28850651 Z M5.76571082,4.33714613 C5.77201296,4.34322403 5.70048115,4.59266387 5.6563492,4.72865494 C5.55814797,5.01343182 5.43353211,5.28898535 5.28409841,5.55213734 C5.25039641,5.60888629 5.19989438,5.69214212 5.17261342,5.73879946 L5.12000501,5.81987642 L5.00221789,5.71039222 C4.86545641,5.58259239 4.75398841,5.50343218 4.61106069,5.43246323 C4.55418857,5.40410513 4.51026046,5.37972798 4.51026046,5.37569789 C4.51026046,5.35951198 4.86990698,5.04523024 5.14528151,4.81792315 C5.34302594,4.65365589 5.75945965,4.33105184 5.76576179,4.33714613 L5.76571082,4.33714613 Z M7.43778175,5.00050603 L7.5408922,5.06533156 C7.7927229,5.22448748 8.03504094,5.39714257 8.26669121,5.58259239 C8.38653375,5.6779385 8.61784428,5.8787551 8.66408261,5.92739472 L8.68930814,5.95381968 L8.51864082,6.00047702 C7.55536503,6.25799343 6.81072755,6.48721727 5.94220465,6.79560132 C5.84539634,6.83008647 5.76338362,6.85844456 5.75701353,6.85844456 C5.74440926,6.85844456 5.73391136,6.86817576 5.9505622,6.67592721 C6.50582979,6.18304352 6.99792312,5.63935773 7.36392274,5.1099247 L7.43757791,5.00050603 L7.43778175,5.00050603 Z M6.99824587,5.10596014 C7.0023567,5.1099247 6.71430994,5.50138437 6.5417231,5.72254803 C6.33562111,5.98638808 5.96960451,6.42840412 5.71719626,6.71644111 C5.61209834,6.83611522 5.52164313,6.93555696 5.51739641,6.93760477 C5.51109427,6.93952152 5.50897091,6.909132 5.50897091,6.86254019 C5.50897091,6.61699938 5.44380919,6.35538735 5.33021783,6.13230694 C5.28183915,6.03899226 5.27341365,6.01659739 5.28396251,6.0064894 C5.32430639,5.97198787 5.93590251,5.63526211 6.32288094,5.43451104 C6.58373169,5.30069883 6.99167194,5.10186452 6.99824587,5.10596014 Z M4.33959314,5.73470384 C4.34584431,5.73470384 4.394206,5.75901546 4.44895476,5.78750461 C4.576951,5.85475475 4.69811852,5.93353816 4.81072464,6.02274083 C4.81483547,6.02683645 4.7603585,6.06939817 4.68875874,6.11995454 C4.48889095,6.25779684 4.1860486,6.47896049 4.00941888,6.61488604 C3.82434667,6.75688949 3.81785768,6.76065746 3.83909129,6.73044814 C3.97784024,6.52560145 4.04718074,6.40964617 4.12129456,6.26189246 C4.18897035,6.12418123 4.24796583,5.98255457 4.29785634,5.83792993 C4.31472432,5.77962463 4.33582204,5.73450725 4.34000082,5.73450725 L4.33959314,5.73470384 Z M5.04840526,6.2702803 C5.05849547,6.26823249 5.07149045,6.2864662 5.12822667,6.36747763 C5.2482051,6.53993613 5.34069874,6.77115864 5.36391982,6.9576897 L5.36803065,6.99833467 L5.07991594,7.10590212 C4.56460153,7.29852747 4.08930824,7.48917054 3.76749154,7.63078081 C3.67678152,7.67136025 3.51931302,7.74437702 3.41633847,7.79308217 C3.31321103,7.84381875 3.2291429,7.88228484 3.2291429,7.8805483 C3.2291429,7.87876261 3.29423667,7.83192506 3.37419398,7.77496313 C4.00311674,7.33488022 4.54781848,6.85203901 4.95591162,6.36932885 C5.00002658,6.3186578 5.03991181,6.27213152 5.04415853,6.26995265 L5.04840526,6.2702803 Z M4.72246074,6.34732716 C4.73076733,6.35538735 4.49062361,6.61711406 4.32698886,6.77730207 C3.92110402,7.17693661 3.51912616,7.4893016 3.02086659,7.7935245 C2.95776028,7.83243292 2.90102405,7.86654127 2.89465397,7.87063689 C2.87999428,7.87882814 2.89890069,7.85848108 3.11760695,7.62925724 C3.25642385,7.48527151 3.36158971,7.36354959 3.48150019,7.21348595 C3.56132161,7.11402783 3.57618514,7.09988974 3.69178095,7.02072954 C4.00106133,6.80570932 4.71396729,6.33920145 4.72246074,6.34732716 Z" id="Fill-3" fill="#A91D22"></path>
                    <path d="M6.89043897,13.4802436 L6.9320191,13.4802436 L6.9320191,13.0726082 L7.04180004,13.0726082 L7.04180004,13.021764 L6.7806424,13.021764 L6.7806424,13.0726082 L6.89043897,13.0726082 L6.89043897,13.4802436 Z M7.14218636,13.1739515 C7.14292105,13.1437556 7.14212383,13.1135788 7.13981035,13.0835554 C7.14237394,13.0996599 7.14628185,13.115381 7.15134649,13.1305844 L7.27890059,13.4802436 L7.29929987,13.4802436 L7.42721349,13.1275169 C7.43063682,13.1162054 7.43338799,13.1024974 7.43912479,13.083843 C7.43637363,13.120174 7.43637363,13.1492963 7.43637363,13.1714783 L7.43637363,13.4800902 L7.4806424,13.4800902 L7.4806424,13.021764 L7.42721349,13.021764 L7.3115707,13.3380256 C7.30888206,13.3494138 7.29959687,13.3714232 7.29386006,13.3965194 L7.29049926,13.3965194 C7.28610677,13.377865 7.28043249,13.3597475 7.27346078,13.3423776 L7.15788052,13.0218407 L7.09798011,13.0218407 L7.09798011,13.4807804 L7.13981035,13.4807804 L7.13981035,13.1745458 L7.14218636,13.1745458 L7.14218636,13.1739515 Z" id="Fill-4" fill="#231F1F"></path>
                </g>
            </g>
        </g>
    </g>
</svg>