<?xml version="1.0" encoding="UTF-8"?>
<svg width="14px" height="14px" viewBox="0 0 14 14" version="1.1" xmlns="http://www.w3.org/2000/svg" xmlns:xlink="http://www.w3.org/1999/xlink">
    <g id="2023" stroke="none" stroke-width="1" fill="none" fill-rule="evenodd">
        <g id="对象树对象图标" transform="translate(-289.000000, -266.000000)" fill="#7BC9EF" fill-rule="nonzero">
            <g id="文件夹" transform="translate(289.000000, 266.000000)">
                <path d="M5.21101425,0 C5.79660561,0 6.31805989,0.364089068 6.52198479,0.908693935 L6.54130946,0.963749342 L6.83736667,1.86666667 L13.5333333,1.86666667 C13.7793511,1.86666667 13.9809052,2.05703815 13.99872,2.29850545 L14,2.33333333 L14,13.5333333 C14,13.7793511 13.8096285,13.9809052 13.5681612,13.99872 L13.5333333,14 L0.466666667,14 C0.220648914,14 0.0190948049,13.8096285 0.00128000517,13.5681612 L0,13.5333333 L0,0.466666667 C0,0.220648914 0.190371484,0.0190948049 0.431838786,0.00128000517 L0.466666667,0 L5.21101425,0 Z M13.0666667,2.8 L7.1435,2.8 L7.6276053,4.27628108 C7.68652943,4.45596331 7.8474271,4.5810898 8.03350786,4.59602873 L8.07103704,4.59753086 L13.0666667,4.59736667 L13.0666667,2.8 Z" id="形状"></path>
            </g>
        </g>
    </g>
</svg>