<?xml version="1.0" encoding="UTF-8"?>
<svg width="14px" height="14px" viewBox="0 0 14 14" version="1.1" xmlns="http://www.w3.org/2000/svg" xmlns:xlink="http://www.w3.org/1999/xlink">
    <g id="2023" stroke="none" stroke-width="1" fill="none" fill-rule="evenodd">
        <g id="SQL窗口备份" transform="translate(-251.000000, -271.000000)" fill="#B3BEC5">
            <g id="dameng_offline" transform="translate(251.000000, 271.000000)">
                <path d="M2.19559834,5.20060515 C2.15498109,5.94136727 2.37170329,6.67352869 2.80960052,7.27477843 C3.37141074,7.92300429 4.57339841,8.02671098 5.6120186,8.3442816 C6.39773898,8.55676889 6.8869429,9.33277294 6.73561261,10.1267913 C6.67093421,10.7503819 6.55738034,11.3680201 6.39594199,11.9741471 C3.69802676,12.7713907 1.24837355,12.3370943 0.359947304,10.8268443 C-0.528426085,9.31659417 0.281593284,7.1062911 2.19559834,5.20060515 Z M3.96585745,3.74868517 C3.90639825,4.07460739 3.86494857,4.40350577 3.84171984,4.73388568 C3.77982942,5.58814829 4.12280333,6.42216778 4.7693231,6.98956534 C5.57285481,7.54053503 6.32403599,7.46278779 7.14712317,7.78037152 C7.97676407,8.1109612 8.14663242,8.94713086 8.24459476,9.66008491 C8.27711234,10.2124837 8.24861156,10.766718 8.15968702,11.3129678 C7.81041043,11.4780332 7.45283598,11.6251236 7.08833783,11.7537147 L7.22822263,10.7849827 C7.23793369,10.7134751 7.24793012,10.6388686 7.25819296,10.5610876 C7.40188604,9.45917449 7.10794616,8.78504162 6.63759741,8.40912779 C6.0300961,7.91650131 5.71654789,8.09149161 4.33169013,7.6377912 C3.21058271,7.27045685 3.0055935,6.71625711 2.88847089,6.14707962 L2.80960052,5.74505876 C2.72474563,5.38042024 2.72474563,5.00133358 2.80960052,4.63668196 C3.17900075,4.32069774 3.56497027,4.02426179 3.96585745,3.74868517 Z M5.37032354,2.92546901 C5.34590562,3.23757241 5.29784937,3.54740764 5.22661724,3.85239186 C5.13831372,4.5840944 5.27493776,5.32515807 5.61858554,5.97844471 C6.08589526,6.55189948 6.77720763,6.90076567 7.51952278,6.93773822 C8.79329753,7.1516677 9.38123016,7.67666482 9.54454478,8.57761512 C9.64373594,9.23731295 9.64373594,9.90790589 9.54454478,10.5675513 L9.20487415,10.7685142 C9.02195121,10.8722208 8.83252739,10.9759275 8.64960445,11.0666807 C8.69533518,10.3082977 8.75412052,8.98600449 8.30993382,8.19519831 C7.75467733,7.21644833 7.2778145,7.47574129 6.18689663,7.17107173 C5.09599197,6.86645461 4.52111394,6.39328461 4.33169013,5.51824133 C4.22794042,4.85905481 4.22572061,4.18810788 4.3251364,3.52830516 C4.47538321,3.43104899 4.63218374,3.33384527 4.79549836,3.24309207 L5.37032354,2.92546901 Z M6.93809103,2.23843508 C6.75697828,2.89648095 6.695035,3.58120737 6.75522093,4.26072879 C6.80601231,5.26651331 7.51002252,6.12261144 8.49280392,6.37381502 L8.92826998,6.47996455 C10.1950064,6.81309587 10.4345132,7.12724658 10.759587,7.6961213 C10.9651573,8.26265355 11.0539894,8.86441461 11.0208508,9.46567746 C10.7079632,9.72937567 10.3808451,9.97601668 10.0410159,10.204591 C10.083232,9.55125188 10.0237728,8.89535618 9.86464671,8.2600445 C9.75022078,7.54421918 9.20605012,6.97082996 8.49280392,6.81457504 C7.98326495,6.70348695 7.4796719,6.56716049 6.98382176,6.40623812 C5.9059717,6.06914546 5.80144242,5.21355865 5.67737088,4.56539835 C5.62631524,3.94806162 5.65930849,3.32667364 5.77533322,2.71805561 C6.16728831,2.53660167 6.55268967,2.37449932 6.93809103,2.23843508 Z M7.53907825,2.04396208 C10.2631027,1.23371254 12.7258105,1.62913529 13.6403591,3.17180847 C14.5549078,4.72743515 13.6664816,7.02849141 11.6414596,8.97303787 C11.6824336,8.24206954 11.4498159,7.52183898 10.9882275,6.95069172 C10.482087,6.49474936 9.84989053,6.20315864 9.17611426,6.11165617 L8.95009806,6.08861505 C8.08422668,6.04297624 7.37908014,5.38175754 7.28431538,4.52647228 C7.1741705,3.69055173 7.26140376,2.84070747 7.53907825,2.04396208 Z" id="形状"></path>
            </g>
        </g>
    </g>
</svg>