<?xml version="1.0" encoding="UTF-8"?>
<svg width="7px" height="7px" viewBox="0 0 7 7" version="1.1" xmlns="http://www.w3.org/2000/svg" xmlns:xlink="http://www.w3.org/1999/xlink">
    <g id="2023" stroke="none" stroke-width="1" fill="none" fill-rule="evenodd">
        <g id="对象树对象图标" transform="translate(-1191.000000, -222.000000)">
            <g id="编组-2" transform="translate(1191.000000, 222.000000)">
                <path d="M4,0 C5.19521212,0 6.2679883,0.524210566 7.00095612,1.35525927 L7.00095612,6.64474073 C6.88978234,6.77079104 6.77079104,6.88978234 6.64474073,7.00095612 L1.35525927,7.00095612 C0.524210566,6.2679883 0,5.19521212 0,4 C0,1.790861 1.790861,0 4,0 Z" id="形状结合" fill="#FFFFFF"></path>
                <circle id="椭圆形" fill="#ED5565" cx="4" cy="4" r="3"></circle>
                <path d="M5.32885822,2.69185245 C5.48506794,2.84806217 5.48506794,3.10132816 5.32885822,3.25753788 L4.55033366,4.03464823 L5.25814755,4.74246212 C5.41435726,4.89867184 5.41435726,5.15193783 5.25814755,5.30814755 C5.10193783,5.46435726 4.84867184,5.46435726 4.69246212,5.30814755 L3.98535534,4.59962655 L3.20753788,5.37885822 C3.05132816,5.53506794 2.79806217,5.53506794 2.64185245,5.37885822 C2.48564274,5.22264851 2.48564274,4.96938252 2.64185245,4.8131728 L3.41966991,4.03394113 L2.64185245,3.25753788 C2.48564274,3.10132816 2.48564274,2.84806217 2.64185245,2.69185245 C2.79806217,2.53564274 3.05132816,2.53564274 3.20753788,2.69185245 L3.98464823,3.46896281 L4.7631728,2.69185245 C4.91938252,2.53564274 5.17264851,2.53564274 5.32885822,2.69185245 Z" id="路径" fill="#FFFFFF" fill-rule="nonzero"></path>
            </g>
        </g>
    </g>
</svg>