<?xml version="1.0" encoding="UTF-8"?>
<svg width="14px" height="14px" viewBox="0 0 14 14" version="1.1" xmlns="http://www.w3.org/2000/svg" xmlns:xlink="http://www.w3.org/1999/xlink">
    <title>mongoDB</title>
    <g id="页面-1" stroke="none" stroke-width="1" fill="" fill-rule="evenodd">
        <g id="1-透视图oracle-1366" transform="translate(-20.000000, -275.000000)" fill="" fill-rule="nonzero">
            <g id="形状结合" transform="translate(20.000000, 275.000000)">
                <path d="M13.0666667,0 C13.5821324,0 14,0.417867567 14,0.933333333 L14,0.933333333 L14,7 C14,10.8659932 10.8659932,14 7,14 L7,14 L0.933333333,14 C0.417867567,14 0,13.5821324 0,13.0666667 L0,13.0666667 L0,7 C0,3.13400675 3.13400675,0 7,0 L7,0 Z M13.0666667,0.933333333 L7,0.933333333 C3.64947252,0.933333333 0.933333333,3.64947252 0.933333333,7 L0.933333333,7 L0.933333333,13.0666667 L7,13.0666667 C10.3505275,13.0666667 13.0666667,10.3505275 13.0666667,7 L13.0666667,7 L13.0666667,0.933333333 Z M8.78068593,5.31252471 C8.9629306,5.49476938 8.9629306,5.79024637 8.78068593,5.97249104 L7.02851588,7.72435627 L7.69047185,10.1943711 C7.75717803,10.4433219 7.60943953,10.6992125 7.36048868,10.7659187 C7.11153784,10.8326249 6.85564726,10.6848864 6.78894108,10.4359355 L6.12698511,7.96592071 L3.73384796,7.32478719 C3.48489711,7.25808102 3.33715862,7.00219044 3.4038648,6.75323959 C3.47057098,6.50428874 3.72646156,6.35655024 3.97541241,6.42325642 L6.36855569,7.06441284 L8.1207196,5.31252471 C8.30296427,5.13028004 8.59844126,5.13028004 8.78068593,5.31252471 Z M10.85,2.8 C11.1721661,2.8 11.4333333,3.06116723 11.4333333,3.38333333 C11.4333333,3.70549944 11.1721661,3.96666667 10.85,3.96666667 C10.5278339,3.96666667 10.2666667,3.70549944 10.2666667,3.38333333 C10.2666667,3.06116723 10.5278339,2.8 10.85,2.8 Z"></path>
            </g>
        </g>
    </g>
</svg>