<?xml version="1.0" encoding="UTF-8"?>
<svg width="14px" height="14px" viewBox="0 0 14 14" version="1.1" xmlns="http://www.w3.org/2000/svg" xmlns:xlink="http://www.w3.org/1999/xlink">
    <title>导出表</title>
        <g id="配置集详情" transform="translate(-22.000000, -316.000000)" fill="" fill-rule="nonzero">
            <g id="导出表" transform="translate(22.000000, 316.000000)">
                <path d="M11.8428688,8.73436381 L13.8845354,11.067697 C14.0430396,11.2488447 14.0377628,11.520829 13.8723515,11.6956923 L11.8306849,13.8540255 C11.6535709,14.0412603 11.3582079,14.0494648 11.1709731,13.8723508 C10.9837383,13.6952368 10.9755337,13.3998738 11.1526477,13.212639 L12.504,11.783 L7.93333333,11.7833333 C7.67560045,11.7833333 7.46666667,11.5743995 7.46666667,11.3166667 C7.46666667,11.0589338 7.67560045,10.85 7.93333333,10.85 L12.454,10.85 L11.1404639,9.34896806 C10.9796781,9.16521294 10.9888561,8.89093635 11.1551891,8.71826784 L11.1843642,8.69046351 C11.3783279,8.52074523 11.6731505,8.54040007 11.8428688,8.73436381 Z M12.133333,0 C13.1642645,0 14,0.835735066 14,1.86666652 L14,7.29166608 C14,7.54939894 13.7910658,7.75833271 13.5333329,7.75833271 C13.2756,7.75833271 13.0666663,7.54939894 13.0666663,7.29166608 L13.0666553,4.84166628 L9.68332207,4.84166628 L9.68333304,8.63333264 C9.68333304,8.8910655 9.47439926,9.09999927 9.21666639,9.09999927 C9.19700743,9.09999927 9.1776324,9.09878367 9.15861235,9.09642354 C9.13845174,9.09888792 9.11780589,9.10013023 9.09684664,9.09998862 L5.24998887,9.07386594 L5.24998887,12.1333324 L5.83333316,12.1333324 C6.09106603,12.1333324 6.29999981,12.3422661 6.29999981,12.599999 C6.29999981,12.8577318 6.09106603,13.0666656 5.83333316,13.0666656 L1.86666661,13.0666656 C0.835735108,13.0666656 0,12.2309305 0,11.1999991 L0,1.86666652 C0,0.835735066 0.835735108,0 1.86666661,0 L12.133333,0 Z M0.933322332,9.04469927 L0.933322332,11.1999991 C0.933322332,11.7154648 1.35120086,12.1333324 1.86666661,12.1333324 L4.31665556,12.1333324 L4.31665556,9.06756594 L0.933322332,9.04469927 Z M8.74998887,4.84166628 L5.24998887,4.84166628 L5.24998887,8.14053268 L8.74998887,8.16433268 L8.74998887,4.84166628 Z M4.31665556,4.84166628 L0.933322332,4.84166628 L0.933322332,8.11136601 L4.31665556,8.13423268 L4.31665556,4.84166628 Z M12.133333,0.933333258 L1.86666661,0.933333258 C1.35120086,0.933333258 0.933322332,1.35120079 0.933322332,1.86666652 L0.933322332,3.90833302 L13.0666663,3.90833302 L13.0666663,1.86666652 C13.0666663,1.35120079 12.6487987,0.933333258 12.133333,0.933333258 Z" id="形状结合"></path>
            </g>
        </g>
</svg>