<?xml version="1.0" encoding="UTF-8"?>
<svg width="14px" height="14px" viewBox="0 0 14 14" version="1.1" xmlns="http://www.w3.org/2000/svg" xmlns:xlink="http://www.w3.org/1999/xlink">
    <title>分析</title>
    <g id="页面-1" stroke="none" stroke-width="1" fill="" fill-rule="evenodd">
        <g id="审计B" transform="translate(-20.000000, -173.000000)" fill="" fill-rule="nonzero">
            <g id="形状" transform="translate(20.000000, 173.000000)">
                <path d="M1.86666667,8.4 C2.11268442,8.4 2.31423853,8.59037148 2.33205333,8.83183879 L2.33333333,8.86666667 L2.33333333,13.5333333 C2.33333333,13.7910662 2.12439955,14 1.86666667,14 C1.62064891,14 1.4190948,13.8096285 1.40128001,13.5681612 L1.4,13.5333333 L1.4,8.86666667 C1.4,8.60893378 1.60893378,8.4 1.86666667,8.4 Z M5.36666667,6.53333333 C5.61268442,6.53333333 5.81423853,6.72370482 5.83205333,6.96517212 L5.83333333,7 L5.83333333,13.5333333 C5.83333333,13.7910662 5.62439955,14 5.36666667,14 C5.12064891,14 4.9190948,13.8096285 4.90128001,13.5681612 L4.9,13.5333333 L4.9,7 C4.9,6.74226712 5.10893378,6.53333333 5.36666667,6.53333333 Z M8.63333333,10.2666667 C8.87935109,10.2666667 9.0809052,10.4570382 9.09871999,10.6985055 L9.1,10.7333333 L9.1,13.5333333 C9.1,13.7910662 8.89106622,14 8.63333333,14 C8.38731558,14 8.18576147,13.8096285 8.16794667,13.5681612 L8.16666667,13.5333333 L8.16666667,10.7333333 C8.16666667,10.4756005 8.37560045,10.2666667 8.63333333,10.2666667 Z M12.1333333,8.4 C12.3793511,8.4 12.5809052,8.59037148 12.59872,8.83183879 L12.6,8.86666667 L12.6,13.5333333 C12.6,13.7910662 12.3910662,14 12.1333333,14 C11.8873156,14 11.6857615,13.8096285 11.6679467,13.5681612 L11.6666667,13.5333333 L11.6666667,8.86666667 C11.6666667,8.60893378 11.8756005,8.4 12.1333333,8.4 Z M13.3,0 C13.5460178,0 13.7475719,0.190371484 13.7653867,0.431838786 L13.7666667,0.466666667 L13.7666667,3.26666667 C13.7666667,3.52439955 13.5577329,3.73333333 13.3,3.73333333 C13.0539822,3.73333333 12.8524281,3.54296185 12.8346133,3.30149455 L12.8333333,3.26666667 L12.8332996,1.582 L9.40563425,4.55265491 C9.21314622,4.71947787 8.92490074,4.7000317 8.75604213,4.51543164 L8.73163563,4.48650562 L7.3752,2.74236667 L0.973704579,7.37797299 C0.775393297,7.52157771 0.50215893,7.48662694 0.345728011,7.30379692 L0.32202701,7.27370458 C0.178422288,7.0753933 0.213373061,6.80215893 0.396203082,6.64572801 L0.426295421,6.62202701 L7.19296209,1.72202701 C7.38594438,1.58228121 7.65095473,1.61123188 7.80960477,1.7834663 L7.83503103,1.81349438 L9.16603333,3.52496667 L12.1563996,0.933333333 L10.5,0.933333333 C10.2539822,0.933333333 10.0524281,0.742961849 10.0346133,0.501494547 L10.0333333,0.466666667 C10.0333333,0.220648914 10.2237048,0.0190948049 10.4651721,0.00128000517 L10.5,0 L13.3,0 Z"></path>
            </g>
        </g>
    </g>
</svg>