<?xml version="1.0" encoding="UTF-8"?>
<svg width="14px" height="14px" viewBox="0 0 14 14" version="1.1" xmlns="http://www.w3.org/2000/svg" xmlns:xlink="http://www.w3.org/1999/xlink">
    <g id="2023" stroke="none" stroke-width="1" fill="none" fill-rule="evenodd">
        <g id="SQL窗口备份" transform="translate(-251.000000, -427.000000)" fill="#8EA1AD" fill-rule="nonzero">
            <g id="GBase8s_offline" transform="translate(251.000000, 427.000000)">
                <path d="M7.23092554,0.0605046564 L12.8556956,3.3346982 C13.0699352,3.45940766 13.1433392,3.73560978 13.0196479,3.9516129 C12.8959565,4.16761602 12.6220094,4.24162416 12.4077697,4.1169147 L12.3702667,4.094 L10.026685,5.36817079 C10.0317305,5.40206448 10.0317189,5.43660348 10.0266695,5.47047546 L12.842234,7 L10.026534,8.52858876 C10.031713,8.56269815 10.0317722,8.59748794 10.0267048,8.63161947 L12.3702667,9.905 L12.4077697,9.8830853 C12.6118075,9.76431439 12.8700017,9.82578619 13.0009782,10.0185016 L13.0196479,10.0483871 C13.1433392,10.2643902 13.0699352,10.5405923 12.8556956,10.6653018 L7.23092554,13.9394953 C7.09233679,14.0201682 6.92158842,14.0201682 6.78299967,13.9394953 L1.1582296,10.6653018 C1.01964085,10.5846289 0.934266667,10.4355393 0.934266667,10.2741935 L0.934266667,3.72580645 C0.934266667,3.5644607 1.01964085,3.41537108 1.1582296,3.3346982 L6.78299967,0.0605046564 C6.92158842,-0.0201682188 7.09233679,-0.0201682188 7.23092554,0.0605046564 Z M4.28426667,8.886 L1.89226667,10.05 L7.0069626,13.0267742 L7.11826667,12.961 L7.11858557,10.4805098 L7.06678197,10.4568166 L4.28426667,8.886 Z M9.92035347,8.83163116 L9.8748781,8.86640147 L7.41128585,10.4470466 C7.39012717,10.4606221 7.36781512,10.4715981 7.34478787,10.4799622 L7.34426667,12.829 L12.1422667,10.037 L9.92035347,8.83163116 Z M1.82926667,7.33 L1.82926667,9.83 L4.12205294,8.71372492 C4.08656817,8.62901086 4.0865193,8.5318584 4.12223571,8.44704725 L1.82926667,7.33 Z M7.11603255,7.36196774 L5.10260579,8.5713871 L7.21972739,9.76680645 L9.06361421,8.58380645 L7.11603255,7.36196774 Z M9.86645429,5.71034179 L7.76574902,6.97177419 L9.8719899,8.29305649 L9.91826667,8.33 L12.3695311,6.99977419 L9.92044017,5.67033313 L9.86645429,5.71034179 Z M4.41826667,5.659 L1.82926667,6.919 L1.82926667,7.079 L4.28426667,8.274 L6.47415479,6.95935484 L4.47786345,5.70693332 L4.41826667,5.659 Z M1.82926667,4.169 L1.82926667,6.669 L4.32140356,5.45658693 C4.31875761,5.43201651 4.31874243,5.40719954 4.32135561,5.38262962 L1.82926667,4.169 Z M7.2268942,4.23748387 L5.29610977,5.42251613 L7.12387125,6.56916129 L9.05375984,5.40987097 L7.2268942,4.23748387 Z M7.0069626,0.973 L1.89226667,3.949 L4.41824707,5.17901391 L4.45399664,5.14814107 L7.05625227,3.54938436 L7.10726667,3.525 L7.01726667,0.978 L7.0069626,0.973 Z M7.24626667,1.111 L7.33173603,3.5155978 C7.35937359,3.52436182 7.38613436,3.53681613 7.41128585,3.55295337 L9.8748781,5.13359853 L9.91826667,5.169 L12.1422667,3.962 L7.24626667,1.111 Z" id="形状"></path>
            </g>
        </g>
    </g>
</svg>