<?xml version="1.0" encoding="UTF-8"?>
<svg width="14px" height="14px" viewBox="0 0 14 14" version="1.1" xmlns="http://www.w3.org/2000/svg" xmlns:xlink="http://www.w3.org/1999/xlink">
    <title>GaussDB</title>
    <g id="页面-1" stroke="none" stroke-width="1" fill="" fill-rule="evenodd">
        <g id="数据库logo" transform="translate(-556.000000, -377.000000)" fill="" fill-rule="nonzero">
            <g id="数据库排序" transform="translate(536.000000, 0.000000)">
                <g id="形状结合" transform="translate(20.000000, 377.000000)">
                    <path d="M6.48860745,12.833 L6.73353333,12.9889667 L6.7488674,12.994019 C7.05074294,13.0866526 7.28096328,13.0879837 7.45267266,13.0154052 L7.49920253,12.9932114 L7.55436995,12.9623873 L7.75227284,12.8419882 L7.76460745,12.833 L9.47360745,12.833 L9.15125782,13.0478035 L8.53146578,13.4515144 L8.28080857,13.6109129 L8.04322311,13.7566941 L7.93740134,13.8171349 L7.91142326,13.8307805 C7.47596417,14.0520794 6.9601457,14.0520794 6.38358844,13.8567431 C6.36005905,13.8487714 6.33722268,13.8389399 6.31529291,13.8273509 L6.2831049,13.8086621 L4.74760745,12.833 L6.48860745,12.833 Z M0.913085267,9.33333333 C1.15016706,9.33333333 1.34688086,9.3766276 1.50322669,9.46321615 C1.65957252,9.54980469 1.76145361,9.65262858 1.80886997,9.77168783 C1.85628633,9.89074707 1.87999451,10.0636393 1.87999451,10.2903646 L1.87999451,10.2903646 L1.87999451,10.4099935 L1.07071262,10.4099935 L1.07071262,10.1587728 L1.06978992,10.0708626 C1.0673294,9.96312826 1.05994782,9.89331055 1.0476452,9.86140951 C1.03226692,9.8215332 0.995743512,9.80159505 0.938074969,9.80159505 C0.888095565,9.80159505 0.854135201,9.8186849 0.836193876,9.85286458 C0.818252552,9.88704427 0.809281889,9.97477214 0.809281889,10.1160482 L0.809281889,10.1160482 L0.809281889,11.443929 L0.810963889,11.5291112 C0.814327887,11.606336 0.822737883,11.6596883 0.836193876,11.6891683 C0.854135201,11.7284749 0.89001785,11.7481283 0.943841823,11.7481283 C1.00279189,11.7481283 1.04283949,11.7259115 1.06398462,11.6814779 C1.08512975,11.6370443 1.09570232,11.5504557 1.09570232,11.4217122 L1.09570232,11.4217122 L1.09570232,11.0935872 L0.932308115,11.0935872 L0.932308115,10.6731771 L1.87999451,10.6731771 L1.87999451,12.1582845 L1.37058904,12.1582845 L1.29561994,11.9600423 L1.23570873,12.0383708 C1.19256411,12.0858426 1.14301188,12.12382 1.08705204,12.1523031 C1.00311227,12.1950277 0.904114605,12.21639 0.790059042,12.21639 C0.654217584,12.21639 0.527026409,12.1870524 0.408485514,12.1283773 C0.28994462,12.0697021 0.199917616,11.9970703 0.138404504,11.9104818 C0.0768913909,11.8238932 0.0384456955,11.7330322 0.0230674173,11.6378988 C0.00768913909,11.5427653 0,11.4000651 0,11.2097982 L0,11.2097982 L0,10.3877767 L0.00192228477,10.2378646 C0.0070483775,10.0495573 0.0224266557,9.90755208 0.0480571193,9.81184896 C0.0800951989,9.69222005 0.172044487,9.58256022 0.323904984,9.48286947 C0.475765481,9.38317871 0.672158909,9.33333333 0.913085267,9.33333333 Z M3.01222024,9.84944661 C3.27493249,9.84944661 3.47292782,9.89074707 3.60620623,9.97334798 C3.73948464,10.0559489 3.81957984,10.1573486 3.84649183,10.2775472 C3.87340382,10.3977458 3.88685981,10.6452637 3.88685981,11.0201009 L3.88685981,12.1582845 L3.13140189,12.1582845 L3.13140189,11.9566243 L3.07939341,12.0307753 C3.04165967,12.0757152 2.9978031,12.1116672 2.9478237,12.1386312 C2.87285459,12.1790771 2.78346835,12.1993001 2.67966497,12.1993001 C2.54382352,12.1993001 2.41919539,12.1654053 2.30578058,12.0976156 C2.19236578,12.0298258 2.13565838,11.881429 2.13565838,11.6524251 L2.13565838,11.6524251 L2.13565838,11.4661458 L2.13927228,11.3707845 C2.14890933,11.2522949 2.1778205,11.1684408 2.22600577,11.119222 C2.28623736,11.0576986 2.43553481,10.9859212 2.67389812,10.90389 C2.92892123,10.8150228 3.06540345,10.7552083 3.08334478,10.7244466 C3.1012861,10.6936849 3.11025676,10.6310221 3.11025676,10.5364583 C3.11025676,10.4179687 3.10032496,10.3407796 3.08046135,10.304891 C3.06059774,10.2690023 3.02759852,10.2510579 2.98146368,10.2510579 C2.92892123,10.2510579 2.89624239,10.266154 2.88342716,10.296346 C2.87061193,10.3265381 2.86420431,10.4048665 2.86420431,10.5313314 L2.86420431,10.5313314 L2.86420431,10.7688802 L2.13565838,10.7688802 L2.13565838,10.6167806 L2.13992345,10.492719 C2.14845359,10.3761876 2.16977894,10.2822469 2.20389949,10.2108968 C2.24939356,10.1157633 2.34070209,10.0317383 2.47782507,9.95882161 C2.61494805,9.88590495 2.79307977,9.84944661 3.01222024,9.84944661 Z M4.91912673,9.89046224 L4.9198572,11.5310189 C4.92180512,11.6493262 4.92764886,11.721696 4.93738844,11.7481283 C4.94956291,11.7811686 4.98256213,11.7976888 5.0363861,11.7976888 C5.09405465,11.7976888 5.12833539,11.780599 5.13922834,11.7464193 C5.15012129,11.7122396 5.15556776,11.6022949 5.15556776,11.4165853 L5.15556776,11.4165853 L5.15556776,9.89046224 L5.93217081,9.89046224 L5.93217081,12.1582845 L5.14211177,12.1582845 L5.15556776,11.9702962 L5.09757884,12.0402696 C5.05614292,12.0826778 5.00915374,12.1166043 4.95661129,12.1420492 C4.87779761,12.1802165 4.78712985,12.1993001 4.68460799,12.1993001 C4.56798938,12.1993001 4.47123438,12.181071 4.39434299,12.1446126 C4.3174516,12.1081543 4.2607442,12.0597331 4.22422079,11.999349 C4.18769738,11.9389648 4.16495034,11.8760173 4.15597968,11.8105062 C4.14700902,11.7449951 4.14252369,11.6148275 4.14252369,11.4200033 L4.14252369,11.4200033 L4.14252369,9.89046224 L4.91912673,9.89046224 Z M6.95674859,9.84944661 C7.12590965,9.84944661 7.26976063,9.86853027 7.38830152,9.90669759 C7.50684242,9.94486491 7.59783056,9.99527995 7.66126596,10.0579427 C7.72470136,10.1206055 7.76314705,10.1787109 7.77660305,10.2322591 C7.79005904,10.2858073 7.79678704,10.3695475 7.79678704,10.4834798 L7.79678704,10.4834798 L7.79678704,10.6150716 L7.10860909,10.6150716 L7.10860909,10.4920247 L7.10734759,10.4206212 C7.10482459,10.3564275 7.09851709,10.3138631 7.0884251,10.2929281 C7.07496911,10.2650146 7.04132912,10.2510579 6.98750515,10.2510579 C6.94393336,10.2510579 6.91125452,10.2638753 6.88946863,10.2895101 C6.86768273,10.3151449 6.85678978,10.353597 6.85678978,10.4048665 C6.85678978,10.4743652 6.86223626,10.5253499 6.8731292,10.5578206 C6.88402215,10.5902913 6.91670099,10.6258952 6.97116573,10.6646322 C7.02563046,10.7033691 7.13744336,10.7597656 7.30660442,10.8338216 C7.5321525,10.9318034 7.68016843,11.0240885 7.7506522,11.1106771 C7.82113598,11.1972656 7.85637787,11.3231608 7.85637787,11.4883626 C7.85637787,11.6729329 7.82946588,11.8122152 7.77564191,11.9062093 C7.72181793,12.0002035 7.63179093,12.0725505 7.5055609,12.1232503 C7.37933086,12.1739502 7.22714998,12.1993001 7.04901826,12.1993001 C6.85166369,12.1993001 6.68282301,12.1719564 6.54249622,12.1172689 C6.40216944,12.0625814 6.30573482,11.9885254 6.25319237,11.8951009 C6.20064992,11.8016764 6.17437869,11.6604004 6.17437869,11.4712728 L6.17437869,11.4712728 L6.17437869,11.3618978 L6.86255664,11.3618978 L6.86255664,11.5054525 L6.86417857,11.5888723 C6.86742242,11.6642812 6.87553206,11.7156576 6.88850748,11.7430013 C6.90580805,11.7794596 6.94008879,11.7976888 6.99134972,11.7976888 C7.04645522,11.7976888 7.08490091,11.7854411 7.1066868,11.7609456 C7.1284727,11.7364502 7.13936565,11.6848958 7.13936565,11.6062826 C7.13936565,11.4980469 7.12526889,11.4302572 7.09707538,11.4029134 C7.06760035,11.3755697 6.91702137,11.2946777 6.64533846,11.1602376 C6.41722733,11.0463053 6.27818207,10.9429118 6.22820266,10.850057 C6.17822326,10.7572021 6.15323356,10.6469727 6.15323356,10.5193685 C6.15323356,10.3382161 6.18014554,10.2046305 6.23396952,10.1186117 C6.28779349,10.0325928 6.37910202,9.96622721 6.5078951,9.91951497 C6.63668818,9.87280273 6.78630601,9.84944661 6.95674859,9.84944661 Z M8.80983111,9.84944661 C8.97899217,9.84944661 9.12284315,9.86853027 9.24138405,9.90669759 C9.35992494,9.94486491 9.45091309,9.99527995 9.51434848,10.0579427 C9.57778388,10.1206055 9.61622958,10.1787109 9.62968557,10.2322591 C9.64314156,10.2858073 9.64986956,10.3695475 9.64986956,10.4834798 L9.64986956,10.4834798 L9.64986956,10.6150716 L8.96169161,10.6150716 L8.96169161,10.4920247 L8.96043011,10.4206212 C8.95790711,10.3564275 8.95159962,10.3138631 8.94150762,10.2929281 C8.92805163,10.2650146 8.89441164,10.2510579 8.84058767,10.2510579 C8.79701588,10.2510579 8.76433704,10.2638753 8.74255115,10.2895101 C8.72076525,10.3151449 8.70987231,10.353597 8.70987231,10.4048665 C8.70987231,10.4743652 8.71531878,10.5253499 8.72621173,10.5578206 C8.73710467,10.5902913 8.76978351,10.6258952 8.82424825,10.6646322 C8.87871298,10.7033691 8.99052588,10.7597656 9.15968694,10.8338216 C9.38523502,10.9318034 9.53325095,11.0240885 9.60373472,11.1106771 C9.6742185,11.1972656 9.70946039,11.3231608 9.70946039,11.4883626 C9.70946039,11.6729329 9.6825484,11.8122152 9.62872443,11.9062093 C9.57490045,12.0002035 9.48487345,12.0725505 9.35864342,12.1232503 C9.23241338,12.1739502 9.0802325,12.1993001 8.90210078,12.1993001 C8.70474621,12.1993001 8.53590553,12.1719564 8.39557875,12.1172689 C8.25525196,12.0625814 8.15881734,11.9885254 8.10627489,11.8951009 C8.05373244,11.8016764 8.02746121,11.6604004 8.02746121,11.4712728 L8.02746121,11.4712728 L8.02746121,11.3618978 L8.71563916,11.3618978 L8.71563916,11.5054525 L8.71726109,11.5888723 C8.72050494,11.6642812 8.72861458,11.7156576 8.74159,11.7430013 C8.75889057,11.7794596 8.79317131,11.7976888 8.84443224,11.7976888 C8.89953774,11.7976888 8.93798343,11.7854411 8.95976933,11.7609456 C8.98155522,11.7364502 8.99244817,11.6848958 8.99244817,11.6062826 C8.99244817,11.4980469 8.97835141,11.4302572 8.9501579,11.4029134 C8.92068287,11.3755697 8.77010389,11.2946777 8.49842098,11.1602376 C8.27030985,11.0463053 8.13126459,10.9429118 8.08128518,10.850057 C8.03130578,10.7572021 8.00631608,10.6469727 8.00631608,10.5193685 C8.00631608,10.3382161 8.03322807,10.2046305 8.08705204,10.1186117 C8.14087601,10.0325928 8.23218454,9.96622721 8.36097762,9.91951497 C8.4897707,9.87280273 8.63938853,9.84944661 8.80983111,9.84944661 Z M10.5456543,9.3914388 L10.7054197,9.39241536 C11.0094545,9.39632161 11.2205135,9.41194661 11.3385967,9.43929036 C11.4763605,9.47119141 11.581125,9.52360026 11.6528903,9.59651693 C11.7246556,9.66943359 11.7695089,9.75061035 11.7874502,9.8400472 C11.8038964,9.92203098 11.8128048,10.0765338 11.8141753,10.3035558 L11.8141753,10.3035558 L11.8143622,11.336263 L11.8127859,11.4754085 C11.8085825,11.6477653 11.7959724,11.7674398 11.7749554,11.834432 C11.7486842,11.9181722 11.7028697,11.9836833 11.637512,12.0309652 C11.5721543,12.0782471 11.4914184,12.1112874 11.3953041,12.1300863 C11.2991899,12.1488851 11.1543778,12.1582845 10.9608678,12.1582845 L10.9608678,12.1582845 L9.94013456,12.1582845 L9.94013456,9.3914388 L10.5456543,9.3914388 Z M12.9235205,9.3914388 L13.0691144,9.39355794 C13.2533461,9.39920898 13.3980045,9.41616211 13.5030894,9.44441732 C13.6344455,9.47973633 13.7404916,9.55122884 13.8212275,9.65889486 C13.9019635,9.76656087 13.9423315,9.94002279 13.9423315,10.1792806 C13.9423315,10.3410645 13.9138176,10.4538574 13.8567898,10.5176595 C13.799762,10.5814616 13.6873083,10.6304525 13.5194288,10.6646322 C13.7065312,10.7022298 13.833402,10.7646077 13.9000412,10.851766 C13.9666804,10.9389242 14,11.0725098 14,11.2525228 L14,11.2525228 L14,11.5088704 L13.9971166,11.6151693 C13.9894274,11.7491536 13.96636,11.8521484 13.9279143,11.9241536 C13.8798572,12.0141602 13.8032862,12.0756836 13.6982013,12.108724 C13.5931164,12.1417643 13.3778205,12.1582845 13.0523136,12.1582845 L13.0523136,12.1582845 L12.1161609,12.1582845 L12.1161609,9.3914388 L12.9235205,9.3914388 Z M3.11025676,11.0799154 L3.04193876,11.1268783 C2.95920362,11.1873991 2.90989061,11.2395345 2.89399973,11.2832845 C2.87413612,11.337972 2.86420431,11.4165853 2.86420431,11.5191243 C2.86420431,11.6364746 2.87285459,11.7122396 2.89015516,11.7464193 C2.90745572,11.780599 2.94173646,11.7976888 2.99299739,11.7976888 C3.04169527,11.7976888 3.07341297,11.7843018 3.08815049,11.7575277 C3.102888,11.7307536 3.11025676,11.6604004 3.11025676,11.5464681 L3.11025676,11.5464681 L3.11025676,11.0799154 Z M10.7494164,9.86482747 L10.7494164,11.6848958 C10.8660351,11.6848958 10.9378004,11.6641032 10.9647123,11.6225179 C10.9916243,11.5809326 11.0050803,11.4678548 11.0050803,11.2832845 L11.0050803,11.2832845 L11.0050803,10.2083333 C11.0050803,10.0830078 11.000595,10.0026855 10.9916243,9.96736654 C10.9826537,9.93204753 10.9621493,9.90612793 10.9301112,9.88960775 C10.8980731,9.87308757 10.8378415,9.86482747 10.7494164,9.86482747 L10.7494164,9.86482747 Z M12.9254428,10.9107259 L12.9254428,11.6848958 C13.0394984,11.6814779 13.1122248,11.6655273 13.1436221,11.6370443 C13.1750195,11.6085612 13.1907181,11.5384928 13.1907181,11.4268392 L13.1907181,11.4268392 L13.1907181,11.1687826 L13.188075,11.0886739 C13.1827887,11.0173238 13.169573,10.9722493 13.1484278,10.9534505 C13.1202343,10.9283854 13.045906,10.9141439 12.9254428,10.9107259 L12.9254428,10.9107259 Z M12.9254428,9.86482747 L12.9254428,10.4800618 C12.9600439,10.4789225 12.9869559,10.4783529 13.0061788,10.4783529 C13.0856332,10.4783529 13.1362534,10.4609782 13.1580393,10.4262288 C13.1798252,10.3914795 13.1907181,10.2920736 13.1907181,10.1280111 C13.1907181,10.0414225 13.1817474,9.98075358 13.1638061,9.94600423 C13.1458648,9.91125488 13.122477,9.88932292 13.0936427,9.88020833 C13.0648085,9.87109375 13.0087418,9.8659668 12.9254428,9.86482747 L12.9254428,9.86482747 Z M1.15042569,6.64425223 L1.18356177,6.66346906 L4.65160745,8.866 L2.91060745,8.866 L0.683104895,7.45128504 C0.465555518,7.31308769 0.40122799,7.02469799 0.539425341,6.80714861 C0.670712823,6.6004767 0.937548905,6.53208751 1.15042569,6.64425223 Z M13.4529971,6.79560124 C13.5975719,7.00896564 13.5418069,7.29913269 13.3284425,7.44370748 L11.2675379,8.83587658 L11.2206074,8.866 L9.54260745,8.866 L9.92555547,8.61234061 L12.1436415,7.11870945 L12.8048909,6.67104662 C13.0182553,6.52647183 13.3084223,6.58223683 13.4529971,6.79560124 Z M7.23333333,0 C7.49106622,0 7.7,0.208933783 7.7,0.466666667 C7.7,0.712684419 7.50962852,0.914238528 7.26816121,0.932053328 L7.23333333,0.933333333 L6.4407,0.933333333 L1.79036667,4.01566667 L6.73353333,7.15563333 L6.7488674,7.16068569 C7.05074294,7.25331931 7.28096328,7.2546504 7.45267266,7.18207183 L7.49980485,7.15955925 L7.5587671,7.12650147 L7.64014538,7.07793601 L7.86981056,6.93449633 L8.28147047,6.6689202 L9.08796443,6.13756396 L10.6993064,5.05975925 L12.2343667,4.0236 L9.58276667,2.22693333 L7.04957848,4.15801687 C6.85485666,4.30645236 6.58084581,4.27822777 6.4199685,4.09929778 L6.39553504,4.06979706 C6.24709955,3.87507524 6.27532414,3.60106438 6.45425413,3.44018708 L6.48375485,3.41575362 L9.28375485,1.28132739 C9.43257208,1.16788475 9.63349636,1.15499221 9.79457014,1.24521573 L9.82844248,1.26612858 L13.3284425,3.63771328 C13.6016303,3.82282415 13.6016303,4.22526328 13.3284425,4.41037415 L11.2675379,5.80254325 L10.1183175,6.57300309 L9.15125782,7.2144702 L8.53146578,7.61818104 L8.28080857,7.77757952 L8.04322311,7.92336075 L7.93740134,7.98380161 L7.91142326,7.99744718 C7.47596417,8.21874607 6.9601457,8.21874607 6.38358844,8.02340973 C6.36005905,8.01543802 6.33722268,8.00560658 6.31529291,7.99401761 L6.2831049,7.97532876 L0.683104895,4.41795171 C0.408805703,4.24370427 0.394528063,3.85337131 0.644262198,3.65760432 L0.675497806,3.63507248 L6.04216447,0.0776954356 C6.10768735,0.0342625934 6.18293478,0.00820369126 6.26085173,0.00164467519 L6.3,0 L7.23333333,0 Z"></path>
                </g>
            </g>
        </g>
    </g>
</svg>