<?xml version="1.0" encoding="UTF-8"?>
<svg width="14px" height="14px" viewBox="0 0 14 14" version="1.1" xmlns="http://www.w3.org/2000/svg" xmlns:xlink="http://www.w3.org/1999/xlink">
    <title>postgresql_offline</title>
    <g id="2023" stroke="none" stroke-width="1" fill="none" fill-rule="evenodd">
        <g id="SQL窗口备份" transform="translate(-251.000000, -349.000000)" fill="#B3BEC5">
            <g id="编组" transform="translate(251.000000, 349.000000)">
                <path d="M10.7174753,4.61572266 C10.7460241,4.43287877 10.7716329,4.25856236 10.7759126,4.06572614 C10.3169905,4.00856236 9.79114125,4.02143206 9.58305273,4.32001604 C9.17828829,4.89854213 9.96782772,6.31856864 10.3056475,6.92428153 C10.3925642,7.08000837 10.4552987,7.19288853 10.4837606,7.26283482 C10.5151626,7.34001814 10.5507748,7.40998186 10.586387,7.47427804 C10.8186577,6.98001535 10.7588633,6.47858538 10.7004086,5.99145508 C10.6718771,5.74998256 10.6419712,5.50141253 10.6491041,5.26142229 C10.6562369,5.01571219 10.6875694,4.81284877 10.7174753,4.61572266 Z M10.3312737,4.50427246 C10.2942349,4.54425921 10.2158777,4.61143276 10.107545,4.62716239 C10.0932793,4.62859235 10.0790136,4.63002232 10.0662266,4.63002232 C9.90803337,4.63002232 9.7711518,4.50570243 9.7598088,4.42572893 C9.74696963,4.32859584 9.90375365,4.25570243 10.067601,4.23287528 C10.1032653,4.22858538 10.1388775,4.22572545 10.1730631,4.22572545 C10.314207,4.22572545 10.4068473,4.26714216 10.4168334,4.33431571 C10.4210435,4.37716239 10.3882845,4.44426618 10.3312737,4.50427246 Z M8.71515608,0.910016741 C9.00445496,0.849993025 9.40065995,0.794276646 9.84529889,0.802856445 C10.9697354,0.827183315 11.8576737,1.24857003 12.4875759,2.05571638 C12.9706976,2.67429897 12.4391246,5.48859515 10.8999376,7.91570173 C10.8842453,7.89573451 10.868553,7.87714495 10.8529129,7.85712542 C10.8472066,7.84859794 10.8400737,7.8414481 10.8329408,7.8328683 C11.230555,7.17428153 11.1521978,6.52286203 11.0837744,5.94567871 C11.0552951,5.70856585 11.0281728,5.48430525 11.0353056,5.27429199 C11.0424559,5.05140904 11.0723444,4.85998535 11.1008933,4.67572893 C11.1365054,4.44855608 11.1721176,4.21285575 11.1621838,3.93430873 C11.1692645,3.9057094 11.1721176,3.87144252 11.1692645,3.83002581 C11.1436383,3.56286621 10.8400737,2.76572963 10.2215144,2.04427665 C9.88233763,1.64998954 9.38922996,1.20715332 8.71515608,0.910016741 Z M4.45956238,7.99288504 C4.503734,8.03859166 4.54933219,8.0828683 4.59778354,8.12285505 C4.40825789,8.32714844 3.994934,8.77713449 3.55598397,9.30711147 C3.24528647,9.68143136 3.03006508,9.60996791 2.96026731,9.5871582 C2.49991866,9.43286133 1.96686689,8.45854841 1.49658441,6.9128418 C1.08898422,5.57571847 0.85098983,4.23144531 0.831017786,3.85428292 C0.771136449,2.66142927 1.06043533,1.83140346 1.68755403,1.38425991 C2.70943375,0.657156808 4.39112159,1.09284319 5.06662205,1.31286621 C5.05670561,1.32287598 5.04671959,1.33140346 5.03673357,1.34141323 C3.92791979,2.46285575 3.95504211,4.38002232 3.95789526,4.49712263 C3.95789526,4.54282924 3.96210539,4.60569545 3.96638511,4.69426618 C3.98494798,5.01714216 4.02056015,5.61713518 3.92649322,6.29568917 C3.83957655,6.92858887 4.03339932,7.54574149 4.45956238,7.99288504 Z M10.6533838,8.23573521 C10.4338827,8.29860142 10.0391217,8.44574847 10.0761604,9.17857143 C10.0476811,9.54574149 9.84101916,11.2671247 9.7369836,11.8742676 C9.59874505,12.677124 9.30373987,12.9771205 8.47425635,13.1557268 C7.61484956,13.3400007 7.30992794,12.900007 7.1089723,12.398577 C6.979241,12.0742711 6.91650652,10.6113979 6.96074772,8.99431501 C6.96074772,8.97284807 6.95789457,8.95146833 6.95218828,8.93286133 C6.94648198,8.89573451 6.93934911,8.85710798 6.92793651,8.8185512 C6.86099189,8.5828683 6.69707499,8.38715472 6.50041647,8.3056815 C6.43910856,8.28001186 6.34648559,8.24145508 6.23244662,8.24145508 C6.18970157,8.24145508 6.1483831,8.24717494 6.1084912,8.25711496 C6.14552995,8.10569545 6.20826444,7.93429129 6.27804481,7.74996512 L6.3065937,7.6714216 C6.33935272,7.5828683 6.38067119,7.49288504 6.42341624,7.39575195 C6.6571831,6.87571498 6.97638785,6.1628418 6.63007818,4.55426897 C6.50041647,3.95141602 6.06567657,3.65713937 5.40729501,3.72572545 C5.01246441,3.76714216 4.65195857,3.92572893 4.47090539,4.01714216 C4.43244006,4.03717913 4.39682789,4.05569894 4.3625901,4.07430594 C4.41246802,3.46714565 4.60206326,2.33424595 5.3118189,1.61429269 C5.75932838,1.16144671 6.35504504,0.93711635 7.08184999,0.950003488 C8.51134729,0.972882952 9.42912185,1.70858329 9.9464987,2.32144601 C10.3925642,2.84999302 10.6334117,3.38145229 10.7303144,3.6685791 C10.0063626,3.59425572 9.51325496,3.73854283 9.2624214,4.09568569 C8.71936622,4.87430246 9.56027973,6.38574219 9.96361759,7.11284528 C10.0376951,7.24574498 10.1018387,7.36141532 10.1217586,7.40998186 C10.2529165,7.73001535 10.4238967,7.94288853 10.5479217,8.09859794 C10.5878136,8.14859445 10.6248523,8.1943185 10.6533838,8.23573521 Z M6.55600069,8.92428153 C6.57162342,8.97999791 6.59018628,9.08572824 6.53173152,9.16856166 C6.23672634,9.5828683 5.82912615,9.79288156 5.3231793,9.79288156 C5.15647885,9.79288156 4.97970538,9.76998465 4.79731261,9.72427804 C4.6904065,9.69716099 4.59493039,9.65145438 4.5379196,9.61282785 C4.58494436,9.59001814 4.66900788,9.5599714 4.81436191,9.52999442 C5.51698468,9.38429478 5.62531736,9.28285435 5.86193737,8.98142787 C5.91604282,8.9128418 5.97733333,8.83429827 6.06289301,8.73857771 C6.12698448,8.66570173 6.18542185,8.63000488 6.23387319,8.63000488 C6.26805879,8.63000488 6.3065937,8.64430455 6.35361847,8.66427176 C6.43910856,8.70003836 6.5217455,8.80711147 6.55600069,8.92428153 Z M12.6058946,8.68286133 C12.6087478,8.68286133 12.6116009,8.68143136 12.6144541,8.68143136 C12.5075654,8.78287179 12.3222325,8.9171317 12.0614825,9.03859166 C11.8362751,9.14287458 11.4614861,9.22141811 11.105173,9.23857771 C10.710412,9.25711496 10.5108829,9.19430106 10.4638581,9.15567453 C10.4424421,8.70003836 10.6106387,8.65145438 10.7901958,8.60145787 C10.8186577,8.59287807 10.84578,8.58572824 10.8728327,8.57714844 C10.8899516,8.59001814 10.9070705,8.60424805 10.9269904,8.61713518 C11.2433942,8.82571847 11.8077958,8.84859794 12.6058946,8.68286133 Z M5.91461624,7.61284528 L5.94314773,7.53573172 C5.98018648,7.4357387 6.0243581,7.33858817 6.06995629,7.23573521 C6.29375453,6.73859515 6.57019684,6.11999512 6.25100948,4.63574219 C6.18970157,4.34854562 6.04006782,4.18287877 5.79636713,4.12573242 C5.26194098,4.00284249 4.51086687,4.4057094 4.34980312,4.54997907 C4.3512297,4.58288574 4.35408285,4.62430246 4.35695339,4.67000907 C4.37685585,5.00570243 4.4138946,5.63145229 4.31413876,6.34854562 C4.24291441,6.86141532 4.39825447,7.36141532 4.74315496,7.72141811 C5.01389098,8.00425502 5.3687775,8.16141183 5.73505922,8.16141183 C5.77352454,7.99002511 5.84196532,7.80854143 5.91461624,7.61284528 Z M5.41016556,4.61429269 C5.38446982,4.58145578 5.34457792,4.51571219 5.35313737,4.45856585 C5.36449777,4.37287249 5.46710676,4.32144601 5.62817051,4.32144601 C5.66378268,4.32144601 5.70089102,4.32430594 5.73791236,4.33002581 C5.91181528,4.35426549 6.08994573,4.4357387 6.07280944,4.55998884 C6.06003986,4.65284947 5.91181528,4.79139927 5.73505922,4.79139927 C5.7193669,4.79139927 5.70374416,4.79003906 5.68803445,4.7886091 C5.58542546,4.77429199 5.48137251,4.70856585 5.41016556,4.61429269 Z" id="Fill-1"></path>
                <path d="M9.7426899,0 C11.1607572,0 12.3336451,0.54284668 13.1345971,1.57144601 C13.6804358,2.27001953 13.4823507,3.63431222 13.2187302,4.6557094 C12.9350854,5.75999233 12.4448309,6.93859863 11.8348485,7.98573521 C12.0087514,7.97427804 12.2111162,7.94574847 12.437698,7.89861189 C12.5560167,7.87428502 12.6600523,7.86284528 12.7555284,7.86284528 C13.2343703,7.86284528 13.4709207,8.16856166 13.5293755,8.43143136 C13.6890127,9.15288435 12.7113568,9.66856166 12.4077921,9.81140137 C12.0429196,9.98142787 11.4771088,10.0914481 10.9669518,10.0914481 C10.9170739,10.0914481 10.8671786,10.0914481 10.8186577,10.0885882 L10.743171,10.0828509 L10.7274613,10.2171282 C10.6918491,11.5871408 10.493764,12.4571708 10.0861464,13.0385742 C9.65006694,13.6585868 9.05290631,13.8314035 8.52698742,13.9442836 C8.35315409,13.9814104 8.18638404,14 8.02960002,14 C7.53934549,14 7.12889215,13.8157436 6.83959327,13.4657506 C6.62007476,13.2000035 6.52459865,12.9085868 6.46195115,12.7143206 C6.45052115,12.679984 6.44053513,12.648577 6.43340226,12.6285575 C6.2894748,12.2385777 6.24100606,11.6857038 6.21254416,10.974278 C6.20826444,10.8699777 6.20541129,10.7585972 6.20254074,10.6443045 C6.20111417,10.594308 6.19968759,10.5385742 6.19826102,10.4799979 C5.92888199,10.5885707 5.63387681,10.6428746 5.32175273,10.6428746 C5.08803806,10.6428746 4.84433737,10.6099679 4.59635696,10.548584 C4.42102747,10.5057373 4.10324929,10.3971645 3.88517475,10.1585345 C3.63576776,10.3557478 3.36496215,10.4557408 3.079943,10.4557408 C2.17067568,10.4557408 1.43529389,9.47570801 0.7682833,7.37285505 C0.336483536,6.01142229 0.0343454819,4.44283622 0.00864974249,3.9185791 C-0.0539977575,2.66714914 0.223871132,1.70715332 0.83529751,1.06286621 C1.38684255,0.481392997 2.17210226,0.18711635 3.16971281,0.18711635 C4.05622452,0.18711635 4.90707186,0.427106585 5.34743107,0.57711356 C5.83055273,0.29284668 6.39636351,0.150006975 7.02626577,0.150006975 L7.09613313,0.150006975 C7.44672253,0.155726842 7.7816196,0.185686384 8.09374368,0.239990234 C8.29184617,0.178536551 8.94316445,0 9.7426899,0 Z M9.79684754,0.412876674 C8.93603158,0.404296875 8.20635608,0.624319894 8.06521219,0.68711635 C7.76735386,0.612880162 7.44386938,0.56715611 7.09042683,0.561436244 C6.44196171,0.551426479 5.88328379,0.705723354 5.42008199,1.02287946 C4.94981691,0.847133092 2.79777699,0.120029994 1.46234662,1.06858608 C0.718405382,1.59713309 0.374948857,2.54139927 0.44194567,3.87573242 C0.463292097,4.32430594 0.718405382,5.70570592 1.12174324,7.02858189 C1.65194186,8.76855469 2.22911305,9.75432478 2.83481573,9.957101 C2.90610967,9.97999791 2.98874661,9.99715751 3.07851642,9.99715751 C3.29944411,9.99715751 3.57019752,9.89716448 3.85243312,9.55711147 C4.32127163,8.99143764 4.75884728,8.51712472 4.91984144,8.345738 C5.15790542,8.47427804 5.42008199,8.54574149 5.68803445,8.55282157 C5.68803445,8.5599714 5.68946102,8.56712123 5.68946102,8.5742885 C5.63530338,8.63715472 5.59113176,8.69430106 5.55409301,8.74145508 C5.3687775,8.97713797 5.33031218,9.02713449 4.73315154,9.15002441 C4.56210177,9.18572126 4.11175654,9.27856445 4.10469326,9.595738 C4.09754299,9.94144113 4.63910201,10.0871582 4.70040992,10.1028878 C4.91270857,10.1557443 5.12222366,10.1828613 5.32030876,10.1828613 C5.80064685,10.1828613 6.22103402,10.0228446 6.55742726,9.71855818 C6.54744124,10.9543108 6.59874573,12.1699742 6.74695291,12.5414342 C6.86805517,12.8457206 7.16448693,13.5871408 8.09946738,13.5871408 C8.23626196,13.5871408 8.38732229,13.5713937 8.55409233,13.5356968 C9.53032166,13.3256836 9.95363157,12.8928571 10.1174789,11.9400112 C10.2058917,11.429984 10.3555255,10.2142683 10.4267498,9.56140137 C10.576401,9.60853795 10.7687798,9.63000488 10.9768683,9.63000488 C11.4115908,9.63000488 11.9118313,9.53714425 12.2253298,9.39144461 C12.5773458,9.22713797 13.2144505,8.8242885 13.0975757,8.47427804 C13.0376944,8.29431152 12.8453156,8.23573521 12.5260413,8.30146136 C11.5782912,8.49860491 11.2376879,8.36284528 11.1265194,8.28001186 C11.8648066,7.154262 12.470457,5.792899 12.7982734,4.52286203 C12.956484,3.91142927 13.2699825,2.42574637 12.7939937,1.81572614 C12.0871086,0.911446708 11.0510154,0.425746373 9.79684754,0.412876674 Z" id="形状结合"></path>
            </g>
        </g>
    </g>
</svg>