<?xml version="1.0" encoding="UTF-8"?>
<svg width="60px" height="60px" viewBox="0 0 60 60" version="1.1" xmlns="http://www.w3.org/2000/svg" xmlns:xlink="http://www.w3.org/1999/xlink">
    <title></title>
    <g id="页面-1" stroke="none" stroke-width="1" fill="" fill-rule="evenodd">
        <g id="首页ICON" transform="translate(-667.000000, -389.000000)" fill="">
            <g id="用户管理" transform="translate(667.000000, 389.000000)">
                <path d="M45.5,29 C50.6562447,29 54.8530394,33.1078939 54.9962236,38.2295213 L55,38.5 L55,40 L56,40 C58.1421954,40 59.8910789,41.6839685 59.9951047,43.8003597 L60,44 L60,56 C60,58.209139 58.209139,60 56,60 L56,60 L34,60 C31.790861,60 30,58.209139 30,56 L30,56 L30,44 C30,41.790861 31.790861,40 34,40 L34,40 L36,40 L36,38.5 C36,33.2532949 40.2532949,29 45.5,29 Z M30,0 C38.2842712,0 45,6.71572875 45,15 C45,23.2842712 38.2842712,30 30,30 L30,30 C15.6405965,30 4,41.6405965 4,56 C4,57.1045695 3.1045695,58 2,58 C0.8954305,58 0,57.1045695 0,56 C0,42.4347354 9.00349373,30.9723495 21.3606982,27.2626252 C17.5126496,24.5476712 15,20.067266 15,15 C15,6.71572875 21.7157288,0 30,0 Z M56,44 L34,44 L34,56 L56,56 L56,44 Z M45.5,33 C42.5365209,33 40.1204609,35.34378 40.0043672,38.2787929 L40,38.5 L40,40 L51,40 L51,38.5 C51,35.4624339 48.5375661,33 45.5,33 Z M30,4 C23.9248678,4 19,8.92486775 19,15 C19,21.0751322 23.9248678,26 30,26 C36.0751322,26 41,21.0751322 41,15 C41,8.92486775 36.0751322,4 30,4 Z" id="形状结合"></path>
            </g>
        </g>
    </g>
</svg>