<?xml version="1.0" encoding="UTF-8"?>
<svg width="14px" height="14px" viewBox="0 0 14 14" version="1.1" xmlns="http://www.w3.org/2000/svg" xmlns:xlink="http://www.w3.org/1999/xlink">
    <g id="2023" stroke="none" stroke-width="1" fill="none" fill-rule="evenodd">
        <g id="SQL窗口备份" transform="translate(-769.000000, -557.000000)">
            <g id="informix" transform="translate(769.000000, 557.000000)">
                <path d="M8.47191857,14 C8.3444134,13.9973812 8.21753031,13.9804675 8.09367981,13.9495344 L2.74888251,12.6188424 C2.19469479,12.480638 1.75494873,12.0544472 1.59427939,11.4998182 L0.0614958328,6.09622243 C-0.0953050015,5.53934881 0.0526118778,4.94012193 0.449687732,4.52355952 L4.26175979,0.491020339 C4.65868013,0.0779824425 5.2421052,-0.090839931 5.79454335,0.0474431958 L11.1492743,1.42860081 C11.6995936,1.56989651 12.1350046,1.99553603 12.2939438,2.54762497 L13.4285823,6.51963697 C13.4871347,6.73345108 13.3685135,6.95596818 13.1598475,7.0237216 C13.0568753,7.05463496 12.9459328,7.04203333 12.8522333,6.98888992 C12.7585143,6.93572682 12.6899504,6.84651127 12.6621516,6.74144523 L11.5275131,2.77943577 C11.4495987,2.49962066 11.2290939,2.28395569 10.9502504,2.21490273 L5.60539481,0.874129381 C5.32746504,0.810589633 5.03699664,0.898505646 4.83904191,1.10594018 L0.997110432,5.08809255 C0.803024202,5.29891378 0.731408249,5.5968831 0.808020212,5.87447323 L2.34080377,11.2276232 C2.41864044,11.5074383 2.63924245,11.7231032 2.91806645,11.7921759 L8.28282835,13.1531709 C8.56075812,13.2186993 8.85227626,13.130488 9.04918125,12.9212813 L12.234186,9.57427048 C12.3873516,9.42368108 12.6305621,9.42228309 12.7853995,9.57104132 C12.9403147,9.71979954 12.9517841,9.96584624 12.8114487,10.1287419 L9.62644393,13.4858144 C9.32786917,13.8108575 8.91022608,13.9968496 8.47191857,14 Z" id="Fill-1" fill="#BD2525"></path>
                <path d="M14,6.00703004 L13.5325332,7.9617912 L12.100195,6.57128531 L14,6.00703004 Z M8.12140443,11.9821297 C8.02572353,11.9962597 7.92858556,11.9962597 7.83296295,11.9821297 L4.07296589,10.994683 C3.65754566,10.8929785 3.32743199,10.5739515 3.20760259,10.1583761 L2.21290979,6.57128531 C2.16981939,6.47251309 2.16768236,6.36035869 2.20700381,6.25995306 C2.24622812,6.15954742 2.32364708,6.07937248 2.42183414,6.037258 C2.52338217,6.00604606 2.63303151,6.01718475 2.7264588,6.06831251 C2.8198861,6.11934187 2.88924261,6.20614886 2.91914168,6.30930965 L3.91381505,9.89638071 C3.95577865,10.0323081 4.06544742,10.1356854 4.20227596,10.1684324 L8.05173708,11.1558791 C8.17688964,11.1934082 8.31220283,11.1629638 8.40986534,11.0752515 L11.1153909,8.22376686 C11.2160064,8.12044864 11.2539679,7.97039121 11.2148796,7.83078369 L10.1207175,4.02208028 C10.0842131,3.8864874 9.9772836,3.78200808 9.84220354,3.75002863 L6.06239034,2.77265788 C5.9227448,2.7308386 5.77188953,2.77395674 5.67444072,2.88351342 L3.0782731,5.56370629 C2.92361003,5.71730605 2.67598592,5.71730605 2.52126456,5.56370629 C2.36840825,5.40357288 2.36840825,5.14950844 2.52126456,4.98939471 L5.06771697,2.31925815 C5.36816471,2.0041474 5.8163593,1.88384562 6.23146869,2.00684351 L10.041181,2.933854 C10.4527934,3.03870724 10.7785164,3.35712417 10.8965973,3.77016092 L12.0305277,7.57888402 C12.1508234,7.99268827 12.0403969,8.43992827 11.7420862,8.74765915 L8.98676774,11.6092788 C8.76016428,11.8472847 8.44780743,11.9818148 8.12140443,11.9821297 Z" id="Fill-3" fill="#BD2525"></path>
                <path d="M9.21327057,4.50239187 L6.92634208,6.76666667 L5.96828435,3.74762101 C6.03902654,3.72857078 6.11399395,3.72857078 6.18465566,3.74762101 L9.03816554,4.4056099 C9.10590984,4.41978418 9.16721571,4.45359456 9.21327057,4.50239187 Z" id="Fill-4" fill="#E97373"></path>
                <path d="M10.1189705,7.7 L6.89542327,6.9416999 L9.20234204,4.66666667 C9.25449955,4.70777749 9.29372328,4.76155387 9.31562823,4.8222232 L10.1395479,7.51529561 C10.1430076,7.57752202 10.1360278,7.63984337 10.1189705,7.7 Z" id="Fill-5" fill="#FCECED"></path>
                <path d="M10.1404095,7.65029226 C10.1212668,7.71793885 10.0872827,7.78016897 10.0411892,7.83251501 L8.0273712,9.91744141 C7.93307218,10.0182985 7.79161395,10.0572813 7.66038583,10.0186741 L4.95218061,9.33042637 C4.81949934,9.29450765 4.71444709,9.19112026 4.67441796,9.05715154 L3.8907111,6.28395767 C3.86511648,6.1580939 3.89811242,6.02728809 3.98001133,5.92969276 L5.96399151,3.84468729 C6.00781818,3.79101678 6.06669937,3.75217237 6.13269125,3.73333333 L7.03538111,6.86087119 L10.1404095,7.65029226 Z" id="Fill-6" fill="#BD2525"></path>
            </g>
        </g>
    </g>
</svg>