<?xml version="1.0" encoding="UTF-8"?>
<svg width="14px" height="14px" viewBox="0 0 14 14" version="1.1" xmlns="http://www.w3.org/2000/svg" xmlns:xlink="http://www.w3.org/1999/xlink">
    <g id="2023" stroke="none" stroke-width="1" fill="none" fill-rule="evenodd">
        <g id="SQL窗口备份" transform="translate(-251.000000, -297.000000)" fill="#8EA1AD">
            <g id="SQL-Server_offline" transform="translate(251.000000, 297.000000)">
                <path d="M5.88479988,0.000545528135 C5.90779534,0.00293344238 5.91242876,0.010838262 5.94855223,0.149469035 C6.01431241,0.377852447 6.13344265,0.695823815 6.25871646,0.971092688 C6.39330001,1.26679607 6.60756208,1.68146058 6.82033649,2.05687356 L6.94102427,2.265 L7.61227364,2.36898219 L8.23775257,2.47495836 L8.34669105,2.49513138 C9.69694527,2.75277885 10.7633485,3.09961261 11.5878074,3.54387305 C12.1872579,3.868443 12.6772279,4.25983714 13.0810573,4.74266198 L13.2413434,4.94412706 C13.2678283,4.97914221 13.2946014,5.0154394 13.3222672,5.05386342 L13.5333333,5.36136321 L13.3417721,5.3897213 C12.1739858,5.56197795 10.4459558,5.9608194 8.83576836,6.41161639 L8.85269093,6.4473376 L8.47239053,6.55747809 C8.46810033,6.55953663 8.47024543,6.59825378 8.47877434,6.64103862 C8.53185269,6.93284174 8.56584822,7.23042526 8.58501683,7.5973571 L8.59114994,7.83385608 L8.59110677,8.14982782 L8.58429086,8.51486582 C8.58207204,8.58435353 8.57942585,8.64247965 8.57643644,8.68203009 C8.51946259,9.39003843 8.43237155,9.98708287 8.32190751,10.4356484 C8.16018845,11.0837016 7.87961641,11.8281853 7.4960334,12.6229947 L7.18240513,13.2412467 C7.11232289,13.372361 7.06186747,13.4600448 7.05127068,13.4661586 L6.95013165,13.4707904 C6.87397514,13.4712 6.76799986,13.4696876 6.6793619,13.4661586 C5.91242876,13.437586 4.51857741,13.2483973 3.79821867,13.0725151 C3.36485708,12.9685667 2.78895793,12.7830999 2.44680597,12.6382276 C1.77545846,12.3548563 1.19964511,11.9388322 0.910657303,11.5310588 C0.685885194,11.2108148 0.628104794,10.8642049 0.744952655,10.5216628 C0.810970238,10.3316836 0.963684163,10.0853167 1.15720646,9.85281622 C1.26081648,9.72884229 1.444437,9.54743723 1.60239486,9.41300365 L1.97767485,9.11518539 L2.35811302,8.80319327 L2.63945722,8.56083221 L2.79481161,8.4218574 C3.70087639,7.60098544 4.31751867,6.84282238 4.65137914,6.14017054 C4.897825,5.62720192 4.99668872,5.18505482 4.9840165,4.6819976 C4.96305467,3.89896359 4.73797833,3.33108085 4.22054055,2.75500687 L4.1142647,2.64749767 C3.88502339,2.42240314 3.38639159,1.95175978 3.22362007,1.79837629 L3.10174776,1.76157465 L2.81655888,1.5026424 C2.81631224,1.47897735 2.82067108,1.45542757 2.82944024,1.43335995 C2.85277893,1.37830617 2.99938361,1.23761685 3.11614567,1.15804167 C3.39141342,0.972788931 3.81618683,0.762281167 4.35790812,0.540419359 L4.59713954,0.44468111 C5.04631942,0.269680565 5.72395681,0.0338503299 5.86198042,0.00330613586 L5.88479988,0.000545528135 Z M7.46560094,12.0568117 L7.41495085,12.0737844 L7.3276453,12.1103339 C6.92235877,12.2928364 6.50413301,12.4474909 6.07605695,12.573194 L5.7327762,12.6681842 C5.65093445,12.6893458 5.56342922,12.7110096 5.46634304,12.7341091 L4.42091532,12.9666893 L4.74783171,13.0291811 C5.11656466,13.0952991 5.71533701,13.1936029 6.11211178,13.2517404 L6.95146348,13.3638077 C6.9663419,13.3658662 6.97693011,13.349579 7.00454183,13.2842984 L7.11912243,13.0023304 C7.26976274,12.6191569 7.47210884,12.0725073 7.46560094,12.0568117 Z M5.60091526,11.5917844 L5.19213866,11.4516648 L5.06223143,11.6393878 C4.88547523,11.8971288 4.69853696,12.1482459 4.50182847,12.3921925 L4.08688042,12.8895021 C4.08688042,12.8976704 4.15739413,12.9160655 4.17858772,12.9119485 L6.69002616,12.2060227 L7.38544715,11.9910679 C7.42040369,11.979469 7.44271273,11.9716908 7.44643233,11.9696446 C7.45215259,11.9655275 7.44274085,11.9623253 7.42194451,11.9594671 L7.38267997,11.9553665 C7.07466084,11.9309274 6.55199447,11.8455554 6.19069107,11.7576142 C5.97083553,11.7039726 5.79275795,11.6550276 5.60091526,11.5917844 L5.60091526,11.5917844 Z M3.9808267,12.7484834 L4.81815343,11.4613811 L4.70158014,11.4923911 L4.03145963,11.6822467 L2.27090781,12.1468772 C2.2538843,12.1509943 2.4663178,12.2812591 2.63626116,12.3692002 C2.79726375,12.45006 2.96250506,12.5228831 3.13136729,12.5873403 L3.75733683,12.8032878 C3.82073042,12.824032 3.86869377,12.8391953 3.88784951,12.8442799 L3.91969995,12.8524482 L3.9808267,12.7484834 Z M3.56454011,10.3607667 L3.49637743,10.2871696 L2.73462963,11.1716606 C2.44143535,11.5174463 2.26916365,11.7331542 2.12397707,11.9348469 L2.06236982,12.020466 L2.14307704,12.0735435 L4.6757703,11.2151295 L4.56101606,11.1437227 C4.18280927,10.9317582 3.87055143,10.6890473 3.56454011,10.3607667 Z M3.22461906,10.1874042 L1.10821239,10.664987 C1.08695016,10.6713438 1.08695016,10.7201725 1.11035749,10.8178959 C1.15962613,11.0279335 1.28242879,11.258359 1.46508831,11.4764332 C1.53481605,11.5612519 1.67385694,11.7009406 1.78434886,11.799343 L1.9559214,11.9414178 L2.10450148,11.722292 L3.22004536,10.1959851 L3.22461906,10.1874042 Z M8.07120544,10.0283197 L8.03043393,10.044566 L7.99336406,10.0649783 C7.69838469,10.2345367 6.91941202,10.5972469 6.09401335,10.9530052 L5.43041187,11.2376015 C5.40616239,11.249155 5.39294858,11.2564103 5.39437864,11.2577826 L5.56268733,11.3334897 C5.62909841,11.3615445 5.70454533,11.3923833 5.76829523,11.4168671 C6.19329265,11.5800094 6.63978361,11.7104574 7.12465546,11.8125281 L7.52332986,11.8898882 L7.62106059,11.6065169 L7.76417091,11.1661546 L7.87565816,10.7991713 C7.96494579,10.4953463 8.07335053,10.0752051 8.07120544,10.0283197 Z M5.97189092,9.32474133 L5.81890242,9.38386279 C5.23450867,9.62444927 4.64573891,9.82020883 3.95328362,10.0016738 L3.75981281,10.052627 L3.7980299,10.0975363 C4.02205184,10.3683751 4.34749198,10.6468365 4.71958147,10.8877247 L5.05183199,11.0864786 L5.19850532,10.8438171 C5.4466367,10.4227405 5.65127576,10.0383529 5.81789639,9.68128637 L5.97013757,9.33338028 L5.97189092,9.32474133 Z M6.62950724,9.38479275 L6.30973551,9.21860266 L6.27991005,9.29379726 C6.16338334,9.6398025 5.95002771,10.116201 5.72424427,10.5456839 L5.52349647,10.9168379 L5.54833768,10.9113008 L6.27595666,10.6473852 C7.07386374,10.352389 7.790673,10.0612941 8.0329197,9.93188088 L8.10089361,9.89522228 L8.05201967,9.88544006 C7.58942834,9.78238098 7.05818683,9.59534125 6.62950724,9.38479275 Z M2.99509341,8.64980149 L2.50170922,8.90888365 L2.41577925,8.95555332 C2.1138522,9.12081345 1.93781676,9.24921737 1.71673422,9.46948187 C1.42669102,9.75847096 1.20824079,10.0943893 1.12541843,10.3746343 L1.09841357,10.4910316 C1.09386024,10.5141532 1.09329584,10.522746 1.09783392,10.5246856 L1.36320466,10.4563657 C1.80523245,10.3401813 3.2118171,9.94456153 3.22662687,9.93227612 L3.19748207,9.86743486 L3.15235495,9.77735812 C2.99938361,9.47552576 2.94836456,9.25532713 2.96538807,8.95761187 L2.97979551,8.80469752 L2.99981692,8.66714474 C3.00088947,8.65388564 2.99931497,8.64980149 2.99509341,8.64980149 Z M8.25823903,8.42228708 L8.26405846,8.04587327 L8.144585,8.13414925 C8.0644784,8.19109688 7.94883752,8.26947536 7.86246151,8.32519336 C7.60268138,8.49207152 7.31304468,8.65994086 7.0087548,8.82115904 L6.50473364,9.07984014 C6.49615324,9.08794258 6.79572926,9.26542225 7.00186474,9.37350419 C7.31336752,9.53747979 7.64077835,9.67192759 7.9794295,9.77511843 L8.11323222,9.81190877 L8.13869885,9.66530731 C8.19833605,9.30144846 8.24282781,8.82936737 8.25823903,8.42228708 L8.25823903,8.42228708 Z M4.59888994,7.90350418 L4.47195683,7.95434819 C4.29329462,8.03123561 3.96097392,8.18040956 3.70588625,8.29795487 L3.43864851,8.42347662 C3.37491331,8.45404192 3.37704125,8.45198338 3.34942953,8.57846049 C3.31330605,8.74963277 3.3069394,9.02702606 3.33877267,9.18611056 C3.37062311,9.34712185 3.4302054,9.52236182 3.50240087,9.65913167 L3.5357636,9.71450658 C3.54245845,9.72168679 3.54617806,9.71924123 3.55127481,9.7121269 L3.6575173,9.55104973 C3.89894911,9.18236894 4.09138616,8.86592321 4.26424508,8.55677098 L4.390678,8.32557214 C4.49705777,8.12569548 4.60518795,7.90762127 4.59888994,7.90350418 Z M5.02725773,7.73458395 L4.98768494,7.74293753 C4.96927712,7.75224765 4.95842768,7.76003536 4.95071804,7.77265867 L4.86232532,7.99589176 C4.67638595,8.44900878 4.36357896,9.06613845 4.12176876,9.46324965 L3.97876178,9.68785699 C3.97081755,9.70150651 3.96915887,9.70703039 3.97234199,9.70811019 L4.33965895,9.59472386 C4.74079599,9.47034152 5.10117546,9.35168227 5.43486426,9.23412549 L5.94962293,9.0466063 L5.99905591,9.02619211 C6.01205272,9.0199227 6.01470704,9.01670632 6.0135071,9.01380262 L5.9055816,8.92370348 C5.74845735,8.79478905 5.55922525,8.59909536 5.41476567,8.4155718 C5.28297076,8.2480555 5.13006806,7.98706471 5.06209415,7.80965091 C5.05418302,7.78424021 5.04345752,7.7596694 5.03024371,7.73631724 L5.02725773,7.73458395 Z M6.7089986,7.10016042 C6.68988147,7.10620431 6.68988147,7.10620431 6.68773637,7.31013219 C6.6841612,7.653388 6.627614,8.06712616 6.52638715,8.48957122 L6.4346645,8.84679077 L6.62834285,8.77626213 C7.12060029,8.56719612 7.53749323,8.35963971 7.88669835,8.14992374 L8.0881603,8.02380565 C8.2235976,7.93512345 8.25270767,7.91982639 8.22562552,7.90399205 L8.18166948,7.88524075 C8.01167463,7.81447066 7.69065715,7.64953074 7.36579311,7.46947408 L6.74886093,7.11595701 C6.72926138,7.10644804 6.71686167,7.10221897 6.70918736,7.10221897 L6.7089986,7.10016042 Z M6.41390154,7.21028444 L6.33903792,7.23375042 C6.08646584,7.32074104 5.28029367,7.62152001 5.25160082,7.64047131 C5.24523416,7.64658107 5.32171983,7.82598754 5.37057662,7.91778226 C5.46617942,8.09720519 5.59581207,8.28067935 5.76146524,8.46420291 L5.92633155,8.63016707 C6.03572559,8.73513751 6.15144433,8.83943893 6.15676417,8.83332505 L6.17400648,8.78868752 C6.18277136,8.76294745 6.19393446,8.72830623 6.20563812,8.69064305 C6.29760283,8.40103023 6.36301978,8.10422072 6.40109959,7.80360702 L6.4120337,7.66018755 C6.42097716,7.47870555 6.42336143,7.21946144 6.41390154,7.21028444 Z M5.74115891,6.27182536 L5.7301828,6.26995265 L5.64193588,6.36932885 C5.29214177,6.78308041 4.84198214,7.19692826 4.32444745,7.58386336 L3.91516716,7.8805483 L4.4535158,7.63078081 L4.7642986,7.49848994 C5.0501957,7.38006983 5.39785849,7.24349166 5.76594021,7.10590212 L6.05405492,6.99833467 L6.04994409,6.9576897 C6.026723,6.77115864 5.93422937,6.53993613 5.81425094,6.36747763 L5.7505456,6.28027781 C5.74675603,6.27608245 5.74373603,6.27337829 5.74115891,6.27182536 L5.74115891,6.27182536 Z M5.408485,6.34732716 C5.40448328,6.3434987 5.24411188,6.44503222 5.04325999,6.57598305 L4.45583822,6.96697571 L4.37780522,7.02072954 C4.28532857,7.0840577 4.25732057,7.10577171 4.20894788,7.16284675 L4.16752446,7.21348595 C4.08758413,7.31352837 4.01419698,7.40097448 3.93302353,7.4908185 L3.5777021,7.8698908 L3.62213644,7.84504223 L3.70689085,7.7935245 C4.20515043,7.4893016 4.60712828,7.17693661 5.01301313,6.77730207 L5.27522707,6.50526668 C5.35467902,6.41880398 5.4126383,6.35135726 5.408485,6.34732716 Z M8.14144457,6.64947042 L8.0136307,6.68474105 L7.12152697,6.96146377 C6.97218392,7.01048777 6.94927321,7.01890681 6.95916473,7.0293032 L7.06966169,7.10532017 C7.16992149,7.17127806 7.32196829,7.26820062 7.45941554,7.35403584 L7.99289651,7.67161964 C8.13051738,7.74993252 8.24032317,7.80971679 8.24978068,7.80971679 C8.25289536,7.80971679 8.25488065,7.77873977 8.2538687,7.72797138 L8.23949747,7.45799898 C8.21337691,7.08417832 8.16268106,6.64947042 8.14144457,6.64947042 Z M7.68427014,5.10596014 L7.53233427,5.17481599 L7.00890521,5.43451104 L6.35945804,5.78284379 C6.15314372,5.89643181 5.99015872,5.98923863 5.96998678,6.0064894 C5.95943792,6.01659739 5.96786342,6.03899226 6.01624209,6.13230694 C6.10711518,6.31077127 6.1669933,6.51389583 6.18730963,6.71372398 L6.19499518,6.86254019 C6.19499518,6.909132 6.19711854,6.93952152 6.20342068,6.93760477 L6.40322052,6.71644111 L6.68336775,6.38937981 C6.78261965,6.27145195 6.88436422,6.14871735 6.97847099,6.03347804 L7.22774736,5.72254803 C7.40033421,5.50138437 7.68838096,5.1099247 7.68427014,5.10596014 Z M8.12360217,5.00050603 L8.049947,5.1099247 C7.74494732,5.55111889 7.35238256,6.00221084 6.90866445,6.42555304 L6.43947055,6.85384715 L6.62822892,6.79560132 C7.351998,6.53861461 7.98973554,6.33660027 8.73966129,6.12737498 L9.37533241,5.95381968 L9.35010687,5.92739472 C9.30386855,5.8787551 9.07255801,5.6779385 8.95271548,5.58259239 C8.7210652,5.39714257 8.47874716,5.22448748 8.22691646,5.06533156 L8.12360217,5.00050603 Z M5.0256174,5.73470384 L5.0097113,5.7643541 L4.9838806,5.83792993 C4.9339901,5.98255457 4.87499461,6.12418123 4.80731883,6.26189246 L4.71592581,6.43165782 C4.66662726,6.51663302 4.60836493,6.60754013 4.52511556,6.73044814 L4.58776614,6.69709851 L4.69544314,6.61488604 C4.80142098,6.53333071 4.95283536,6.42108967 5.10018185,6.31457174 L5.374783,6.11995454 C5.44638276,6.06939817 5.50085973,6.02683645 5.4967489,6.02274083 C5.42167816,5.96327238 5.34280235,5.90843472 5.26063485,5.85855791 L5.03764333,5.73894767 C5.0313749,5.73622331 5.0271802,5.73470384 5.0256174,5.73470384 Z M11.2469993,3.78582609 L11.1445537,3.8098881 C11.0416604,3.83763803 10.8760077,3.88500775 10.7169573,3.933203 C10.3282836,4.04870613 9.83593815,4.21457821 9.41119677,4.37187793 L8.91920509,4.56186375 C8.6954173,4.65149118 8.47913786,4.7421614 8.47913786,4.74688866 L8.49909959,4.76533739 L8.62913479,4.8649601 L8.67681435,4.90309573 C9.00520498,5.16349546 9.29218156,5.46899618 9.5286731,5.80976842 C9.54625454,5.83812652 9.56590837,5.86525592 9.58753269,5.89091091 L10.8332664,4.37096339 C10.913781,4.26906376 10.97367,4.19027052 11.0240464,4.12052042 L11.1502026,3.93983681 C11.2050965,3.85804279 11.2493969,3.78816645 11.2469993,3.78582609 Z M11.4089184,3.82640553 L11.3145562,4.01698307 C11.0080221,4.6120389 10.7429611,4.97470765 10.2387813,5.46530961 L9.86434567,5.82145438 C9.85881542,5.82727934 9.85621439,5.83044313 9.85706373,5.83044313 L10.0000594,5.80003722 C10.9534212,5.57813635 11.9404545,5.41222675 12.7655389,5.33074461 L13.3189417,5.2848242 L13.2764198,5.23888615 C13.1953621,5.15548749 13.019484,4.98053168 12.9358703,4.9014411 C12.606367,4.59043312 12.2038201,4.28639908 11.7829946,4.03056066 L11.528744,3.88317086 C11.467778,3.84873486 11.417276,3.82435771 11.4089184,3.82640553 Z M6.45173509,4.33714613 L6.37341528,4.39148555 C6.29541273,4.4496348 6.17050301,4.54622831 6.05134371,4.64048163 L5.83130578,4.81792315 L5.4105298,5.17598096 C5.28619635,5.28498802 5.19628472,5.36760494 5.19628472,5.37569789 L5.20403712,5.38227981 L5.29708495,5.43246323 C5.44001268,5.50343218 5.55148067,5.58259239 5.68824216,5.71039222 L5.80602928,5.81987642 L5.97012267,5.55213734 C6.11955638,5.28898535 6.24417223,5.01343182 6.34237347,4.72865494 L6.42523346,4.45097083 C6.44284089,4.38705489 6.45443601,4.33975094 6.45173509,4.33714613 Z M6.72503723,4.28850399 C6.71873509,4.28824439 6.71024164,4.30847676 6.70188409,4.33886629 C6.63287653,4.64911139 6.52216547,4.96561591 6.38371005,5.25005583 L6.22224297,5.55517557 L6.41157807,5.45677484 C6.67693034,5.30165311 6.93348234,5.16133092 7.21209951,5.02043738 L7.68022603,4.79037762 C7.70725476,4.77659405 7.72292211,4.76800569 7.72209995,4.76718657 L7.61134676,4.70695086 C7.50790504,4.65316237 7.35244178,4.57472094 7.23411745,4.51773035 L6.78801481,4.31287521 C6.75504351,4.29887253 6.73243926,4.2900096 6.72503723,4.28850399 Z M5.10345135,3.77968266 L5.11394925,3.88680778 C5.1812853,4.33105184 5.19171525,4.76923438 5.14333658,5.1099247 C5.14134911,5.12619252 5.14333658,5.13841386 5.1475833,5.13841386 L5.32635337,4.98015898 C5.51689536,4.8023434 5.68840048,4.64721626 5.85471249,4.50396001 L6.30860352,4.12448499 L6.27686802,4.10961742 L6.0241049,4.02362822 L5.66083895,3.91167477 L5.34777497,3.83010858 C5.22304704,3.80063817 5.10735833,3.77592492 5.10345135,3.77968266 Z M8.75464829,2.91173818 L8.70016942,2.93461731 C8.58481224,2.99105009 8.30884496,3.1397661 8.08945638,3.2652066 L7.71337111,3.4885597 C7.36629438,3.70130028 6.96818893,3.95916169 6.97951788,3.9684745 L7.13936455,4.03541337 C7.36649631,4.12664338 7.57944826,4.22252704 7.77468739,4.32294686 L8.07770491,4.48548243 C8.08459708,4.48863504 8.08890644,4.49019547 8.08996812,4.48976543 C8.09421485,4.48797974 8.13421898,4.42692219 8.17835093,4.35192314 C8.42863583,3.93000841 8.6326824,3.48166873 8.70832503,3.17942811 L8.73734327,3.04490819 C8.75007814,2.97597197 8.75842958,2.9153456 8.75464829,2.91173818 Z M8.91456291,2.93521429 L8.90841806,2.94445098 L8.89990322,3.00413544 C8.8700346,3.3459152 8.76432658,3.73671729 8.59970706,4.12391486 L8.45112992,4.45073824 L8.56964403,4.41419299 C9.19171824,4.17084471 9.8329263,3.96968135 10.5527322,3.79343872 L11.1017614,3.66628304 L10.9482848,3.59927864 C10.6398311,3.46409577 10.1937954,3.30206381 9.76783724,3.16966824 L9.34033596,3.04555345 L8.91456291,2.93521429 Z M6.37376525,2.4654463 L6.26999629,2.53178823 L5.88393898,2.81793377 C5.75994375,2.91285894 5.64102539,3.00661493 5.56668394,3.06979647 L5.33871771,3.280504 C5.25957364,3.35682594 5.1943652,3.42275728 5.1943652,3.42886795 L5.23861166,3.44443739 L6.09736253,3.68380838 C6.22008074,3.7190517 6.33263998,3.75215351 6.42267051,3.77974819 L6.53135266,3.81429886 L6.53758685,3.79408287 L6.54711331,3.68134469 C6.54816544,3.66178707 6.54921438,3.6408697 6.55025907,3.61957655 C6.56220086,3.30690029 6.52829502,2.99409297 6.44947583,2.69057452 L6.40830803,2.54677791 C6.39194802,2.49366679 6.38132781,2.46786436 6.37376525,2.4654463 Z M6.51895223,2.48572783 L6.53060775,2.51953037 C6.53457828,2.52899399 6.53925157,2.53969722 6.54416078,2.55068441 C6.69140318,2.87921893 6.77136049,3.26869632 6.77136049,3.65412723 L6.7739332,3.77361089 C6.77441813,3.78023352 6.77494047,3.78390934 6.77547131,3.78390934 L6.97533911,3.65809179 C7.3169597,3.43838891 7.66027898,3.25103007 8.08655486,3.05502113 L8.49673841,2.87012869 C8.52381339,2.85593122 8.53169531,2.8488294 8.52539317,2.84678159 L7.88456253,2.71589658 L6.8313794,2.53275323 C6.65070469,2.50326098 6.52134999,2.48339017 6.51895223,2.48572783 Z M4.55237952,2.13075197 L4.5698739,2.17594922 L4.5923327,2.22200246 C4.70672924,2.45718953 4.83059495,2.77175698 4.9142944,3.03250598 L4.99198335,3.29294241 L5.10557471,3.18544049 C5.21934443,3.07596448 5.36595513,2.95730096 5.53062979,2.84150336 L5.70077849,2.72710748 C5.76245223,2.68636968 5.90734666,2.60165399 6.01763565,2.53950488 L6.19148392,2.44412904 C6.19638055,2.44081796 6.19917395,2.4383442 6.19917395,2.43702268 C6.19917395,2.43305812 6.14456109,2.42039445 6.07516963,2.41072878 L5.4364379,2.29925753 C5.22226524,2.26011635 5.00768986,2.21925665 4.82999347,2.18319991 L4.66597088,2.14898569 C4.6286167,2.14041764 4.59066798,2.13427421 4.55237952,2.13075197 Z M3.58902427,1.911 L3.62061442,1.93345761 C4.00657606,2.22560427 4.34749678,2.57867775 4.59196543,2.9368236 L4.75326733,3.19022187 L4.75103744,3.160491 L4.6612977,2.84773392 C4.57003677,2.55012795 4.42561251,2.10946516 4.41356263,2.0977904 L4.16911023,2.03672675 L3.77959921,1.96961962 L3.58902427,1.911 Z M6.26328124,1.57026154 L6.15247398,1.65614411 C6.01826511,1.76460483 5.87709277,1.86474352 5.72982136,1.95598929 L5.56170883,2.05255253 L6.61384895,2.2162928 L6.41748092,1.85806248 L6.27926866,1.58630174 C6.27236359,1.57484387 6.26757144,1.57026154 6.26328124,1.57026154 Z M3.88537835,1.04411346 L3.80250887,1.01759938 L3.95708068,1.1535564 L4.79202427,1.927 L5.21223444,1.99607005 L5.22821065,1.98621974 C5.41183117,1.87715958 5.66070116,1.74159192 5.90738554,1.61762011 L6.22473809,1.46018693 L6.09301182,1.44790152 C5.46832451,1.39895752 4.33578061,1.19071493 3.88537835,1.04411346 Z M4.36593865,1.85503646 L3.71758009,1.08090381 L3.68989973,1.09923311 C3.43807791,1.27038257 3.27114861,1.43865476 3.21872916,1.56910223 L3.3914952,1.63313375 C3.54295034,1.68340834 3.7279879,1.72852442 3.86056558,1.75808944 L3.9488182,1.77718501 C4.06787391,1.80187999 4.21642803,1.82900775 4.36593865,1.85503646 Z M5.8529666,0.104131601 C5.79643036,0.113566607 5.12040355,0.383322235 4.78389178,0.527221172 L4.70125409,0.563055783 C4.61032246,0.603660206 4.47314729,0.669523163 4.34182162,0.734459674 L3.97375687,0.925486598 L5.04656299,1.09094721 C5.45474722,1.1556884 5.82656622,1.22084832 6.00251781,1.25970576 L6.11702138,1.28831783 C6.14024315,1.29101453 6.1414369,1.27627533 6.12219429,1.21630163 L6.07820205,1.08894037 C6.0035912,0.880030813 5.94606606,0.665980033 5.90612619,0.448719464 L5.8529666,0.104131601 Z" id="形状"></path>
            </g>
        </g>
    </g>
</svg>