<?xml version="1.0" encoding="UTF-8"?>
<svg width="60px" height="60px" viewBox="0 0 60 60" version="1.1" xmlns="http://www.w3.org/2000/svg" xmlns:xlink="http://www.w3.org/1999/xlink">
    <title></title>
    <g id="页面-1" stroke="none" stroke-width="1" fill="" fill-rule="evenodd">
        <g id="首页ICON" transform="translate(-472.000000, -385.000000)" fill="">
            <g id="系统配置" transform="translate(472.000000, 385.000000)">
                <path d="M53,3 C55.1113721,3 56.885867,4.59461359 56.9947111,6.66487181 L57,6.86666667 L57,22.8506072 C57,23.9551767 56.1045695,24.8506072 55,24.8506072 C53.9456382,24.8506072 53.0818349,24.0347294 53.0054857,22.9998695 L53,22.8506072 L53,7 L4,7 L4,45 L34.0275339,45 C35.0818956,45 35.945699,45.8158778 36.0220481,46.8507377 L36.0275339,47 C36.0275339,48.0543618 35.2116561,48.9181651 34.1767962,48.9945143 L34.0275339,49 L32,49 L32,54 L50,54 C51.1045695,54 52,54.8954305 52,56 C52,57.1045695 51.1045695,58 50,58 L11,58 C9.8954305,58 9,57.1045695 9,56 C9,54.8954305 9.8954305,54 11,54 L28,54 L28,49 L4,49 C1.88862794,49 0.114132996,47.4053864 0.00528894904,45.3351282 L1.13686838e-13,45.1333333 L1.13686838e-13,6.86666667 C1.13686838e-13,4.76688608 1.70851456,3.10665434 3.79676992,3.00494042 L4,3 L53,3 Z M53.257608,27.2682831 C54.2141933,27.8205679 54.5419436,29.0437487 53.9896588,30.000334 L52.6472195,32.3249717 C53.694136,33.4156867 54.4529101,34.7850882 54.8011639,36.3107983 C54.8681452,36.302984 54.9374548,36.2993721 55.007608,36.2993721 L58.007608,36.2993721 C59.1121775,36.2993721 60.007608,37.1948026 60.007608,38.2993721 C60.007608,39.4039416 59.1121775,40.2993721 58.007608,40.2993721 L55.007608,40.2993721 C54.9230115,40.2993721 54.8396417,40.2941197 54.757807,40.2839234 C54.3832627,41.7853006 53.6068353,43.1292828 52.5501627,44.1949467 L53.9820508,46.6778302 C54.5343356,47.6344154 54.2065852,48.8575962 53.25,49.409881 C52.2934148,49.9621657 51.0702339,49.6344154 50.5179492,48.6778302 L49.1429275,46.2959283 C48.3151445,46.5648626 47.4316401,46.7102159 46.5141867,46.7102159 C45.9013586,46.7102159 45.3036779,46.6453623 44.7276334,46.5221439 L43.4820508,48.6778302 C42.9297661,49.6344154 41.7065852,49.9621657 40.75,49.409881 C39.7934148,48.8575962 39.4656644,47.6344154 40.0179492,46.6778302 L41.1158148,44.7761668 C39.7586096,43.6590115 38.7538103,42.129241 38.2932993,40.3787375 L36,40.378792 C34.8954305,40.378792 34,39.4833615 34,38.378792 C34,37.2742225 34.8954305,36.378792 36,36.378792 L38.2122117,36.3777568 C38.6183987,34.5291435 39.6262977,32.9060345 41.0201575,31.724181 L40.0255572,30.000334 C39.4732725,29.0437487 39.8010228,27.8205679 40.757608,27.2682831 C41.7141933,26.7159984 42.9373741,27.0437487 43.4896588,28.000334 L44.601095,29.9263719 C45.2159882,29.7849432 45.8563607,29.7102159 46.5141867,29.7102159 C47.4802794,29.7102159 48.4087279,29.8713897 49.2741104,30.1683154 L50.5255572,28.000334 C51.077842,27.0437487 52.3010228,26.7159984 53.257608,27.2682831 Z M46.5141867,33.7102159 C44.0289053,33.7102159 42.0141867,35.7249346 42.0141867,38.2102159 C42.0141867,40.6954973 44.0289053,42.7102159 46.5141867,42.7102159 C48.9994681,42.7102159 51.0141867,40.6954973 51.0141867,38.2102159 C51.0141867,35.7249346 48.9994681,33.7102159 46.5141867,33.7102159 Z M28,34 C29.1045695,34 30,34.8954305 30,36 C30,37.1045695 29.1045695,38 28,38 L10,38 C8.8954305,38 8,37.1045695 8,36 C8,34.8954305 8.8954305,34 10,34 L28,34 Z M31,26 C32.1045695,26 33,26.8954305 33,28 C33,29.1045695 32.1045695,30 31,30 L10,30 C8.8954305,30 8,29.1045695 8,28 C8,26.8954305 8.8954305,26 10,26 L31,26 Z" id="形状结合"></path>
            </g>
        </g>
    </g>
</svg>