<?xml version="1.0" encoding="UTF-8"?>
<svg width="14px" height="14px" viewBox="0 0 14 14" version="1.1" xmlns="http://www.w3.org/2000/svg" xmlns:xlink="http://www.w3.org/1999/xlink">
    <title>任务管理</title>
    <g id="页面-1" stroke="none" stroke-width="1" fill="" fill-rule="evenodd">
        <g id="配置管理" transform="translate(-20.000000, -105.000000)" fill="" fill-rule="nonzero">
            <g id="形状" transform="translate(20.000000, 105.000000)">
                <path d="M8.32028076,7.46682671 C8.12804526,8.01049955 7.60950898,8.4 7,8.4 C6.39049102,8.4 5.87195474,8.01049955 5.67971924,7.46682671 L1.63333333,7.46666667 C0.87770738,7.46666667 0.261899922,6.86803253 0.234298977,6.11915226 L0.233333333,6.06666667 L0.233333333,3.26666667 C0.233333333,2.51104071 0.831967474,1.89523326 1.58084774,1.86763231 L1.63333333,1.86666667 L2.8,1.86666667 L2.8,1.4 C2.8,0.644374047 3.39863414,0.0285665889 4.14751441,0.00096564348 L4.2,0 L12.6,0 C13.355626,0 13.9714334,0.598634141 13.9990344,1.34751441 L14,1.4 L14,3.26666667 C14,4.02229262 13.4013659,4.63810008 12.6524856,4.66570102 L12.6,4.66666667 L4.2,4.66666667 C3.44437405,4.66666667 2.82856659,4.06803253 2.80096564,3.31915226 L2.8,3.26666667 L2.8,2.8 L1.63333333,2.8 C1.38731558,2.8 1.18576147,2.99037148 1.16794667,3.23183879 L1.16666667,3.26666667 L1.16666667,6.06666667 C1.16666667,6.31268442 1.35703815,6.51423853 1.59850545,6.53205333 L1.63333333,6.53333333 L5.67963613,6.53340842 C5.87180525,5.98961276 6.39040316,5.6 7,5.6 C7.60959684,5.6 8.12819475,5.98961276 8.32036387,6.53340842 L12.3666667,6.53333333 C13.1222926,6.53333333 13.7381001,7.13196747 13.765701,7.88084774 L13.7666667,7.93333333 L13.7666667,10.7333333 C13.7666667,11.4889593 13.1680325,12.1047667 12.4191523,12.1323677 L12.3666667,12.1333333 L11.2,12.1333333 L11.2,12.6 C11.2,13.355626 10.6013659,13.9714334 9.85248559,13.9990344 L9.8,14 L1.4,14 C0.644374047,14 0.0285665889,13.4013659 0.00096564348,12.6524856 L0,12.6 L0,10.7333333 C0,9.97770738 0.598634141,9.36189992 1.34751441,9.33429898 L1.4,9.33333333 L9.8,9.33333333 C10.555626,9.33333333 11.1714334,9.93196747 11.1990344,10.6808477 L11.2,10.7333333 L11.2,11.2 L12.3666667,11.2 C12.6126844,11.2 12.8142385,11.0096285 12.8320533,10.7681612 L12.8333333,10.7333333 L12.8333333,7.93333333 C12.8333333,7.68731558 12.6429618,7.48576147 12.4014945,7.46794667 L12.3666667,7.46666667 L8.32028076,7.46682671 Z M9.8,10.2666667 L1.4,10.2666667 C1.15398225,10.2666667 0.952428138,10.4570382 0.934613339,10.6985055 L0.933333333,10.7333333 L0.933333333,12.6 C0.933333333,12.8460178 1.12370482,13.0475719 1.36517212,13.0653867 L1.4,13.0666667 L9.8,13.0666667 C10.0460178,13.0666667 10.2475719,12.8762952 10.2653867,12.6348279 L10.2666667,12.6 L10.2666667,10.7333333 C10.2666667,10.4873156 10.0762952,10.2857615 9.83482788,10.2679467 L9.8,10.2666667 Z M7,6.53333333 C6.74226712,6.53333333 6.53333333,6.74226712 6.53333333,7 C6.53333333,7.25773288 6.74226712,7.46666667 7,7.46666667 C7.25773288,7.46666667 7.46666667,7.25773288 7.46666667,7 C7.46666667,6.74226712 7.25773288,6.53333333 7,6.53333333 Z M12.6,0.933333333 L4.2,0.933333333 C3.95398225,0.933333333 3.75242814,1.12370482 3.73461334,1.36517212 L3.73333333,1.4 L3.73333333,3.26666667 C3.73333333,3.51268442 3.92370482,3.71423853 4.16517212,3.73205333 L4.2,3.73333333 L12.6,3.73333333 C12.8460178,3.73333333 13.0475719,3.54296185 13.0653867,3.30149455 L13.0666667,3.26666667 L13.0666667,1.4 C13.0666667,1.15398225 12.8762952,0.952428138 12.6348279,0.934613339 L12.6,0.933333333 Z"></path>
            </g>
        </g>
    </g>
</svg>