<?xml version="1.0" encoding="UTF-8"?>
<svg width="14px" height="14px" viewBox="0 0 14 14" version="1.1" xmlns="http://www.w3.org/2000/svg" xmlns:xlink="http://www.w3.org/1999/xlink">
    <title>审批</title>
    <g id="页面-1" stroke="none" stroke-width="1" fill="" fill-rule="evenodd">
        <g id="配置管理" transform="translate(-20.000000, -140.000000)" fill="" fill-rule="nonzero">
            <g id="形状" transform="translate(20.000000, 140.000000)">
                <path d="M8.63333333,0 C9.3732342,0 9.99822682,0.491980657 10.1990251,1.16665586 L11.6666667,1.16666667 C12.4222926,1.16666667 13.0381001,1.76530081 13.065701,2.51418107 L13.0666667,2.56666667 L13.0666667,12.6 C13.0666667,13.355626 12.4680325,13.9714334 11.7191523,13.9990344 L11.6666667,14 L2.33333333,14 C1.57770738,14 0.961899922,13.4013659 0.934298977,12.6524856 L0.933333333,12.6 L0.933333333,2.56666667 C0.933333333,1.81104071 1.53196747,1.19523326 2.28084774,1.16763231 L2.33333333,1.16666667 L3.80097491,1.16665586 C3.99603609,0.511257091 4.59139822,0.0282623188 5.30353521,0.00119763692 L5.36666667,0 L8.63333333,0 Z M3.80104416,2.10024342 L2.33333333,2.1 C2.08731558,2.1 1.88576147,2.29037148 1.86794667,2.53183879 L1.86666667,2.56666667 L1.86666667,12.6 C1.86666667,12.8460178 2.05703815,13.0475719 2.29850545,13.0653867 L2.33333333,13.0666667 L11.6666667,13.0666667 C11.9126844,13.0666667 12.1142385,12.8762952 12.1320533,12.6348279 L12.1333333,12.6 L12.1333333,2.56666667 C12.1333333,2.32064891 11.9429618,2.1190948 11.7014945,2.10128001 L11.6666667,2.1 L10.1989558,2.10024342 C10.0038224,2.75552607 9.4085135,3.23841081 8.69645756,3.2654693 L8.63333333,3.26666667 L5.36666667,3.26666667 C4.62685084,3.26666667 4.00191684,2.77479909 3.80104416,2.10024342 Z M10.3420901,5.483409 C10.5251765,5.64495583 10.5513549,5.9181345 10.408614,6.11076396 L10.3832577,6.1420901 L6.88325767,10.1087568 C6.72084235,10.2928275 6.44570233,10.3182288 6.2530086,10.1731214 L6.22329688,10.148791 L4.12329688,8.28212435 C3.93066492,8.11089594 3.91331391,7.81592883 4.08454232,7.62329688 C4.2467587,7.44080344 4.52003143,7.41562587 4.71213675,7.55907146 L4.74336979,7.58454232 L6.4932,9.1399 L9.683409,5.52457657 C9.85393065,5.3313187 10.1488322,5.31288735 10.3420901,5.483409 Z M8.63333333,0.933333333 L5.36666667,0.933333333 C4.98006734,0.933333333 4.66666667,1.24673401 4.66666667,1.63333333 C4.66666667,2.00612554 4.95808133,2.31085421 5.32553635,2.33214504 L5.36666667,2.33333333 L8.63333333,2.33333333 C9.01993266,2.33333333 9.33333333,2.01993266 9.33333333,1.63333333 C9.33333333,1.26054113 9.04191867,0.955812461 8.67446365,0.934521628 L8.63333333,0.933333333 Z"></path>
            </g>
        </g>
    </g>
</svg>