<?xml version="1.0" encoding="UTF-8"?>
<svg width="14px" height="14px" viewBox="0 0 14 14" version="1.1" xmlns="http://www.w3.org/2000/svg" xmlns:xlink="http://www.w3.org/1999/xlink">
    <g id="2023" stroke="none" stroke-width="1" fill="none" fill-rule="evenodd">
        <g id="对象树对象图标" transform="translate(-489.000000, -604.000000)" fill="#1AB394" fill-rule="nonzero">
            <g id="序列-sequence" transform="translate(489.000000, 604.000000)">
                <path d="M11.6666667,0 C12.9553311,0 14,1.04466892 14,2.33333333 L14,11.6666667 C14,12.9553311 12.9553311,14 11.6666667,14 L2.33333333,14 C1.04466892,14 0,12.9553311 0,11.6666667 L0,2.33333333 C0,1.04466892 1.04466892,0 2.33333333,0 L11.6666667,0 Z M11.6666667,0.933333333 L2.33333333,0.933333333 C1.56013468,0.933333333 0.933333333,1.56013468 0.933333333,2.33333333 L0.933333333,11.6666667 C0.933333333,12.4398653 1.56013468,13.0666667 2.33333333,13.0666667 L11.6666667,13.0666667 C12.4398653,13.0666667 13.0666667,12.4398653 13.0666667,11.6666667 L13.0666667,2.33333333 C13.0666667,1.56013468 12.4398653,0.933333333 11.6666667,0.933333333 Z M7,3.15 C8.60632407,3.15 9.8,4.03420439 9.8,5.13333333 C9.8,5.39106622 9.59106622,5.6 9.33333333,5.6 C9.08731558,5.6 8.88576147,5.40962852 8.86794667,5.16816121 L8.86666667,5.13333333 C8.86666667,4.62073388 8.14117593,4.08333333 7,4.08333333 C5.61752926,4.08333333 5.01666667,4.45628253 5.01666667,5.25 C5.01666667,5.61206125 5.36877551,5.94854797 6.05352511,6.258627 L6.14621832,6.29861854 L6.31997774,6.36844889 C6.3835168,6.39331841 6.45148277,6.41937545 6.52029868,6.44540428 L6.99729884,6.62139723 C7.05848826,6.64346471 7.10782433,6.66104027 7.13898917,6.67197666 L7.20968664,6.69506583 L7.77722735,6.86530456 C8.00132254,6.93396829 8.23433156,7.00838809 8.37301167,7.06243048 C9.40587092,7.4649264 10.0333333,8.09428545 10.0333333,9.1 C10.0333333,9.98116609 9.60944452,10.6096909 8.88097185,10.9635205 C8.35936175,11.2168739 7.72468007,11.3166667 7,11.3166667 C5.56524235,11.3166667 3.85,10.2504349 3.85,8.98333333 C3.85,8.72560045 4.05893378,8.51666667 4.31666667,8.51666667 C4.56268442,8.51666667 4.76423853,8.70703815 4.78205333,8.94850545 L4.78333333,8.98333333 C4.78333333,9.61758308 6.01519244,10.3833333 7,10.3833333 C8.34266761,10.3833333 9.1,10.0154862 9.1,9.1 C9.1,8.56308581 8.7483838,8.21040677 8.03412269,7.93206567 C7.7964222,7.83943594 7.10112414,7.63980067 6.88298565,7.56933514 L6.71089324,7.51036901 L6.4221802,7.40530051 C6.38456044,7.39140052 6.34571757,7.37696988 6.30627531,7.36221981 L6.01656938,7.25186821 L5.84932165,7.18551991 C5.79712848,7.16434085 5.74921455,7.14434377 5.70774941,7.1262634 L5.66851421,7.10884916 C4.68248708,6.66234093 4.08333333,6.08977 4.08333333,5.25 C4.08333333,3.82302782 5.16765593,3.15 7,3.15 Z" id="形状"></path>
            </g>
        </g>
    </g>
</svg>