<?xml version="1.0" encoding="UTF-8"?>
<svg width="14px" height="14px" viewBox="0 0 14 14" version="1.1" xmlns="http://www.w3.org/2000/svg" xmlns:xlink="http://www.w3.org/1999/xlink">
    <title>字段备份 2</title>
    <g id="2023" stroke="none" stroke-width="1" fill="none" fill-rule="evenodd">
        <g id="对象树对象图标" transform="translate(-285.000000, -396.000000)" fill="#1AB394">
            <g id="字段备份-2" transform="translate(285.000000, 396.000000)">
                <path d="M2.8,13.0666667 L0.294736842,13.0666667 C0.131958179,13.0666667 0,12.8855907 0,12.6622222 L0,1.33777778 C0,1.11440928 0.131958179,0.933333333 0.294736842,0.933333333 L2.8,0.933333333 L2.8,13.0666667 Z M4.9,1.86666667 L13.7666667,1.86666667 C13.8955331,1.86666667 14,1.97113356 14,2.1 L14,2.56666667 C14,2.69553311 13.8955331,2.8 13.7666667,2.8 L4.9,2.8 C4.77113356,2.8 4.66666667,2.69553311 4.66666667,2.56666667 L4.66666667,2.1 C4.66666667,1.97113356 4.77113356,1.86666667 4.9,1.86666667 Z M4.9,6.53333333 L13.7666667,6.53333333 C13.8955331,6.53333333 14,6.63780023 14,6.76666667 L14,7.23333333 C14,7.36219977 13.8955331,7.46666667 13.7666667,7.46666667 L4.9,7.46666667 C4.77113356,7.46666667 4.66666667,7.36219977 4.66666667,7.23333333 L4.66666667,6.76666667 C4.66666667,6.63780023 4.77113356,6.53333333 4.9,6.53333333 Z M4.9,11.2 L13.7666667,11.2 C13.8955331,11.2 14,11.3044669 14,11.4333333 L14,11.9 C14,12.0288664 13.8955331,12.1333333 13.7666667,12.1333333 L4.9,12.1333333 C4.77113356,12.1333333 4.66666667,12.0288664 4.66666667,11.9 L4.66666667,11.4333333 C4.66666667,11.3044669 4.77113356,11.2 4.9,11.2 Z" id="形状"></path>
            </g>
        </g>
    </g>
</svg>