<?xml version="1.0" encoding="UTF-8"?>
<svg width="14px" height="14px" viewBox="0 0 14 14" version="1.1" xmlns="http://www.w3.org/2000/svg" xmlns:xlink="http://www.w3.org/1999/xlink">
    <g id="2023" stroke="none" stroke-width="1" fill="none" fill-rule="evenodd">
        <g id="SQL窗口备份" transform="translate(-251.000000, -193.000000)" fill="#B3BEC5">
            <g id="mysql_offline" transform="translate(251.000000, 193.000000)">
                <path d="M3.1773779,1.94790748 C3.30469603,2.02733512 3.44624502,2.19121269 3.58272273,2.24694478 L4.25155064,2.28661435 C4.6668593,2.38349836 5.060252,2.45748332 5.38664574,2.64501219 C6.92105376,3.52785366 7.91144987,4.42536379 8.83169702,5.91229778 C9.023579,6.22213192 9.12377585,6.56274151 9.27727697,6.90843978 C9.50374195,7.42084758 9.747208,7.92564448 10.0073623,8.42214463 C10.1286486,8.65213077 10.2146146,8.90249376 10.3718689,9.09971323 C10.4383763,9.18303481 10.6153349,9.20923045 10.7164924,9.25943137 C11.0162563,9.40799865 11.3658394,9.52165318 11.6487587,9.69725684 C12.1591036,10.013662 12.6538995,10.3933217 13.1078795,10.7728265 C13.2811072,10.9184512 13.3947976,11.1304499 13.5538169,11.2907654 L13.5538169,11.3706134 C13.4119998,11.410283 13.2700933,11.4503951 13.1280305,11.4897991 C12.8133432,11.5700011 12.5413261,11.5490048 12.2366025,11.6291183 C12.0554216,11.6772395 11.824779,11.747773 11.6284289,11.7693003 L11.6488481,11.7888143 C11.7643034,12.1059939 12.3852111,12.3698529 12.6624559,12.5660325 C13.0097826,12.8111298 13.3367795,13.1063617 13.5944764,13.442303 L13.8581159,13.7015822 C13.9179659,13.7864525 13.9343861,13.8986247 14,13.9805524 L14,14 C13.964953,13.9878127 13.7080636,13.9807816 13.2293319,13.9789066 L12.6190755,13.9789066 C11.9790038,13.9807816 11.1170898,13.9878127 10.0333333,14 C9.91661095,13.9607066 9.22652608,13.445954 8.45936836,12.858195 L8.07166441,12.5600948 C7.16275776,11.859027 6.26153064,11.1498865 6.15607262,11.0717531 C5.75037034,10.7706583 5.27101166,10.3234077 5.00100517,9.89655604 L4.63638695,9.17949486 L4.63638695,9.1592729 C4.58569651,9.22582396 4.60158056,9.29868056 4.57557629,9.39839654 C4.46081348,9.8368415 4.55062203,10.3335186 4.14978996,10.4938341 C3.69225788,10.6771372 3.35925137,10.1989563 3.21770238,9.97589517 C2.75675221,9.24949738 2.63772238,8.02927653 2.95448739,7.04740495 C3.02456933,6.82960951 3.03156189,6.56221052 3.15686938,6.39005831 C3.13636086,6.23560586 3.00868528,6.19144498 2.93382249,6.09170688 C2.81242457,5.92820543 2.70612879,5.73616313 2.60961812,5.55363444 C2.41918826,5.19282501 2.29108821,4.76865047 2.14359667,4.37834883 C2.08374664,4.22011305 2.07152643,4.06982004 2.00144449,3.92030139 C1.8951487,3.69239497 1.70474118,3.46543991 1.55586453,3.26295475 C1.34405488,2.97402844 0.751005723,2.41805713 0.988529216,1.84861188 C1.36509957,0.945902439 2.66904367,1.63247579 3.1773779,1.94790748 Z M4.05122453,3.56153772 C3.88000322,3.55876095 3.70899998,3.57733442 3.54242059,3.61685705 L3.54242059,3.64493323 L3.57027209,3.64493323 C3.66996427,3.84476778 3.8442075,3.97311604 3.96676656,4.14462758 L4.24908234,4.72793342 L4.276965,4.70032003 C4.45267246,4.57922221 4.53214581,4.38540399 4.53168055,4.08977104 C4.46095937,4.01649529 4.45074092,3.92563336 4.38989754,3.83896742 C4.30908457,3.72388593 4.15331555,3.65832341 4.05122453,3.56153772 Z" id="Fill-1"></path>
            </g>
        </g>
    </g>
</svg>