<?xml version="1.0" encoding="UTF-8"?>
<svg width="14px" height="14px" viewBox="0 0 14 14" version="1.1" xmlns="http://www.w3.org/2000/svg" xmlns:xlink="http://www.w3.org/1999/xlink">
    <g id="2023" stroke="none" stroke-width="1" fill="none" fill-rule="evenodd">
        <g id="对象树对象图标" transform="translate(-299.000000, -292.000000)" fill="#1AB394" fill-rule="nonzero">
            <g id="表" transform="translate(299.000000, 292.000000)">
                <path d="M13.7666667,0.466666667 C13.8955331,0.466666667 14,0.573181929 14,0.704575163 L14,12.8196078 C14,13.2137875 13.6865993,13.5333333 13.3,13.5333333 L0.7,13.5333333 C0.313400675,13.5333333 0,13.2137875 0,12.8196078 L0,0.704575163 C0,0.573181929 0.104466892,0.466666667 0.233333333,0.466666667 L13.7666667,0.466666667 Z M3.73333333,10.2666667 L0.933333333,10.2666667 L0.933333333,12.6 L3.73333333,12.6 L3.73333333,10.2666667 Z M9.33333333,10.2666667 L4.66666667,10.2666667 L4.66666667,12.6 L9.33333333,12.6 L9.33333333,10.2666667 Z M13.0666667,10.2666667 L10.2666667,10.2666667 L10.2666667,12.6 L13.0666667,12.6 L13.0666667,10.2666667 Z M3.73333333,7 L0.933333333,7 L0.933333333,9.33333333 L3.73333333,9.33333333 L3.73333333,7 Z M9.33333333,7 L4.66666667,7 L4.66666667,9.33333333 L9.33333333,9.33333333 L9.33333333,7 Z M13.0666667,7 L10.2666667,7 L10.2666667,9.33333333 L13.0666667,9.33333333 L13.0666667,7 Z M3.73333333,3.73333333 L0.933333333,3.73333333 L0.933333333,6.06666667 L3.73333333,6.06666667 L3.73333333,3.73333333 Z M9.33333333,3.73333333 L4.66666667,3.73333333 L4.66666667,6.06666667 L9.33333333,6.06666667 L9.33333333,3.73333333 Z M13.0666667,3.73333333 L10.2666667,3.73333333 L10.2666667,6.06666667 L13.0666667,6.06666667 L13.0666667,3.73333333 Z" id="形状"></path>
            </g>
        </g>
    </g>
</svg>