<?xml version="1.0" encoding="UTF-8"?>
<svg width="14px" height="14px" viewBox="0 0 14 14" version="1.1" xmlns="http://www.w3.org/2000/svg" xmlns:xlink="http://www.w3.org/1999/xlink">
    <g id="2023" stroke="none" stroke-width="1" fill="none" fill-rule="evenodd">
        <g id="SQL窗口备份" transform="translate(-251.000000, -167.000000)" fill="#B3BEC5">
            <g id="oracle_offline" transform="translate(251.000000, 167.000000)">
                <path d="M13.0666667,0 C13.5821324,0 14,0.417867567 14,0.933333333 L14,13.0666667 C14,13.5821324 13.5821324,14 13.0666667,14 L0.933333333,14 C0.417867567,14 0,13.5821324 0,13.0666667 L0,0.933333333 C0,0.417867567 0.417867567,0 0.933333333,0 L13.0666667,0 Z M9.23066582,3.03333333 L4.76938101,3.03333333 C2.65058376,3.03333333 0.933333333,4.75720678 0.933333333,6.88335683 C0.933333333,9.00909331 2.64981581,10.732196 4.76747049,10.7333333 L9.23066582,10.7333333 C11.3494162,10.7333333 13.0666667,9.00945989 13.0666667,6.88335683 C13.0666667,4.75720678 11.349051,3.03333333 9.23066582,3.03333333 Z M9.1324425,4.38997122 C10.5046376,4.38997122 11.6167301,5.5061154 11.6167301,6.88335683 C11.6167301,8.26055126 10.5046376,9.37669545 9.1324425,9.37669545 L4.86910278,9.37669545 C3.51848531,9.34853477 2.43445125,8.24304013 2.43445125,6.88335683 C2.43445125,5.52362653 3.51848531,4.4180943 4.86643367,4.38997122 L9.1324425,4.38997122 Z" id="形状"></path>
            </g>
        </g>
    </g>
</svg>