<?xml version="1.0" encoding="UTF-8"?>
<svg width="14px" height="14px" viewBox="0 0 14 14" version="1.1" xmlns="http://www.w3.org/2000/svg" xmlns:xlink="http://www.w3.org/1999/xlink">
    <g id="2023" stroke="none" stroke-width="1" fill="none" fill-rule="evenodd">
        <g id="SQL窗口备份" transform="translate(-251.000000, -531.000000)" fill="#B3BEC5">
            <g id="TIDB_offline" transform="translate(251.000000, 531.000000)">
                <path d="M6.98209461,0.00294800884 C6.98883649,-0.000982669614 6.99720395,-0.000982669614 7.00401428,0.00294800884 L13.0547509,3.49197202 C13.0615784,3.49583434 13.0657193,3.50311464 13.0657193,3.51092472 L13.0657193,10.4891436 C13.0657193,10.4969537 13.0615784,10.5041657 13.0547509,10.5080451 L7.00401428,13.997052 C6.99720395,14.0009827 6.98883649,14.0009827 6.98209461,13.997052 L0.931221059,10.5080451 C0.924462065,10.5041657 0.920252667,10.4969537 0.920252667,10.4891436 L0.920252667,3.51092472 C0.920252667,3.50304628 0.92439362,3.49576598 0.931221059,3.4918353 L6.98209461,0.00294800884 Z M7.20118867,2.4776519 L2.97221469,4.91629608 C2.96540436,4.92017549 2.9612463,4.92738743 2.9612463,4.93519752 L2.9612463,6.95307112 C2.9612463,6.96094956 2.9654557,6.9681615 2.97228313,6.97209218 C2.97916191,6.97597159 2.9875807,6.97590323 2.9943397,6.97190419 L4.67346194,5.97299917 L5.03781448,5.76251988 C5.04462481,5.75857211 5.05299227,5.75857211 5.05973415,5.76245152 C5.06654448,5.7663822 5.07070254,5.77359414 5.07070254,5.78140423 L5.07070254,10.6083116 C5.07077099,10.6160533 5.07491194,10.6232652 5.08165382,10.6271275 L6.83142894,11.6360302 C6.83825638,11.6399779 6.84667518,11.6399779 6.8534855,11.6359789 C6.86031294,11.6319628 6.86438545,11.6246825 6.86431701,11.616804 L6.83777726,9.6651538 L6.83296896,4.73758693 C6.83303741,4.72977684 6.83717836,4.72263326 6.84393736,4.71877094 L8.94155253,3.50651553 C8.94836286,3.50265321 8.95257226,3.49537291 8.95257226,3.48756282 C8.95257226,3.47968437 8.94836286,3.47247243 8.94155253,3.46852467 L7.22312546,2.4776519 C7.21636646,2.47377249 7.20801611,2.47377249 7.20118867,2.4776519 Z M10.5536837,4.53284985 L8.83044836,5.52652537 C8.82370648,5.53047313 8.81949708,5.53768507 8.81949708,5.54549516 L8.81949708,10.6691174 C8.81949708,10.6769959 8.82363804,10.6842078 8.83044836,10.6881556 C8.83720736,10.6920863 8.84555771,10.6920863 8.85238515,10.688224 L10.5756205,9.69446299 C10.5824308,9.69053231 10.5865718,9.68332037 10.5865718,9.67551029 L10.5865718,4.55180256 C10.5865718,4.54392411 10.5823624,4.53671217 10.5756205,4.53284985 C10.5688615,4.52890208 10.5605112,4.52890208 10.5536837,4.53284985 Z" id="形状"></path>
            </g>
        </g>
    </g>
</svg>