<?xml version="1.0" encoding="UTF-8"?>
<svg width="60px" height="60px" viewBox="0 0 60 60" version="1.1" xmlns="http://www.w3.org/2000/svg" xmlns:xlink="http://www.w3.org/1999/xlink">
    <title></title>
    <g id="页面-1" stroke="none" stroke-width="1" fill="" fill-rule="evenodd">
        <g id="首页ICON" transform="translate(-851.000000, -385.000000)" fill="">
            <g id="后台任务" transform="translate(851.000000, 385.000000)">
                <path d="M48,56 C49.1045695,56 50,56.8954305 50,58 C50,59.1045695 49.1045695,60 48,60 L12,60 C10.8954305,60 10,59.1045695 10,58 C10,56.8954305 10.8954305,56 12,56 L48,56 Z M56,2 C58.209139,2 60,3.790861 60,6 L60,6 L60,46 C60,48.209139 58.209139,50 56,50 L56,50 L4,50 C1.790861,50 0,48.209139 0,46 L0,46 L0,6 C0,3.790861 1.790861,2 4,2 L4,2 Z M56,6 L4,6 L4,46 L56,46 L56,6 Z M17,28.3333333 C20.6818983,28.3333333 23.6666667,31.3181017 23.6666667,35 C23.6666667,38.6818983 20.6818983,41.6666667 17,41.6666667 C13.3181017,41.6666667 10.3333333,38.6818983 10.3333333,35 C10.3333333,31.3181017 13.3181017,28.3333333 17,28.3333333 Z M17,31.6666667 C15.1590508,31.6666667 13.6666667,33.1590508 13.6666667,35 C13.6666667,36.8409492 15.1590508,38.3333333 17,38.3333333 C18.8409492,38.3333333 20.3333333,36.8409492 20.3333333,35 C20.3333333,33.1590508 18.8409492,31.6666667 17,31.6666667 Z M51,33 C52.1045695,33 53,33.8954305 53,35 C53,36.1045695 52.1045695,37 51,37 L31,37 C29.8954305,37 29,36.1045695 29,35 C29,33.8954305 29.8954305,33 31,33 L51,33 Z M23.2545376,11.7770142 L23.363961,11.8786797 C24.1095074,12.624226 24.1433959,13.8119399 23.4656264,14.5976834 L23.363961,14.7071068 L17.7071068,20.363961 C16.9615604,21.1095074 15.7738465,21.1433959 14.9881031,20.4656264 L14.8786797,20.363961 L10.636039,16.1213203 C9.85499039,15.3402718 9.85499039,14.0739418 10.636039,13.2928932 C11.3815853,12.5473468 12.5692993,12.5134584 13.3550427,13.1912278 L13.4644661,13.2928932 L16.2921861,16.1220275 L20.5355339,11.8786797 C21.2810803,11.1331333 22.4687942,11.0992448 23.2545376,11.7770142 Z M51,14 C52.1045695,14 53,14.8954305 53,16 C53,17.1045695 52.1045695,18 51,18 L31,18 C29.8954305,18 29,17.1045695 29,16 C29,14.8954305 29.8954305,14 31,14 L51,14 Z" id="形状结合"></path>
            </g>
        </g>
    </g>
</svg>