<?xml version="1.0" encoding="UTF-8"?>
<svg width="14px" height="14px" viewBox="0 0 14 14" version="1.1" xmlns="http://www.w3.org/2000/svg" xmlns:xlink="http://www.w3.org/1999/xlink">
    <g id="页面-1" stroke="none" stroke-width="1" fill="" fill-rule="evenodd">
        <g id="图标" transform="translate(-20.000000, -275.000000)" fill="" fill-rule="nonzero">
            <g id="形状" transform="translate(20.000000, 275.000000)">
                <path d="M11.2,8.4 C11.4577329,8.4 11.6666667,8.60893378 11.6666667,8.86666667 L11.6666667,10.7333333 L13.5333333,10.7333333 C13.7910662,10.7333333 14,10.9422671 14,11.2 C14,11.4577329 13.7910662,11.6666667 13.5333333,11.6666667 L11.6666667,11.6666667 L11.6666667,13.5333333 C11.6666667,13.7910662 11.4577329,14 11.2,14 C10.9422671,14 10.7333333,13.7910662 10.7333333,13.5333333 L10.7333333,11.6666667 L8.86666667,11.6666667 C8.60893378,11.6666667 8.4,11.4577329 8.4,11.2 C8.4,10.9422671 8.60893378,10.7333333 8.86666667,10.7333333 L10.7333333,10.7333333 L10.7333333,8.86666667 C10.7333333,8.60893378 10.9422671,8.4 11.2,8.4 Z M6.06663021,0 C7.96419159,0 9.56677645,0.303153034 11.4377875,1.01957963 L11.6197099,1.09020507 L11.6575471,1.10706807 C11.9195607,1.23807512 12.1121489,1.4952042 12.1316956,1.78668358 L12.1333333,1.8355658 L12.1333333,6.65 C12.1333333,6.90773288 11.9243995,7.11666667 11.6666667,7.11666667 C11.4206489,7.11666667 11.2190948,6.92629518 11.20128,6.68482788 L11.2,6.65 L11.2,1.92826667 L11.1006019,1.88988184 C9.39497804,1.23709218 7.94654311,0.952521091 6.24371345,0.934275007 L6.06663021,0.933333333 C4.2863732,0.933333333 2.79716672,1.21458261 1.03265985,1.88988391 L0.933333333,1.92826667 L0.933333333,7.68440399 C0.933333333,8.79408904 1.84629502,10.0562731 3.21478275,11.1932737 L3.37468072,11.3238947 C3.5365482,11.4539286 3.70424615,11.5821537 3.87707184,11.7081433 L4.05158077,11.8333721 L4.22935204,11.9570157 L4.41022949,12.0789795 L4.59405698,12.1991687 L4.78067835,12.3174884 C4.84333377,12.3566062 4.9064288,12.3953966 4.96993743,12.4338438 L5.16167808,12.5481403 L5.25843019,12.6044867 L5.25843019,12.6044867 L5.45360038,12.7155169 L5.65086175,12.824251 L5.75022782,12.8777274 L5.75022782,12.8777274 L5.95033314,12.9828398 L6.0662,13.0419333 L6.14495988,13.002158 C6.47284246,12.8326995 6.81641809,12.6388168 7.15976732,12.4281942 L7.33134936,12.3215235 C7.54941345,12.1841397 7.83756085,12.2495441 7.97494459,12.4676081 C8.11232834,12.6856722 8.046924,12.9738196 7.82885991,13.1112034 C7.40625218,13.3774528 6.97906636,13.6217157 6.5726366,13.8317384 L6.44116667,13.8982667 L6.40799305,13.9201302 C6.36737482,13.9441048 6.32400485,13.9627014 6.27839366,13.9757943 L6.23205431,13.987048 C6.20254084,13.9929507 6.18061777,13.9961887 6.1563566,13.997951 L6.10177498,13.9998604 L6.03150127,13.9998604 L5.9769324,13.9979495 C5.95267277,13.9961859 5.93074547,13.9929459 5.90122864,13.9870397 C5.83850927,13.9744899 5.77947018,13.9520835 5.72532173,13.9201197 L5.69333333,13.8994333 L5.62920977,13.8670494 C5.52389144,13.8135736 5.41921093,13.7591763 5.31524718,13.7038934 L5.10829874,13.5921571 L4.903402,13.4781224 L4.70069729,13.3618527 L4.50032494,13.2434115 C4.40074524,13.1836585 4.3020928,13.1231151 4.20444656,13.0618168 L4.01051908,12.9382243 C3.94633937,12.8966983 3.88263026,12.8548475 3.81941512,12.8126823 L3.63127503,12.6852543 C1.54744796,11.2520143 0.0442356802,9.47787623 0.0009592773,7.76039401 L0,7.68440399 L0,1.8355658 C0,1.54060404 0.178742199,1.27486532 0.432623924,1.13010741 L0.475615516,1.10711701 L0.513556193,1.09020283 C2.46347431,0.323026338 4.10793104,0 6.06663021,0 Z M6.06666667,2.33333333 C7.35533108,2.33333333 8.4,3.37800225 8.4,4.66666667 C8.4,5.79633948 7.59720556,6.73850961 6.53099555,6.95379817 C6.53256327,6.96888601 6.53333333,6.98435308 6.53333333,7 L6.53333333,9.8 C6.53333333,10.0577329 6.32439955,10.2666667 6.06666667,10.2666667 C5.80893378,10.2666667 5.6,10.0577329 5.6,9.8 L5.6,7 C5.6,6.98435308 5.60077006,6.96888601 5.60227436,6.95363464 C4.53612777,6.73850961 3.73333333,5.79633948 3.73333333,4.66666667 C3.73333333,3.37800225 4.77800225,2.33333333 6.06666667,2.33333333 Z M6.06666667,3.26666667 C5.29346802,3.26666667 4.66666667,3.89346802 4.66666667,4.66666667 C4.66666667,5.43986532 5.29346802,6.06666667 6.06666667,6.06666667 C6.83986532,6.06666667 7.46666667,5.43986532 7.46666667,4.66666667 C7.46666667,3.89346802 6.83986532,3.26666667 6.06666667,3.26666667 Z"></path>
            </g>
        </g>
    </g>
</svg>