<?xml version="1.0" encoding="UTF-8"?>
<svg width="14px" height="14px" viewBox="0 0 14 14" version="1.1" xmlns="http://www.w3.org/2000/svg" xmlns:xlink="http://www.w3.org/1999/xlink">
    <g id="2023" stroke="none" stroke-width="1" fill="none" fill-rule="evenodd">
        <g id="对象树对象图标" transform="translate(-299.000000, -604.000000)" fill="#1AB394" fill-rule="nonzero">
            <g id="触发器-trigger" transform="translate(299.000000, 604.000000)">
                <path d="M11.6666667,0 C12.9553311,0 14,1.04466892 14,2.33333333 L14,11.6666667 C14,12.9553311 12.9553311,14 11.6666667,14 L2.33333333,14 C1.04466892,14 0,12.9553311 0,11.6666667 L0,2.33333333 C0,1.04466892 1.04466892,0 2.33333333,0 L11.6666667,0 Z M11.6666667,0.933333333 L2.33333333,0.933333333 C1.56013468,0.933333333 0.933333333,1.56013468 0.933333333,2.33333333 L0.933333333,11.6666667 C0.933333333,12.4398653 1.56013468,13.0666667 2.33333333,13.0666667 L11.6666667,13.0666667 C12.4398653,13.0666667 13.0666667,12.4398653 13.0666667,11.6666667 L13.0666667,2.33333333 C13.0666667,1.56013468 12.4398653,0.933333333 11.6666667,0.933333333 Z M3.85,3.26666667 L10.15,3.26666667 C10.4721661,3.26666667 10.7333333,3.5278339 10.7333333,3.85 C10.7333333,4.1721661 10.4721661,4.43333333 10.15,4.43333333 L3.85,4.43333333 C3.5278339,4.43333333 3.26666667,4.1721661 3.26666667,3.85 C3.26666667,3.5278339 3.5278339,3.26666667 3.85,3.26666667 Z M7,3.5 C7.3221661,3.5 7.58333333,3.76116723 7.58333333,4.08333333 L7.58333333,10.85 C7.58333333,11.1721661 7.3221661,11.4333333 7,11.4333333 C6.6778339,11.4333333 6.41666667,11.1721661 6.41666667,10.85 L6.41666667,4.08333333 C6.41666667,3.76116723 6.6778339,3.5 7,3.5 Z" id="形状"></path>
            </g>
        </g>
    </g>
</svg>