<?xml version="1.0" encoding="UTF-8"?>
<svg width="14px" height="14px" viewBox="0 0 14 14" version="1.1" xmlns="http://www.w3.org/2000/svg" xmlns:xlink="http://www.w3.org/1999/xlink">
    <title>查询工具配置</title>
    <g id="页面-1" stroke="none" stroke-width="1" fill="" fill-rule="evenodd">
        <g id="查询工具配置-创建工具" transform="translate(-20.000000, -275.000000)" fill="" fill-rule="nonzero">
            <g id="形状" transform="translate(20.000000, 275.000000)">
                <path d="M6.06666667,13.0666667 C6.32439955,13.0666667 6.53333333,13.2756005 6.53333333,13.5333333 C6.53333333,13.7910662 6.32439955,14 6.06666667,14 L3.03333333,14 C2.77560045,14 2.56666667,13.7910662 2.56666667,13.5333333 C2.56666667,13.2756005 2.77560045,13.0666667 3.03333333,13.0666667 L6.06666667,13.0666667 Z M9.93462228,4.2 C10.5081358,4.2 10.9751959,4.65311479 11.0014168,5.22088788 L11.0025779,5.27127445 L11.0023667,5.5867 L11.0181758,5.59410721 C11.1559968,5.66108059 11.2896517,5.73619564 11.4184698,5.81899455 L11.5141661,5.8825273 L11.5262,5.89096667 L11.7957314,5.734905 C12.277121,5.45546936 12.8849353,5.59514877 13.2004452,6.04036253 L13.2291551,6.08299297 L13.2560756,6.12739286 L13.8573646,7.1744963 C14.1422833,7.6706627 13.9870014,8.30075306 13.5123856,8.60837359 L13.4669585,8.63625435 L13.1947667,8.7941 L13.1991669,8.84592925 L13.2027233,8.90923911 L13.2027233,8.90923911 L13.2052666,8.97269337 L13.207304,9.1 C13.207304,9.15669088 13.2060948,9.21324182 13.2036838,9.26962509 L13.1991669,9.35407075 L13.1947667,9.40566667 L13.4668676,9.56369288 C13.9464257,9.84206537 14.1291815,10.4370246 13.9050021,10.9324663 L13.8827897,10.9786097 L13.8573646,11.0255037 L13.2560756,12.0726071 C12.9700727,12.5706616 12.345379,12.7513368 11.8413833,12.4901629 L11.7959108,12.4651991 L11.5262,12.3088 L11.5141661,12.3174727 C11.3878082,12.4040849 11.256446,12.4831277 11.1207499,12.5541433 L11.0181758,12.6058928 L11.0023667,12.6130667 L11.0025779,12.9287879 C11.0025779,13.4860651 10.5780243,13.9447624 10.0346574,13.9953653 L9.98494164,13.9988327 L9.93462228,14 L8.73204439,14 C8.1585309,14 7.69147081,13.5468852 7.66524984,12.9792499 L7.66408878,12.9288758 L7.66383333,12.6130667 L7.54577939,12.5540715 C7.44402912,12.5008159 7.34471584,12.4430469 7.24812222,12.3809575 L7.14023333,12.3088 L6.87093529,12.465095 C6.38954572,12.7445306 5.78173136,12.6048512 5.46622148,12.1596375 L5.43751157,12.117007 L5.41059105,12.0726071 L4.80930211,11.0255037 C4.52438339,10.5293373 4.67966524,9.89924694 5.15428103,9.59162641 L5.19970812,9.56374565 L5.47166667,9.40566667 L5.46749976,9.35407075 L5.46394335,9.29076089 L5.46394335,9.29076089 L5.4614001,9.22730663 L5.45936264,9.1 C5.45936264,9.04330912 5.46057191,8.98675818 5.46298291,8.93037491 L5.46749976,8.84592925 L5.47166667,8.7941 L5.19979902,8.63630712 C4.72024093,8.35793463 4.53748519,7.76297544 4.76166457,7.26753373 L4.78387694,7.22139033 L4.80930211,7.1744963 L5.41059105,6.12739286 C5.69659396,5.62933842 6.32128763,5.44866321 6.82528336,5.70983714 L6.87075587,5.7348009 L7.14023333,5.89096667 L7.15244564,5.88256495 C7.27877776,5.79596724 7.41011236,5.71693591 7.54577939,5.64592854 L7.66383333,5.5867 L7.66408877,5.27121212 C7.66408877,4.71393494 8.08864239,4.25523759 8.63200924,4.20463471 L8.68172503,4.20116729 L8.73204439,4.2 L9.93462228,4.2 Z M9.93462228,5.13333333 L8.73204439,5.13333333 C8.66563888,5.13333333 8.60971924,5.18287931 8.59919936,5.24877486 L8.5974221,5.27130004 L8.59724414,6.2158603 L8.29616856,6.33008119 C8.03010933,6.43101772 7.78035407,6.57051145 7.55437519,6.74357009 L7.47076222,6.81003069 L7.22043748,7.01647972 L6.40237691,6.54210024 C6.34503997,6.50881745 6.27346385,6.52322715 6.23244787,6.57393792 L6.21996919,6.59217037 L5.61868025,7.63927381 C5.58424599,7.69923871 5.59923175,7.77438636 5.65015963,7.81643906 L5.66844829,7.82916466 L6.4826953,8.30206164 L6.43126943,8.61905476 C6.40566597,8.77687648 6.39269597,8.93751854 6.39269597,9.1 C6.39269597,9.22998517 6.40099677,9.35879312 6.41742606,9.48592162 L6.43126943,9.58094524 L6.4826953,9.89793836 L5.66835739,10.3708881 C5.60969058,10.4049429 5.58539471,10.4774995 5.60901395,10.5402418 L5.61868025,10.5607262 L6.21996919,11.6078296 C6.25364094,11.6664667 6.32285054,11.6900684 6.38292947,11.6671674 L6.40255633,11.6577957 L7.22043748,11.1835203 L7.47076222,11.3899693 C7.69068025,11.5713412 7.93530871,11.7197722 8.19717519,11.83027 L8.29616856,11.8699188 L8.59724414,11.9841397 L8.59742211,12.9287879 C8.59742211,12.9978277 8.6467012,13.0542777 8.71034548,13.0648773 L8.73204439,13.0666667 L9.93462228,13.0666667 C10.0010278,13.0666667 10.0569474,13.0171207 10.0674673,12.9513347 L10.0692446,12.9288502 L10.0691184,11.9842332 L10.3703254,11.8699843 C10.6364427,11.7690451 10.8862515,11.6295329 11.1122751,11.4564424 L11.1959044,11.3899693 L11.4462292,11.1835203 L12.2642898,11.6578998 C12.3216267,11.6911825 12.3932028,11.6767728 12.4342188,11.6260621 L12.4466975,11.6078296 L13.0479864,10.5607262 C13.0824207,10.5007613 13.0674349,10.4256136 13.016507,10.3835609 L12.9982184,10.3708353 L12.1839714,9.89793836 L12.2353972,9.58094524 C12.2610007,9.42312352 12.2739707,9.26248146 12.2739707,9.1 C12.2739707,8.97001483 12.2656699,8.84120688 12.2492406,8.71407838 L12.2353972,8.61905476 L12.1839714,8.30206164 L12.9983093,7.82911188 C13.0569761,7.79505714 13.081272,7.7225005 13.0576527,7.65975816 L13.0479864,7.63927381 L12.4466975,6.59217037 C12.4130257,6.53353333 12.3438161,6.50993165 12.2837372,6.53283263 L12.2641103,6.54220434 L11.4462292,7.01647972 L11.1959044,6.81003069 C10.9759439,6.62862377 10.7312636,6.48017064 10.4693403,6.36966623 L10.3703254,6.33001568 L10.0691184,6.21576683 L10.0692446,5.27121212 C10.0692446,5.2021723 10.0199655,5.14572234 9.95632119,5.13512274 L9.93462228,5.13333333 Z M12.6,0 C13.355626,0 13.9714334,0.598634141 13.9990344,1.34751441 L14,1.4 L14,4.43333333 C14,4.69106622 13.7910662,4.9 13.5333333,4.9 C13.2873156,4.9 13.0857615,4.70962852 13.0679467,4.46816121 L13.0666667,4.43333333 L13.0666667,1.4 C13.0666667,1.15398225 12.8762952,0.952428138 12.6348279,0.934613339 L12.6,0.933333333 L1.4,0.933333333 C1.15398225,0.933333333 0.952428138,1.12370482 0.934613339,1.36517212 L0.933333333,1.4 L0.933333333,10.2666667 C0.933333333,10.5126844 1.12370482,10.7142385 1.36517212,10.7320533 L1.4,10.7333333 L3.5,10.7333333 C3.75773288,10.7333333 3.96666667,10.9422671 3.96666667,11.2 C3.96666667,11.4460178 3.77629518,11.6475719 3.53482788,11.6653867 L3.5,11.6666667 L1.4,11.6666667 C0.644374047,11.6666667 0.0285665889,11.0680325 0.00096564348,10.3191523 L0,10.2666667 L0,1.4 C0,0.644374047 0.598634141,0.0285665889 1.34751441,0.00096564348 L1.4,0 L12.6,0 Z M9.33333333,7 C10.4931313,7 11.4333333,7.94020203 11.4333333,9.1 C11.4333333,10.259798 10.4931313,11.2 9.33333333,11.2 C8.17353536,11.2 7.23333333,10.259798 7.23333333,9.1 C7.23333333,7.94020203 8.17353536,7 9.33333333,7 Z M9.33333333,7.93333333 C8.68900113,7.93333333 8.16666667,8.45566779 8.16666667,9.1 C8.16666667,9.74433221 8.68900113,10.2666667 9.33333333,10.2666667 C9.97766554,10.2666667 10.5,9.74433221 10.5,9.1 C10.5,8.45566779 9.97766554,7.93333333 9.33333333,7.93333333 Z"></path>
            </g>
        </g>
    </g>
</svg>