<?xml version="1.0" encoding="UTF-8"?>
<svg width="60px" height="60px" viewBox="0 0 60 60" version="1.1" xmlns="http://www.w3.org/2000/svg" xmlns:xlink="http://www.w3.org/1999/xlink">
    <g id="页面-1" stroke="none" stroke-width="1" fill="" fill-rule="evenodd">
        <g id="首页ICON" transform="translate(-480.000000, -182.000000)" fill="">
            <g id="资源配置" transform="translate(480.000000, 182.000000)">
                <path d="M27.4482929,1.24344979e-13 L27.8949099,0.00445471572 L29.003733,0.0284625783 L29.2241153,0.0354544491 L30.1007911,0.0706555451 L30.9693475,0.117333393 L31.8293127,0.175358621 L32.2559262,0.208586074 L33.1021199,0.2833898 L34.1460666,0.392381728 L35.1738249,0.5183459 L35.782326,0.601965965 L36.3844685,0.691550495 L37.1770898,0.820180258 L37.5688813,0.888394634 L37.9575812,0.959187112 L38.7254708,1.10844169 L39.1045424,1.18687144 L39.8526445,1.35125502 L40.2215571,1.43717651 L40.9488101,1.61639801 L41.661574,1.80534975 C49.0678754,3.83997391 54,7.46234049 54,11.9985115 L54,30.9985115 C54,32.103081 53.1045695,32.9985115 52,32.9985115 C50.9456382,32.9985115 50.0818349,32.1826337 50.0054857,31.1477738 L50,30.9985115 L50.0010706,18.4931708 C48.004785,19.9278328 45.3455617,21.1260516 42.2182685,22.034397 L41.661574,22.1916733 L40.9488101,22.380625 L40.2215571,22.5598465 L39.8526445,22.645768 L39.4802867,22.7292084 L38.7254708,22.8885813 L37.9575812,23.0378359 L37.3733683,23.1430588 L36.7822659,23.2424628 L35.9837565,23.3658555 L35.580189,23.4235958 L35.1738249,23.4786771 L34.1460666,23.6046413 L33.1021199,23.7136332 L32.6802149,23.7524211 L31.8293127,23.8216644 L30.9693475,23.8796896 L30.1007911,23.9263675 L29.2241153,23.9615686 L28.7828801,23.9748249 L27.8949099,23.9925683 L27,23.9985115 L26.1050901,23.9925683 L24.996267,23.9685604 L24.7758847,23.9615686 L23.8992089,23.9263675 L23.0306525,23.8796896 L22.1706873,23.8216644 L21.7440738,23.7884369 L20.8978801,23.7136332 L19.8539334,23.6046413 L18.8261751,23.4786771 L18.217674,23.395057 L17.6155315,23.3054725 L16.8229102,23.1768427 L16.4311187,23.1086284 L16.0424188,23.0378359 L15.2745292,22.8885813 L14.8954576,22.8101516 L14.1473555,22.645768 L13.7784429,22.5598465 L13.0511899,22.380625 L12.338426,22.1916733 C8.97010809,21.2663449 6.11353579,20.0126162 3.99991967,18.4938824 L4,23.9985115 C4,26.0006682 6.81448137,28.1512214 11.433302,29.7169592 L12.0893971,29.9315651 C12.6457321,30.1071174 13.225828,30.2743015 13.8280966,30.4319645 L14.5613603,30.6165163 L14.9357837,30.7052263 L15.6998327,30.8752378 L16.483643,31.0350025 C16.7481388,31.0865004 17.0158266,31.1362167 17.2866046,31.1840777 L18.1081078,31.3220207 L18.5256219,31.3866794 L19.3737939,31.5070943 L19.8042994,31.5627398 L20.6777682,31.6646305 C21.5542049,31.7526816 23.2837039,32.0035525 25.2171199,32.0188412 C27.4550487,32.036538 29.8942028,31.8077955 30.4471462,31.7536185 C31.546572,31.6458975 32.3569084,32.8281435 32.2559262,33.9280873 C32.154944,35.0280311 31.2153749,35.6040593 30.0814574,35.7368674 C27.9362429,35.9395801 26.2411794,36.0354614 24.996267,36.0245115 C24.075309,36.016411 22.5215669,35.891954 20.3350405,35.6511404 C20.1915439,35.6359135 20.048523,35.6202188 19.9059874,35.6040593 L19.056677,35.5015451 L18.2194839,35.3880056 L17.3948756,35.2635738 L16.5833195,35.1283828 C16.1808825,35.0581196 15.7835153,34.9838715 15.3914811,34.9057134 L14.614601,34.744206 L14.2316399,34.6595837 L13.4769677,34.4826854 L12.7376853,34.2956927 L12.0142601,34.0987386 L11.65864,33.9965676 L10.9598771,33.7849208 L10.27814,33.5636451 L9.61389638,33.3328735 C7.41168371,32.5415809 5.51370101,31.5916942 3.9997762,30.5059222 L4,36.0245115 L4.00577749,36.1556294 C4.12499487,37.7823944 6.08351821,39.504451 9.3504184,40.9186295 L9.9252744,41.1588154 C10.2190567,41.2773135 10.5222952,41.3933623 10.8346521,41.5067052 L11.4714236,41.729707 L12.1319098,41.9450368 L12.4708582,42.0496821 L13.16579,42.2526484 C13.4011694,42.3188604 13.640251,42.3836037 13.8829346,42.4468021 L14.6216911,42.631687 L15.3814587,42.8068467 C15.6381497,42.8635618 15.8982424,42.91858 16.1616367,42.9718252 L16.9616242,43.1261662 L17.3688587,43.199205 L18.197434,43.3367341 L18.6186245,43.4011105 L19.4744357,43.5208014 C19.6879639,43.5488405 21.8458994,43.8852712 24.0252041,43.9109991 C26.2580994,43.9373598 28.5145963,43.710218 28.7388284,43.676828 C29.7866325,43.5208014 30.6333193,44.7780545 30.5169072,45.8764725 C30.4004951,46.9748904 29.4164979,47.5027011 28.3172628,47.6545513 C26.4075427,47.7864624 24.9768565,47.8497069 24.0252041,47.8442847 C23.1137576,47.8390916 21.7497954,47.7599242 19.9333175,47.6067825 L19.0710109,47.5027011 L18.2212786,47.3873417 L17.3846014,47.2608413 L16.5614603,47.1233366 L15.752336,46.9749645 C15.217699,46.8724577 14.6927272,46.7627972 14.1780617,46.6461653 L13.4138733,46.4660117 C13.1617739,46.4042329 12.9123312,46.3407341 12.6656253,46.275538 L11.9337986,46.074881 C8.72876749,45.1635814 6.02132778,43.9565158 3.99962871,42.5072153 L4,47.9985115 C4,49.4844318 5.46846439,50.9941129 7.98957899,52.2957406 L8.45947035,52.530056 L8.70294205,52.6453975 L9.20659041,52.8722545 C9.37813912,52.9469975 9.5533229,53.0208473 9.73204919,53.0937523 L10.278763,53.3095812 L10.559917,53.415273 L11.2849866,53.6727096 L12.0408807,53.9199581 C12.246466,53.9844789 12.4552236,54.0478484 12.6670608,54.1100151 L13.3117189,54.2928551 L13.9742997,54.4681684 C14.1980854,54.5253174 14.4247656,54.5811603 14.6542478,54.6356455 L15.3510079,54.7949766 L16.0640244,54.9458522 L16.792742,55.0879626 L17.1628152,55.1556341 L17.9140432,55.2840162 C18.0404561,55.3046269 18.1674652,55.3248401 18.2950592,55.3446494 L19.0675479,55.4586065 L19.8535161,55.56256 L20.2513815,55.6106885 L21.0565278,55.6990559 L21.8737651,55.7766456 L22.7025381,55.8431478 C22.9806567,55.8634329 23.2606054,55.8818186 23.5422915,55.8982531 L24.3924697,55.9416517 C25.2476753,55.9790938 26.1176851,55.9985115 27,55.9985115 L27.7022923,55.9954315 L28.3172628,55.9845861 L28.8777263,55.9635677 L29.4164979,55.9299684 L29.6880038,55.9076985 C30.3022494,55.8534016 30.8226349,55.7737984 31.2153749,55.6719588 L31.5642442,55.5709021 C31.5857292,55.5655884 31.5965021,55.5649531 31.5957233,55.5706935 L31.587,55.5815115 L31.7130012,55.4674652 C32.4987886,54.8054129 33.6742728,54.8443572 34.4142136,55.5842979 C35.1952621,56.3653465 35.1952621,57.6316765 34.4142136,58.4127251 C33.480146,59.3467927 32.06833,59.7128842 30.0402149,59.8921618 C29.6075879,59.9304043 29.2053452,59.9556608 28.7824409,59.9719204 L28.1262075,59.9900606 L27.4006976,59.9976972 L27,59.9985115 L26.1050901,59.9925683 L25.2171199,59.9748249 C25.0697294,59.9708915 24.9226477,59.9664718 24.7758847,59.9615686 L23.8992089,59.9263675 L23.0306525,59.8796896 L22.1706873,59.8216644 L21.3197851,59.7524211 L20.8978801,59.7136332 L19.8539334,59.6046413 L18.8261751,59.4786771 C18.5543467,59.4428462 18.2843432,59.4052318 18.0162435,59.3658555 L17.2177341,59.2424628 C16.8214136,59.1781453 16.4295533,59.109912 16.0424188,59.0378359 L15.2745292,58.8885813 L14.5197133,58.7292084 C14.2703394,58.6744121 14.0232231,58.6179509 13.7784429,58.5598465 L13.0511899,58.380625 L12.338426,58.1916733 C6.17938464,56.4996905 1.7313598,53.7097047 0.407890779,50.2092904 C0.180480732,49.9108683 0.0348283939,49.5454933 0.00548573643,49.1477738 L1.13686838e-13,48.9985115 L1.13686838e-13,11.9965053 C0.00142880568,7.54083794 4.76168972,3.96702878 11.9509753,1.91388143 L12.338426,1.80534975 L13.0511899,1.61639801 L13.7784429,1.43717651 L14.1473555,1.35125502 L14.5197133,1.26781461 L15.2745292,1.10844169 L16.0424188,0.959187112 L16.6266317,0.853964172 L17.2177341,0.754560154 L18.0162435,0.631167452 L18.419811,0.573427197 L18.8261751,0.5183459 L19.8539334,0.392381728 L20.8978801,0.2833898 L21.3197851,0.244601858 L22.1706873,0.175358621 L23.0306525,0.117333393 L23.8992089,0.0706555451 L24.7758847,0.0354544491 L25.2171199,0.0221981117 L26.1050901,0.00445471572 L26.5517071,1.24344979e-13 L27.4482929,1.24344979e-13 Z M53.257608,37.2682831 C54.2141933,37.8205679 54.5419436,39.0437487 53.9896588,40.000334 L52.6472195,42.3249717 C53.694136,43.4156867 54.4529101,44.7850882 54.8011639,46.3107983 C54.8681452,46.302984 54.9374548,46.2993721 55.007608,46.2993721 L58.007608,46.2993721 C59.1121775,46.2993721 60.007608,47.1948026 60.007608,48.2993721 C60.007608,49.4039416 59.1121775,50.2993721 58.007608,50.2993721 L55.007608,50.2993721 C54.9230115,50.2993721 54.8396417,50.2941197 54.757807,50.2839234 C54.3832627,51.7853006 53.6068353,53.1292828 52.5501627,54.1949467 L53.9820508,56.6778302 C54.5343356,57.6344154 54.2065852,58.8575962 53.25,59.409881 C52.2934148,59.9621657 51.0702339,59.6344154 50.5179492,58.6778302 L49.1429275,56.2959283 C48.3151445,56.5648626 47.4316401,56.7102159 46.5141867,56.7102159 C45.9013586,56.7102159 45.3036779,56.6453623 44.7276334,56.5221439 L43.4820508,58.6778302 C42.9297661,59.6344154 41.7065852,59.9621657 40.75,59.409881 C39.7934148,58.8575962 39.4656644,57.6344154 40.0179492,56.6778302 L41.1158148,54.7761668 C39.7586096,53.6590115 38.7538103,52.129241 38.2932993,50.3787375 L36,50.378792 C34.8954305,50.378792 34,49.4833615 34,48.378792 C34,47.2742225 34.8954305,46.378792 36,46.378792 L38.2122117,46.3777568 C38.6183987,44.5291435 39.6262977,42.9060345 41.0201575,41.724181 L40.0255572,40.000334 C39.4732725,39.0437487 39.8010228,37.8205679 40.757608,37.2682831 C41.7141933,36.7159984 42.9373741,37.0437487 43.4896588,38.000334 L44.601095,39.9263719 C45.2159882,39.7849432 45.8563607,39.7102159 46.5141867,39.7102159 C47.4802794,39.7102159 48.4087279,39.8713897 49.2741104,40.1683154 L50.5255572,38.000334 C51.077842,37.0437487 52.3010228,36.7159984 53.257608,37.2682831 Z M46.5141867,43.7102159 C44.0289053,43.7102159 42.0141867,45.7249346 42.0141867,48.2102159 C42.0141867,50.6954973 44.0289053,52.7102159 46.5141867,52.7102159 C48.9994681,52.7102159 51.0141867,50.6954973 51.0141867,48.2102159 C51.0141867,45.7249346 48.9994681,43.7102159 46.5141867,43.7102159 Z M27,3.9985115 L26.5598796,4.00012319 C26.0720219,4.00369756 25.5880907,4.01319338 25.1085144,4.02837174 L24.3924697,4.05537131 L23.5422915,4.09876993 L23.121077,4.12487858 L22.7025381,4.15387519 L21.8737651,4.22037744 L21.0565278,4.29796708 L20.2513815,4.38633446 L19.8535161,4.43446305 L19.0675479,4.5384165 L18.2950592,4.65237363 L17.9140432,4.71300682 L17.1628152,4.84138892 L16.792742,4.90906042 L16.0640244,5.05117083 L15.3510079,5.2020464 L14.6542478,5.36137752 L14.3121376,5.44411715 L13.9742997,5.52885456 L13.3117189,5.70416788 L12.6670608,5.88700786 L12.3516263,5.98115359 L12.0408807,6.07706487 L11.2849866,6.32431339 L10.559917,6.58174999 L10.278763,6.68744183 L9.73204919,6.9032707 L9.46662821,7.01333032 L9.20659041,7.12476846 L8.70294205,7.35162549 L8.45947035,7.46696697 L7.98957899,7.70128235 C5.46846439,9.00291007 4,10.5125912 4,11.9985115 C4,13.4293977 5.36170361,14.8823173 7.71380816,16.1502709 L7.98957899,16.2957406 L8.45947035,16.530056 L8.70294205,16.6453975 L9.20659041,16.8722545 L9.46662821,16.9836927 L9.73204919,17.0937523 L10.278763,17.3095812 L10.559917,17.415273 L11.2849866,17.6727096 L12.0408807,17.9199581 L12.3516263,18.0158694 L12.6670608,18.1100151 L13.3117189,18.2928551 L13.9742997,18.4681684 L14.3121376,18.5529059 L14.6542478,18.6356455 L15.3510079,18.7949766 L16.0640244,18.9458522 L16.4264553,19.0180224 L17.1628152,19.1556341 L17.5366054,19.2209982 L18.2950592,19.3446494 L19.0675479,19.4586065 L19.8535161,19.56256 L20.2513815,19.6106885 L21.0565278,19.6990559 L21.8737651,19.7766456 L22.7025381,19.8431478 L23.121077,19.8721444 L23.5422915,19.8982531 L24.3924697,19.9416517 C25.2476753,19.9790938 26.1176851,19.9985115 27,19.9985115 C27.5882099,19.9985115 28.1709509,19.9898814 28.7474825,19.9730341 L29.6075303,19.9416517 L30.4577085,19.8982531 L30.878923,19.8721444 L31.2974619,19.8431478 L32.1262349,19.7766456 L32.9434722,19.6990559 L33.7486185,19.6106885 L34.1464839,19.56256 L34.9324521,19.4586065 L35.7049408,19.3446494 L36.0859568,19.2840162 L36.8371848,19.1556341 L37.207258,19.0879626 L37.9359756,18.9458522 L38.6489921,18.7949766 L39.3457522,18.6356455 L39.6878624,18.5529059 L40.0257003,18.4681684 L40.6882811,18.2928551 L41.3329392,18.1100151 L41.6483737,18.0158694 L41.9591193,17.9199581 L42.7150134,17.6727096 L43.440083,17.415273 L43.721237,17.3095812 L44.2679508,17.0937523 L44.5333718,16.9836927 L44.7934096,16.8722545 L45.2970579,16.6453975 L45.5405297,16.530056 L46.010421,16.2957406 C48.5315356,14.9941129 50,13.4844318 50,11.9985115 C50,10.5676253 48.6382964,9.11470571 46.2861918,7.84675207 L46.010421,7.70128235 L45.5405297,7.46696697 L45.2970579,7.35162549 L44.7934096,7.12476846 L44.5333718,7.01333032 L44.2679508,6.9032707 L43.721237,6.68744183 L43.440083,6.58174999 L42.7150134,6.32431339 L41.9591193,6.07706487 L41.6483737,5.98115359 L41.3329392,5.88700786 L40.6882811,5.70416788 L40.0257003,5.52885456 L39.6878624,5.44411715 L39.3457522,5.36137752 L38.6489921,5.2020464 L37.9359756,5.05117083 L37.5735447,4.97900063 L36.8371848,4.84138892 L36.4633946,4.77602481 L35.7049408,4.65237363 L34.9324521,4.5384165 L34.1464839,4.43446305 L33.7486185,4.38633446 L32.9434722,4.29796708 L32.1262349,4.22037744 L31.2974619,4.15387519 L30.878923,4.12487858 L30.4577085,4.09876993 L29.6075303,4.05537131 C28.7523247,4.01792921 27.8823149,3.9985115 27,3.9985115 Z" id="形状结合"></path>
            </g>
        </g>
    </g>
</svg>