<?xml version="1.0" encoding="UTF-8"?>
<svg width="14px" height="14px" viewBox="0 0 14 14" version="1.1" xmlns="http://www.w3.org/2000/svg" xmlns:xlink="http://www.w3.org/1999/xlink">
    <g id="2023" stroke="none" stroke-width="1" fill="none" fill-rule="evenodd">
        <g id="对象树对象图标" transform="translate(-299.000000, -656.000000)" fill="#1AB394" fill-rule="nonzero">
            <g id="存储过程-Stored-Procedure" transform="translate(299.000000, 656.000000)">
                <path d="M11.6666667,0 C12.9553311,0 14,1.04466892 14,2.33333333 L14,11.6666667 C14,12.9553311 12.9553311,14 11.6666667,14 L2.33333333,14 C1.04466892,14 0,12.9553311 0,11.6666667 L0,2.33333333 C0,1.04466892 1.04466892,0 2.33333333,0 L11.6666667,0 Z M11.6666667,0.933333333 L2.33333333,0.933333333 C1.56013468,0.933333333 0.933333333,1.56013468 0.933333333,2.33333333 L0.933333333,11.6666667 C0.933333333,12.4398653 1.56013468,13.0666667 2.33333333,13.0666667 L11.6666667,13.0666667 C12.4398653,13.0666667 13.0666667,12.4398653 13.0666667,11.6666667 L13.0666667,2.33333333 C13.0666667,1.56013468 12.4398653,0.933333333 11.6666667,0.933333333 Z M7.7,2.45 C9.43969696,2.45 10.85,3.86030304 10.85,5.6 C10.85,7.33969696 9.43969696,8.75 7.7,8.75 L5.01666667,8.75 L5.01666667,12.0166667 C5.01666667,12.1455331 4.91219977,12.25 4.78333333,12.25 L4.08333333,12.25 C3.95446689,12.25 3.85,12.1455331 3.85,12.0166667 L3.85,2.68333333 C3.85,2.55446689 3.95446689,2.45 4.08333333,2.45 L7.7,2.45 Z M7.7,3.61666667 L5.075,3.61666667 L5.075,7.58333333 L7.7,7.58333333 C8.79536475,7.58333333 9.68333333,6.69536475 9.68333333,5.6 C9.68333333,4.50463525 8.79536475,3.61666667 7.7,3.61666667 Z" id="形状"></path>
            </g>
        </g>
    </g>
</svg>