<?xml version="1.0" encoding="UTF-8"?>
<svg width="14px" height="14px" viewBox="0 0 14 14" version="1.1" xmlns="http://www.w3.org/2000/svg" xmlns:xlink="http://www.w3.org/1999/xlink">
    <title>下载</title>
    <g id="页面-1" stroke="none" stroke-width="1" fill="" fill-rule="evenodd">
        <g id="首页-管理员" transform="translate(-20.000000, -207.000000)" fill="" fill-rule="nonzero">
            <g id="形状" transform="translate(20.000000, 207.000000)">
                <path d="M13.5333333,10.7333333 C13.7793511,10.7333333 13.9809052,10.9237048 13.99872,11.1651721 L14,11.2 L14,13.0666667 C14,13.5665123 13.607074,13.9745851 13.1132494,13.9988578 L13.0666667,14 L0.933333333,14 C0.433487742,14 0.0254149289,13.607074 0.00114223835,13.1132494 L0,13.0666667 L0,11.2 C0,10.9422671 0.208933783,10.7333333 0.466666667,10.7333333 C0.712684419,10.7333333 0.914238528,10.9237048 0.932053328,11.1651721 L0.933333333,11.2 L0.933333333,13.0666667 L13.0666667,13.0666667 L13.0666667,11.2 C13.0666667,10.9422671 13.2756005,10.7333333 13.5333333,10.7333333 Z M7,0 C7.24601775,0 7.44757186,0.190371484 7.46538666,0.431838786 L7.46666667,0.466666667 L7.46666667,9.2127 L9.96984848,6.71005051 C10.1438093,6.53608969 10.4209425,6.52818238 10.6042827,6.68632858 L10.6298148,6.71005051 C10.8037756,6.88401133 10.8116829,7.16114457 10.6535367,7.3444847 L10.6298148,7.37001684 L7.32998316,10.6698485 C7.15602234,10.8438093 6.8788891,10.8517166 6.69554897,10.6935704 L6.67001684,10.6698485 L3.37018519,7.37001684 C3.18794052,7.18777217 3.18794052,6.89229518 3.37018519,6.71005051 C3.54414601,6.53608969 3.82127926,6.52818238 4.00461939,6.68632858 L4.03015152,6.71005051 L6.53333333,9.21316667 L6.53333333,0.466666667 C6.53333333,0.208933783 6.74226712,0 7,0 Z"></path>
            </g>
        </g>
    </g>
</svg>