<?xml version="1.0" encoding="UTF-8"?>
<svg width="6px" height="7px" viewBox="0 0 6 7" version="1.1" xmlns="http://www.w3.org/2000/svg" xmlns:xlink="http://www.w3.org/1999/xlink">
    <g id="2023" stroke="none" stroke-width="1" fill="" fill-rule="evenodd">
        <g id="对象树对象图标" transform="translate(-1182.000000, -196.000000)" fill-rule="nonzero">
            <g id="R" transform="translate(1182.000000, 196.000000)">
                <path d="M2.78100065,0 C4.54550621,0 5.70248216,0.77583686 5.70248216,2.43923865 C5.70248216,3.18355286 5.44536021,3.79941815 4.98140072,4.23656634 L4.91422846,4.29300878 L5.91547756,6.04531383 C6.14067138,6.43946639 5.89104939,6.91941309 5.46003997,6.99091878 L5.34867852,7 L3.78778012,7 C3.54568389,7 3.32362422,6.86755934 3.21144289,6.65626141 L2.69645199,5.68814056 L2.69775274,6.35944363 C2.69775274,6.67390542 2.46768261,6.93544264 2.16428401,6.98967978 L2.0473784,7 L0.650374334,7 C0.291182507,7 0,6.71321315 0,6.35944363 L0,0.640556369 C0,0.286786855 0.291182507,0 0.650374334,0 L2.78100065,0 Z" id="形状" fill="#FFFFFF"></path>
                <path d="M2.0473784,1.72437775 L2.67173776,1.72437775 C3.33511958,1.72437775 3.68632172,1.9011713 3.68632172,2.43923865 C3.68632172,2.977306 3.33511958,3.26171303 2.67173776,3.26171303 L2.0473784,3.26171303 L2.0473784,1.72437775 Z M5.34867852,6.35944363 L4.05313285,4.09187408 C4.65407873,3.81515373 5.05210782,3.27708638 5.05210782,2.43923865 C5.05210782,1.0556369 4.02191488,0.640556369 2.78100065,0.640556369 L0.650374334,0.640556369 L0.650374334,6.35944363 L2.0473784,6.35944363 L2.0473784,4.34553441 L2.71856471,4.34553441 L3.78778012,6.35944363 L5.34867852,6.35944363 Z" id="形状" fill=""></path>
            </g>
        </g>
    </g>
</svg>