<?xml version="1.0" encoding="UTF-8"?>
<svg width="14px" height="14px" viewBox="0 0 14 14" version="1.1" xmlns="http://www.w3.org/2000/svg" xmlns:xlink="http://www.w3.org/1999/xlink">
    <title>SQL执行</title>
    <g id="页面-1" stroke="none" stroke-width="1" fill="" fill-rule="evenodd">
        <g id="配置管理" transform="translate(-20.000000, -71.000000)" fill="" fill-rule="nonzero">
            <g id="形状" transform="translate(20.000000, 71.000000)">
                <path d="M12.6,0 C13.355626,0 13.9714334,0.598634141 13.9990344,1.34751441 L14,1.4 L14,12.6 C14,13.355626 13.4013659,13.9714334 12.6524856,13.9990344 L12.6,14 L1.4,14 C0.644374047,14 0.0285665889,13.4013659 0.00096564348,12.6524856 L0,12.6 L0,1.4 C0,0.644374047 0.598634141,0.0285665889 1.34751441,0.00096564348 L1.4,0 L12.6,0 Z M12.6,0.933333333 L1.4,0.933333333 C1.15398225,0.933333333 0.952428138,1.12370482 0.934613339,1.36517212 L0.933333333,1.4 L0.933333333,12.6 C0.933333333,12.8460178 1.12370482,13.0475719 1.36517212,13.0653867 L1.4,13.0666667 L12.6,13.0666667 C12.8460178,13.0666667 13.0475719,12.8762952 13.0653867,12.6348279 L13.0666667,12.6 L13.0666667,1.4 C13.0666667,1.15398225 12.8762952,0.952428138 12.6348279,0.934613339 L12.6,0.933333333 Z M6.06666667,8.63333333 C6.06666667,8.27916046 6.44322405,8.05837339 6.74925925,8.2195439 L6.77961114,8.23694335 L9.81294447,10.1215587 C10.1075138,10.3045752 10.1041139,10.7290295 9.81887382,10.9106878 L9.78602146,10.9298483 L6.75268813,12.5452329 C6.45220944,12.7052511 6.09160727,12.5000868 6.06790099,12.1681175 L6.06666667,12.1333333 L6.06666667,8.63333333 Z M4.66666667,8.16666667 C4.92439955,8.16666667 5.13333333,8.37560045 5.13333333,8.63333333 L5.13333333,12.1333333 C5.13333333,12.3910662 4.92439955,12.6 4.66666667,12.6 C4.40893378,12.6 4.2,12.3910662 4.2,12.1333333 L4.2,8.63333333 C4.2,8.37560045 4.40893378,8.16666667 4.66666667,8.16666667 Z M7,9.47263333 L7,11.3558667 L8.63216667,10.4867 L7,9.47263333 Z M7.11666667,1.4 C8.23587463,1.4 9.1,2.46353892 9.1,3.73333333 C9.1,4.68067975 8.6190194,5.51322235 7.90997285,5.8749606 C8.06480814,6.00520993 8.29711662,6.06666667 8.63333333,6.06666667 C8.89106622,6.06666667 9.1,6.27560045 9.1,6.53333333 C9.1,6.79106622 8.89106622,7 8.63333333,7 C7.79514983,7 7.1891122,6.67639191 6.89945608,6.05291987 C5.88758486,5.9259503 5.13333333,4.91965684 5.13333333,3.73333333 C5.13333333,2.46353892 5.9974587,1.4 7.11666667,1.4 Z M4.92713856,1.88755307 C5.14098915,2.03140773 5.19773208,2.32138513 5.05387743,2.53523572 C4.91002277,2.74908632 4.62004537,2.80582924 4.40619478,2.66197459 C3.87276476,2.30314281 3.49697027,2.25335039 3.20927003,2.43971491 C2.89371082,2.64412574 2.89948494,2.77877727 3.12520649,2.99810185 L3.14414028,3.01237199 L3.14414028,3.01237199 L3.17788977,3.03261169 L3.2259483,3.05807043 L3.28780923,3.08799775 L3.36296594,3.12164316 L3.48646645,3.1729692 L3.84929724,3.31516945 L3.9951655,3.37375175 L4.13511787,3.43261959 C4.6037497,3.63548287 4.85355375,3.80966941 5.00383962,4.10172293 C5.44528633,4.95959507 4.75353132,6.06666667 3.57777778,6.06666667 C2.81716735,6.06666667 2.25918734,5.86335411 1.9485311,5.41057579 C1.80271849,5.19805539 1.85679584,4.90756908 2.06931625,4.76175647 C2.27121063,4.62323449 2.54346924,4.66511321 2.69520645,4.85185706 L2.71813556,4.88254162 C2.82229414,5.03435169 3.09394376,5.13333333 3.57777778,5.13333333 C4.06035757,5.13333333 4.29324414,4.76062608 4.17393815,4.52877639 C4.16309602,4.50770665 4.12430597,4.47647028 4.05734921,4.43676597 L4.00184695,4.40542654 L3.89874397,4.35281174 L3.89874397,4.35281174 L3.81674566,4.31423035 L3.72411303,4.27303087 L3.62082557,4.22937256 L3.4877117,4.17589139 L3.18936074,4.0593386 L3.08477533,4.01715937 L2.99293684,3.97849179 C2.75859705,3.87729242 2.59819513,3.7873896 2.47479351,3.6674852 C1.85848607,3.06864396 1.82235524,2.22607888 2.70184108,1.65637146 C3.34747418,1.23814759 4.11242043,1.33950226 4.92713856,1.88755307 Z M10.0333333,1.4 C10.2793511,1.4 10.4809052,1.59037148 10.49872,1.83183879 L10.5,1.86666667 L10.5,5.13333333 L11.9,5.13333333 C12.1460178,5.13333333 12.3475719,5.32370482 12.3653867,5.56517212 L12.3666667,5.6 C12.3666667,5.84601775 12.1762952,6.04757186 11.9348279,6.06538666 L11.9,6.06666667 L10.0333333,6.06666667 C9.78731558,6.06666667 9.58576147,5.87629518 9.56794667,5.63482788 L9.56666667,5.6 L9.56666667,1.86666667 C9.56666667,1.60893378 9.77560045,1.4 10.0333333,1.4 Z M7.11666667,2.33333333 C6.56061089,2.33333333 6.06666667,2.94126469 6.06666667,3.73333333 C6.06666667,4.52540198 6.56061089,5.13333333 7.11666667,5.13333333 C7.67272244,5.13333333 8.16666667,4.52540198 8.16666667,3.73333333 C8.16666667,2.94126469 7.67272244,2.33333333 7.11666667,2.33333333 Z"></path>
            </g>
        </g>
    </g>
</svg>