<?xml version="1.0" encoding="UTF-8"?>
<svg width="14px" height="14px" viewBox="0 0 14 14" version="1.1" xmlns="http://www.w3.org/2000/svg" xmlns:xlink="http://www.w3.org/1999/xlink">
    <g id="2023" stroke="none" stroke-width="1" fill="none" fill-rule="evenodd">
        <g id="SQL窗口备份" transform="translate(-769.000000, -271.000000)">
            <g id="dameng" transform="translate(769.000000, 271.000000)">
                <g transform="translate(0.000000, 1.633333)" id="编组-3">
                    <path d="M8.49280392,4.74048169 C7.51002252,4.48927811 6.80601231,3.63317998 6.75522093,2.62739546 C6.695035,1.94787404 6.75697828,1.26314762 6.93809103,0.605101748 C6.55268967,0.741165984 6.16728831,0.903268336 5.77533322,1.08472228 C5.65930849,1.69334031 5.62631524,2.31472829 5.67737088,2.93206502 C5.80144242,3.58022532 5.9059717,4.43581213 6.98382176,4.77290478 C7.4796719,4.93382716 7.98326495,5.07015361 8.49280392,5.18124171 C9.20605012,5.33749663 9.75022078,5.91088585 9.86464671,6.62671116 C10.0237728,7.26202285 10.083232,7.91791854 10.0410159,8.57125762 C10.3808451,8.34268334 10.7079632,8.09604233 11.0208508,7.83234413 C11.0539894,7.23108128 10.9651573,6.62932022 10.759587,6.06278797 C10.4002949,5.4340317 10.145532,5.11644797 8.49280392,4.74048169 Z M7.14712317,6.14703819 C6.32403599,5.82945446 5.57285481,5.9072017 4.7693231,5.35623201 C4.12280333,4.78883445 3.77982942,3.95481496 3.84171984,3.10055235 C3.86494857,2.77017244 3.90639825,2.44127406 3.96585745,2.11535183 C3.56497027,2.39092845 3.17900075,2.68736441 2.80960052,3.00334862 C2.72474563,3.36800025 2.72474563,3.74708691 2.80960052,4.11172542 C2.95984733,4.81177841 2.94679273,5.5506919 4.33169013,6.00445787 C5.71654789,6.45815828 6.0300961,6.28316798 6.63759741,6.77579446 C7.10794616,7.15170829 7.40188604,7.82584116 7.25819296,8.92775431 C7.18635303,9.47222103 7.1275677,9.86114081 7.08833783,10.1203813 C7.45283598,9.99179027 7.81041043,9.84469982 8.15968702,9.67963442 C8.24861156,9.13338463 8.27711234,8.57915035 8.24459476,8.02675158 C8.14663242,7.31379753 7.97676407,6.47762787 7.14712317,6.14703819 Z" id="Fill-1" fill="#E1191E"></path>
                    <path d="M7.51952278,5.30440488 C6.77720763,5.26743233 6.08589526,4.91856615 5.61858554,4.34511138 C5.27493776,3.69182474 5.13831372,2.95076107 5.22661724,2.21905853 C5.29784937,1.91407431 5.34590562,1.60423908 5.37032354,1.29213567 L4.79549836,1.60975874 C4.63218374,1.70051193 4.47538321,1.79771566 4.3251364,1.89497182 C4.22572061,2.55477455 4.22794042,3.22572148 4.33169013,3.88490799 C4.52111394,4.75995128 5.09599197,5.23312128 6.18689663,5.5377384 C7.2778145,5.84240796 7.75467733,5.58311499 8.30993382,6.56186498 C8.75412052,7.35267115 8.69533518,8.67496432 8.64960445,9.43334741 C8.83252739,9.34259421 9.02195121,9.23888752 9.20487415,9.13518082 L9.54454478,8.93421795 C9.64373594,8.27457256 9.64373594,7.60397962 9.54454478,6.94428178 C9.38123016,6.04333149 8.79329753,5.51833436 7.51952278,5.30440488 Z" id="Fill-2" fill="#E1191E"></path>
                    <path d="M5.6120186,6.71094827 C4.57339841,6.39337765 3.37141074,6.28967095 2.80960052,5.64144509 C2.37170329,5.04019536 2.15498109,4.30803394 2.19559834,3.56727182 C0.281593284,5.47295777 -0.528426085,7.68326083 0.359947304,9.19351092 C1.24837355,10.703761 3.69802676,11.1380574 6.39594199,10.3408138 C6.55738034,9.73468682 6.67093421,9.11704854 6.73561261,8.49345794 C6.8869429,7.6994396 6.39773898,6.92343556 5.6120186,6.71094827 Z M13.6403591,1.53847513 C12.7258105,-0.00419804228 10.2631027,-0.399620797 7.53907825,0.410628747 C7.26140376,1.20737413 7.1741705,2.05721839 7.28431538,2.89313895 C7.37908014,3.74842421 8.08422668,4.4096429 8.95009806,4.45528172 C9.70784618,4.5070564 10.4258491,4.81075576 10.9882275,5.31735839 C11.4498159,5.88850565 11.6824336,6.60873621 11.6414596,7.33970454 C13.6664816,5.39515808 14.5549078,3.09410182 13.6403591,1.53847513 Z" id="Fill-4" fill="#1C2582"></path>
                </g>
            </g>
        </g>
    </g>
</svg>