<?xml version="1.0" encoding="UTF-8"?>
<svg width="14px" height="14px" viewBox="0 0 14 14" version="1.1" xmlns="http://www.w3.org/2000/svg" xmlns:xlink="http://www.w3.org/1999/xlink">
    <title>tdsql_offline</title>
    <g id="2023" stroke="none" stroke-width="1" fill="none" fill-rule="evenodd">
        <g id="SQL窗口备份" transform="translate(-251.000000, -401.000000)" fill="#9BA3AF">
            <g id="tdsql_offline" transform="translate(251.000000, 401.000000)">
                <path d="M6.9486459,3.24260315 L5.43807765,10.7167365 L5.33738458,10.7167365 L6.81438027,3.24260315 L6.9486459,3.24260315 Z M7.41862478,3.24260315 L5.94161679,10.7167365 L5.80735116,10.7167365 L7.28435915,3.24260315 L7.41862478,3.24260315 Z M7.21722633,3.24260315 L5.70665809,10.7167365 L5.57234328,10.7167365 L7.0829607,3.24260315 L7.21722633,3.24260315 Z M6.44515593,3.24260315 L6.14301524,4.3770397 L3.92750941,4.3770397 L2.48407397,10.7167365 L0.872763477,10.7167365 L2.34980834,4.3770397 L0,4.3770397 L0.402846064,3.24260315 L6.44515593,3.24260315 Z M9.62368095,4.27693949 L8.92918073,4.27693949 L7.8550311,9.74908067 L9.06349554,9.74908067 C9.80199338,9.74908067 10.3055325,9.61562186 10.8761553,9.31533343 C11.4468273,9.01500833 11.9168061,8.61464412 12.2188977,8.08076 C12.5210384,7.54688809 12.655304,7.14646278 12.655304,6.47913207 C12.655304,5.94530904 12.5546109,5.54488373 12.3532125,5.2112367 C12.1517648,4.87755301 11.9503664,4.6773648 11.4803998,4.51049852 C11.0151694,4.34533719 10.3854046,4.27828408 9.62368095,4.27693949 L9.62368095,4.27693949 Z M6.14301524,10.7167365 L6.00874961,10.7167365 L7.51931786,3.24260315 L9.39915961,3.24260315 C10.9433373,3.24260315 12.084632,3.50952077 12.8567024,4.01003408 C13.6288097,4.51049852 14.0316066,5.27796611 13.9980463,6.34567326 C13.9980463,7.17988247 13.7630753,7.91394259 13.3602416,8.58127331 C12.9574447,9.24860402 12.3532125,9.78243927 11.5810929,10.1494938 C10.8090225,10.5165483 9.90269875,10.7167365 8.86206021,10.7167365 L6.1765755,10.7167365 L7.65357119,3.24292085 L6.14301524,10.7167365 Z" id="形状"></path>
            </g>
        </g>
    </g>
</svg>