<?xml version="1.0" encoding="UTF-8"?>
<svg width="14px" height="14px" viewBox="0 0 14 14" version="1.1" xmlns="http://www.w3.org/2000/svg" xmlns:xlink="http://www.w3.org/1999/xlink">
    <g id="2023" stroke="none" stroke-width="1" fill="none" fill-rule="evenodd">
        <g id="对象树对象图标" transform="translate(-299.000000, -552.000000)" fill="#1AB394" fill-rule="nonzero">
            <g id="视图" transform="translate(299.000000, 552.000000)">
                <path d="M13.7666667,0 C13.8955331,0 14,0.106515262 14,0.237908497 L14,14 L13.0666667,14 L13.0666667,8.63333333 L0.933333333,8.63333333 L0.933333333,14 L0,14 L0,0.237908497 C0,0.106515262 0.104466892,0 0.233333333,0 L13.7666667,0 Z M9.8,9.33333333 C11.0886644,9.33333333 12.1333333,10.3780023 12.1333333,11.6666667 C12.1333333,12.9553311 11.0886644,14 9.8,14 C8.67123382,14 7.72966949,13.1984936 7.51338825,12.1335622 L6.48661175,12.1335622 C6.27033051,13.1984936 5.32876618,14 4.2,14 C2.91133558,14 1.86666667,12.9553311 1.86666667,11.6666667 C1.86666667,10.3780023 2.91133558,9.33333333 4.2,9.33333333 C5.3288486,9.33333333 6.27046802,10.1349568 6.48665912,11.2000045 L7.51334088,11.2000045 C7.72953198,10.1349568 8.6711514,9.33333333 9.8,9.33333333 Z M4.2,10.2666667 C3.42680135,10.2666667 2.8,10.893468 2.8,11.6666667 C2.8,12.4398653 3.42680135,13.0666667 4.2,13.0666667 C4.97319865,13.0666667 5.6,12.4398653 5.6,11.6666667 C5.6,10.893468 4.97319865,10.2666667 4.2,10.2666667 Z M9.8,10.2666667 C9.02680135,10.2666667 8.4,10.893468 8.4,11.6666667 C8.4,12.4398653 9.02680135,13.0666667 9.8,13.0666667 C10.5731986,13.0666667 11.2,12.4398653 11.2,11.6666667 C11.2,10.893468 10.5731986,10.2666667 9.8,10.2666667 Z M3.73333333,6.06666667 L0.933333333,6.06666667 L0.933333333,7.93333333 L3.73333333,7.93333333 L3.73333333,6.06666667 Z M9.33333333,6.06666667 L4.66666667,6.06666667 L4.66666667,7.93333333 L9.33333333,7.93333333 L9.33333333,6.06666667 Z M13.0666667,6.06666667 L10.2666667,6.06666667 L10.2666667,7.93333333 L13.0666667,7.93333333 L13.0666667,6.06666667 Z M3.73333333,3.26666667 L0.933333333,3.26666667 L0.933333333,5.13333333 L3.73333333,5.13333333 L3.73333333,3.26666667 Z M9.33333333,3.26666667 L4.66666667,3.26666667 L4.66666667,5.13333333 L9.33333333,5.13333333 L9.33333333,3.26666667 Z M13.0666667,3.26666667 L10.2666667,3.26666667 L10.2666667,5.13333333 L13.0666667,5.13333333 L13.0666667,3.26666667 Z" id="形状"></path>
            </g>
        </g>
    </g>
</svg>