<?xml version="1.0" encoding="UTF-8"?>
<svg width="14px" height="14px" viewBox="0 0 14 14" version="1.1" xmlns="http://www.w3.org/2000/svg" xmlns:xlink="http://www.w3.org/1999/xlink">
    <g id="2023" stroke="none" stroke-width="1" fill="none" fill-rule="evenodd">
        <g id="对象树对象图标" transform="translate(-319.000000, -448.000000)" fill="#1AB394" fill-rule="nonzero">
            <g id="索引-index" transform="translate(319.000000, 448.000000)">
                <path d="M11.6666667,0 C12.9553311,0 14,1.04466892 14,2.33333333 L14,11.6666667 C14,12.9553311 12.9553311,14 11.6666667,14 L2.33333333,14 C1.04466892,14 0,12.9553311 0,11.6666667 L0,2.33333333 C0,1.04466892 1.04466892,0 2.33333333,0 L11.6666667,0 Z M11.6666667,0.933333333 L2.33333333,0.933333333 C1.56013468,0.933333333 0.933333333,1.56013468 0.933333333,2.33333333 L0.933333333,11.6666667 C0.933333333,12.4398653 1.56013468,13.0666667 2.33333333,13.0666667 L11.6666667,13.0666667 C12.4398653,13.0666667 13.0666667,12.4398653 13.0666667,11.6666667 L13.0666667,2.33333333 C13.0666667,1.56013468 12.4398653,0.933333333 11.6666667,0.933333333 Z M6.53333333,5.6 L7.46666667,5.6 C7.59553311,5.6 7.7,5.70446689 7.7,5.83333333 L7.7,11.4333333 C7.7,11.5621998 7.59553311,11.6666667 7.46666667,11.6666667 L6.53333333,11.6666667 C6.40446689,11.6666667 6.3,11.5621998 6.3,11.4333333 L6.3,5.83333333 C6.3,5.70446689 6.40446689,5.6 6.53333333,5.6 Z M7,4.66666667 C7.51546577,4.66666667 7.93333333,4.2487991 7.93333333,3.73333333 C7.93333333,3.21786757 7.51546577,2.8 7,2.8 C6.48453423,2.8 6.06666667,3.21786757 6.06666667,3.73333333 C6.06666667,4.2487991 6.48453423,4.66666667 7,4.66666667 Z" id="形状"></path>
            </g>
        </g>
    </g>
</svg>