<?xml version="1.0" encoding="UTF-8"?>
<svg width="14px" height="14px" viewBox="0 0 14 14" version="1.1" xmlns="http://www.w3.org/2000/svg" xmlns:xlink="http://www.w3.org/1999/xlink">
    <g id="2023" stroke="none" stroke-width="1" fill="none" fill-rule="evenodd">
        <g id="SQL窗口备份" transform="translate(-251.000000, -583.000000)" fill="#B3BEC5">
            <g id="mongo_offline" transform="translate(251.000000, 583.000000)">
                <path d="M7,0 C10.8659932,0 14,3.13400675 14,7 C14,10.8659932 10.8659932,14 7,14 C3.13400675,14 0,10.8659932 0,7 C0,3.13400675 3.13400675,0 7,0 Z M7.11051095,0.933333333 C6.13662882,2.07313131 5.57477375,2.79010101 5.42494573,3.08424242 C4.97546167,3.82878788 3.51463848,6.00727273 4.58216312,8.76484848 C5.34066747,10.3642424 5.93061529,10.9984848 6.82958341,11.6327273 C6.82958341,11.6327273 6.85767617,12.1107071 6.91386167,13.0666667 L7.33525298,13.0666667 L7.44762399,11.6327273 C8.62751965,10.7135354 9.39538825,9.70242424 9.75122979,8.59939394 C10.2849921,6.94484848 10.1164356,4.57333333 8.76798341,3.08424242 C8.11248583,2.20181818 7.55999501,1.48484848 7.11051095,0.933333333 Z M7.11051095,5.18 L7.41953124,11.2742424 L7.11051095,11.55 L6.82958341,11.2742424 L7.11051095,5.18 Z" id="形状结合"></path>
            </g>
        </g>
    </g>
</svg>