<?xml version="1.0" encoding="UTF-8"?>
<svg width="14px" height="14px" viewBox="0 0 14 14" version="1.1" xmlns="http://www.w3.org/2000/svg" xmlns:xlink="http://www.w3.org/1999/xlink">
    <g id="2023" stroke="none" stroke-width="1" fill="none" fill-rule="evenodd">
        <g id="SQL窗口备份" transform="translate(-769.000000, -453.000000)" fill="#FF6A00">
            <g id="PolarDBO" transform="translate(769.000000, 453.000000)">
                <path d="M7.11051524,0 C10.9052063,0 14,3.13155651 14,6.99994603 C14,10.8683571 10.9052063,14 7.18421365,14 L5.08419746,14 C5.12104667,13.7789048 5.19474508,13.5947235 5.26844349,13.3736283 L4.67892095,14 L4.56837333,14 L5.3052927,13.2262314 C5.34205556,13.078921 5.41575397,12.9315241 5.45260317,12.7842137 L4.27366603,14 L4.16311841,14 L5.52630159,12.6367952 L5.53963098,12.5837358 C5.57252523,12.4540427 5.60884381,12.3244003 5.67369841,12.1946911 L3.90523873,14 L3.79469111,14 L5.78415968,11.9736822 C5.8578581,11.8262854 5.8947073,11.678867 5.96840571,11.5315565 L3.57368222,13.9631508 L3.4631346,13.9631508 L6.04212571,11.3473105 C6.11582413,11.1631508 6.2262854,11.015754 6.29998381,10.8315727 L3.20525492,13.9631508 L3.0947073,13.9631508 L6.41053143,10.6104775 C6.50773735,10.4159896 6.63354616,10.2214349 6.76278732,10.0269164 L6.79810109,9.97386682 L6.81578635,9.94734286 L2.83684921,14 L2.72630159,14 L6.99996762,9.61578635 C8.36315079,7.69992984 10.278921,6.26311302 10.278921,6.26311302 L10.3526194,5.8947073 L2.39474508,14 L2.28417587,14 L10.3157702,5.93155651 L10.3894686,5.56315079 L10.4630806,5.48945238 C10.6841975,5.34205556 10.7947451,5.08417587 10.7947451,4.82631778 L10.792359,4.79515414 C10.7505547,4.28276041 10.5714173,3.60979444 10.4630806,3.57368222 C10.2052225,3.42626381 8.84212571,3.79469111 8.84212571,3.79469111 L8.74293292,3.72738249 L8.32630159,3.83154032 L8.21575397,3.53683302 C8.18089175,3.46708816 8.24497664,3.430345 8.34560085,3.45778913 L7.81047746,3.0947073 C7.66316698,2.98415968 7.44207175,2.94739683 7.25791206,2.98415968 L6.48422984,3.27895333 L4.90001619,3.27895333 C4.53161048,3.27895333 3.75784191,3.53683302 3.4631346,3.79469111 L2.8,4.19994603 L3.02100889,4.42104127 C3.13155651,4.49476127 2.98415968,4.60522254 2.91054762,4.53161048 C2.76315079,4.38419206 2.65260317,4.23679524 2.5052927,4.12633397 C2.17362825,3.83154032 1.65791206,3.83154032 1.28948476,4.12633397 C0.957928254,4.42104127 0.847380635,4.93677905 1.06838952,5.34205556 C1.17893714,5.52630159 1.36318317,5.67369841 1.51051524,5.82100889 C1.58421365,5.8947073 1.43681683,6.00525492 1.36318317,5.93155651 C1.32160971,5.87958968 1.27710479,5.83056118 1.2321508,5.78198667 L1.19532043,5.7422948 C1.09301524,5.63204101 0.991887554,5.52063248 0.921079047,5.37890476 L0,5.96840571 L0,1.43679524 C0,0.62626381 0.626285397,0 1.39996762,0 L7.11051524,0 Z M9.57893714,5.8947073 L1.47366603,14 L1.36318317,14 L9.43154032,5.93155651 C9.46838952,5.93155651 9.50523873,5.8947073 9.57893714,5.8947073 Z M10.2420717,5.63684921 L1.91577016,14 L1.80522254,14 L10.0579121,5.74731048 C10.0946749,5.71054762 10.1683733,5.67369841 10.2420717,5.63684921 Z M8.84212571,6.1525654 L1.17893714,13.8526032 L1.28948476,13.6315079 L8.6578581,6.26311302 C8.6947073,6.22626381 8.7684273,6.1894146 8.84212571,6.1525654 Z M7.99474508,6.59469111 L1.73161048,12.8578257 C1.76845968,12.7842137 1.84207175,12.6736444 1.87892095,12.599946 L7.77362825,6.70523873 L7.99474508,6.59469111 Z M5.01047746,8.28945238 L4.34736444,8.9525654 C4.31051524,8.9894146 4.23681683,9.02626381 4.19996762,9.02626381 L4.86316698,8.32630159 L5.01047746,8.28945238 Z M4.38421365,8.47369841 L3.83154032,9.02626381 L3.75784191,9.02626381 L4.23681683,8.54731048 L4.24279237,8.54729885 C4.27764973,8.54709539 4.31250709,8.54333145 4.34736444,8.47369841 L4.38421365,8.47369841 Z M3.38943619,8.91571619 L3.79469111,8.51046127 L3.8088442,8.52449564 C3.83022318,8.54525138 3.83599174,8.54712464 3.86050644,8.5472937 L3.86838952,8.54731048 L3.4631346,8.9525654 C3.4262854,8.9525654 3.4262854,8.91571619 3.38943619,8.91571619 Z M3.4631346,8.4 C3.49998381,8.4 3.53683302,8.43684921 3.53683302,8.43684921 L3.20525492,8.76840571 L3.2029946,8.76827943 C3.1949811,8.76756808 3.16840571,8.76284999 3.16840571,8.73155651 L3.4631346,8.4 Z M5.67369841,8.10520635 L5.34205556,8.4 L5.12104667,8.54731048 L5.52630159,8.14205556 L5.67369841,8.10520635 Z M3.20525492,8.21575397 L3.27897492,8.25260317 L3.02100889,8.51046127 L2.98415968,8.43684921 L3.20525492,8.21575397 Z M2.94739683,8.0315727 L3.02100889,8.10520635 L2.87369841,8.21575397 L2.83684921,8.17890476 L2.94739683,8.0315727 Z M6.2262854,7.92102508 L6.04212571,8.0315727 L6.07897492,7.95787429 L6.2262854,7.92102508 Z M2.70343651,7.88417587 L2.75426984,7.93500921 L2.75426984,7.98584254 L2.65260317,7.88417587 L2.70343651,7.88417587 Z M10.3157702,3.61053143 C10.3894686,3.57368222 10.4630806,3.61053143 10.4999298,3.68422984 L10.6473483,4.05263556 C10.6841975,4.16309683 10.6473483,4.31049365 10.536779,4.42104127 L10.0210629,4.86316698 L9.09998381,4.75261937 C8.95258698,4.75261937 8.80527651,4.64207175 8.7684273,4.49476127 L8.6578581,4.19994603 C8.62100889,4.12633397 8.6578581,4.05263556 8.7684273,4.01578635 L10.3157702,3.61053143 Z M5.78415968,3.94208794 C5.8947073,3.83154032 6.07897492,3.86838952 6.18943619,3.97893714 L6.5209927,4.38419206 L4.93677905,4.53161048 L5.78415968,3.94208794 Z" id="形状"></path>
            </g>
        </g>
    </g>
</svg>