<?xml version="1.0" encoding="UTF-8"?>
<svg width="14px" height="14px" viewBox="0 0 14 14" version="1.1" xmlns="http://www.w3.org/2000/svg" xmlns:xlink="http://www.w3.org/1999/xlink">
    <g id="2023" stroke="none" stroke-width="1" fill="none" fill-rule="evenodd">
        <g id="对象树对象图标" transform="translate(-269.000000, -215.000000)" fill="#1AB394" fill-rule="nonzero">
            <g id="DB备份-6" transform="translate(269.000000, 215.000000)">
                <path d="M0.937132435,9.33331336 C1.68501661,10.4106258 4.11623822,11.2 7,11.2 C9.88376178,11.2 12.3149834,10.4106258 13.0628676,9.33331336 L13.3,9.33331336 L13.3,11.4333333 C13.3,12.0697758 12.7314147,12.6521144 11.7899027,13.1006365 L11.6592215,13.1609616 L11.5240276,13.219583 C11.3408094,13.296589 11.1458511,13.3689318 10.9403286,13.4361322 L10.7842244,13.4855608 L10.7047212,13.5095379 L10.5428813,13.5559897 C10.4610307,13.5787092 10.3777979,13.6006634 10.2932449,13.6218272 L10.122397,13.6630931 C10.093635,13.6697925 10.064731,13.6764023 10.0356872,13.6829215 L9.85976519,13.7209411 L9.68059823,13.7567403 L9.49829659,13.7902743 L9.40600473,13.8061778 L9.21920781,13.8362297 L9.02955184,13.863904 C8.99771039,13.8683158 8.9657544,13.8726266 8.93368617,13.8768356 L8.73994836,13.9008593 L8.54362714,13.9223933 C8.51069777,13.9257723 8.47766536,13.9290457 8.4445322,13.9322125 L8.24454257,13.9499274 C8.11043463,13.960875 7.97478818,13.9700878 7.83775019,13.977506 L7.63116795,13.9872797 L7.52712855,13.9911431 L7.31762209,13.9967947 L7.10630398,13.999642 L6.89369602,13.999642 L6.68237791,13.9967947 L6.47287145,13.9911431 L6.36883205,13.9872797 L6.16224981,13.977506 C6.02521182,13.9700878 5.88956537,13.960875 5.75545743,13.9499274 L5.5554678,13.9322125 C5.52233464,13.9290457 5.48930223,13.9257723 5.45637286,13.9223933 L5.26005164,13.9008593 L5.06631383,13.8768356 L4.87526969,13.8503669 C4.84365959,13.8457542 4.81216633,13.8410415 4.78079219,13.8362297 L4.59399527,13.8061778 L4.50170341,13.7902743 L4.31940177,13.7567403 L4.14023481,13.7209411 L3.96431277,13.6829215 C3.93526896,13.6764023 3.90636496,13.6697925 3.87760305,13.6630931 L3.70675511,13.6218272 C3.62220209,13.6006634 3.53896928,13.5787092 3.45711868,13.5559897 L3.29527884,13.5095379 L3.21577559,13.4855608 L3.05967136,13.4361322 C2.85414891,13.3689318 2.6591906,13.296589 2.47597245,13.219583 L2.34077848,13.1609616 L2.21009733,13.1006365 C1.28998332,12.6623081 0.726037414,12.0961766 0.700878775,11.4766424 L0.7,9.33331336 L0.937132435,9.33331336 Z M0.937132435,5.59998002 C1.68501661,6.67729248 4.11623822,7.46666667 7,7.46666667 C9.88376178,7.46666667 12.3149834,6.67729248 13.0628676,5.59998002 L13.3,5.59998002 L13.3,7.7 C13.3,8.33644243 12.7314147,8.91878106 11.7899027,9.36730313 L11.6592215,9.42762831 L11.5240276,9.48624968 C11.3408094,9.56325568 11.1458511,9.63559844 10.9403286,9.70279883 L10.7842244,9.75222745 L10.7047212,9.77620458 L10.5428813,9.8226564 C10.4610307,9.84537588 10.3777979,9.86733011 10.2932449,9.88849382 L10.122397,9.92975973 C10.093635,9.93645921 10.064731,9.94306899 10.0356872,9.94958812 L9.85976519,9.98760773 L9.68059823,10.023407 L9.49829659,10.056941 L9.40600473,10.0728445 L9.21920781,10.1028964 L9.02955184,10.1305707 C8.99771039,10.1349825 8.9657544,10.1392933 8.93368617,10.1435022 L8.73994836,10.167526 L8.54362714,10.1890599 C8.51069777,10.1924389 8.47766536,10.1957123 8.4445322,10.1988792 L8.24454257,10.2165941 C8.11043463,10.2275417 7.97478818,10.2367545 7.83775019,10.2441726 L7.63116795,10.2539464 L7.52712855,10.2578098 L7.31762209,10.2634613 L7.10630398,10.2663086 L6.89369602,10.2663086 L6.68237791,10.2634613 L6.47287145,10.2578098 L6.36883205,10.2539464 L6.16224981,10.2441726 C6.02521182,10.2367545 5.88956537,10.2275417 5.75545743,10.2165941 L5.5554678,10.1988792 C5.52233464,10.1957123 5.48930223,10.1924389 5.45637286,10.1890599 L5.26005164,10.167526 L5.06631383,10.1435022 L4.87526969,10.1170335 C4.84365959,10.1124208 4.81216633,10.1077081 4.78079219,10.1028964 L4.59399527,10.0728445 L4.50170341,10.056941 L4.31940177,10.023407 L4.14023481,9.98760773 L3.96431277,9.94958812 C3.93526896,9.94306899 3.90636496,9.93645921 3.87760305,9.92975973 L3.70675511,9.88849382 C3.62220209,9.86733011 3.53896928,9.84537588 3.45711868,9.8226564 L3.29527884,9.77620458 L3.21577559,9.75222745 L3.05967136,9.70279883 C2.85414891,9.63559844 2.6591906,9.56325568 2.47597245,9.48624968 L2.34077848,9.42762831 L2.21009733,9.36730313 C1.28998332,8.92897474 0.726037414,8.36284324 0.700878775,7.74330903 L0.7,5.59998002 L0.937132435,5.59998002 Z M7.10630398,0.000358019604 L7.31762209,0.00320533255 L7.52712855,0.00885691294 L7.63116795,0.0127202668 L7.83775019,0.022494029 C7.97478818,0.0299121861 8.11043463,0.0391249932 8.24454257,0.0500725607 L8.4445322,0.0677874963 C8.47766536,0.0709543352 8.51069777,0.0742277251 8.54362714,0.0776067303 L8.73994836,0.0991406576 L8.93368617,0.123164433 L9.12473031,0.14963314 C9.15634041,0.15424584 9.18783367,0.15895854 9.21920781,0.163770306 L9.40600473,0.193822189 L9.49829659,0.209725678 L9.68059823,0.243259676 L9.85976519,0.279058937 L10.0356872,0.317078544 C10.064731,0.323597678 10.093635,0.330207456 10.122397,0.33690694 L10.2932449,0.378172846 C10.3777979,0.399336556 10.4610307,0.421290786 10.5428813,0.444010269 L10.7047212,0.49046209 L10.7842244,0.514439217 L10.9403286,0.563867835 C11.1458511,0.63106823 11.3408094,0.703410986 11.5240276,0.780416987 L11.6592215,0.83903836 L11.7899027,0.899363533 C12.7100167,1.33769192 13.2739626,1.90382342 13.2991212,2.52335764 L13.3,2.56666667 L13.3,3.96666667 C13.3,4.60310909 12.7314147,5.18544773 11.7899027,5.6339698 L11.6592215,5.69429497 L11.5240276,5.75291635 C11.3408094,5.82992235 11.1458511,5.9022651 10.9403286,5.9694655 L10.7842244,6.01889412 L10.7047212,6.04287124 L10.5428813,6.08932306 C10.4610307,6.11204255 10.3777979,6.13399678 10.2932449,6.15516049 L10.122397,6.19642639 C10.093635,6.20312588 10.064731,6.20973566 10.0356872,6.21625479 L9.85976519,6.2542744 L9.68059823,6.29007366 L9.49829659,6.32360766 L9.40600473,6.33951114 L9.21920781,6.36956303 L9.02955184,6.39723736 C8.99771039,6.40164912 8.9657544,6.40595995 8.93368617,6.4101689 L8.73994836,6.43419268 L8.54362714,6.4557266 C8.51069777,6.45910561 8.47766536,6.462379 8.4445322,6.46554584 L8.24454257,6.48326077 C8.11043463,6.49420834 7.97478818,6.50342115 7.83775019,6.5108393 L7.63116795,6.52061307 L7.52712855,6.52447642 L7.31762209,6.530128 L7.10630398,6.53297531 L6.89369602,6.53297531 L6.68237791,6.530128 L6.47287145,6.52447642 L6.36883205,6.52061307 L6.16224981,6.5108393 C6.02521182,6.50342115 5.88956537,6.49420834 5.75545743,6.48326077 L5.5554678,6.46554584 C5.52233464,6.462379 5.48930223,6.45910561 5.45637286,6.4557266 L5.26005164,6.43419268 L5.06631383,6.4101689 L4.87526969,6.38370019 C4.84365959,6.37908749 4.81216633,6.37437479 4.78079219,6.36956303 L4.59399527,6.33951114 L4.50170341,6.32360766 L4.31940177,6.29007366 L4.14023481,6.2542744 L3.96431277,6.21625479 C3.93526896,6.20973566 3.90636496,6.20312588 3.87760305,6.19642639 L3.70675511,6.15516049 C3.62220209,6.13399678 3.53896928,6.11204255 3.45711868,6.08932306 L3.29527884,6.04287124 L3.21577559,6.01889412 L3.05967136,5.9694655 C2.85414891,5.9022651 2.6591906,5.82992235 2.47597245,5.75291635 L2.34077848,5.69429497 L2.21009733,5.6339698 C1.28998332,5.19564141 0.726037414,4.62950991 0.700878775,4.00997569 L0.700878775,2.52335764 C0.726299484,1.89736994 1.30179065,1.32590331 2.23896663,0.885707458 L2.37206374,0.82514445 C2.41719926,0.805245911 2.46309826,0.785639077 2.50974179,0.76633167 L2.65188704,0.709315455 C2.79622798,0.653212966 2.94709913,0.599874827 3.10398868,0.549509546 L3.26286541,0.50014294 C3.37009538,0.467902802 3.47992437,0.437014824 3.59220075,0.407540787 L3.7624319,0.364397909 C3.79110336,0.357386747 3.81992305,0.350465886 3.84888859,0.343636292 L4.0244131,0.303761661 C4.05395257,0.297300998 4.08363316,0.290933533 4.11345249,0.284660231 L4.29401447,0.248158101 L4.4777926,0.213962224 L4.66467314,0.182118935 L4.85454236,0.15267457 L5.04728653,0.125675464 C5.1120011,0.117088453 5.17717588,0.108916709 5.24279191,0.101167952 L5.44094478,0.0791983709 C5.50742435,0.0723033137 5.5743262,0.0658389674 5.6416314,0.0598130545 L5.84473804,0.0430583388 C5.8787845,0.0404876771 5.91292705,0.0380285544 5.94716333,0.035681936 L6.15368675,0.02296 C6.29209356,0.0153890407 6.43192417,0.00964904067 6.57302692,0.0058017805 L6.78561622,0.00145816769 L6.83904837,0.000820369354 L7.10630398,0.000358019604 Z" id="形状结合"></path>
            </g>
        </g>
    </g>
</svg>