<?xml version="1.0" encoding="UTF-8"?>
<svg width="60px" height="60px" viewBox="0 0 60 60" version="1.1" xmlns="http://www.w3.org/2000/svg" xmlns:xlink="http://www.w3.org/1999/xlink">
    <g id="页面-1" stroke="none" stroke-width="1" fill="" fill-rule="evenodd">
        <g id="首页ICON" transform="translate(-380.000000, -285.000000)" fill="">
            <g id="平台管理" transform="translate(380.000000, 285.000000)">
                <path d="M48,56 C49.1045695,56 50,56.8954305 50,58 C50,59.1045695 49.1045695,60 48,60 L12,60 C10.8954305,60 10,59.1045695 10,58 C10,56.8954305 10.8954305,56 12,56 L48,56 Z M56,2 C58.209139,2 60,3.790861 60,6 L60,6 L60,48 C60,50.209139 58.209139,52 56,52 L56,52 L4,52 C1.790861,52 0,50.209139 0,48 L0,48 L0,6 C0,3.790861 1.790861,2 4,2 L4,2 Z M56,6 L4,6 L4,48 L56,48 L56,6 Z M21,34 C23.6231015,34 25.8530534,35.6832737 26.6686052,38.0285706 C26.7760807,38.0093805 26.8869449,38 27,38 L48,38 C49.1045695,38 50,38.8954305 50,40 C50,41.1045695 49.1045695,42 48,42 L27,42 C26.8869449,42 26.7760807,41.9906195 26.6681433,41.9725944 C25.8530534,44.3167263 23.6231015,46 21,46 C18.3878187,46 16.1655203,44.3307123 15.3416539,42.0006859 L12,42 C10.8954305,42 10,41.1045695 10,40 C10,38.8954305 10.8954305,38 12,38 L15.3412977,38.0003218 C16.1648796,35.669769 18.3874421,34 21,34 Z M21,38 C19.8954305,38 19,38.8954305 19,40 C19,41.1045695 19.8954305,42 21,42 C22.1045695,42 23,41.1045695 23,40 C23,38.8954305 22.1045695,38 21,38 Z M36,21 C38.6125579,21 40.8351204,22.669769 41.6587023,25.0003218 L48,25 C49.1045695,25 50,25.8954305 50,27 C50,28.1045695 49.1045695,29 48,29 L41.6583461,29.0006859 C40.8344797,31.3307123 38.6121813,33 36,33 C33.3878187,33 31.1655203,31.3307123 30.3416539,29.0006859 L12,29 C10.8954305,29 10,28.1045695 10,27 C10,25.8954305 10.8954305,25 12,25 L30.3412977,25.0003218 C31.1648796,22.669769 33.3874421,21 36,21 Z M36,25 C34.8954305,25 34,25.8954305 34,27 C34,28.1045695 34.8954305,29 36,29 C37.1045695,29 38,28.1045695 38,27 C38,25.8954305 37.1045695,25 36,25 Z M21,8 C23.6231015,8 25.8530534,9.68327368 26.6686052,12.0285706 C26.7760807,12.0093805 26.8869449,12 27,12 L48,12 C49.1045695,12 50,12.8954305 50,14 C50,15.1045695 49.1045695,16 48,16 L27,16 C26.8869449,16 26.7760807,15.9906195 26.6681433,15.9725944 C25.8530534,18.3167263 23.6231015,20 21,20 C18.3878187,20 16.1655203,18.3307123 15.3416539,16.0006859 L12,16 C10.8954305,16 10,15.1045695 10,14 C10,12.8954305 10.8954305,12 12,12 L15.3412977,12.0003218 C16.1648796,9.66976896 18.3874421,8 21,8 Z M21,12 C19.8954305,12 19,12.8954305 19,14 C19,15.1045695 19.8954305,16 21,16 C22.1045695,16 23,15.1045695 23,14 C23,12.8954305 22.1045695,12 21,12 Z" id="形状结合"></path>
            </g>
        </g>
    </g>
</svg>