<?xml version="1.0" encoding="UTF-8"?>
<svg width="14px" height="14px" viewBox="0 0 14 14" version="1.1" xmlns="http://www.w3.org/2000/svg" xmlns:xlink="http://www.w3.org/1999/xlink">
    <title>系统配置</title>
    <g id="页面-1" stroke="none" stroke-width="1" fill="" fill-rule="evenodd">
        <g id="配置管理" transform="translate(-20.000000, -174.000000)" fill="" fill-rule="nonzero">
            <g id="形状" transform="translate(20.000000, 174.000000)">
                <path d="M8.44204576,0 C8.76181927,0 9.03899145,0.216303846 9.11911997,0.522259201 L9.12844137,0.562664433 L9.3478,1.65876667 L9.36339346,1.66541441 C9.74273503,1.83370507 10.1027348,2.04210988 10.4375062,2.28664964 L10.4507667,2.29646667 L11.510623,1.93806565 C11.8129609,1.83578832 12.144149,1.9512343 12.3183857,2.2143619 L12.3411549,2.25115174 L13.7832007,4.74884826 C13.9424555,5.02468566 13.8947309,5.37121894 13.6720862,5.59371658 L13.6390933,5.62463715 L12.7983333,6.36323333 L12.8029611,6.4014186 C12.8181097,6.54989305 12.8276198,6.6993465 12.831428,6.8495521 L12.8333333,7 C12.8333333,7.18825621 12.8244003,7.3754945 12.8066459,7.56128115 C12.7821277,7.81784517 12.5542656,8.00595549 12.2977015,7.98143731 C12.0411375,7.95691912 11.8530272,7.72905697 11.8775454,7.47249295 C11.8924806,7.3162072 11.9,7.15859851 11.9,7 C11.9,6.74621784 11.8807468,6.49503011 11.8426963,6.24783905 C11.8204814,6.10352217 11.8671504,5.95795607 11.9672407,5.85369791 L11.9958509,5.82632001 L12.8790667,5.0498 L11.6284,2.8833 L10.5136342,3.26048079 C10.3750646,3.30734161 10.2233524,3.2863195 10.1033079,3.20538362 L10.0713873,3.18183072 C9.67901407,2.86576105 9.24035361,2.61163103 8.77036307,2.42944625 C8.63407594,2.37661659 8.53116325,2.26335105 8.49085593,2.12440639 L8.48143718,2.08590183 L8.25066667,0.933333333 L5.7491,0.933333333 L5.51881117,2.08574014 C5.49014441,2.22910105 5.39618462,2.34994117 5.26617853,2.41348114 L5.22985059,2.42936343 C4.7597796,2.61155392 4.32104566,2.86571294 3.92861271,3.18183072 C3.81469632,3.27359415 3.66503857,3.30616828 3.52444973,3.27158395 L3.48636584,3.26048079 L2.37136667,2.88353333 L1.1207,5.04956667 L2.00413403,5.82604159 C2.11384512,5.92244056 2.17152538,6.06404027 2.16170115,6.20826018 L2.15733653,6.24762585 C2.11926432,6.49488561 2.1,6.74614482 2.1,7 C2.1,7.25385518 2.11926432,7.50511439 2.15733653,7.75237415 C2.17956218,7.89671855 2.13287665,8.04231371 2.03275359,8.14657909 L2.00413403,8.17395841 L1.1207,8.94996667 L2.37136667,11.1164667 L3.48636584,10.7395192 C3.62493545,10.6926584 3.77664764,10.7136805 3.89669212,10.7946164 L3.92861271,10.8181693 C4.32104566,11.1342871 4.7597796,11.3884461 5.22985059,11.5706366 C5.36616884,11.6234709 5.46909959,11.7367671 5.5093961,11.8757459 L5.51881117,11.9142599 L5.7491,13.0666667 L7,13.0666667 C7.24601775,13.0666667 7.44757186,13.2570382 7.46538666,13.4985055 L7.46666667,13.5333333 C7.46666667,13.7793511 7.27629518,13.9809052 7.03482788,13.99872 L7,14 L5.55795424,14 C5.23818073,14 4.96100855,13.7836962 4.88086754,13.4776784 L4.87154444,13.4372646 L4.6522,12.341 L4.63681755,12.3346792 C4.25741145,12.166378 3.89735181,11.9579497 3.56252777,11.7133752 L3.549,11.7033 L2.48937698,12.0619343 C2.18703906,12.1642117 1.85585102,12.0487657 1.68161431,11.7856381 L1.65884505,11.7488483 L0.216799295,9.25115174 C0.0575445002,8.97531434 0.105269051,8.62878106 0.327958204,8.40624439 L0.360957719,8.37531798 L1.20143333,7.63653333 L1.19705632,7.59875235 C1.18189906,7.45023593 1.17238351,7.30073985 1.16857306,7.15049116 L1.16666667,7 C1.16666667,6.79903305 1.17684664,6.59926954 1.19705632,6.40124765 L1.20143333,6.36323333 L0.360924753,5.62465305 C0.121676367,5.41439471 0.0558380357,5.0708423 0.195453173,4.7887135 L0.216799295,4.74884826 L1.65884505,2.25115174 C1.81842957,1.97474325 2.14341094,1.84283268 2.44794854,1.92544844 L2.48933223,1.93805051 L3.549,2.29646667 L3.56252777,2.28662483 C3.89735181,2.04205033 4.25741145,1.83362203 4.63681755,1.6653208 L4.6522,1.65876667 L4.87154777,0.562718705 C4.93426052,0.249154973 5.20072182,0.0197859723 5.51649894,0.0012162703 L5.55795424,0 L8.44204576,0 Z M13.5333333,13.0666667 C13.7910662,13.0666667 14,13.2756005 14,13.5333333 C14,13.7910662 13.7910662,14 13.5333333,14 L8.86666667,14 C8.60893378,14 8.4,13.7910662 8.4,13.5333333 C8.4,13.2756005 8.60893378,13.0666667 8.86666667,13.0666667 L13.5333333,13.0666667 Z M13.5333333,10.9666667 C13.7910662,10.9666667 14,11.1756005 14,11.4333333 C14,11.6910662 13.7910662,11.9 13.5333333,11.9 L8.86666667,11.9 C8.60893378,11.9 8.4,11.6910662 8.4,11.4333333 C8.4,11.1756005 8.60893378,10.9666667 8.86666667,10.9666667 L13.5333333,10.9666667 Z M7,3.96666667 C8.67526374,3.96666667 10.0333333,5.32473626 10.0333333,7 C10.0333333,7.30150577 9.98919431,7.59761838 9.90325091,7.88111476 C9.82847826,8.12776287 9.56791525,8.26709546 9.32126714,8.1923228 C9.07461903,8.11755015 8.93528645,7.85698714 9.0100591,7.61033903 C9.0694593,7.41439911 9.1,7.20951271 9.1,7 C9.1,5.84020203 8.15979797,4.9 7,4.9 C5.84020203,4.9 4.9,5.84020203 4.9,7 C4.9,8.15979797 5.84020203,9.1 7,9.1 C7.25773288,9.1 7.46666667,9.30893378 7.46666667,9.56666667 C7.46666667,9.82439955 7.25773288,10.0333333 7,10.0333333 C5.32473626,10.0333333 3.96666667,8.67526374 3.96666667,7 C3.96666667,5.32473626 5.32473626,3.96666667 7,3.96666667 Z M13.5333333,8.86666667 C13.7910662,8.86666667 14,9.07560045 14,9.33333333 C14,9.59106622 13.7910662,9.8 13.5333333,9.8 L8.86666667,9.8 C8.60893378,9.8 8.4,9.59106622 8.4,9.33333333 C8.4,9.07560045 8.60893378,8.86666667 8.86666667,8.86666667 L13.5333333,8.86666667 Z"></path>
            </g>
        </g>
    </g>
</svg>