<?xml version="1.0" standalone="no"?><!DOCTYPE svg PUBLIC "-//W3C//DTD SVG 1.1//EN" "http://www.w3.org/Graphics/SVG/1.1/DTD/svg11.dtd"><svg t="1673423239560" class="icon" viewBox="0 0 1024 1024" version="1.1" xmlns="http://www.w3.org/2000/svg" p-id="3682" xmlns:xlink="http://www.w3.org/1999/xlink" width="200" height="200"><path d="M288 160h640v96H288zM288 464h640v96H288zM288 768h640v96H288z" p-id="3683"></path><path d="M160 208m-64 0a64 64 0 1 0 128 0 64 64 0 1 0-128 0Z" p-id="3684"></path><path d="M160 512m-64 0a64 64 0 1 0 128 0 64 64 0 1 0-128 0Z" p-id="3685"></path><path d="M160 816m-64 0a64 64 0 1 0 128 0 64 64 0 1 0-128 0Z" p-id="3686"></path></svg>