<?xml version="1.0" encoding="UTF-8"?>
<svg width="14px" height="14px" viewBox="0 0 14 14" version="1.1" xmlns="http://www.w3.org/2000/svg" xmlns:xlink="http://www.w3.org/1999/xlink">
    <g id="2023" stroke="none" stroke-width="1" fill="none" fill-rule="evenodd">
        <g id="SQL窗口备份" transform="translate(-251.000000, -505.000000)" fill="#B3BEC5">
            <g id="greatdb_offline" transform="translate(251.000000, 505.000000)">
                <path d="M12.7009973,6.88297798 L12.8020211,9.97810087 C13.5525814,9.09582807 14,8.04002089 14,6.89745536 C14,3.86018902 10.8680522,1.4014 7.01445588,1.4014 C6.09072456,1.4014 5.75872393,1.44477918 4.47423879,2.26921308 C3.16084191,3.10803609 2.56904074,4.68453465 2.33815196,5.43668758 C2.00615133,6.52137889 1.96286299,8.37271818 3.68039012,8.87893217 C5.39789964,9.38512852 7.79378701,6.66601146 7.79378701,6.66601146 L7.75049866,10.6579022 C7.75049866,10.6579022 7.43296272,10.8314189 6.17730124,10.8603913 C4.92165739,10.8892931 3.92579644,10.5566665 2.84330596,9.83348596 C1.76079786,9.09582807 1.21235551,8.02559647 1.27010854,6.20317664 C1.35668523,3.8312166 2.54021708,3.18038769 2.98761806,2.3849262 C1.32784395,3.09362933 0,5.13296271 0,6.88297798 C0,9.92024431 3.13194777,12.3790333 6.98554412,12.3790333 C7.30309769,12.3790333 7.60618657,12.3645383 7.90927544,12.3356542 L7.96701085,6.46352233 L10.9401818,6.07303911 L10.9401818,11.4244619 C10.9979173,11.3955071 11.0701174,11.352128 11.1277999,11.3232262 L11.1277999,6.15979747 L12.7009973,6.88297798 Z M10.9401818,5.95730833 L7.96701085,6.2610332 L7.96701085,5.2486052 L9.15047224,5.14736947 L9.15047224,5.56682511 L10.0453623,5.49447351 L10.0453623,5.03170931 L10.9401818,4.94488034 L10.9401818,5.95730833 Z M11.0989586,5.04613373 L11.5752714,5.26310024 L11.5752714,5.63917671 L12.1237137,5.84164818 L12.1237137,5.52344593 L12.614403,5.74041244 L12.614403,6.63710967 L11.0989586,5.94290157 L11.0989586,5.04613373 Z" id="Fill-1"></path>
            </g>
        </g>
    </g>
</svg>