<?xml version="1.0" encoding="UTF-8"?>
<svg width="14px" height="14px" viewBox="0 0 14 14" version="1.1" xmlns="http://www.w3.org/2000/svg" xmlns:xlink="http://www.w3.org/1999/xlink">
    <g id="2023" stroke="none" stroke-width="1" fill="none" fill-rule="evenodd">
        <g id="SQL窗口备份" transform="translate(-769.000000, -427.000000)" fill-rule="nonzero">
            <g id="GBase8s" transform="translate(769.000000, 427.000000)">
                <g id="编组-5" transform="translate(0.934267, 0.000000)">
                    <path d="M5.848733,0.0605046564 C5.98732175,-0.0201682188 6.15807012,-0.0201682188 6.29665887,0.0605046564 L11.9214289,3.3346982 C12.1356686,3.45940766 12.2090725,3.73560978 12.0853812,3.9516129 C11.9616899,4.16761602 11.6877427,4.24162416 11.4735031,4.1169147 L6.07269594,0.973 L0.895792761,3.9866129 L0.895792761,10.0131613 L6.07269594,13.0267742 L11.4735031,9.8830853 C11.6775408,9.76431439 11.9357351,9.82578619 12.0667115,10.0185016 L12.0853812,10.0483871 C12.2090725,10.2643902 12.1356686,10.5405923 11.9214289,10.6653018 L6.29665887,13.9394953 C6.15807012,14.0201682 5.98732175,14.0201682 5.848733,13.9394953 L0.223962932,10.6653018 C0.0853741874,10.5846289 0,10.4355393 0,10.2741935 L0,3.72580645 C0,3.5644607 0.0853741874,3.41537108 0.223962932,3.3346982 L5.848733,0.0605046564 Z" id="路径" fill="#979797"></path>
                    <polygon id="路径-3" fill="#979797" points="6.29658752 0.673389666 6.40856899 3.83467999 6.18474875 3.84273937 6.07276729 0.681449044"></polygon>
                    <polygon id="路径-4" fill="#979797" points="0.424938796 3.94038486 0.522306472 3.73703449 3.97866239 5.41935484 0.731180006 6.99977419 3.97866239 8.58064516 0.522306472 10.2629655 0.424938796 10.0596151 3.46330381 8.58064516 0.216045391 7 3.46330381 5.41935484"></polygon>
                    <polygon id="路径-5" fill="#979797" points="6.41070966 10.1612903 6.41070966 13.5483871 6.1846774 13.5483871 6.1846774 10.1612903"></polygon>
                    <polygon id="路径-6" fill="#979797" points="11.6186788 3.73930165 11.7248596 3.9381177 8.99653202 5.41912903 11.9079673 7 8.99653202 8.58041935 11.7248596 10.0618823 11.6186788 10.2606983 8.52405305 8.58064516 11.4352644 6.99977419 8.52405305 5.41935484"></polygon>
                    <path d="M6.12198561,3.54938436 C6.23133798,3.48227415 6.36901574,3.48365817 6.47701918,3.55295337 L8.94061144,5.13359853 C9.15169232,5.2690284 9.14713226,5.58123723 8.93218763,5.71034179 L6.83148235,6.97177419 L8.93772323,8.29305649 C9.13862556,8.41908352 9.14877857,8.70607868 8.96664048,8.84797946 L8.94061144,8.86640147 L6.47701918,10.4470466 C6.37271584,10.5139678 6.24038474,10.5177207 6.1325153,10.4568166 L3.33297865,8.87617139 C3.10741541,8.74881623 3.10308545,8.42306398 3.32518263,8.28966006 L5.53988812,6.95935484 L3.54359679,5.70693332 C3.34033532,5.57941019 3.3328925,5.28805952 3.51972998,5.14814107 L3.54641189,5.13002952 L6.12198561,3.54938436 Z M6.18176589,7.36196774 L4.16833913,8.5713871 L6.28546072,9.76680645 L8.12934754,8.58380645 L6.18176589,7.36196774 Z M6.29262754,4.23748387 L4.3618431,5.42251613 L6.18960459,6.56916129 L8.11949317,5.40987097 L6.29262754,4.23748387 Z" id="路径-2" fill="#E30315"></path>
                </g>
            </g>
        </g>
    </g>
</svg>