<?xml version="1.0" encoding="UTF-8"?>
<svg width="14px" height="14px" viewBox="0 0 14 14" version="1.1" xmlns="http://www.w3.org/2000/svg" xmlns:xlink="http://www.w3.org/1999/xlink">
    <g id="2023" stroke="none" stroke-width="1" fill="none" fill-rule="evenodd">
        <g id="SQL窗口备份" transform="translate(-769.000000, -375.000000)">
            <g id="oceanbase" transform="translate(769.000000, 375.000000)">
                <g id="编组-4" transform="translate(0.000000, 2.802800)">
                    <path d="M12.7606161,4.04684262 C13.4633918,3.57184352 13.9011819,2.78695587 13.9399908,1.93243568 C13.9399908,0.56669719 12.3807854,0.354203314 12.3807854,0.354203314 L8.65261921,0.354203314 L7.2733049,8.31622279 L11.1414015,8.31622279 C12.6850482,8.34445914 13.9617963,7.10640667 14,5.54417951 C13.997267,4.80797932 13.4761979,4.17852006 12.7606161,4.04684262 Z M10.3817987,2.02350731 L11.3813018,2.02350731 C11.7048519,2.1018538 11.9248402,2.40587378 11.9010629,2.74178561 C11.8533913,3.13513837 11.6128078,3.47761037 11.2613419,3.65236356 L10.1418984,3.65236356 L10.3817987,2.02350731 Z M10.8815112,6.72781427 L9.51219191,6.72781427 L9.77206272,5.10915392 L11.0014711,5.10915392 C11.0014711,5.10915392 11.8909898,5.10915392 11.8909898,5.81733511 C11.8909898,6.5255163 11.0014711,6.68736653 10.8815112,6.68736653 L10.8815112,6.72781427 Z" id="Fill-3" fill="#060D27"></path>
                    <path d="M2.09589821,1.07250138 C0.00693666671,2.62038312 -0.612794317,5.28112102 0.656652744,7.01108674 C1.9260022,8.7411315 4.6546067,8.88276774 6.653652,7.33488599 L6.87350364,7.15272298 L7.87306534,1.08261825 C6.54368713,-0.333744128 4.00496871,-0.384308739 2.09589821,1.07250138 Z M5.5741691,5.82745199 C4.66214201,6.64006224 3.27513621,6.56357314 2.45575838,5.65548489 C1.85394817,4.60497001 2.18597062,3.26063108 3.20534668,2.62038312 C4.11212247,1.8033665 5.50043622,1.88017175 6.31378189,2.79235022 C6.91184396,3.84106698 6.58540468,5.18054507 5.5741691,5.82745199 Z" id="Fill-1" fill="#2B66B0"></path>
                </g>
            </g>
        </g>
    </g>
</svg>