<?xml version="1.0" encoding="UTF-8"?>
<svg width="14px" height="14px" viewBox="0 0 14 14" version="1.1" xmlns="http://www.w3.org/2000/svg" xmlns:xlink="http://www.w3.org/1999/xlink">
    <g id="2023" stroke="none" stroke-width="1" fill="none" fill-rule="evenodd">
        <g id="对象树对象图标" transform="translate(-278.000000, -239.000000)">
            <g id="schema" transform="translate(278.000000, 239.000000)">
                <g id="编组-6" transform="translate(0.000000, 0.466667)">
                    <path d="M3.26666667,10.9666667 C3.13780023,10.9666667 3.03333333,10.8621998 3.03333333,10.7333333 L3.03333333,2.33333333 C3.03333333,2.20446689 3.13780023,2.1 3.26666667,2.1 L11.2,2.1 L11.2,3.03333333 L3.96666667,3.03333333 L3.96666667,10.0333333 L11.6666667,10.0333333 L11.6666667,10.9666667 L3.26666667,10.9666667 Z" id="路径" fill="#9BA3AF"></path>
                    <path d="M9.56666667,0 L13.7666667,0 C13.8955331,0 14,0.116074324 14,0.259259259 L14,4.40740741 C14,4.55059234 13.8955331,4.66666667 13.7666667,4.66666667 L9.56666667,4.66666667 C9.43780023,4.66666667 9.33333333,4.55059234 9.33333333,4.40740741 L9.33333333,0.259259259 C9.33333333,0.116074324 9.43780023,0 9.56666667,0 Z M0.233333333,7 L6.76666667,7 C6.89553311,7 7,7.11317247 7,7.25277778 L7,12.8138889 C7,12.9534942 6.89553311,13.0666667 6.76666667,13.0666667 L0.233333333,13.0666667 C0.104466892,13.0666667 0,12.9534942 0,12.8138889 L0,7.25277778 C0,7.11317247 0.104466892,7 0.233333333,7 Z M9.56666667,8.4 L13.7666667,8.4 C13.8955331,8.4 14,8.51607432 14,8.65925926 L14,12.8074074 C14,12.9505923 13.8955331,13.0666667 13.7666667,13.0666667 L9.56666667,13.0666667 C9.43780023,13.0666667 9.33333333,12.9505923 9.33333333,12.8074074 L9.33333333,8.65925926 C9.33333333,8.51607432 9.43780023,8.4 9.56666667,8.4 Z" id="形状" fill="#1AB394"></path>
                </g>
            </g>
        </g>
    </g>
</svg>