<?xml version="1.0" encoding="UTF-8"?>
<svg width="20px" height="18px" viewBox="0 0 20 18" version="1.1" xmlns="http://www.w3.org/2000/svg" xmlns:xlink="http://www.w3.org/1999/xlink">
    <g id="页面-1" stroke="none" stroke-width="1" fill="none" fill-rule="evenodd">
        <g id="定-首页1600" transform="translate(-220.000000, -16.000000)">
            <g id="顶部" transform="translate(200.000000, 0.000000)">
                <g id="编组-3" transform="translate(20.000000, 16.000000)">
                    <path d="M19,16 C19.5522847,16 20,16.4477153 20,17 C20,17.5522847 19.5522847,18 19,18 L1,18 C0.44771525,18 6.76353751e-17,17.5522847 0,17 C-6.76353751e-17,16.4477153 0.44771525,16 1,16 L19,16 Z M19,10.6666667 C19.5522847,10.6666667 20,11.1143819 20,11.6666667 C20,12.2189514 19.5522847,12.6666667 19,12.6666667 L12,12.6666667 C11.4477153,12.6666667 11,12.2189514 11,11.6666667 C11,11.1143819 11.4477153,10.6666667 12,10.6666667 L19,10.6666667 Z M19,5.33333333 C19.5522847,5.33333333 20,5.78104858 20,6.33333333 C20,6.88561808 19.5522847,7.33333333 19,7.33333333 L12,7.33333333 C11.4477153,7.33333333 11,6.88561808 11,6.33333333 C11,5.78104858 11.4477153,5.33333333 12,5.33333333 L19,5.33333333 Z M19,1.77635684e-15 C19.5522847,1.67490378e-15 20,0.44771525 20,1 C20,1.55228475 19.5522847,2 19,2 L1,2 C0.44771525,2 6.76353751e-17,1.55228475 0,1 C-6.76353751e-17,0.44771525 0.44771525,1.8778099e-15 1,1.77635684e-15 L19,1.77635684e-15 Z" id="形状结合" fill="#9BA3AF"></path>
                    <polygon id="路径" fill="#1AB394" points="7 3.9038601 0 8.90394455 7 13.9038601"></polygon>
                </g>
            </g>
        </g>
    </g>
</svg>