<?xml version="1.0" encoding="UTF-8"?>
<svg width="12px" height="12px" viewBox="0 0 12 12" version="1.1" xmlns="http://www.w3.org/2000/svg" xmlns:xlink="http://www.w3.org/1999/xlink">
    <title></title>
    <g id="页面-1" stroke="none" stroke-width="1" fill="" fill-rule="evenodd">
        <g id="TAB页" transform="translate(-597.000000, -257.000000)" fill="">
            <g id="编组备份-2" transform="translate(490.000000, 72.000000)">
                <g id="说明" transform="translate(107.000000, 185.000000)">
                    <path d="M5.99829289,0.00334728033 C2.68585774,0.00334728033 5.54223334e-13,2.68920502 5.54223334e-13,6.00164017 C5.54223334e-13,9.31414226 2.68585774,12.0000167 5.99829289,12.0000167 C9.31079498,12.0000167 11.9966695,9.31414226 11.9966695,6.00164017 C11.9966695,2.68920502 9.31079498,0.00334728033 5.99829289,0.00334728033 Z M7.12304603,4.59715481 L5.958159,8.63266946 C5.89389121,8.86291213 5.86172385,9.01556485 5.86172385,9.08651046 C5.86172385,9.12801674 5.87917992,9.16686192 5.91265272,9.20301255 C5.94612552,9.23916318 5.98227615,9.2565523 6.02112134,9.2565523 C6.08538912,9.2565523 6.14964017,9.22843515 6.21390795,9.17091213 C6.38394979,9.03027615 6.58878661,8.77720502 6.82714644,8.41037657 L7.01993305,8.52420084 C6.44821757,9.52035146 5.8416569,10.0183766 5.19764017,10.0183766 C4.95129707,10.0183766 4.7558159,9.94875314 4.60989121,9.81087866 C4.46391632,9.67300418 4.39159833,9.49758996 4.39159833,9.28604184 C4.39159833,9.14540586 4.42376569,8.96870293 4.48803347,8.75178243 L5.27666946,6.03780753 C5.35297071,5.77675314 5.39042678,5.57989958 5.39042678,5.44738075 C5.39042678,5.36435146 5.3543431,5.29074477 5.28204184,5.22641004 C5.20972385,5.16214226 5.11198326,5.13004184 4.9874477,5.13004184 C4.93123013,5.13004184 4.86291213,5.13134728 4.78262762,5.13541423 L4.85623431,4.90776569 L6.78026778,4.59578243 L7.12304603,4.59578243 L7.12304603,4.59715481 Z M7.36133891,3.40953975 C7.19795816,3.57290377 7.00117155,3.65318828 6.77086192,3.65318828 C6.54328033,3.65318828 6.3491046,3.57153138 6.18580753,3.40953975 C6.02242678,3.24622594 5.94207531,3.04937238 5.94207531,2.81904603 C5.94207531,2.58878661 6.02242678,2.39194979 6.18311297,2.22863598 C6.34374895,2.06662762 6.53923013,1.98490377 6.77086192,1.98490377 C7.00517155,1.98490377 7.20331381,2.06662762 7.36401674,2.22863598 C7.52471967,2.39194979 7.60498745,2.58878661 7.60498745,2.81904603 C7.60498745,3.04937238 7.52334728,3.24622594 7.36133891,3.40953975 Z" id="Fill-1"></path>
                </g>
            </g>
        </g>
    </g>
</svg>