<?xml version="1.0" encoding="UTF-8"?>
<svg width="14px" height="14px" viewBox="0 0 14 14" version="1.1" xmlns="http://www.w3.org/2000/svg" xmlns:xlink="http://www.w3.org/1999/xlink">
    <title>返回</title>
        <g id="小内容" transform="translate(-854.000000, -463.000000)" fill="">
            <g id="编组-2" transform="translate(758.000000, 403.000000)">
                <g id="形状结合" transform="translate(96.000000, 60.000000)">
                    <path d="M7.21436043,0.285092595 L7.87432676,0.945058924 C8.05657142,1.12730359 8.05657142,1.42278058 7.87432676,1.60502525 L3.52903047,5.94940909 L13.5226261,5.95 C13.780359,5.95 13.9892928,6.15893378 13.9892928,6.41666667 L13.9892928,7.35 C13.9892928,7.60773288 13.780359,7.81666667 13.5226261,7.81666667 L3.53503047,7.81640909 L8.10766009,12.3881061 C8.26712417,12.5475701 8.28705718,12.7937277 8.16745912,12.9748652 L8.10766009,13.0480724 L7.44769376,13.7080387 C7.26544909,13.8902834 6.9699721,13.8902834 6.78772743,13.7080387 L6.78772743,13.7080387 L1.00523588,7.92584788 C0.983987351,7.91078871 0.96371613,7.89374121 0.944680299,7.87470538 L0.28471397,7.21473905 C0.102469301,7.03249438 0.102469301,6.73701739 0.28471397,6.55477272 L6.5543941,0.285092595 C6.73663877,0.102847925 7.03211576,0.102847925 7.21436043,0.285092595 Z"></path>
                </g>
            </g>
        </g>
</svg>