<?xml version="1.0" encoding="UTF-8"?>
<svg width="10px" height="10px" viewBox="0 0 10 10" version="1.1" xmlns="http://www.w3.org/2000/svg" xmlns:xlink="http://www.w3.org/1999/xlink">
    <defs>
        <filter id="filter-1">
            <feColorMatrix in="SourceGraphic" type="matrix" values="0 0 0 0 0.929412 0 0 0 0 0.333333 0 0 0 0 0.396078 0 0 0 1.000000 0"></feColorMatrix>
        </filter>
    </defs>
    <g id="页面-1" stroke="none" stroke-width="1" fill="none" fill-rule="evenodd">
        <g id="查询工具配置-权限" transform="translate(-779.000000, -351.000000)">
            <g id="编组" transform="translate(778.000000, 350.000000)" filter="url(#filter-1)">
                <g transform="translate(1.200000, 1.200000)">
                    <path d="M1.32060608,0.272077939 L4.99856134,3.94934201 L8.57573593,0.37329727 C8.81005051,0.138982694 9.18994949,0.138982694 9.42426407,0.37329727 C9.65857864,0.607611845 9.65857864,0.987510832 9.42426407,1.22182541 L5.84656134,4.79834201 L9.52304474,8.4745166 C9.75735931,8.70883118 9.75735931,9.08873016 9.52304474,9.32304474 C9.28873016,9.55735931 8.90883118,9.55735931 8.6745166,9.32304474 L4.99856134,5.64734201 L1.22182541,9.42426407 C0.987510832,9.65857864 0.607611845,9.65857864 0.37329727,9.42426407 C0.138982694,9.18994949 0.138982694,8.81005051 0.37329727,8.57573593 L4.14956134,4.79834201 L0.472077939,1.12060608 C0.237763364,0.886291501 0.237763364,0.506392514 0.472077939,0.272077939 C0.706392514,0.0377633636 1.0862915,0.0377633636 1.32060608,0.272077939 Z" id="形状结合" fill="#1AB394"></path>
                </g>
            </g>
        </g>
    </g>
</svg>