<?xml version="1.0" encoding="UTF-8"?>
<svg width="14px" height="14px" viewBox="0 0 14 14" version="1.1" xmlns="http://www.w3.org/2000/svg" xmlns:xlink="http://www.w3.org/1999/xlink">
    <title>配置管理</title>
    <g id="页面-1" stroke="none" stroke-width="1" fill="" fill-rule="evenodd">
        <g id="定-首页1600" transform="translate(-1527.000000, -18.000000)" fill="" fill-rule="nonzero">
            <g id="顶部" transform="translate(200.000000, 0.000000)">
                <path d="M1335.40756,18 C1335.88017,18 1336.29246,18.3071664 1336.43336,18.7490953 L1336.46281,18.8622853 L1336.68028,19.9351316 L1336.89601,20.0518295 L1337.10857,20.1792105 L1338.18326,19.8224725 C1338.59137,19.6867151 1339.03278,19.808075 1339.31486,20.1141814 L1339.3877,20.2021911 L1339.45176,20.2990355 L1340.85171,22.6833773 C1341.09458,23.0970214 1341.03279,23.616299 1340.71278,23.9608245 L1340.62742,24.0431529 L1339.79253,24.7651316 L1339.79801,25 L1339.79253,25.2339474 L1340.6272,25.9566493 C1340.95988,26.2441486 1341.07869,26.6979801 1340.94797,27.1022952 L1340.90611,27.2111731 L1340.85171,27.3166227 L1339.45176,29.7009645 C1339.2142,30.1055767 1338.74533,30.3059848 1338.29525,30.2082353 L1338.18327,30.177532 L1337.10857,29.8198684 L1336.89601,29.9481705 L1336.68028,30.0639474 L1336.4628,31.1377918 C1336.37645,31.5623193 1336.04728,31.8857363 1335.63786,31.9752012 L1335.52434,31.9937005 L1335.40756,32 L1332.59244,32 C1332.11983,32 1331.70754,31.6928336 1331.56664,31.2509047 L1331.53719,31.1377147 L1331.3188,30.0639474 L1331.10399,29.9481705 L1330.89051,29.8198684 L1329.81674,30.1775275 C1329.40863,30.3132849 1328.96722,30.191925 1328.68514,29.8858186 L1328.6123,29.7978089 L1328.54824,29.7009645 L1327.14829,27.3166227 C1326.90542,26.9029786 1326.96721,26.383701 1327.28722,26.0391755 L1327.37258,25.9568471 L1328.20655,25.2339474 L1328.20199,25 L1328.20655,24.7651316 L1327.3728,24.0433507 C1327.04012,23.7558514 1326.92131,23.3020199 1327.05203,22.8977048 L1327.09389,22.7888269 L1327.14829,22.6833773 L1328.54824,20.2990355 C1328.7858,19.8944233 1329.25467,19.6940152 1329.70475,19.7917647 L1329.81673,19.822468 L1330.89051,20.1792105 L1331.10399,20.0518295 L1331.3188,19.9351316 L1331.5372,18.8622082 C1331.62355,18.4376807 1331.95272,18.1142637 1332.36214,18.0247988 L1332.47566,18.0062995 L1332.59244,18 L1335.40756,18 Z M1335.38343,19.1052632 L1332.61565,19.1052632 L1332.2915,20.7002639 L1332.03436,20.8168442 C1331.85964,20.8960618 1331.69017,20.9857715 1331.52686,21.0853708 L1331.28664,21.2421119 L1331.05925,21.4005538 L1329.48866,20.8782895 L1328.1126,23.2223684 L1329.35285,24.2948605 L1329.32668,24.5777857 C1329.31376,24.7174916 1329.30726,24.8583175 1329.30726,25 L1329.31212,25.2118484 L1329.32668,25.4222143 L1329.35285,25.7051395 L1328.1126,26.7767105 L1329.48866,29.1207895 L1331.05925,28.5994462 L1331.28664,28.7578881 C1331.44355,28.8672266 1331.60709,28.9669766 1331.77633,29.0565357 L1332.03436,29.1831558 L1332.2915,29.2997361 L1332.61565,30.8947368 L1335.38343,30.8947368 L1335.7085,29.2997361 L1335.96564,29.1831558 C1336.14036,29.1039382 1336.30983,29.0142285 1336.47314,28.9146292 L1336.71336,28.7578881 L1336.94075,28.5994462 L1338.51042,29.1207895 L1339.88647,26.7767105 L1338.64715,25.7051395 L1338.67332,25.4222143 C1338.68624,25.2825084 1338.69274,25.1416825 1338.69274,25 L1338.68788,24.7881516 L1338.67332,24.5777857 L1338.64715,24.2948605 L1339.88647,23.2223684 L1338.51042,20.8782895 L1336.94075,21.4005538 L1336.71336,21.2421119 C1336.55645,21.1327734 1336.39291,21.0330234 1336.22367,20.9434643 L1335.96564,20.8168442 L1335.7085,20.7002639 L1335.38343,19.1052632 Z M1334,21.3526316 C1336.04132,21.3526316 1337.69986,22.9835149 1337.69986,25 C1337.69986,27.0164851 1336.04132,28.6473684 1334,28.6473684 C1331.95868,28.6473684 1330.30014,27.0164851 1330.30014,25 C1330.30014,22.9835149 1331.95868,21.3526316 1334,21.3526316 Z M1334,22.4578947 C1332.56499,22.4578947 1331.40541,23.5981332 1331.40541,25 C1331.40541,26.4018668 1332.56499,27.5421053 1334,27.5421053 C1335.43501,27.5421053 1336.59459,26.4018668 1336.59459,25 C1336.59459,23.5981332 1335.43501,22.4578947 1334,22.4578947 Z" id="形状结合"></path>
            </g>
        </g>
    </g>
</svg>