<?xml version="1.0" encoding="UTF-8"?>
<svg width="14px" height="14px" viewBox="0 0 14 14" version="1.1" xmlns="http://www.w3.org/2000/svg" xmlns:xlink="http://www.w3.org/1999/xlink">
    <g id="页面-1" stroke="none" stroke-width="1" fill="" fill-rule="evenodd">
        <g id="定-首页1600" transform="translate(-1561.000000, -18.000000)" fill="">
            <g id="顶部" transform="translate(200.000000, 0.000000)">
                <path d="M1372.88699,29.9839146 C1371.62525,31.2211049 1369.899,31.9863415 1367.99293,31.9863415 C1364.13086,31.9863415 1361,28.8550024 1361,24.9929317 C1361,21.130861 1364.13086,18 1367.99293,18 C1371.855,18 1374.98586,21.130861 1374.98586,24.9929317 C1374.98586,26.9489537 1374.18115,28.7146951 1372.88699,29.9839146 Z M1367.99293,30.9873561 C1369.41246,30.9873561 1370.71516,30.4913634 1371.74217,29.6661829 C1371.19521,28.1127976 1369.73366,26.9909024 1367.99293,26.9909024 C1366.2522,26.9909024 1364.79064,28.1127976 1364.2437,29.6661829 C1365.2707,30.4913634 1366.57338,30.9873561 1367.99293,30.9873561 Z M1367.99293,18.9995146 C1364.6828,18.9995146 1361.99899,21.6832805 1361.99899,24.9934098 C1361.99899,26.4894463 1362.55045,27.8535585 1363.45654,28.9039683 C1364.2467,27.1867146 1365.9785,25.9924463 1367.99293,25.9924463 C1370.0069,25.9924463 1371.73916,27.1867146 1372.52932,28.9039683 C1373.4354,27.8540366 1373.98688,26.4894463 1373.98688,24.9934098 C1373.98688,21.6832805 1371.30306,18.9995146 1367.99293,18.9995146 Z M1367.99293,25.4929366 C1366.61333,25.4929366 1365.49545,24.3745756 1365.49545,22.995439 C1365.49545,21.6158585 1366.61333,20.4979585 1367.99293,20.4979585 C1369.37205,20.4979585 1370.49041,21.6158585 1370.49041,22.995439 C1370.49041,24.3745756 1369.37205,25.4929366 1367.99293,25.4929366 Z M1367.99293,21.4969439 C1367.16528,21.4969439 1366.49442,22.1678 1366.49442,22.994978 C1366.49442,23.8226341 1367.16528,24.493422 1367.99293,24.493422 C1368.82057,24.493422 1369.49143,23.8226341 1369.49143,22.994978 C1369.49143,22.1678 1368.82057,21.4969439 1367.99293,21.4969439 Z" id="Fill-1"></path>
            </g>
        </g>
    </g>
</svg>