<?xml version="1.0" encoding="UTF-8"?>
<svg width="12px" height="12px" viewBox="0 0 12 12" version="1.1" xmlns="http://www.w3.org/2000/svg" xmlns:xlink="http://www.w3.org/1999/xlink">
    <title>Fill 1</title>
    <g id="页面-1" stroke="none" stroke-width="1" fill="" fill-rule="evenodd">
        <g id="SQL执行01-审核结果" transform="translate(-552.000000, -419.000000)" fill="">
            <path d="M558.000059,419 C554.686255,419 552,421.686255 552,425.000059 C552,428.313745 554.686255,431 558.000059,431 C561.313728,431 563.999983,428.313745 563.999983,425.000059 C563.999983,421.686255 561.313728,419 558.000059,419 Z M558.000126,427.999996 C557.724065,427.999996 557.50003,427.775961 557.50003,427.49985 C557.50003,427.223856 557.724065,426.999754 558.000126,426.999754 C558.276237,426.999754 558.499953,427.223856 558.499953,427.49985 C558.499953,427.775961 558.276237,427.999996 558.000126,427.999996 Z M558.499953,425.750035 C558.499953,426.026079 558.276237,426.249728 558.000126,426.249728 C557.724065,426.249728 557.50003,426.026079 557.50003,425.750035 L557.50003,422.499832 C557.50003,422.223704 557.724065,422.000004 558.000126,422.000004 C558.276237,422.000004 558.499953,422.223704 558.499953,422.499832 L558.499953,425.750035 Z" id="Fill-1"></path>
        </g>
    </g>
</svg>