<?xml version="1.0" encoding="UTF-8"?>
<svg width="12px" height="12px" viewBox="0 0 12 12" version="1.1" xmlns="http://www.w3.org/2000/svg" xmlns:xlink="http://www.w3.org/1999/xlink">
    <title></title>
    <g id="页面-1" stroke="none" stroke-width="1" fill="" fill-rule="evenodd">
        <g id="SQL执行02" transform="translate(-1141.000000, -112.000000)" fill="" fill-rule="nonzero">
            <g id="编组-9" transform="translate(1141.000000, 112.000000)">
                <path d="M6.27274691,0 C7.62835892,0 8.7272714,1.09892712 8.7272714,2.45452448 C8.7272714,3.81013649 7.62835892,4.9091222 6.27274691,4.9091222 C5.96359207,4.9091222 5.66778723,4.85196469 5.39532225,4.74764089 L4.04559856,7.67636348 C4.47217736,8.03982184 4.77279018,8.54672672 4.87280524,9.12245671 L7.65005295,9.02705801 C7.77213726,7.93772033 8.6962977,7.09093639 9.81818581,7.09093639 C11.023197,7.09093639 12,8.06775399 12,9.27276523 C12,10.4777032 11.023197,11.4545794 9.81818581,11.4545794 C8.91189011,11.4545794 8.13462961,10.9019431 7.80500634,10.1152912 L4.81627177,10.2164927 C4.52434412,11.2459145 3.57748416,12 2.45452448,12 C1.09892712,12 0,10.9010875 0,9.54547552 C0,8.18986351 1.09892712,7.09093639 2.45452448,7.09093639 C2.6696387,7.09093639 2.8782909,7.11860812 3.07711519,7.17058617 L4.47825403,4.12925226 C4.06879326,3.69067611 3.81820779,3.10185921 3.81820779,2.45452448 C3.81820779,1.09892712 4.91713491,0 6.27274691,0 Z M2.45452448,8.18185081 C1.70144739,8.18185081 1.09091442,8.79233983 1.09091442,9.54547552 C1.09091442,10.2986112 1.70144739,10.9091002 2.45452448,10.9091002 C3.20767481,10.9091002 3.81820779,10.2986112 3.81820779,9.54547552 C3.81820779,8.79233983 3.20767481,8.18185081 2.45452448,8.18185081 Z M9.81818581,8.18185081 C9.21570949,8.18185081 8.7272714,8.67023031 8.7272714,9.27276523 C8.7272714,9.8752269 9.21570949,10.363665 9.81818581,10.363665 C10.4206621,10.363665 10.9091002,9.8752269 10.9091002,9.27276523 C10.9091002,8.67023031 10.4206621,8.18185081 9.81818581,8.18185081 Z M6.27274691,1.09091442 C5.51961123,1.09091442 4.9091222,1.70144739 4.9091222,2.45452448 C4.9091222,3.20767481 5.51961123,3.81820779 6.27274691,3.81820779 C7.0258826,3.81820779 7.63637163,3.20767481 7.63637163,2.45452448 C7.63637163,1.70144739 7.0258826,1.09091442 6.27274691,1.09091442 Z" id="形状结合"></path>
            </g>
        </g>
    </g>
</svg>