<?xml version="1.0" encoding="UTF-8"?>
<svg width="12px" height="12px" viewBox="0 0 12 12" version="1.1" xmlns="http://www.w3.org/2000/svg" xmlns:xlink="http://www.w3.org/1999/xlink">
    <title></title>
    <g id="页面-1" stroke="none" stroke-width="1" fill="" fill-rule="evenodd">
        <g id="SQL执行01" transform="translate(-980.000000, -112.000000)" fill="" fill-rule="nonzero">
            <g id="编组-2" transform="translate(980.000000, 112.000000)">
                <path d="M0.28108473,10.0540789 C0.0992690929,9.8797595 -0.00242969568,9.63808318 4.40994161e-05,9.38617346 C4.40994161e-05,9.12817056 0.0940738023,8.90617988 0.28108473,8.7182094 L8.71999434,0.280063605 C8.89432954,0.0988893648 9.13563712,-0.00242916034 9.38702277,4.42473757e-05 C9.64504902,4.42473757e-05 9.86698168,0.0940851325 10.0549692,0.281059604 L11.7190246,1.9448668 C11.906016,2.13283727 12,2.35482796 12,2.61283086 C12,2.87075564 11.906016,3.09274632 11.7190246,3.28071679 L3.28003689,11.7189602 C3.10570169,11.9007399 2.86392537,12.0024295 2.61207096,11.9999559 C2.36015797,12.0024295 2.11838165,11.9007399 1.94404645,11.7189602 L0.28008864,10.0551335 L0.28108473,10.0540789 Z M6.92552865,3.62687819 L1.11538087,9.43652043 L2.58095333,10.9019602 L8.39101973,5.092318 L6.92552865,3.62687819 Z M9.48116021,1.05318232 L7.65316013,2.95351233 L9.0601659,4.41614493 L10.888166,2.51587583 L9.48116021,1.05318232 Z M3.25804479,0.915003444 C3.27300567,0.86701971 3.312068,0.843975018 3.37501695,0.843975018 C3.43704794,0.843975018 3.47700871,0.86701971 3.49204771,0.914007445 L3.77304261,1.47692286 L4.38300097,1.56992186 C4.44503196,1.56992186 4.48401617,1.59792702 4.50003173,1.65192581 C4.51606682,1.70694013 4.50003173,1.75789233 4.45303974,1.80488007 L4.00802209,2.22683227 L4.12505284,2.83581754 C4.12505284,2.8977648 4.10507246,2.94574853 4.06601013,2.97580428 C4.02702592,3.0077739 3.97604957,3.0077739 3.91401858,2.97580428 L3.37501695,2.69583081 L2.83507783,2.97580428 C2.77304684,3.0077739 2.72300799,3.0077739 2.68402378,2.97580428 C2.64404348,2.94574853 2.62503966,2.8977648 2.62503966,2.83581754 L2.74208994,2.22583627 L2.29705276,1.80488007 C2.25006078,1.75789233 2.23404522,1.70694013 2.25006078,1.65192581 C2.26607633,1.59792702 2.30508007,1.56992186 2.36701341,1.56992186 L2.97706942,1.47692286 L3.25706823,0.914007445 L3.25804479,0.915003444 Z M5.55502726,0.444989384 C5.57006626,0.398001649 5.59401147,0.375035075 5.62506603,0.375035075 C5.65604246,0.375035075 5.67998767,0.398001649 5.69502667,0.444989384 L5.88301416,0.796987283 L6.30498503,0.86701971 C6.3350435,0.86701971 6.35900824,0.886998285 6.37502379,0.925978967 C6.39105888,0.964959649 6.38303157,0.991968808 6.35207467,1.00798292 L6.0470369,1.31191896 L6.11699754,1.7109046 C6.13303263,1.75789233 6.12502485,1.78886596 6.09404842,1.80488007 C6.06467355,1.82052312 6.02941979,1.82052312 6.00004491,1.80488007 L5.62506603,1.6169096 L5.25000902,1.80488007 C5.22063415,1.82052312 5.18538039,1.82052312 5.15600551,1.80488007 C5.12502908,1.78886596 5.1170213,1.75789233 5.13303686,1.7109046 L5.20301703,1.31291496 L4.89805739,1.00798292 C4.86799892,0.991968808 4.85899505,0.964959649 4.87503014,0.925978967 C4.8910457,0.886002286 4.91499091,0.86701971 4.94506891,0.86701971 L5.36703978,0.796987283 L5.55502726,0.444989384 Z M1.05508536,0.444989384 C1.07002671,0.398001649 1.09406957,0.375035075 1.125046,0.375035075 C1.15608103,0.375035075 1.18004577,0.398001649 1.19508477,0.444989384 L1.38305272,0.796987283 L1.80504313,0.86701971 C1.83502347,0.86701971 1.85906634,0.886998285 1.87508189,0.925978967 C1.89101933,0.964959649 1.88301155,0.991968808 1.85203512,1.00798292 L1.54701687,1.31191896 L1.61705564,1.7109046 C1.6330712,1.75789233 1.62506342,1.78886596 1.59400886,1.80488007 C1.56463399,1.82052312 1.52939976,1.82052312 1.50002489,1.80488007 L1.125046,1.6169096 L0.75004759,1.80488007 C0.720672714,1.82052312 0.685438488,1.82052312 0.656063612,1.80488007 C0.625087181,1.78886596 0.617079402,1.75789233 0.633016835,1.7109046 L0.703055601,1.31291496 L0.39803736,1.00798292 C0.368057018,0.991968808 0.35905315,0.964959649 0.375068707,0.925978967 C0.391084265,0.886002286 0.415049007,0.86701971 0.445029349,0.86701971 L0.867097876,0.796987283 L1.05508536,0.444989384 Z M10.8050246,5.67154495 C10.8199659,5.64051273 10.8440088,5.62455722 10.8749852,5.62455722 C10.9060398,5.62455722 10.929985,5.64051273 10.945024,5.67154495 L11.1330115,6.04650942 L11.5549824,6.09349716 C11.5850408,6.10843715 11.6090056,6.13247784 11.6250211,6.16345147 C11.6410367,6.19450321 11.6330289,6.22645331 11.6019743,6.25742694 L11.2970342,6.53847453 L11.3669949,6.96040721 C11.3830104,6.99138083 11.3750026,7.01938599 11.3440262,7.04243068 C11.3119951,7.06537773 11.2810187,7.06936173 11.2500422,7.05440221 L10.8749852,6.84338704 L10.5000063,7.05340621 C10.4690299,7.06936173 10.4369793,7.06537773 10.4060028,7.04243068 C10.3750264,7.01938599 10.3670186,6.99237683 10.3830342,6.96040721 L10.4529948,6.53847453 L10.1479766,6.25742694 C10.1179962,6.22645331 10.1089924,6.19450321 10.1250079,6.16345147 C10.1399688,6.13300513 10.164539,6.10843715 10.1949686,6.09349716 L10.6170371,6.04650942 L10.8050246,5.67154495 Z" id="Fill-1"></path>
            </g>
        </g>
    </g>
</svg>