<?xml version="1.0" encoding="UTF-8"?>
<svg width="16px" height="16px" viewBox="0 0 16 16" version="1.1" xmlns="http://www.w3.org/2000/svg" xmlns:xlink="http://www.w3.org/1999/xlink">
    <title></title>
    <g id="页面-1" stroke="none" stroke-width="1" fill="" fill-rule="evenodd">
        <g id="SQL执行01-1" transform="translate(-730.000000, -110.000000)" fill="" fill-rule="nonzero">
            <g id="编组-12" transform="translate(470.000000, 107.000000)">
                <g id="编组-11" transform="translate(260.000000, 3.000000)">
                    <path d="M8,0 C12.418278,0 16,3.581722 16,8 C16,12.418278 12.418278,16 8,16 C3.581722,16 0,12.418278 0,8 C0,3.581722 3.581722,0 8,0 Z M5.86666667,4.77406257 C5.5721148,4.77406257 5.33333333,5.01284404 5.33333333,5.30739591 L5.33333333,5.30739591 L5.33333333,10.6926041 C5.33333333,10.7754015 5.35261072,10.8570618 5.38963883,10.931118 C5.52136643,11.1945732 5.84172539,11.3013595 6.10518058,11.1696319 L6.10518058,11.1696319 L11.4903888,8.47702784 C11.5936034,8.42542053 11.6772954,8.34172853 11.7289027,8.23851392 C11.8606303,7.97505872 11.753844,7.65469976 11.4903888,7.52297216 L11.4903888,7.52297216 L6.10518058,4.83036807 C6.03112435,4.79333995 5.94946405,4.77406257 5.86666667,4.77406257 Z" id="形状结合"></path>
                </g>
            </g>
        </g>
    </g>
</svg>