<?xml version="1.0" encoding="UTF-8"?>
<svg width="14px" height="14px" viewBox="0 0 14 14" version="1.1" xmlns="http://www.w3.org/2000/svg" xmlns:xlink="http://www.w3.org/1999/xlink">
    <title>放大</title>
    <g id="页面-1" stroke="none" stroke-width="1" fill="" fill-rule="evenodd">
        <g id="SQL执行01-v0321" transform="translate(-1281.000000, -83.000000)" fill="">
            <g id="形状结合-2" transform="translate(1281.000000, 83.000000)">
                <path d="M0.933,10.033 L0.933333333,13.0666667 L3.966,13.066 L3.96666667,14 L0,14 L0,10.0333333 L0.933,10.033 Z M14,10.0333333 L14,14 L10.0333333,14 L10.033,13.066 L13.0666667,13.0666667 L13.066,10.033 L14,10.0333333 Z M10.9666667,3.96666667 L10.9666667,10.0333333 L3.03333333,10.0333333 L3.03333333,3.96666667 L10.9666667,3.96666667 Z M10.0333333,4.9 L3.96666667,4.9 L3.96666667,9.1 L10.0333333,9.1 L10.0333333,4.9 Z M14,0 L14,4.2 L13.066,4.2 L13.0666667,0.933333333 L10.033,0.933 L10.0333333,0 L14,0 Z M3.96666667,0 L3.966,0.933 L0.933333333,0.933333333 L0.933,4.2 L0,4.2 L0,0 L3.96666667,0 Z" id="形状结合"></path>
            </g>
        </g>
    </g>
</svg>