<?xml version="1.0" encoding="UTF-8"?>
<svg width="14px" height="14px" viewBox="0 0 14 14" version="1.1" xmlns="http://www.w3.org/2000/svg" xmlns:xlink="http://www.w3.org/1999/xlink">
    <title>缩小</title>
    <g id="页面-1" stroke="none" stroke-width="1" fill="" fill-rule="evenodd">
        <g id="SQL执行01-v0321" transform="translate(-1207.000000, -248.000000)" fill="">
            <g id="形状结合" transform="translate(1207.000000, 248.000000)">
                <path d="M3.96666667,10.0333333 L3.96666667,14 L3.03333333,14 L3.03333333,10.9666667 L0,10.9666667 L0,10.0333333 L3.96666667,10.0333333 Z M14,10.0333333 L14,10.9666667 L10.9666667,10.9666667 L10.9666667,14 L10.0333333,14 L10.0333333,10.0333333 L14,10.0333333 Z M10.5,4.43333333 L10.5,9.8 L3.5,9.8 L3.5,4.43333333 L10.5,4.43333333 Z M9.56666667,5.36666667 L4.43333333,5.36666667 L4.43333333,8.86666667 L9.56666667,8.86666667 L9.56666667,5.36666667 Z M10.9666667,0 L10.9666667,3.26666667 L14,3.26666667 L14,4.2 L10.0333333,4.2 L10.0333333,0 L10.9666667,0 Z M3.96666667,0 L3.96666667,4.2 L0,4.2 L0,3.26666667 L3.03333333,3.26666667 L3.03333333,0 L3.96666667,0 Z"></path>
            </g>
        </g>
    </g>
</svg>