<?xml version="1.0" encoding="UTF-8"?>
<svg width="12px" height="12px" viewBox="0 0 12 12" version="1.1" xmlns="http://www.w3.org/2000/svg" xmlns:xlink="http://www.w3.org/1999/xlink">
    <title></title>
    <g id="页面-1" stroke="none" stroke-width="1" fill="" fill-rule="evenodd">
        <g id="SQL执行02" transform="translate(-1077.000000, -112.000000)" fill="" fill-rule="nonzero">
            <g id="编组-6" transform="translate(1077.000000, 112.000000)">
                <path d="M6.15651648,0.5 C6.70276984,0.5 7.15243344,0.924650626 7.20650759,1.4683302 L7.2119593,1.57856261 L7.2119593,2.37809831 C7.2119593,2.42709403 7.24181193,2.46739823 7.28444842,2.48156008 L7.31855607,2.48700711 L10.9445053,2.48700711 C11.4876641,2.48700711 11.940081,2.91161117 11.9945114,3.45534313 L12,3.56558738 L12,10.4214374 C12,10.9796126 11.5844317,11.4391647 11.0523801,11.4944284 L10.9445053,11.5 L1.05549467,11.5 C0.50924131,11.5 0.0595321377,11.0753339 0.00545229335,10.5316669 L0,10.4214374 L0,1.57856261 C0,1.02037083 0.415568338,0.560833219 0.94761987,0.505571454 L1.05549467,0.5 L6.15651648,0.5 Z M6.15651648,1.4697068 L1.05549467,1.4697068 C1.00753303,1.4697068 0.968132324,1.50016665 0.954290506,1.54371688 L0.948967027,1.57856261 L0.948967027,10.4281835 C0.948967027,10.4771933 0.97877541,10.5175003 1.02139421,10.5316628 L1.05549467,10.5371099 L10.9445053,10.5371099 C10.992467,10.5371099 11.0318677,10.5066049 11.0457095,10.4630366 L11.051033,10.4281835 L11.0477321,10.4281835 L11.0477321,3.56212603 C11.0477321,3.51318683 11.0178794,3.47288263 10.9752783,3.45871852 L10.9412044,3.45327022 L7.31855607,3.45327022 C6.7722379,3.45327022 6.32257025,3.02861959 6.26849585,2.48494002 L6.26304412,2.37470761 L6.26304412,1.57856261 C6.26304412,1.52955277 6.23319149,1.48929095 6.19059039,1.47514662 L6.15651648,1.4697068 Z M5.85347265,3.91940409 C5.99501408,3.91940409 6.13187491,3.98555525 6.23716167,4.10410162 L6.29632969,4.18140682 L6.99558583,5.26673319 L8.24085662,5.60020566 C8.42731456,5.64779917 8.56712777,5.77369682 8.62376162,5.94381493 C8.66814814,6.08844976 8.64779832,6.24251549 8.57043315,6.38040112 L8.51723398,6.460986 L7.70476197,7.46131512 L7.77470314,8.74400887 C7.78132223,8.9447493 7.70808016,9.11825812 7.57156786,9.22372323 C7.48833666,9.28842921 7.38849724,9.32244224 7.27858228,9.32244224 C7.22975423,9.32244224 7.18092618,9.31486809 7.13209301,9.30176573 L7.05883878,9.27822177 L5.86016087,8.81210556 L4.65486387,9.28161248 C4.60823642,9.2974711 4.56458152,9.30880092 4.51993577,9.31561243 L4.45172858,9.32244224 C4.32852359,9.32244224 4.22861505,9.28842921 4.14536656,9.22372323 C4.03162071,9.13583564 3.95949622,9.00069547 3.94439508,8.84192084 L3.94230041,8.74400887 L4.01217245,7.46131512 L3.19646867,6.460986 C3.07326368,6.31128277 3.03330717,6.12421112 3.0832528,5.95063166 C3.12890751,5.80483128 3.23814951,5.68901529 3.39006119,5.62676048 L3.46947599,5.60020566 L4.71142859,5.26673319 L5.4073147,4.18140682 C5.51384234,4.01466176 5.67700384,3.91940409 5.85347265,3.91940409 Z M5.85347265,4.97416111 L5.21423767,5.97443725 L4.08548365,6.27726974 L4.82134355,7.18910495 L4.75470329,8.36977728 L5.85347265,7.94449082 L6.95224201,8.36977728 L6.88568816,7.18910495 L7.62153077,6.2738967 L6.49277675,5.9710642 L5.85347265,4.97416111 Z M10.9578126,1.07843337 C11.2242009,1.07843337 11.4306371,1.28938124 11.4306371,1.56152078 C11.4306371,1.80037487 11.2580063,2.00066392 11.0341588,2.03833319 L10.9578126,2.04469648 L7.96116108,2.04469648 C7.69477285,2.04469648 7.48833666,1.8303579 7.48833666,1.56152078 C7.48833666,1.31963094 7.65554997,1.12184201 7.88318965,1.08470312 L7.96116108,1.07843337 L10.9578126,1.07843337 Z" id="形状"></path>
            </g>
        </g>
    </g>
</svg>