<?xml version="1.0" encoding="UTF-8"?>
<svg width="12px" height="12px" viewBox="0 0 12 12" version="1.1" xmlns="http://www.w3.org/2000/svg" xmlns:xlink="http://www.w3.org/1999/xlink">
    <title></title>
    <g id="页面-1" stroke="none" stroke-width="1" fill="" fill-rule="evenodd">
        <g id="SQL执行02" transform="translate(-1055.000000, -112.000000)" fill="" fill-rule="nonzero">
            <g id="编组-5" transform="translate(1055.000000, 112.000000)">
                <path d="M8.46512824,6.03174603 C8.68352794,6.03174603 8.86402187,6.19894833 8.89258753,6.415882 L8.89652568,6.47619048 L8.89603152,8.57142857 L10.9302565,8.57142857 C11.1685107,8.57142857 11.3616539,8.77041313 11.3616539,9.01587302 C11.3616539,9.24087791 11.19936,9.42683062 10.9887945,9.45626021 L10.9302565,9.46031746 L8.89603152,9.46031746 L8.89652568,11.5555556 C8.89652568,11.8010154 8.70338246,12 8.46512824,12 C8.24672853,12 8.0662346,11.8327977 8.03766894,11.615864 L8.03373079,11.5555556 L8.03323664,9.46031746 L6,9.46031746 C5.76174577,9.46031746 5.56860256,9.2613329 5.56860256,9.01587302 C5.56860256,8.79086812 5.73089651,8.60491541 5.94146192,8.57548583 L6,8.57142857 L8.03323664,8.57142857 L8.03373079,6.47619048 C8.03373079,6.23073059 8.22687401,6.03174603 8.46512824,6.03174603 Z M6.35139203,0.186086706 L6.38684965,0.247748573 L8.00661438,3.62984127 L11.6301654,4.17245311 C11.9631922,4.22230827 12.1079358,4.6220743 11.9103485,4.88330167 L11.8692516,4.93053905 L10.1970517,6.60982785 C10.0264411,6.78116173 9.7533177,6.77756515 9.58701347,6.60179467 C9.43733965,6.44360124 9.42519998,6.19986112 9.54864392,6.02779264 L9.59481083,5.97330664 L10.6406039,4.92253968 L7.65861293,4.47612329 C7.53817533,4.45809341 7.43172914,4.38871954 7.36420226,4.28666064 L7.3337975,4.23299383 L6,1.44761905 L4.6662025,4.23299383 C4.61234117,4.34542943 4.51540587,4.42828983 4.40032452,4.46291607 L4.34138707,4.47612329 L1.35877981,4.92253968 L3.51705488,7.08988589 C3.60420435,7.1774048 3.65074123,7.2979892 3.64714392,7.4214483 L3.64112334,7.48327763 L3.13120702,10.5434921 L4.28778954,9.91732738 C4.47950436,9.81348867 4.71249878,9.87308332 4.83657487,10.0480107 L4.87037995,10.1039008 C4.97117039,10.3014138 4.91332519,10.5414548 4.7435329,10.6692834 L4.68928349,10.7041109 L2.75945267,11.7493673 C2.46158446,11.910702 2.11640569,11.6749357 2.12721904,11.343947 L2.13351679,11.2808444 L2.75219355,7.5631746 L0.130748396,4.93053905 C-0.110232049,4.68853702 0.000746509149,4.27746823 0.309636158,4.18578222 L0.369834628,4.17245311 L3.99276933,3.62984127 L5.61315035,0.247748573 C5.76084334,-0.0605607622 6.16897402,-0.0811147179 6.35139203,0.186086706 Z" id="形状"></path>
            </g>
        </g>
    </g>
</svg>