<?xml version="1.0" encoding="UTF-8"?>
<svg width="16px" height="16px" viewBox="0 0 16 16" version="1.1" xmlns="http://www.w3.org/2000/svg" xmlns:xlink="http://www.w3.org/1999/xlink">
    <title></title>
    <g id="页面-1" stroke="none" stroke-width="1" fill="" fill-rule="evenodd">
        <g id="SQL执行01-2" transform="translate(-782.000000, -110.000000)" fill="" fill-rule="nonzero">
            <g id="编组-12" transform="translate(470.000000, 107.000000)">
                <g id="编组-10" transform="translate(312.000000, 3.000000)">
                    <path d="M8,0 C12.418278,0 16,3.581722 16,8 C16,12.418278 12.418278,16 8,16 C3.581722,16 0,12.418278 0,8 C0,3.581722 3.581722,0 8,0 Z M9.77777778,5.33333333 L6.22222222,5.33333333 C5.73130244,5.33333333 5.33333333,5.73130244 5.33333333,6.22222222 L5.33333333,6.22222222 L5.33333333,9.77777778 C5.33333333,10.2686976 5.73130244,10.6666667 6.22222222,10.6666667 L6.22222222,10.6666667 L9.77777778,10.6666667 C10.2686976,10.6666667 10.6666667,10.2686976 10.6666667,9.77777778 L10.6666667,9.77777778 L10.6666667,6.22222222 C10.6666667,5.73130244 10.2686976,5.33333333 9.77777778,5.33333333 L9.77777778,5.33333333 Z" id="形状结合"></path>
                </g>
            </g>
        </g>
    </g>
</svg>