<?xml version="1.0" encoding="UTF-8"?>
<svg width="12px" height="12px" viewBox="0 0 12 12" version="1.1" xmlns="http://www.w3.org/2000/svg" xmlns:xlink="http://www.w3.org/1999/xlink">
    <title></title>
    <g id="页面-1" stroke="none" stroke-width="1" fill="" fill-rule="evenodd">
        <g id="SQL执行01-1" transform="translate(-1115.000000, -112.000000)" fill="" fill-rule="nonzero">
            <g id="编组-12" transform="translate(470.000000, 107.000000)">
                <g id="编组-8" transform="translate(645.000000, 5.000000)">
                    <path d="M7.17157288,0 C7.76830998,0 8.34305036,0.213347602 8.79381612,0.597802172 L8.93933983,0.732233047 L11.267767,3.06066017 C11.6897238,3.48261702 11.9452671,4.03987938 11.9921562,4.63046934 L12,4.82842712 L12,10.5 C12,11.2796961 11.4051119,11.9204487 10.64446,11.9931334 L10.5,12 L1.5,12 C0.720303883,12 0.0795513218,11.4051119 0.00686657806,10.64446 L0,10.5 L0,1.5 C0,0.720303883 0.594888083,0.0795513218 1.35553999,0.00686657806 L1.5,0 L7.17157288,0 Z M2,1 L1.5,1 C1.25454011,1 1.05039163,1.17687516 1.00805567,1.41012437 L1,1.5 L1,10.5 C1,10.7454599 1.17687516,10.9496084 1.41012437,10.9919443 L1.5,11 L2,11 L2,8 C2,7.22777553 2.55892592,6.58043034 3.28964326,6.50694414 L3.42857143,6.5 L8.07142857,6.5 C8.8221076,6.5 9.42519111,7.10192022 9.4935446,7.85678095 L9.5,8 L9.5,11 L10.5,11 C10.7454599,11 10.9496084,10.8231248 10.9919443,10.5898756 L11,10.5 L11,4.82842712 C11,4.48033048 10.8790043,4.14470883 10.6603032,3.87779034 L10.5606602,3.76776695 L8.23223305,1.43933983 C7.98609155,1.19319833 7.66321429,1.0414349 7.31982945,1.00734 L7.17157288,1 L7,1 L7,2.5 L6.99354192,2.6117404 C6.938425,3.08449129 6.53728479,3.44133156 6.05160209,3.49343272 L5.92857143,3.5 L3.07142857,3.5 L2.95707975,3.49433066 C2.47039986,3.44586404 2.06670601,3.09153434 2.00747903,2.62017002 L2,2.5 L2,1 Z M8.07142857,7.5 L3.42857143,7.5 C3.22583791,7.5 3.0448952,7.67060267 3.00718859,7.90803354 L3,8 L3,11 L8.5,11 L8.5,8 C8.5,7.74748356 8.34158324,7.54882351 8.146195,7.50779432 L8.07142857,7.5 Z M3,1 L3,2.5 L3.00367996,2.49326978 L3.07142857,2.5 L3.5,2.5 L3.5,1 L3,1 Z M4.5,2.5 L5.92857143,2.5 L5.99632004,2.49326978 L6,2.5 L6,1 L4.5,1 L4.5,2.5 Z" id="形状"></path>
                </g>
            </g>
        </g>
    </g>
</svg>