<?xml version="1.0" encoding="UTF-8"?>
<svg width="12px" height="12px" viewBox="0 0 12 12" version="1.1" xmlns="http://www.w3.org/2000/svg" xmlns:xlink="http://www.w3.org/1999/xlink">
    <title></title>
    <g id="页面-1" stroke="none" stroke-width="1" fill="" fill-rule="evenodd">
        <g id="SQL执行01-1" transform="translate(-1093.000000, -112.000000)" fill="" fill-rule="nonzero">
            <g id="编组-12" transform="translate(470.000000, 107.000000)">
                <g id="编组-7" transform="translate(623.000000, 5.000000)">
                    <path d="M5.29743035,0 C5.79986884,0 6.21351783,0.376373025 6.26643797,0.859883774 L6.27215753,0.965034965 L6.27190325,2.01323077 L9.1115802,2.01398601 C9.61401869,2.01398601 10.0276677,2.39035904 10.0805878,2.87386979 L10.0863074,2.97902098 L10.0861379,4.02738462 L11.0252728,4.02797203 C11.5277113,4.02797203 11.9413603,4.40434505 11.9942804,4.8878558 L12,4.99300699 L11.9945758,5.09467421 L11.9945758,5.09467421 L11.9783634,5.19520989 L10.6706549,11.2371679 C10.5823763,11.6450382 10.24129,11.9461372 9.83103036,11.9934879 L9.7175643,12 L1.09524782,12 C0.961897546,12 0.834801645,11.9734881 0.719044109,11.9254978 C0.646902882,11.9726977 0.559758799,12 0.466173871,12 C0.237319898,12 0.0469825221,11.8367306 0.00751068518,11.6214237 L0,11.5384615 L0,0.965034965 C0,0.467592477 0.380153085,0.0580566193 0.868519919,0.00566269379 L0.974727184,0 L5.29743035,0 Z M11.0252728,4.95104895 L2.40295634,4.95104895 C2.389634,4.95104895 2.37751852,4.95719161 2.36968116,4.96701875 L2.36151762,4.98421556 L1.05310421,11.0305447 L1.05865441,11.0561421 L1.0738581,11.0711946 L1.0738581,11.0711946 L1.09524782,11.0769231 L9.7175643,11.0769231 C9.73088663,11.0769231 9.74300212,11.0707804 9.75083948,11.0609533 L9.75900302,11.0437565 L11.0674164,4.99742731 L11.0618662,4.97182997 L11.0466625,4.95677745 L11.0466625,4.95677745 L11.0252728,4.95104895 Z M8.34875023,6.29370629 C8.60621095,6.29370629 8.8149241,6.5003441 8.8149241,6.75524476 C8.8149241,6.98182311 8.65001494,7.17026787 8.43254557,7.20934721 L8.34875023,7.21678322 L4.28032372,7.21678322 C4.022863,7.21678322 3.81414985,7.01014541 3.81414985,6.75524476 C3.81414985,6.5286664 3.97905901,6.34022164 4.19652838,6.3011423 L4.28032372,6.29370629 L8.34875023,6.29370629 Z M5.29743035,0.923076923 L0.974727184,0.923076923 C0.959123504,0.923076923 0.945489423,0.931425925 0.938133777,0.943857938 L0.932347741,0.965034965 L0.931415393,7.18523077 L1.44986575,4.7908041 C1.53814433,4.38293379 1.87923063,4.08183488 2.28949027,4.03448416 L2.40295634,4.02797203 L9.15379012,4.02738462 L9.15395964,2.97902098 C9.15395964,2.96357245 9.14552679,2.95007394 9.13296991,2.94279144 L9.1115802,2.93706294 L5.80598366,2.93706294 C5.57712969,2.93706294 5.38679231,2.77379356 5.34732048,2.5584866 L5.33980979,2.47552448 L5.33980979,0.965034965 C5.33980979,0.949586441 5.33137694,0.93608793 5.31882006,0.928805426 L5.29743035,0.923076923 Z" id="形状"></path>
                </g>
            </g>
        </g>
    </g>
</svg>